<svg id="Layer_1" enable-background="new 0 0 256 256" height="512" viewBox="0 0 256 256" width="512" xmlns="http://www.w3.org/2000/svg"><g><path d="m176.763 253v-48.812c0-16.569-13.431-30-30-30h-99.726c-16.569 0-30 13.431-30 30v48.812z" fill="#4671c6"/><path d="m96.9 174.188h-39.294l39.294 78.812 39.295-78.812z" fill="#e0ebfc"/><path d="m104.276 205.713h-7.376-7.376l-5.08 22.304 12.456 24.983 12.456-24.983z" fill="#f9a7a7"/><path d="m72.875 204.814 24.025-25.022-27.737-19.63-11.557 14.026z" fill="#e0ebfc"/><path d="m120.925 204.814-24.025-25.022 27.737-19.63 11.558 14.026z" fill="#e0ebfc"/><path d="m69.163 136.008v13.917 10.237l27.737 19.63h.001l27.682-19.592v-24.192z" fill="#f9cfcf"/><path d="m96.9 179.792-11.437 11.912 4.062 14.008h14.751l4.062-14.008z" fill="#f9a7a7"/><path d="m153.436 84.841v-5.294c0-30.942-25.312-56.026-56.535-56.026-31.224 0-56.535 25.084-56.535 56.026v5.294c-9.817-.199-17.605 7.621-17.605 17.075 0 10.094 8.812 18.079 19.099 16.991 5.835 24.788 28.256 43.255 55.042 43.255 26.788 0 49.208-18.469 55.042-43.255 10.272 1.086 19.099-6.883 19.099-16.991-.002-9.458-7.796-17.274-17.607-17.075z" fill="#f9cfcf"/><g><path d="m96.894 137.152c-2.28 0-4.267-.267-6.073-.817-2.998-.912-5.626-2.445-7.599-4.434-.778-.784-.772-2.051.012-2.829.784-.777 2.052-.772 2.828.011 1.508 1.52 3.556 2.704 5.923 3.424 1.424.434 3.029.644 4.909.644 1.879 0 3.484-.21 4.908-.644 2.367-.72 4.415-1.904 5.923-3.424.775-.784 2.043-.79 2.828-.011.784.778.79 2.044.012 2.829-1.973 1.988-4.6 3.521-7.599 4.434-1.807.55-3.793.817-6.072.817z" fill="#3762cc"/></g><path d="m126.251 113.558c-3.946 0-7.146-3.199-7.146-7.146v-7.622c0-3.946 3.199-7.146 7.146-7.146 3.946 0 7.146 3.199 7.146 7.146v7.622c0 3.947-3.199 7.146-7.146 7.146z" fill="#3762cc"/><path d="m67.535 113.558c-3.946 0-7.146-3.199-7.146-7.146v-7.622c0-3.946 3.199-7.146 7.146-7.146 3.946 0 7.146 3.199 7.146 7.146v7.622c-.001 3.947-3.2 7.146-7.146 7.146z" fill="#3762cc"/><g fill="#4671c6"><g><path d="m163.279 34.876h-32.266c13.606 10.22 22.403 26.398 22.42 44.617v5.348 10.534c0 1.105.895 2 2 2h2.774l.375-.418c2.373-2.647 3.917-5.955 4.299-9.489.002-.019.004-.038.006-.058.004.003.009.005.013.008.503-4.767.379-4.493.379-52.542z"/><path d="m30.899 87.417c.004-.002.008-.004.012-.007.377 3.506 1.847 6.804 4.201 9.43l.479.535h2.774c1.105 0 2-.895 2-2v-15.828c0-18.242 8.802-34.442 22.422-44.672h-32.266c0 47.194-.13 47.747.378 52.542z"/></g><path d="m108.844 69.696h-54.7c-15.974 0-28.923-12.949-28.923-28.923v-35.773h91.09c5.49 0 9.94 4.45 9.94 9.94v37.348c0 9.614-7.793 17.408-17.407 17.408z"/><path d="m143.659 69.696h19.621v-37.608c0-14.96-12.128-27.088-27.088-27.088-5.49 0-9.94 4.45-9.94 9.94v37.348c-.001 9.614 7.793 17.408 17.407 17.408z"/></g><path d="m202.08 141.891h18.94c1.652 0 2.99-1.339 2.99-2.99v-83.734c0-1.652-1.339-2.99-2.99-2.99h-18.94c-1.652 0-2.99 1.339-2.99 2.99v83.734c0 1.651 1.339 2.99 2.99 2.99z" fill="#e0ebfc"/><path d="m188.125 212.001h46.851c2.202 0 3.987-1.785 3.987-3.987v-128.923c0-4.955-4.017-8.971-8.971-8.971h-36.883c-4.955 0-8.971 4.017-8.971 8.971v128.923c-.001 2.202 1.784 3.987 3.987 3.987z" fill="#e0ebfc"/><path d="m230.794 175.451v-94.366c0-1.652-1.339-2.99-2.99-2.99h-32.508c-1.652 0-2.99 1.339-2.99 2.99v94.366z" fill="#a4c9ff"/><path d="m204.074 181.782h14.952v63.742h-14.952z" fill="#6bdddd"/><path d="m234.976 253h-46.851c-2.202 0-3.987-1.785-3.987-3.987v-6.978c0-2.202 1.785-3.987 3.987-3.987h46.851c2.202 0 3.987 1.785 3.987 3.987v6.978c0 2.201-1.785 3.987-3.987 3.987z" fill="#4671c6"/><path d="m230.794 187.081v-11.63h-38.489v11.63c0 1.101.893 1.994 1.994 1.994h34.502c1.101-.001 1.993-.893 1.993-1.994z" fill="#4671c6"/><path d="m229.991 68.119h-3.98v-12.952c0-2.752-2.239-4.991-4.991-4.991h-7.47v-47.176c0-1.104-.896-2-2-2s-2 .896-2 2v47.176h-7.47c-2.752 0-4.99 2.239-4.99 4.991v12.952h-3.981c-6.049 0-10.971 4.922-10.971 10.972v128.923c0 3.301 2.686 5.987 5.987 5.987h13.949v22.045h-13.949c-3.302 0-5.987 2.686-5.987 5.987v6.978c0 3.301 2.686 5.987 5.987 5.987h46.851c3.302 0 5.987-2.686 5.987-5.987v-6.978c0-3.301-2.686-5.987-5.987-5.987h-13.949v-22.045h13.949c3.302 0 5.987-2.686 5.987-5.987v-128.923c0-6.05-4.922-10.972-10.972-10.972zm-13.457 90.724h12.261v14.607h-34.489v-92.365c0-.546.444-.991.99-.991h32.508c.547 0 .991.444.991.991v13.949h-12.261c-1.104 0-2 .896-2 2s.896 2 2 2h12.261v15.937h-12.261c-1.104 0-2 .896-2 2s.896 2 2 2h12.261v15.937h-12.261c-1.104 0-2 .896-2 2s.896 2 2 2h12.261v15.937h-12.261c-1.104 0-2 .896-2 2s.896 1.998 2 1.998zm.492 51.159h-10.952v-18.927h10.952zm2.018-22.926c-.006 0-.012-.002-.018-.002h-14.952c-.016 0-.03.004-.045.005l-9.723.002v-9.63h34.489v9.624zm13.751-72.106v-15.936h4.168v15.937h-4.168zm4.168 4v15.937h-4.168v-15.937zm-4.168 19.937h4.168v15.937h-4.168zm-31.705-83.74c0-.546.444-.991.99-.991h18.939c.547 0 .991.444.991.991v12.952h-20.92zm-12.965 154.835c-1.096 0-1.987-.892-1.987-1.987v-128.924c0-3.844 3.127-6.972 6.971-6.972h5.981 24.921 5.98c3.844 0 6.972 3.127 6.972 6.972v15.943h-4.168v-13.949c0-2.752-2.239-4.991-4.991-4.991h-32.508c-2.752 0-4.99 2.239-4.99 4.991v105.996c0 2.202 1.792 3.994 3.994 3.994h7.774v18.927zm48.838 32.032v6.978c0 1.096-.892 1.987-1.987 1.987h-46.851c-1.096 0-1.987-.892-1.987-1.987v-6.978c0-1.096.892-1.987 1.987-1.987h15.949 14.952 15.949c1.096 0 1.988.892 1.988 1.987zm-19.937-5.987h-10.952v-22.045h10.952zm17.949-26.045h-13.949v-18.927h7.774c2.202 0 3.994-1.792 3.994-3.994 0-9.746 0-6.523 0-28.237h4.168v49.171c.001 1.095-.891 1.987-1.987 1.987z" fill="#3762cc"/><path d="m146.763 172.188h-9.624l-10.555-12.809v-3.159c-.001.001-.002.001-.003.002 12.992-7.543 22.85-19.98 26.9-35.22 4.87.078 9.618-1.681 13.245-4.944 4.014-3.612 6.316-8.767 6.316-14.142 0-6.208-2.979-11.912-8.029-15.497.362-3.878.272-7.335.267-48.038v-6.293c-.001-16.039-13.049-29.088-29.088-29.088-4.144 0-7.798 2.124-9.94 5.338-2.143-3.214-5.797-5.338-9.941-5.338h-91.09c-1.104 0-2 .896-2 2v35.773c0 6.395 1.952 12.343 5.29 17.28v.116c-.015 21.901-.017 25.04.277 28.25-5.051 3.585-8.029 9.289-8.029 15.498 0 5.375 2.303 10.53 6.318 14.144 3.552 3.196 8.179 4.945 12.942 4.944.101 0 .201 0 .301-.002 4.044 15.218 13.879 27.641 26.843 35.188v3.254l-10.502 12.744h-9.624c-17.645 0-32 14.355-32 32v48.811c0 1.104.896 2 2 2h159.726c1.104 0 2-.896 2-2v-48.812c0-17.645-14.356-32-32-32zm-36.699 49.928-3.723-16.343 2.954-10.184 9.212 9.594zm-13.163-57.954c9.168 0 17.896-2.072 25.683-5.819v.823l-25.684 18.176-18.492-13.087-7.244-5.127v-.81c7.8 3.764 16.547 5.844 25.737 5.844zm5.873 39.551h-11.746l-3.322-11.456 9.195-9.577 9.195 9.577zm17.628-2.332-2.057-2.143-18.392-19.156 24.323-17.214 9.55 11.589zm-50.877-38.512 24.324 17.214-20.45 21.298-13.424-26.924zm14.982 32.719 2.953 10.185-3.722 16.343-8.443-16.934zm12.394 52.929-10.348-20.754 4.567-20.051h11.56l4.568 20.05zm57.996-176.821h6.396c-.01 13.034-.109 12.683-.398 15.557-.321 2.968-1.558 5.77-3.583 8.122h-1.877c-.001-12.765.242-17.989-.538-23.679zm-18.705-64.696c13.834 0 25.088 11.254 25.088 25.088v6.293 29.314c-6.335 0-11.123 0-17.62 0-8.496 0-15.408-6.912-15.408-15.408v-37.347c-.001-4.378 3.562-7.94 7.94-7.94zm-108.971 0h89.09c4.378 0 7.94 3.562 7.94 7.94v37.348c0 8.496-6.912 15.408-15.407 15.408h-54.7c-2.639 0-5.283-.397-7.758-1.144-3.082-.929-5.895-2.382-8.334-4.207-2.114-1.581-4.03-3.494-5.677-5.758-3.237-4.444-5.153-9.908-5.153-15.814v-33.773zm11.143 72.548v15.827h-1.879c-3.29-3.754-3.4-7.394-3.622-8.394-.344-3.296-.367-4.74-.355-24.125 1.917 1.878 4.415 3.769 7.026 5.172-.777 3.824-1.17 7.882-1.17 11.52zm5.441 38.901c-.215-.911-1.028-1.542-1.945-1.542-.07 0-.142.003-.212.011-4.345.457-8.678-.938-11.895-3.832-3.174-2.856-4.994-6.927-4.994-11.17 0-4.234 1.76-8.175 4.815-10.997.923 3.162 2.443 5.467 4.527 7.791.861.958 2.03.665 4.263.665 2.206 0 4-1.794 4-4v-15.827c0-3.004.291-6.403.928-9.814 3.531 1.329 7.321 1.962 10.851 1.962h54.7c2.437 0 4.959-.484 7.293-1.435 3.68-1.498 6.783-4.108 8.846-7.214.477-.713 1.035-1.711 1.268-2.182.232.469.794 1.473 1.269 2.184.021.032.04.066.062.098 1.235 1.823 2.96 3.636 5.026 5.074 3.255 2.265 7.101 3.474 11.052 3.474h7.186c.824 5.562.585 9.663.589 23.679 0 2.206 1.794 4 4 4 2.236 0 3.405.293 4.263-.665.838-.932 1.515-1.739 2.235-2.848 1.03-1.583 1.807-3.315 2.288-4.947 3.06 2.822 4.821 6.764 4.821 11.001 0 4.243-1.819 8.314-4.992 11.168-3.218 2.896-7.55 4.292-11.896 3.834-.996-.11-1.926.55-2.157 1.531-5.78 24.56-27.614 41.713-53.095 41.713s-47.315-17.152-53.096-41.712zm-24.768 85.739c0-15.439 12.561-28 28-28h9.33l14.717 29.519 22.584 45.293h-74.631zm155.726 46.812h-74.63l11.014-22.09c0-.001 0-.001.001-.002l11.568-23.201 14.717-29.519h9.33c15.439 0 28 12.561 28 28z" fill="#3762cc"/></g></svg>