<svg id="Layer_1" enable-background="new 0 0 256 256" height="512" viewBox="0 0 256 256" width="512" xmlns="http://www.w3.org/2000/svg"><g><ellipse cx="76.378" cy="185.758" fill="#f9cfcf" rx="22.5" ry="24.111"/><path d="m104.781 253h-56.805v-14.728c0-15.686 12.716-28.402 28.402-28.402 15.686 0 28.402 12.716 28.402 28.402v14.728z" fill="#f9a7a7"/><ellipse cx="179.597" cy="185.758" fill="#f9cfcf" rx="22.5" ry="24.111"/><path d="m207.999 253h-56.805v-14.728c0-15.686 12.716-28.402 28.402-28.402 15.686 0 28.402 12.716 28.402 28.402v14.728z" fill="#f9a7a7"/><ellipse cx="127.998" cy="168.36" fill="#f9cfcf" rx="28" ry="30.35"/><path d="m163.749 253h-71.503v-18.539c0-19.745 16.006-35.751 35.751-35.751 19.745 0 35.751 16.006 35.751 35.751v18.539z" fill="#f9a7a7"/><path d="m189.62 209.575c8.524-4.091 14.477-13.224 14.477-23.817 0-14.397-10.99-26.11-24.5-26.11-9.793 0-18.258 6.157-22.177 15.027.377-2.043.578-4.154.578-6.315 0-17.838-13.458-32.35-30-32.35s-30 14.512-30 32.35c0 2.189.205 4.326.591 6.395-3.904-8.913-12.389-15.106-22.21-15.106-13.509 0-24.5 11.713-24.5 26.11 0 10.593 5.953 19.726 14.477 23.817-11.853 4.152-20.379 15.444-20.379 28.697v14.727c0 1.104.896 2 2 2h44.271 71.502 44.25c1.104 0 2-.896 2-2v-14.729c-.001-13.252-8.528-24.544-20.38-28.696zm-10.023-45.928c11.304 0 20.5 9.919 20.5 22.11 0 12.192-9.196 22.111-20.5 22.111s-20.5-9.919-20.5-22.111c0-12.191 9.196-22.11 20.5-22.11zm-10.042 45.919c-3.372 1.178-6.52 2.958-9.317 5.276-4.75-7.777-12.232-13.71-21.103-16.455 7.275-3.149 13.148-9.282 16.309-16.992-.225 1.42-.349 2.875-.349 4.362.002 10.586 5.946 19.713 14.46 23.809zm-41.557-69.556c14.336 0 26 12.718 26 28.35s-11.664 28.35-26 28.35-26-12.718-26-28.35 11.663-28.35 26-28.35zm-27.482 41.304c3.153 7.748 9.042 13.913 16.343 17.074-8.875 2.746-16.36 8.683-21.109 16.465-2.8-2.323-5.953-4.107-9.33-5.287 8.514-4.096 14.458-13.223 14.458-23.808 0-1.516-.128-2.999-.362-4.444zm-44.638 4.444c0-12.191 9.196-22.11 20.5-22.11s20.5 9.919 20.5 22.11c0 12.192-9.196 22.111-20.5 22.111s-20.5-9.919-20.5-22.111zm34.369 48.703v16.539h-40.271v-12.729c0-14.559 11.844-26.402 26.402-26.402 6.473 0 12.608 2.326 17.433 6.579-2.222 4.721-3.564 10.334-3.564 16.013zm71.502 16.539h-67.502v-16.539c0-5.056 1.132-10.237 3.596-15.131 5.558-11.031 16.984-18.621 30.155-18.621 13.172 0 24.597 7.589 30.155 18.62 2.373 4.715 3.596 9.868 3.596 15.132zm44.25 0h-40.25v-16.539c0-5.603-1.292-11.165-3.571-16.024 4.823-4.245 10.955-6.567 17.419-6.567 14.559 0 26.402 11.844 26.402 26.402z" fill="#3762cc"/><g fill="#e0ebfc"><path d="m201.291 3h-146.582c-5.21 0-9.434 4.224-9.434 9.434v106.207c0 5.21 4.224 9.434 9.434 9.434h61.877l9.345 14.891c.812 1.294 2.691 1.313 3.529.035l9.792-14.926h62.04c5.21 0 9.434-4.224 9.434-9.434v-106.207c-.001-5.21-4.224-9.434-9.435-9.434z"/><path d="m129.917 68.219-7.73-7.73c-.674-.674-1.767-.674-2.441 0l-34.177 34.176c-.674.674-.674 1.767 0 2.441l7.73 7.73c.674.674 1.767.674 2.441 0l34.177-34.177c.675-.673.675-1.766 0-2.44z"/><path d="m164.23 45.299-19.123-19.123c-.899-.899-2.356-.899-3.255 0l-52.621 52.621c-2.022 2.022-2.022 5.301 0 7.324l15.054 15.054c2.022 2.022 5.301 2.022 7.324 0l52.621-52.621c.898-.899.898-2.357 0-3.255z"/></g><path d="m130.984 45.283-34.665 34.665c-.607.607-.607 1.59 0 2.197l11.942 11.942c.607.607 1.59.607 2.197 0l34.665-34.665z" fill="#a4c9ff"/><path d="m151.027 16.667h8.631v36.793h-8.631z" fill="#6bdddd" transform="matrix(-.707 -.707 .707 -.707 240.392 169.7)"/><path d="m161.841 9.442 19.123 19.123c.899.899.899 2.356 0 3.255l-2.848 2.848c-.899.899-2.356.899-3.255 0l-19.123-19.123c-.899-.899-.899-2.356 0-3.255l2.848-2.848c.899-.899 2.356-.899 3.255 0z" fill="#4671c6"/><path d="m135.256 41.011-4.272 4.272 14.139 14.139 4.272-4.272c.404-.404.404-1.06 0-1.465l-12.674-12.674c-.405-.404-1.061-.404-1.465 0z" fill="#4671c6"/><g fill="#3762cc"><path d="m201.291 1h-146.583c-6.305 0-11.434 5.129-11.434 11.434v106.207c0 6.305 5.129 11.435 11.434 11.435h60.771l8.757 13.954c.745 1.188 2.027 1.905 3.43 1.919h.041c1.386 0 2.664-.69 3.423-1.851l9.2-14.022h60.96c6.305 0 11.435-5.13 11.435-11.435v-106.207c.001-6.305-5.129-11.434-11.434-11.434zm7.435 117.641c0 4.1-3.335 7.435-7.435 7.435h-62.04c-.674 0-1.303.34-1.672.903l-9.792 14.926c-.002.002-.134-.002-.158-.002-.002 0-.004 0-.004 0l-9.345-14.891c-.366-.583-1.005-.937-1.694-.937h-61.878c-4.099 0-7.434-3.335-7.434-7.435v-106.206c0-4.099 3.335-7.434 7.434-7.434h146.583c4.1 0 7.435 3.335 7.435 7.434z"/><path d="m163.256 8.029c-.813-.813-1.893-1.262-3.043-1.262-1.149 0-2.229.448-3.041 1.261l-2.848 2.848c-.813.813-1.261 1.893-1.261 3.042s.448 2.229 1.261 3.041l5.096 5.096-7.803 7.803-5.097-5.097c-1.676-1.676-4.406-1.677-6.082.001l-20.885 20.884s-.001.001-.002.001-.001.001-.001.001l-16.272 16.272s-.001 0-.001.001 0 0-.001.001l-15.46 15.46c-1.356 1.355-2.103 3.158-2.103 5.076s.747 3.721 2.103 5.075l1.027 1.027-4.688 4.688c-.704.704-1.092 1.64-1.092 2.635 0 .996.388 1.932 1.092 2.635l2.452 2.452-13.659 13.658c-.781.781-.781 2.047 0 2.828.781.782 2.047.781 2.828 0l13.659-13.658 2.45 2.45c.704.705 1.64 1.093 2.635 1.093.996 0 1.932-.388 2.635-1.092l4.689-4.688 1.027 1.027c1.356 1.356 3.159 2.103 5.076 2.103s3.72-.746 5.076-2.103l52.621-52.621c.813-.813 1.261-1.893 1.261-3.042 0-1.148-.448-2.229-1.261-3.041l-5.096-5.096 7.803-7.803 5.096 5.096c.839.839 1.94 1.258 3.042 1.258 1.101 0 2.202-.419 3.041-1.258l2.849-2.849c1.677-1.676 1.677-4.404 0-6.083zm-8.364 30.76-8.782 8.782-3.275-3.275 8.783-8.782zm-7.593 15.628-2.177 2.177-11.311-11.311 2.177-2.177 2.599 2.599c.002.001.003.004.004.005l6.104 6.103zm-52.778 48.811-7.343-7.343 4.495-4.495c4.82 4.821 3.605 3.605 7.343 7.344zm68.294-56.515s0 .001 0 0c.073.073.089.156.089.213s-.016.141-.089.214l-52.621 52.621c-1.202 1.201-3.295 1.2-4.495 0l-15.054-15.056c-.601-.6-.931-1.397-.931-2.246 0-.85.331-1.647.931-2.248l5.909-5.909 7.74 7.74c.78.781 2.048.781 2.828 0 .781-.781.781-2.047 0-2.828l-7.74-7.74 5.309-5.309 7.74 7.74c.78.781 2.048.781 2.828 0 .781-.781.781-2.047 0-2.828l-7.74-7.74 5.309-5.309 7.74 7.74c.78.781 2.048.781 2.828 0 .781-.781.781-2.047 0-2.828l-7.74-7.74 5.309-5.31 7.741 7.74c.781.781 2.047.781 2.828 0s.781-2.047 0-2.828l-7.741-7.74 19.472-19.472c.059-.059.136-.088.213-.088.078 0 .155.029.214.088l5.096 5.096-8.783 8.783-1.872-1.872c-1.184-1.184-3.109-1.184-4.293 0l-4.272 4.272c-.781.781-.781 2.047 0 2.828l14.139 14.139c.781.781 2.047.781 2.828 0l4.272-4.272c1.183-1.182 1.184-3.107 0-4.293l-1.871-1.871 8.782-8.782zm-5.095-10.752-3.275-3.275 7.803-7.803 1.637 1.637 1.637 1.638zm21.83-5.556-2.849 2.849c-.116.116-.309.117-.427 0-7.022-7.022-14.147-14.148-19.123-19.124-.072-.072-.088-.155-.088-.212s.016-.141.089-.214l2.849-2.849c.072-.072.155-.088.212-.088.058 0 .141.016.213.088 0 .001.001.001.001.001l19.122 19.121c.118.119.118.311.001.428z"/></g><circle cx="153.356" cy="86.965" fill="#f9a7a7" r="24.705"/><circle cx="153.356" cy="86.965" fill="#4671c6" r="18.776"/><path d="m157.638 86.965 6.539-6.539c1.042-1.042 1.042-2.731 0-3.772-1.042-1.042-2.731-1.042-3.773 0l-6.539 6.539-6.539-6.539c-1.042-1.042-2.731-1.042-3.773 0s-1.042 2.731 0 3.772l6.539 6.539-6.539 6.539c-1.042 1.042-1.042 2.731 0 3.772.521.521 1.204.782 1.886.782s1.365-.261 1.886-.782l6.539-6.539 6.539 6.539c.521.521 1.204.782 1.886.782.683 0 1.365-.261 1.886-.782 1.042-1.042 1.042-2.731 0-3.772z" fill="#f9a7a7"/><g><path d="m153.356 113.67c-14.726 0-26.706-11.979-26.706-26.705s11.98-26.705 26.706-26.705 26.705 11.979 26.705 26.705-11.979 26.705-26.705 26.705zm0-49.41c-12.52 0-22.706 10.186-22.706 22.705s10.187 22.705 22.706 22.705 22.705-10.186 22.705-22.705-10.185-22.705-22.705-22.705z" fill="#3762cc"/></g></g></svg>