<svg id="Layer_1" enable-background="new 0 0 256 256" height="512" viewBox="0 0 256 256" width="512" xmlns="http://www.w3.org/2000/svg"><g><path d="m191.65 249.114h-127.3c-3.398 0-6.152-2.755-6.152-6.152v-25.422c0-22.614 18.333-40.947 40.947-40.947h57.712c22.614 0 40.947 18.333 40.947 40.947v25.422c-.001 3.398-2.756 6.152-6.154 6.152z" fill="#f9a7a7"/><path d="m115.329 233.524h25.342c19.767 0 35.791-12.627 35.791-28.203 0-7.211 0-15.456 0-23.735-5.823-3.182-12.503-4.993-19.606-4.993h-57.712c-7.103 0-13.783 1.811-19.606 4.993v23.735c0 15.576 16.024 28.203 35.791 28.203z" fill="#e0ebfc"/><path d="m128 200.556c-13.606 0-24.637-11.03-24.637-24.637v-11.845h49.273v11.845c.001 13.607-11.03 24.637-24.636 24.637z" fill="#f9cfcf"/><g fill="#3762cc"><path d="m128 202.556c13.357 0 24.446-9.882 26.347-22.719-1.455.599-2.932 1.155-4.434 1.655-2.492 9.791-11.357 17.064-21.912 17.064-10.556 0-19.421-7.273-21.912-17.064-1.502-.5-2.979-1.055-4.434-1.655 1.899 12.836 12.988 22.719 26.345 22.719z"/><path d="m163.661 175.138c-2.248 1.361-4.581 2.592-6.987 3.689 6.286.557 12.343 2.149 17.787 4.716v21.778c0 14.448-15.158 26.203-33.791 26.203h-25.343c-18.632 0-33.791-11.754-33.791-26.203v-21.778c5.444-2.567 11.501-4.159 17.788-4.716-2.406-1.098-4.738-2.329-6.987-3.689-20.458 3.271-36.142 21.037-36.142 42.402v25.422c0 4.495 3.657 8.152 8.152 8.152h127.303c4.495 0 8.152-3.657 8.152-8.152v-25.422c.001-21.365-15.683-39.13-36.141-42.402zm32.142 67.824c0 2.29-1.863 4.152-4.152 4.152h-127.301c-2.29 0-4.152-1.863-4.152-4.152v-25.422c0-13.487 6.894-25.393 17.341-32.385v20.166c0 16.654 16.953 30.203 37.791 30.203h25.343c20.838 0 37.791-13.549 37.791-30.203v-20.166c10.447 6.993 17.341 18.898 17.341 32.385v25.422z"/></g><path d="m194.231 92.449v-6.202c0-36.249-29.653-65.635-66.231-65.635-36.579 0-66.231 29.386-66.231 65.635v6.202c-11.501-.233-20.625 8.928-20.625 20.003 0 11.826 10.324 21.179 22.374 19.905 6.835 29.039 33.102 50.673 64.482 50.673 31.382 0 57.647-21.637 64.482-50.673 12.034 1.273 22.374-8.064 22.374-19.905 0-11.08-9.131-20.236-20.625-20.003z" fill="#f9cfcf"/><circle cx="128" cy="148.136" fill="#f9a7a7" r="19.233"/><path d="m116.467 7.176c6.017 1.612 14.288 3.333 23.519 10.654l15.022 11.914 18.967-2.807c11.571-1.712 19.517.877 25.695 2.533 4.52 1.211 7.202 5.857 5.991 10.377l-7.553 28.189c-1.211 4.52-5.857 7.202-10.377 5.991-17.546-4.701-17.676-6.02-38.541-22.569-26.649 3.944-27.28 4.932-44.662.274-4.52-1.211-7.202-5.857-5.991-10.377l7.553-28.189c1.211-4.519 5.857-7.201 10.377-5.99z" fill="#f9a7a7"/><path d="m143.15 56.721 8.639 2.315c2.863.767 5.805-.932 6.572-3.794l6.481-24.188c.767-2.863-.932-5.805-3.794-6.572l-8.639-2.315c-2.863-.767-5.805.932-6.572 3.794l-6.481 24.188c-.767 2.863.932 5.805 3.794 6.572z" fill="#e0ebfc"/><g fill="#3762cc"><path d="m174.827 103.901h-3.799c-1.565-3.198-4.842-5.406-8.642-5.406-5.317 0-9.627 4.31-9.627 9.627v10.269c0 5.317 4.31 9.627 9.627 9.627s9.627-4.31 9.627-9.627v-10.269c0-.074-.009-.146-.011-.22h2.826c1.104 0 2-.896 2-2s-.897-2.001-2.001-2.001z"/><path d="m93.599 98.494c-3.801 0-7.077 2.208-8.642 5.406h-3.799c-1.104 0-2 .896-2 2s.896 2 2 2h2.826c-.002.074-.011.146-.011.22v10.269c0 5.317 4.31 9.627 9.627 9.627 5.317 0 9.627-4.31 9.627-9.627v-10.269c-.002-5.316-4.312-9.626-9.628-9.626z"/><g><path d="m128 126.903c-11.708 0-21.232 9.525-21.232 21.232s9.525 21.232 21.232 21.232 21.232-9.525 21.232-21.232-9.524-21.232-21.232-21.232zm0 38.465c-9.502 0-17.232-7.73-17.232-17.232s7.73-17.232 17.232-17.232 17.232 7.73 17.232 17.232-7.73 17.232-17.232 17.232z"/><path d="m210.253 96.779c-3.807-3.73-8.725-5.92-14.022-6.282v-4.25c0-3.786-.348-7.61-.998-11.393 2.284-1.346 4.068-3.544 4.807-6.301l7.553-28.189c1.498-5.591-1.813-11.329-7.405-12.826-6.427-1.748-14.746-4.32-26.506-2.58l-7.592 1.124c-.018-.033-.033-.068-.052-.101-.983-1.704-2.572-2.922-4.473-3.432l-8.638-2.315c-1.901-.51-3.886-.248-5.589.735-.033.019-.063.042-.096.062l-6.013-4.769c-9.311-7.385-17.685-9.291-24.244-11.02-5.577-1.495-11.332 1.828-12.826 7.405l-3.069 11.453c-25.133 10.699-41.321 34.977-41.321 62.148v4.25c-5.297.361-10.215 2.551-14.021 6.28-4.258 4.173-6.604 9.739-6.604 15.674 0 6.2 2.657 12.146 7.289 16.314 4.25 3.824 9.832 5.863 15.548 5.696 7.81 29.861 34.716 50.568 66.02 50.568s58.21-20.707 66.02-50.568c5.711.167 11.299-1.873 15.55-5.698 4.631-4.167 7.287-10.112 7.287-16.312-.002-5.934-2.347-11.5-6.605-15.673zm-43.239-66.766c0-.008.002-.016.002-.024l7.251-1.073c10.89-1.611 18.376.718 24.885 2.486 3.456.927 5.503 4.472 4.577 7.928l-7.553 28.189c-.554 2.066-2.057 3.624-3.911 4.348-1.651.644-2.745.998-12.332-2.19-2.764-.919-5.157-1.895-7.665-3.303-2.312-1.297-4.521-2.858-6.631-4.445-1.837-1.382-4.104-3.175-5.943-4.643.156-.295.462-1.012.6-1.526 6.771-25.276 6.654-24.421 6.72-25.747zm-15.122-5.915 8.638 2.315c.869.233 1.594.79 2.044 1.568.433.75.558 1.725.336 2.554l-6.481 24.188c-.469 1.752-2.317 2.864-4.123 2.38-8.305-2.225-9.07-2.18-10.07-3.131-.918-.871-1.251-2.174-.948-3.306l6.481-24.187c.224-.837.864-1.638 1.568-2.044.779-.45 1.686-.57 2.555-.337zm-43.871-10.414c.774-2.889 3.396-4.798 6.254-4.798 1.266 0 14.07 2.265 24.468 10.511l5.743 4.555c-.004.007-.006.014-.01.021-.569 1.108-.15-.101-7.052 25.659-.139.521-.219 1.115-.24 1.585 0 .01-.002.02-.003.031-10.432 1.567-15.25 2.17-22.312.889-3.615-.655-9.77-2.28-10.451-2.539-.011-.004-.022-.01-.033-.014-2.632-1.016-4.286-3.633-4.127-6.406 0-.004 0-.008 0-.012.06-1.005-.012-.464 4.444-17.092 0-.001 0-.002 0-.002zm98.873 112.107c-3.842 3.457-9.018 5.123-14.202 4.578-1.005-.105-1.926.55-2.157 1.531-6.809 28.928-32.524 49.131-62.535 49.131-30.01 0-55.726-20.204-62.535-49.132-.214-.911-1.027-1.542-1.945-1.542-.07 0-.141.003-.212.011-5.182.545-10.359-1.12-14.2-4.576-3.79-3.411-5.964-8.273-5.964-13.34 0-4.851 1.919-9.403 5.403-12.817 3.516-3.446 8.193-5.284 13.181-5.187.534.023 1.056-.194 1.44-.571.384-.376.6-.891.6-1.429v-6.201c0-24.499 13.993-46.509 35.984-57.158l-3.148 11.748c-1.498 5.591 1.813 11.329 7.405 12.826 3.124.837 6.763 1.777 9.922 2.366 7.914 1.47 13.145.782 24.191-.88 1.017 1.805 2.646 3.004 4.509 3.503 9.007 2.413 8.727 2.374 9.486 2.483 1.709.25 3.449-.15 4.801-.947 12.735 10.164 15.409 11.781 30.293 15.769 1.367.366 2.939.435 4.209.247.537 3.339.809 6.708.809 10.042v6.201c0 1.057.84 2.008 2.041 2 4.97-.096 9.665 1.742 13.182 5.188 3.484 3.414 5.402 7.965 5.402 12.816.002 5.069-2.171 9.93-5.96 13.34z"/></g><g><path d="m128 126.903c-11.708 0-21.232 9.525-21.232 21.232s9.525 21.232 21.232 21.232 21.232-9.525 21.232-21.232-9.524-21.232-21.232-21.232zm0 38.465c-9.502 0-17.232-7.73-17.232-17.232s7.73-17.232 17.232-17.232 17.232 7.73 17.232 17.232-7.73 17.232-17.232 17.232z"/><path d="m210.253 96.779c-3.807-3.73-8.725-5.92-14.022-6.282v-4.25c0-3.786-.348-7.61-.998-11.393 2.284-1.346 4.068-3.544 4.807-6.301l7.553-28.189c1.498-5.591-1.813-11.329-7.405-12.826-6.427-1.748-14.746-4.32-26.506-2.58l-7.592 1.124c-.018-.033-.033-.068-.052-.101-.983-1.704-2.572-2.922-4.473-3.432l-8.638-2.315c-1.901-.51-3.886-.248-5.589.735-.033.019-.063.042-.096.062l-6.013-4.769c-9.311-7.385-17.685-9.291-24.244-11.02-5.577-1.495-11.332 1.828-12.826 7.405l-3.069 11.453c-25.133 10.699-41.321 34.977-41.321 62.148v4.25c-5.297.361-10.215 2.551-14.021 6.28-4.258 4.173-6.604 9.739-6.604 15.674 0 6.2 2.657 12.146 7.289 16.314 4.25 3.824 9.832 5.863 15.548 5.696 7.81 29.861 34.716 50.568 66.02 50.568s58.21-20.707 66.02-50.568c5.711.167 11.299-1.873 15.55-5.698 4.631-4.167 7.287-10.112 7.287-16.312-.002-5.934-2.347-11.5-6.605-15.673zm-43.239-66.766c0-.008.002-.016.002-.024l7.251-1.073c10.89-1.611 18.376.718 24.885 2.486 3.456.927 5.503 4.472 4.577 7.928l-7.553 28.189c-.554 2.066-2.057 3.624-3.911 4.348-1.651.644-2.745.998-12.332-2.19-2.764-.919-5.157-1.895-7.665-3.303-2.312-1.297-4.521-2.858-6.631-4.445-1.837-1.382-4.104-3.175-5.943-4.643.156-.295.462-1.012.6-1.526 6.771-25.276 6.654-24.421 6.72-25.747zm-15.122-5.915 8.638 2.315c.869.233 1.594.79 2.044 1.568.433.75.558 1.725.336 2.554l-6.481 24.188c-.469 1.752-2.317 2.864-4.123 2.38-8.305-2.225-9.07-2.18-10.07-3.131-.918-.871-1.251-2.174-.948-3.306l6.481-24.187c.224-.837.864-1.638 1.568-2.044.779-.45 1.686-.57 2.555-.337zm-43.871-10.414c.774-2.889 3.396-4.798 6.254-4.798 1.266 0 14.07 2.265 24.468 10.511l5.743 4.555c-.004.007-.006.014-.01.021-.569 1.108-.15-.101-7.052 25.659-.139.521-.219 1.115-.24 1.585 0 .01-.002.02-.003.031-10.432 1.567-15.25 2.17-22.312.889-3.615-.655-9.77-2.28-10.451-2.539-.011-.004-.022-.01-.033-.014-2.632-1.016-4.286-3.633-4.127-6.406 0-.004 0-.008 0-.012.06-1.005-.012-.464 4.444-17.092 0-.001 0-.002 0-.002zm98.873 112.107c-3.842 3.457-9.018 5.123-14.202 4.578-1.005-.105-1.926.55-2.157 1.531-6.809 28.928-32.524 49.131-62.535 49.131-30.01 0-55.726-20.204-62.535-49.132-.214-.911-1.027-1.542-1.945-1.542-.07 0-.141.003-.212.011-5.182.545-10.359-1.12-14.2-4.576-3.79-3.411-5.964-8.273-5.964-13.34 0-4.851 1.919-9.403 5.403-12.817 3.516-3.446 8.193-5.284 13.181-5.187.534.023 1.056-.194 1.44-.571.384-.376.6-.891.6-1.429v-6.201c0-24.499 13.993-46.509 35.984-57.158l-3.148 11.748c-1.498 5.591 1.813 11.329 7.405 12.826 3.124.837 6.763 1.777 9.922 2.366 7.914 1.47 13.145.782 24.191-.88 1.017 1.805 2.646 3.004 4.509 3.503 9.007 2.413 8.727 2.374 9.486 2.483 1.709.25 3.449-.15 4.801-.947 12.735 10.164 15.409 11.781 30.293 15.769 1.367.366 2.939.435 4.209.247.537 3.339.809 6.708.809 10.042v6.201c0 1.057.84 2.008 2.041 2 4.97-.096 9.665 1.742 13.182 5.188 3.484 3.414 5.402 7.965 5.402 12.816.002 5.069-2.171 9.93-5.96 13.34z"/></g></g><g><path d="m128 176.593c-8.694 0-15.767-7.073-15.767-15.767s7.073-15.767 15.767-15.767 15.767 7.073 15.767 15.767-7.073 15.767-15.767 15.767zm0-26.385c-5.855 0-10.619 4.764-10.619 10.619s4.763 10.619 10.619 10.619 10.619-4.764 10.619-10.619c0-5.856-4.764-10.619-10.619-10.619z" fill="#e0ebfc"/></g><path d="m131.097 157.923h-6.194c-1.368 0-2.478-1.109-2.478-2.478v-14.618c0-1.368 1.109-2.478 2.478-2.478h6.194c1.368 0 2.478 1.109 2.478 2.478v14.618c0 1.368-1.11 2.478-2.478 2.478z" fill="#e0ebfc"/></g></svg>