<svg id="Layer_1" enable-background="new 0 0 256 256" height="512" viewBox="0 0 256 256" width="512" xmlns="http://www.w3.org/2000/svg"><g><path d="m35.151 223.982h18.586v15.267h-18.586z" fill="#f9cfcf"/><path d="m136.047 223.982h18.586v15.267h-18.586z" fill="#f9cfcf"/><path d="m132.507 168.679h-75.23c-12.22 0-22.127 9.906-22.127 22.127v17.909 15.267h18.586v15.267h82.311v-15.267h18.586c0-12.386 0-20.983 0-33.176.001-12.22-9.906-22.127-22.126-22.127z" fill="#4671c6"/><path d="m94.871 188.853c-12.207 0-22.103-9.896-22.103-22.103v-24.577h44.207v24.577c-.001 12.207-9.897 22.103-22.104 22.103z" fill="#f9cfcf"/><path d="m94.892 152.79c-32.293 0-58.471-26.178-58.471-58.471v-18.9h116.941v18.9c.001 32.293-26.177 58.471-58.47 58.471z" fill="#4671c6"/><path d="m144.692 98.272v-4.663c0-27.256-22.296-49.351-49.8-49.351-27.504 0-49.8 22.095-49.8 49.351v4.663c-8.647-.175-15.508 6.713-15.508 15.041 0 8.892 7.763 15.925 16.823 14.967 5.139 21.835 24.89 38.102 48.484 38.102 23.596 0 43.345-16.269 48.484-38.102 9.048.957 16.823-6.063 16.823-14.967.002-8.332-6.864-15.217-15.506-15.041z" fill="#f9cfcf"/><g><path d="m94.886 142.519c-1.757 0-3.292-.207-4.692-.634-2.324-.707-4.364-1.898-5.9-3.446-.777-.784-.772-2.05.011-2.828.786-.779 2.051-.772 2.829.011 1.07 1.079 2.531 1.922 4.225 2.437 1.018.31 2.172.46 3.528.46s2.511-.15 3.529-.46c1.693-.515 3.154-1.357 4.225-2.437.779-.785 2.044-.789 2.829-.011.783.778.788 2.044.011 2.828-1.536 1.548-3.576 2.739-5.9 3.446-1.403.427-2.938.634-4.695.634z" fill="#3762cc"/></g><path d="m120.746 125.063c-4.015 0-7.27-3.255-7.27-7.27v-7.755c0-4.015 3.255-7.27 7.27-7.27 4.015 0 7.27 3.255 7.27 7.27v7.755c0 4.015-3.255 7.27-7.27 7.27z" fill="#3762cc"/><path d="m69.025 125.063c-4.015 0-7.27-3.255-7.27-7.27v-7.755c0-4.015 3.255-7.27 7.27-7.27 4.015 0 7.27 3.255 7.27 7.27v7.755c0 4.015-3.255 7.27-7.27 7.27z" fill="#3762cc"/><path d="m36.421 79.693h116.941v-11.108c0-28.628-23.207-51.835-51.835-51.835h-13.27c-28.628 0-51.835 23.207-51.835 51.835v11.108z" fill="#f9a7a7"/><path d="m36.421 79.693-12.671 8.926c-2.904 2.045-1.456 6.613 2.095 6.613h79.522c7.659 0 15.238-1.551 22.281-4.558l25.714-10.981z" fill="#f9a7a7"/><path d="m109.194 71.625h-42.464c-2.556 0-4.628-2.072-4.628-4.628v-15.534c0-2.556 2.072-4.628 4.628-4.628h42.465c2.556 0 4.628 2.072 4.628 4.628v15.534c0 2.556-2.073 4.628-4.629 4.628z" fill="#f9cfcf"/><g><path d="m151.979 102.243c-2.175-1.342-4.678-2.036-7.246-1.972-1.059.04-2.041-.839-2.041-2v-4.663c0-3.13-.321-6.289-.955-9.387-.19-.931.3-1.867 1.174-2.24l9.667-4.127c.616-.263 1.326-.201 1.888.17.561.37.897.997.897 1.669v14.626c0 2.114-.116 4.278-.344 6.433-.073.684-.491 1.282-1.108 1.584-.604.297-1.335.275-1.932-.093zm-5.287-5.893c1.575.153 3.115.521 4.583 1.092.059-1.049.088-2.092.088-3.123v-11.597l-5.405 2.308c.487 2.842.734 5.721.734 8.579z" fill="#3762cc"/></g><path d="m155.363 79.693v-11.108c0-29.685-24.15-53.835-53.835-53.835h-13.271c-29.685 0-53.835 24.15-53.835 53.835v10.07l-11.824 8.329c-2.05 1.444-2.885 3.922-2.127 6.313s2.867 3.935 5.374 3.935h.001 79.521c7.973 0 15.733-1.587 23.066-4.719l25.703-10.975c.004-.002.007-.003.01-.005l.001-.001c.741-.315 1.216-1.074 1.216-1.839zm-116.941-11.108c0-27.479 22.355-49.835 49.835-49.835h13.271c27.479 0 49.835 22.356 49.835 49.835v9.108h-112.941zm66.945 24.647h-79.522c-1.113 0-1.477-.875-1.562-1.144s-.292-1.193.617-1.834l12.154-8.561h106.531l-16.723 7.141c-6.833 2.918-14.065 4.398-21.495 4.398z" fill="#3762cc"/><g><path d="m132.507 167.043h-13.533v-4.496s0 0-.001 0c12.519-6.483 22.101-17.938 25.939-32.184h.082c4.256 0 8.39-1.563 11.563-4.418 3.586-3.227 5.643-7.832 5.643-12.634 0-4.596-1.816-8.907-5.113-12.139-2.837-2.78-6.47-4.455-10.395-4.826v-2.739c0-2.924-.261-5.786-.737-8.578l-3.784 1.616c.34 2.273.521 4.597.521 6.962v4.663c0 1.156.977 2.04 2.041 2 3.628-.062 7.005 1.262 9.554 3.759 2.523 2.473 3.913 5.769 3.913 9.282 0 3.67-1.574 7.191-4.318 9.661-2.785 2.506-6.539 3.716-10.295 3.317-.985-.109-1.927.55-2.157 1.531-5.066 21.526-24.203 36.56-46.537 36.56s-41.471-15.034-46.537-36.56c-.215-.911-1.028-1.542-1.945-1.542-.07 0-.142.003-.212.011-3.756.399-7.51-.811-10.293-3.316-2.746-2.471-4.32-5.992-4.32-9.662 0-3.513 1.39-6.81 3.914-9.283 2.547-2.497 5.97-3.82 9.553-3.758 1.074.044 2.041-.854 2.041-2v-1.04h-8.036c-2.36.82-4.526 2.146-6.357 3.94-3.298 3.231-5.114 7.543-5.114 12.14 0 4.802 2.058 9.408 5.645 12.635 3.172 2.854 7.305 4.417 11.561 4.417h.082c3.835 14.229 13.398 25.674 25.896 32.161v4.518h-13.49c-13.304 0-24.127 10.823-24.127 24.126v48.443c0 1.104.896 2 2 2h119.483c1.104 0 2-.896 2-2v-48.44c-.004-13.304-10.827-24.127-24.13-24.127zm20.126 70.57h-14.586v-30.589c0-1.104-.896-2-2-2s-2 .896-2 2v30.589h-78.31v-30.589c0-1.104-.896-2-2-2s-2 .896-2 2v30.589h-14.587v-46.443c0-11.098 9.029-20.126 20.127-20.126h15.49c1.104 0 2-.896 2-2v-4.656s0 0-.001 0c6.212 2.578 13.018 3.994 20.126 3.994 7.092 0 13.881-1.409 20.082-3.976v4.638c0 1.104.896 2 2 2h15.533c11.098 0 20.126 9.029 20.126 20.126z" fill="#3762cc"/></g><path d="m196.923 141.891h18.94c1.652 0 2.99-1.339 2.99-2.99v-83.734c0-1.652-1.339-2.99-2.99-2.99h-18.94c-1.652 0-2.99 1.339-2.99 2.99v83.734c-.001 1.651 1.338 2.99 2.99 2.99z" fill="#e0ebfc"/><path d="m182.967 212.002h46.851c2.202 0 3.987-1.785 3.987-3.987v-128.924c0-4.955-4.017-8.971-8.971-8.971h-36.883c-4.955 0-8.971 4.017-8.971 8.971v128.923c0 2.202 1.785 3.988 3.987 3.988z" fill="#e0ebfc"/><path d="m225.637 175.451v-94.366c0-1.652-1.339-2.99-2.99-2.99h-32.508c-1.652 0-2.99 1.339-2.99 2.99v94.366z" fill="#a4c9ff"/><path d="m198.916 181.782h14.952v63.742h-14.952z" fill="#6bdddd"/><path d="m229.818 253h-46.851c-2.202 0-3.987-1.785-3.987-3.987v-6.978c0-2.202 1.785-3.987 3.987-3.987h46.851c2.202 0 3.987 1.785 3.987 3.987v6.978c0 2.202-1.785 3.987-3.987 3.987z" fill="#4671c6"/><path d="m225.637 187.081v-11.63h-38.489v11.63c0 1.101.893 1.994 1.994 1.994h34.502c1.1-.001 1.993-.893 1.993-1.994z" fill="#4671c6"/><path d="m224.834 68.119h-3.98v-12.952c0-2.752-2.239-4.991-4.991-4.991h-7.47v-47.176c0-1.104-.896-2-2-2s-2 .896-2 2v47.176h-7.47c-2.752 0-4.99 2.239-4.99 4.991v12.952h-3.981c-6.049 0-10.971 4.922-10.971 10.972v128.923c0 3.301 2.686 5.987 5.987 5.987h13.949v22.045h-13.949c-3.302 0-5.987 2.686-5.987 5.987v6.978c0 3.301 2.686 5.987 5.987 5.987h46.851c3.302 0 5.987-2.686 5.987-5.987v-6.978c0-3.301-2.686-5.987-5.987-5.987h-13.949v-22.045h13.949c3.302 0 5.987-2.686 5.987-5.987v-128.923c-.001-6.05-4.923-10.972-10.972-10.972zm-13.457 90.725h12.261v14.607h-34.489v-92.366c0-.546.444-.991.99-.991h32.508c.547 0 .991.444.991.991v13.949h-12.261c-1.104 0-2 .896-2 2s.896 2 2 2h12.261v15.937h-12.261c-1.104 0-2 .896-2 2s.896 2 2 2h12.261v15.937h-12.261c-1.104 0-2 .896-2 2s.896 2 2 2h12.261v15.937h-12.261c-1.104 0-2 .896-2 2s.895 1.999 2 1.999zm.492 51.158h-10.952v-18.927h10.952zm2.018-22.926c-.006 0-.012-.002-.018-.002h-14.952c-.016 0-.03.004-.045.005l-9.723.002v-9.63h34.489v9.624zm13.75-72.106v-15.936h4.168v15.937h-4.168zm4.168 4v15.937h-4.168v-15.937zm-4.168 19.937h4.168v15.937h-4.168zm-31.705-83.74c0-.546.444-.991.99-.991h18.939c.547 0 .991.444.991.991v12.952h-20.921v-12.952zm-12.965 154.835c-1.096 0-1.987-.892-1.987-1.987v-128.924c0-3.844 3.127-6.972 6.971-6.972h5.981 24.921 5.98c3.844 0 6.972 3.127 6.972 6.972v15.943h-4.168v-13.949c0-2.752-2.239-4.991-4.991-4.991h-32.508c-2.752 0-4.99 2.239-4.99 4.991v105.996c0 2.202 1.792 3.994 3.994 3.994h7.774v18.927zm48.838 32.032v6.978c0 1.096-.892 1.987-1.987 1.987h-46.851c-1.096 0-1.987-.892-1.987-1.987v-6.978c0-1.096.892-1.987 1.987-1.987h15.949 14.952 15.949c1.097 0 1.988.892 1.988 1.987zm-19.936-5.987h-10.952v-22.045h10.952zm17.949-26.045h-13.949v-18.927h7.774c2.202 0 3.994-1.792 3.994-3.994 0-9.746 0-6.523 0-28.237h4.168v49.171c0 1.095-.891 1.987-1.987 1.987z" fill="#3762cc"/></g></svg>