<svg id="Layer_1" enable-background="new 0 0 256 256" height="512" viewBox="0 0 256 256" width="512" xmlns="http://www.w3.org/2000/svg"><g><path d="m189.586 111.165c0-34.416-27.899-62.315-62.315-62.315s-62.315 27.9-62.315 62.315c0 24.941 13.814 38.467 17.291 43.407 10.463 13.022 16.111 29.472 15.346 46.949h59.357c-.765-17.472 4.881-33.947 15.385-46.997 2.104-3.007 17.251-17.529 17.251-43.359z" fill="#a4c9ff"/><g fill="#ffe164"><path d="m175.83 51.695.168.168c2.344 2.344 6.145 2.344 8.489 0l13.154-13.154c2.344-2.344 2.344-6.145 0-8.489l-.168-.168c-2.344-2.344-6.145-2.344-8.489 0l-13.154 13.154c-2.344 2.344-2.344 6.144 0 8.489z"/><path d="m128.111 32.689h-.222c-3.32 0-6.011-2.691-6.011-6.011v-18.667c0-3.32 2.691-6.011 6.011-6.011h.222c3.32 0 6.011 2.691 6.011 6.011v18.668c-.001 3.319-2.692 6.01-6.011 6.01z"/><path d="m80.899 51.695-.168.168c-2.344 2.344-6.145 2.344-8.489 0l-13.154-13.154c-2.344-2.344-2.344-6.145 0-8.489l.168-.168c2.344-2.344 6.145-2.344 8.489 0l13.154 13.154c2.344 2.344 2.344 6.144 0 8.489z"/></g><path d="m197.231 81.593v-.238c0-3.315 2.687-6.003 6.003-6.003h18.602c3.315 0 6.003 2.687 6.003 6.003v.238c0 3.315-2.687 6.003-6.003 6.003h-18.602c-3.316-.001-6.003-2.688-6.003-6.003z" fill="#ffdc85"/><path d="m28.162 81.593v-.238c0-3.315 2.687-6.003 6.003-6.003h18.602c3.315 0 6.003 2.687 6.003 6.003v.238c0 3.315-2.687 6.003-6.003 6.003h-18.602c-3.315-.001-6.003-2.688-6.003-6.003z" fill="#ffe164"/><path d="m86.576 142.915h82.828c1.837 0 2.986-1.987 2.071-3.579l-41.414-72.038c-.918-1.597-3.223-1.597-4.141 0l-41.414 72.038c-.916 1.592.233 3.579 2.07 3.579z" fill="#ffea92"/><ellipse cx="127.99" cy="116.808" fill="#e0ebfc" rx="24.603" ry="13.503"/><circle cx="127.99" cy="116.783" fill="#4671c6" r="10.822"/><path d="m127.99 122.717c-3.272 0-5.934-2.661-5.934-5.933s2.662-5.934 5.934-5.934 5.933 2.662 5.933 5.934-2.661 5.933-5.933 5.933z" fill="#a4c9ff"/><circle cx="126.087" cy="112.295" fill="#e0ebfc" r="3.473"/><path d="m153.032 227.074h-49.964c-2.98 0-5.397-2.416-5.397-5.397v-13.297h60.757v13.298c.001 2.98-2.415 5.396-5.396 5.396z" fill="#4671c6"/><path d="m133.503 252h-12.463c-10.325 0-18.694-8.37-18.694-18.695v-6.231h49.852v6.231c-.001 10.325-8.371 18.695-18.695 18.695z" fill="#4671c6"/><g><g><path d="m127.271 156c-1.104 0-2-.896-2-2v-5c0-1.104.896-2 2-2s2 .896 2 2v5c0 1.104-.895 2-2 2z" fill="#3762cc"/></g><g><path d="m127.271 176.396c-1.104 0-2-.896-2-2v-10.198c0-1.104.896-2 2-2s2 .896 2 2v10.198c0 1.104-.895 2-2 2z" fill="#3762cc"/></g><g><path d="m127.271 191.594c-1.104 0-2-.896-2-2v-5c0-1.104.896-2 2-2s2 .896 2 2v5c0 1.104-.895 2-2 2z" fill="#3762cc"/></g></g><path d="m158.544 208.542h-62.625c-1.657 0-3-1.343-3-3v-13.018c0-1.657 1.343-3 3-3h62.625c1.657 0 3 1.343 3 3v13.018c0 1.657-1.343 3-3 3z" fill="#4671c6"/><path d="m127.271 46.851c-35.464 0-64.315 28.852-64.315 64.314 0 15.845 5.793 31.017 16.33 42.816.452 1.108 12.197 12.781 15.508 33.681-2.215.513-3.875 2.493-3.875 4.861v13.019c0 2.757 2.243 5 5 5-.085 0-.164-.021-.247-.025v11.161c0 3.116 1.94 5.783 4.674 6.871v4.757c0 11.411 9.283 20.694 20.694 20.694h12.463c11.411 0 20.694-9.283 20.694-20.694v-4.333c3.525-.562 6.231-3.615 6.231-7.295v-11.51c1.825-.746 3.116-2.535 3.116-4.625v-13.019c0-2.34-1.622-4.294-3.796-4.837 3.31-20.944 15.043-32.569 15.506-33.703 10.537-11.799 16.331-26.973 16.331-42.818.001-35.464-28.851-64.315-64.314-64.315zm22.926 186.455c0 9.205-7.489 16.694-16.694 16.694h-12.463c-9.205 0-16.694-7.489-16.694-16.694v-4.231h45.852v4.231zm6.232-11.628c0 1.873-1.523 3.396-3.396 3.396-6.277 0-43.787 0-49.964 0-1.873 0-3.396-1.523-3.396-3.396v-11.136h56.757v11.136zm3.116-16.136c0 .552-.448 1-1 1h-62.626c-.552 0-1-.448-1-1v-13.019c0-.552.448-1 1-1h1.165 60.378 1.083c.552 0 1 .448 1 1zm11.813-52.985c-8.309 10.063-13.69 22.103-15.638 34.967h-56.895c-1.947-12.861-7.329-24.9-15.64-34.965-.42-1.185-16.229-15.598-16.229-41.394 0-33.258 27.058-60.314 60.315-60.314s60.314 27.057 60.314 60.314c.001 25.844-15.781 40.14-16.227 41.392z" fill="#3762cc"/><g fill="#3762cc"><path d="m127.99 101.305c-11.939 0-22.562 5.906-26.433 14.698-.227.514-.227 1.099 0 1.611 3.871 8.791 14.493 14.697 26.433 14.697s22.562-5.906 26.433-14.697c.227-.513.227-1.098 0-1.611-3.871-8.792-14.493-14.698-26.433-14.698zm0 24.3c-4.864 0-8.822-3.958-8.822-8.822s3.958-8.822 8.822-8.822 8.822 3.958 8.822 8.822-3.958 8.822-8.822 8.822zm-22.388-8.796c2.67-5.222 8.375-9.113 15.311-10.708-3.459 2.299-5.745 6.227-5.745 10.682 0 4.507 2.342 8.47 5.868 10.757-6.991-1.576-12.749-5.48-15.434-10.731zm29.342 10.732c3.526-2.287 5.868-6.25 5.868-10.757 0-4.455-2.286-8.383-5.745-10.682 6.936 1.595 12.642 5.486 15.311 10.708-2.685 5.25-8.442 9.154-15.434 10.731z"/><path d="m173.209 138.339-41.414-72.037c-.792-1.379-2.214-2.202-3.804-2.202h-.001c-1.59 0-3.013.823-3.806 2.201l-41.414 72.038c-.789 1.374-.787 3.014.007 4.385.794 1.372 2.214 2.191 3.799 2.191h82.828c1.585 0 3.005-.819 3.799-2.191s.796-3.012.006-4.385zm-3.469 2.382c-.074.129-.188.194-.336.194h-82.828c-.148 0-.262-.065-.337-.194-.074-.129-.074-.26 0-.388l41.413-72.038c.075-.13.188-.195.338-.195.148 0 .262.065.336.195l41.415 72.038c.074.129.073.26-.001.388z"/></g></g></svg>