<svg id="Layer_1" enable-background="new 0 0 256 256" height="512" viewBox="0 0 256 256" width="512" xmlns="http://www.w3.org/2000/svg"><g><path d="m128.249 174.642h-83.434c-13.553 0-24.539 10.987-24.539 24.539v19.862 10.934h19.965v22.931h91.286v-22.931h21.261v-10.934-19.862c0-13.552-10.986-24.539-24.539-24.539z" fill="#4671c6"/><path d="m20.276 229.977h19.965v22.93h-19.965z" fill="#f9cfcf"/><path d="m131.527 229.977h21.261v22.93h-21.261z" fill="#f9cfcf"/><path d="m61.995 153.294v23.311.003c0 13.539 10.975 24.514 24.514 24.514 13.532 0 24.514-10.967 24.514-24.516 0-4.716 0-18.437 0-23.311h-49.028z" fill="#f9cfcf"/><path d="m86.532 157.417c-31.748 0-57.484-25.736-57.484-57.484v-24.077c0-7.98 6.469-14.449 14.449-14.449h100.519v38.526c0 31.748-25.736 57.484-57.484 57.484z" fill="#4671c6"/><path d="m135.491 103.819v-4.584c0-26.796-21.92-48.518-48.959-48.518-27.04 0-48.959 21.722-48.959 48.518v4.584c-8.501-.172-15.246 6.6-15.246 14.787 0 8.742 7.632 15.656 16.539 14.714 5.053 21.466 24.47 37.459 47.666 37.459 23.198 0 42.614-15.994 47.666-37.459 8.896.941 16.539-5.961 16.539-14.714.001-8.191-6.749-14.96-15.246-14.787z" fill="#f9cfcf"/><path d="m144.016 94.408h-76.812c-16.365 0-29.631-13.266-29.631-29.631 0-16.365 13.266-29.631 29.631-29.631h50.278c14.654 0 26.534 11.88 26.534 26.534z" fill="#4671c6"/><g><path d="m56.944 130.311c-.704 0-1.387-.372-1.751-1.031-.536-.966-.187-2.184.78-2.719l10.877-6.026-10.877-6.025c-.967-.535-1.316-1.752-.781-2.719.536-.966 1.754-1.314 2.719-.78l14.036 7.775c.637.353 1.031 1.022 1.031 1.75s-.395 1.397-1.031 1.75l-14.036 7.775c-.307.169-.639.25-.967.25z" fill="#3762cc"/></g><g><path d="m117 130.311c-.328 0-.66-.081-.967-.251l-14.036-7.775c-.637-.353-1.031-1.022-1.031-1.75s.395-1.397 1.031-1.75l14.036-7.775c.968-.535 2.184-.185 2.719.78.535.966.186 2.184-.781 2.719l-10.877 6.025 10.877 6.026c.967.535 1.316 1.752.78 2.719-.364.66-1.047 1.032-1.751 1.032z" fill="#3762cc"/></g><ellipse cx="86.532" cy="145.608" fill="#f9a7a7" rx="11.353" ry="10.813" transform="matrix(.915 -.403 .403 .915 -51.331 47.205)"/><g><path d="m143.688 108.05c-.365 0-.729-.1-1.051-.298-2.132-1.315-4.607-1.992-7.105-1.933-.523.023-1.057-.195-1.44-.571-.384-.376-.601-.891-.601-1.429v-4.584c0-1.523-.078-3.081-.232-4.628-.056-.562.129-1.122.508-1.541s.918-.658 1.482-.658h8.767c1.104 0 2 .896 2 2v5.525c0 2.079-.114 4.208-.338 6.327-.073.684-.491 1.282-1.108 1.585-.279.137-.581.205-.882.205zm-6.197-6.151c1.525.151 3.018.506 4.44 1.055.056-1.015.084-2.024.084-3.021v-3.525h-4.604c.053.948.08 1.893.08 2.826z" fill="#3762cc"/></g><path d="m128.249 172.642h-15.228v-7.166s-.001 0-.001.001c10.931-6.567 19.225-17.152 22.714-30.073 4.207-.006 8.304-1.527 11.443-4.352 3.533-3.179 5.56-7.715 5.56-12.446 0-4.528-1.789-8.775-5.037-11.958-2.787-2.731-6.355-4.38-10.209-4.751 0-2.84.02-3.588-.088-5.488h6.612c1.104 0 2-.896 2-2v-32.73c0-15.734-12.801-28.534-28.534-28.534h-50.277c-16.282 0-29.727 12.368-31.443 28.202-5.331 2.843-8.714 8.413-8.714 14.509v24.077c0 1.678.094 3.39.24 5.102-.673.489-1.32 1.019-1.924 1.612-3.249 3.183-5.038 7.43-5.038 11.958 0 4.73 2.026 9.268 5.561 12.448 3.125 2.812 7.195 4.351 11.388 4.351h.055c3.484 12.902 11.759 23.474 22.665 30.043v7.195h-15.179c-14.634 0-26.54 11.906-26.54 26.54v53.726c0 1.104.896 2 2 2h132.513c1.104 0 2-.896 2-2 0-10.049 0-43.726 0-53.726 0-14.634-11.905-26.54-26.539-26.54zm-61.045-135.497h50.277c13.528 0 24.534 11.006 24.534 24.534v30.729h-6.767-68.044c-6.576 0-13.115-2.435-18.097-6.777-19.57-16.93-7.032-48.486 18.097-48.486zm-36.156 38.711c0-3.778 1.719-7.29 4.559-9.62.001.02.003.039.004.058.232 4.876 1.613 9.579 3.829 13.634-4.12 9.855-3.867 17.938-3.867 21.968-1.438.138-3.142.552-4.441 1.051-.115-2.089-.084-.732-.084-27.091zm9.764 57.006c-.215-.911-1.028-1.542-1.945-1.542-.07 0-.142.003-.212.011-3.685.39-7.363-.795-10.093-3.251-2.692-2.422-4.236-5.875-4.236-9.474 0-6.721 5.19-12.16 11.775-12.734 1.465-.128 2.081.149 2.87-.624.384-.376.601-.891.601-1.429 0-5.688-.309-11.49 2.577-19.748 6.021 7.789 15.281 12.337 25.055 12.337h66.199c.111 1.79.088 2.489.088 7.411 0 1.161.991 2.046 2.041 2 3.511-.072 6.868 1.237 9.368 3.686 2.475 2.425 3.837 5.657 3.837 9.101 0 3.599-1.544 7.051-4.234 9.473-2.73 2.457-6.413 3.642-10.095 3.252-.989-.111-1.927.55-2.157 1.53-4.978 21.147-23.778 35.917-45.719 35.917s-40.742-14.769-45.72-35.916zm-2.572 118.045h-15.965v-18.93h15.965zm112.548 0h-17.261v-18.93h17.261zm0-22.93h-17.261v-14.202c0-1.104-.896-2-2-2s-2 .896-2 2v16.202 20.93h-87.287v-20.93-16.202c0-1.104-.896-2-2-2s-2 .896-2 2v14.202h-15.965v-28.795c0-12.428 10.111-22.54 22.54-22.54h17.179c1.104 0 2-.896 2-2v-7.018c6.825 3.317 14.486 5.154 22.538 5.154 8.033 0 15.677-1.828 22.489-5.13v6.994c0 1.104.896 2 2 2h17.228c12.428 0 22.539 10.111 22.539 22.54z" fill="#3762cc"/><path d="m183.306 128.29-8.828 17.932c-2.304 4.681-1.509 10.295 2.004 14.152 5.034 5.526 13.73 5.526 18.764 0 3.514-3.857 4.309-9.471 2.004-14.152l-8.828-17.932c-1.045-2.123-4.071-2.123-5.116 0z" fill="#a4c9ff"/><path d="m136.003 52.953c0 23.44 16.179 43.092 37.976 48.424l9.568 16.99c1.017 1.806 3.617 1.806 4.634 0l9.568-16.99c21.797-5.332 37.976-24.984 37.976-48.424 0-27.537-22.323-49.86-49.86-49.86s-49.862 22.323-49.862 49.86z" fill="#e0ebfc"/><path d="m223.676 48.186c-1.504 0-2.726 1.151-2.868 2.618h-4.546c-.589-6.259-3.063-11.97-6.854-16.554l3.212-3.212c.533.439 1.178.671 1.831.671.741 0 1.482-.283 2.048-.848 1.131-1.131 1.131-2.964 0-4.095l-1.851-1.851s0 0-.001 0l-1.851-1.851c-1.131-1.131-2.965-1.131-4.095 0-1.064 1.064-1.114 2.742-.177 3.879l-3.212 3.212c-4.584-3.791-10.294-6.265-16.554-6.854v-4.545c1.467-.142 2.618-1.364 2.618-2.868 0-1.599-1.296-2.896-2.896-2.896h-5.236c-1.599 0-2.896 1.296-2.896 2.896 0 1.504 1.151 2.726 2.618 2.868v4.545c-6.259.589-11.97 3.063-16.554 6.854l-3.212-3.212c.937-1.138.887-2.815-.176-3.879-1.13-1.131-2.964-1.131-4.095 0l-1.851 1.851c0 .001-.001.001-.001.001s-.001.001-.001.001l-1.85 1.85c-1.131 1.131-1.131 2.965 0 4.096.566.566 1.306.848 2.048.848.653 0 1.299-.233 1.832-.672l3.212 3.212c-3.791 4.584-6.265 10.294-6.854 16.554h-4.545c-.142-1.467-1.364-2.618-2.868-2.618-1.599 0-2.896 1.297-2.896 2.896v5.236c0 1.599 1.296 2.896 2.896 2.896 1.504 0 2.726-1.151 2.868-2.618h4.545c.589 6.259 3.063 11.97 6.854 16.554l-3.212 3.212c-1.137-.937-2.816-.887-3.879.177-1.131 1.131-1.131 2.965 0 4.095l1.85 1.85s.001.001.001.001.001 0 .001.001l1.851 1.851c.565.565 1.307.848 2.048.848s1.482-.283 2.048-.848c1.063-1.064 1.114-2.741.176-3.879l3.212-3.212c4.584 3.791 10.295 6.265 16.554 6.854v4.545c-1.467.142-2.618 1.364-2.618 2.868 0 1.599 1.296 2.896 2.896 2.896h5.236c1.599 0 2.896-1.297 2.896-2.896 0-1.504-1.151-2.726-2.618-2.868v-4.546c6.259-.589 11.97-3.063 16.554-6.854l3.212 3.212c-.937 1.138-.887 2.816.177 3.879.565.565 1.307.848 2.048.848s1.482-.283 2.048-.848l1.851-1.851h.001l1.851-1.851c1.131-1.131 1.131-2.965 0-4.095-1.063-1.064-2.741-1.114-3.879-.177l-3.212-3.212c3.791-4.584 6.265-10.295 6.854-16.554h4.545c.142 1.467 1.364 2.618 2.868 2.618 1.599 0 2.896-1.296 2.896-2.896v-5.236c-.002-1.601-1.299-2.897-2.898-2.897z" fill="#4671c6"/><circle cx="185.864" cy="53.7" fill="#e0ebfc" r="23.267"/><circle cx="185.864" cy="53.7" fill="#6bdddd" r="20.015"/><g fill="#e0ebfc"><circle cx="185.864" cy="43.458" r="6.319"/><circle cx="185.864" cy="63.942" r="5.371"/><circle cx="197.13" cy="53.7" r="5.371"/><circle cx="174.598" cy="53.7" r="5.703"/></g><g><path d="m185.864 166.519c-4.125 0-8.084-1.749-10.861-4.798-4.095-4.497-5.006-10.927-2.319-16.382l8.828-17.932c.822-1.67 2.49-2.708 4.353-2.708 1.861 0 3.529 1.038 4.352 2.708l8.828 17.932c2.687 5.456 1.776 11.887-2.319 16.382-2.779 3.049-6.738 4.798-10.862 4.798zm-.764-37.346-8.828 17.932c-1.954 3.97-1.292 8.65 1.688 11.922 2.051 2.251 4.858 3.491 7.904 3.491 3.045 0 5.853-1.24 7.903-3.491 2.98-3.272 3.643-7.952 1.688-11.922l-8.828-17.932c-.204-.413-.566-.475-.764-.475-.197 0-.559.062-.763.475z" fill="#3762cc"/></g><g><path d="m185.864 121.721c-1.706 0-3.224-.887-4.061-2.374l-9.146-16.243c-22.803-5.98-38.653-26.479-38.653-50.152 0-28.596 23.265-51.86 51.86-51.86s51.86 23.265 51.86 51.86c0 23.673-15.851 44.172-38.654 50.152l-9.146 16.243c-.837 1.487-2.355 2.374-4.06 2.374zm0-116.628c-26.391 0-47.86 21.47-47.86 47.86 0 22.117 14.989 41.231 36.451 46.481.537.131.996.479 1.268.961l9.567 16.99c.164.292.43.336.574.336s.409-.044.573-.335l9.567-16.99c.271-.482.73-.83 1.268-.961 21.463-5.25 36.452-24.363 36.452-46.481.001-26.391-21.469-47.861-47.86-47.861z" fill="#3762cc"/></g><g><path d="m188.481 96.408h-5.236c-2.699 0-4.896-2.196-4.896-4.896 0-1.874 1.047-3.507 2.618-4.325v-1.319c-5.222-.787-10.137-2.821-14.39-5.958l-.932.931c.532 1.689.118 3.584-1.207 4.909-.925.925-2.154 1.434-3.462 1.434-1.309 0-2.538-.509-3.462-1.434l-1.851-1.851c-.013-.012-.024-.025-.037-.038l-1.814-1.815c-.925-.923-1.435-2.153-1.435-3.461s.51-2.538 1.435-3.462c1.325-1.326 3.22-1.739 4.909-1.207l.931-.931c-3.137-4.253-5.172-9.168-5.958-14.39h-1.318c-.818 1.571-2.451 2.618-4.325 2.618-2.7 0-4.896-2.196-4.896-4.896v-5.236c0-2.7 2.196-4.896 4.896-4.896 1.874 0 3.507 1.047 4.325 2.618h1.318c.786-5.222 2.821-10.137 5.958-14.39l-.93-.93c-1.711.544-3.638.064-4.91-1.208-.925-.924-1.435-2.154-1.435-3.462s.51-2.538 1.435-3.462l1.814-1.814c.013-.013.024-.025.037-.038l1.851-1.851c.926-.925 2.155-1.434 3.462-1.434h.001c1.309 0 2.537.51 3.462 1.435 1.324 1.324 1.738 3.219 1.206 4.909l.932.931c4.253-3.137 9.168-5.171 14.39-5.958v-1.318c-1.571-.818-2.618-2.451-2.618-4.326 0-2.7 2.196-4.896 4.896-4.896h5.236c2.7 0 4.896 2.196 4.896 4.896 0 1.874-1.047 3.507-2.618 4.325v1.319c5.222.787 10.137 2.821 14.39 5.958l.932-.931c-.532-1.689-.118-3.584 1.207-4.91 1.908-1.908 5.016-1.909 6.924 0l3.702 3.703c1.909 1.909 1.909 5.015 0 6.923-1.271 1.272-3.194 1.752-4.91 1.208l-.93.93c3.137 4.253 5.172 9.168 5.958 14.39h1.318c.818-1.571 2.451-2.618 4.325-2.618 2.7 0 4.896 2.196 4.896 4.896v5.236c0 2.7-2.196 4.896-4.896 4.896-1.874 0-3.507-1.047-4.325-2.618h-1.318c-.786 5.222-2.821 10.137-5.958 14.39l.931.931c1.691-.534 3.585-.118 4.909 1.207 1.909 1.909 1.909 5.015 0 6.923l-3.702 3.703c-.925.925-2.154 1.434-3.462 1.434-1.309 0-2.538-.509-3.462-1.434-1.325-1.325-1.739-3.221-1.207-4.91l-.932-.931c-4.253 3.137-9.168 5.171-14.39 5.958v1.319c1.571.818 2.618 2.451 2.618 4.325.001 2.703-2.195 4.899-4.896 4.899zm-22.067-21.163c.451 0 .903.151 1.274.458 4.418 3.653 9.766 5.868 15.467 6.404 1.027.097 1.813.959 1.813 1.991v4.545c0 1.03-.782 1.892-1.808 1.991-.462.045-.811.422-.811.877 0 .494.401.896.896.896h5.236c.494 0 .896-.402.896-.896 0-.456-.349-.833-.811-.877-1.025-.099-1.808-.961-1.808-1.991v-4.545c0-1.032.785-1.895 1.813-1.991 5.701-.536 11.049-2.75 15.467-6.404.793-.656 1.958-.603 2.688.127l3.212 3.212c.729.728.784 1.89.13 2.685-.295.359-.274.872.047 1.194.228.228.495.262.634.262s.405-.034.634-.262l3.702-3.703c.349-.35.349-.917 0-1.267-.322-.321-.836-.342-1.193-.047-.795.654-1.957.599-2.686-.13l-3.212-3.212c-.729-.729-.784-1.894-.127-2.688 3.652-4.417 5.867-9.765 6.403-15.467.097-1.027.959-1.813 1.991-1.813h4.546c1.03 0 1.892.783 1.991 1.808.044.462.421.81.876.81.494 0 .896-.402.896-.896v-5.236c0-.494-.402-.896-.896-.896-.455 0-.832.348-.876.811-.1 1.025-.961 1.808-1.991 1.808h-4.546c-1.032 0-1.895-.785-1.991-1.813-.536-5.702-2.751-11.05-6.403-15.467-.657-.795-.603-1.959.127-2.688l3.212-3.212c.729-.729 1.891-.784 2.686-.13.171.141.364.215.56.215.139 0 .405-.034.634-.262.349-.35.349-.917 0-1.267l-3.702-3.703c-.35-.35-.918-.349-1.268 0-.321.322-.342.835-.047 1.194.654.795.599 1.957-.13 2.685l-3.212 3.212c-.73.73-1.895.784-2.688.127-4.418-3.653-9.766-5.868-15.467-6.404-1.027-.097-1.813-.959-1.813-1.991v-4.545c0-1.03.782-1.892 1.808-1.991.462-.045.811-.422.811-.877 0-.494-.402-.896-.896-.896h-5.236c-.494 0-.896.402-.896.896 0 .456.349.833.811.877 1.025.099 1.808.96 1.808 1.991v4.545c0 1.032-.785 1.895-1.813 1.991-5.701.536-11.049 2.75-15.467 6.404-.794.655-1.959.603-2.688-.127l-3.212-3.212c-.729-.728-.784-1.89-.13-2.685.295-.359.274-.872-.047-1.194-.229-.229-.495-.262-.634-.262-.139 0-.405.034-.634.263l-1.814 1.814c-.013.013-.024.025-.037.038l-1.851 1.85c-.229.229-.263.495-.263.633 0 .139.034.405.263.633.229.229.495.263.634.263.192 0 .391-.076.559-.214.795-.655 1.958-.6 2.687.129l3.212 3.212c.729.729.784 1.894.127 2.688-3.652 4.417-5.867 9.765-6.403 15.467-.097 1.027-.959 1.813-1.991 1.813h-4.546c-1.03 0-1.892-.782-1.991-1.808-.044-.462-.421-.811-.876-.811-.494 0-.896.402-.896.896v5.236c0 .494.402.896.896.896.455 0 .832-.348.876-.81.1-1.025.961-1.808 1.991-1.808h4.546c1.032 0 1.895.785 1.991 1.813.536 5.702 2.751 11.05 6.403 15.467.657.794.603 1.959-.127 2.688l-3.212 3.212c-.729.729-1.892.785-2.687.129-.358-.296-.871-.274-1.192.047-.229.229-.263.496-.263.634s.034.404.262.632l1.852 1.852c.013.012.024.025.037.038l1.814 1.815c.228.228.495.262.634.262s.405-.034.634-.262c.321-.322.342-.835.047-1.193-.654-.795-.599-1.958.13-2.686l3.21-3.211c.389-.389.9-.586 1.414-.586zm-9.335-50.331h.01z" fill="#3762cc"/></g><g><g><path d="m118.008 147.853h-5.052c-1.24 0-2.245-1.005-2.245-2.245s1.005-2.245 2.245-2.245h5.052c1.24 0 2.245 1.005 2.245 2.245s-1.006 2.245-2.245 2.245z" fill="#a4c9ff"/></g><g><path d="m149.74 147.853h-7.933c-1.24 0-2.245-1.005-2.245-2.245s1.005-2.245 2.245-2.245h7.933c1.24 0 2.245 1.005 2.245 2.245s-1.005 2.245-2.245 2.245zm-15.866 0h-7.933c-1.24 0-2.245-1.005-2.245-2.245s1.005-2.245 2.245-2.245h7.933c1.24 0 2.245 1.005 2.245 2.245s-1.005 2.245-2.245 2.245z" fill="#a4c9ff"/></g><g><path d="m162.724 147.853h-5.052c-1.24 0-2.245-1.005-2.245-2.245s1.005-2.245 2.245-2.245h5.052c1.24 0 2.245 1.005 2.245 2.245s-1.005 2.245-2.245 2.245z" fill="#a4c9ff"/></g></g><g><g><path d="m153.204 123.473c-.77 0-1.519-.396-1.937-1.107-.629-1.069-.272-2.445.796-3.073l4.354-2.561c1.069-.629 2.445-.272 3.073.796.629 1.069.272 2.445-.796 3.073l-4.354 2.561c-.357.211-.749.311-1.136.311z" fill="#a4c9ff"/></g><g><path d="m123.537 140.928c-.77 0-1.519-.396-1.937-1.107-.629-1.069-.272-2.445.796-3.073l7.417-4.364c1.069-.628 2.445-.273 3.073.796.629 1.069.272 2.445-.796 3.073l-7.417 4.364c-.358.211-.749.311-1.136.311zm14.833-8.727c-.77 0-1.519-.396-1.937-1.107-.629-1.069-.272-2.445.796-3.073l7.417-4.364c1.069-.628 2.446-.272 3.073.796.629 1.069.272 2.445-.796 3.073l-7.417 4.364c-.357.21-.749.311-1.136.311z" fill="#a4c9ff"/></g><g><path d="m116.115 150.415c-.387 0-.779-.1-1.136-.311l-4.354-2.561c-.686-.403-1.107-1.139-1.107-1.935 0-.795.421-1.531 1.107-1.935l4.354-2.562c1.069-.628 2.445-.272 3.073.796.629 1.068.272 2.445-.796 3.073l-1.065.627 1.065.627c1.069.629 1.425 2.005.796 3.073-.418.712-1.168 1.108-1.937 1.108z" fill="#a4c9ff"/></g><g><path d="m145.782 167.87c-.387 0-.779-.1-1.136-.311l-7.417-4.364c-1.069-.629-1.425-2.005-.796-3.073.628-1.068 2.006-1.426 3.073-.796l7.417 4.364c1.069.629 1.425 2.005.796 3.073-.418.711-1.167 1.107-1.937 1.107zm-14.834-8.727c-.387 0-.779-.1-1.136-.311l-7.417-4.364c-1.069-.629-1.425-2.005-.796-3.073.629-1.069 2.005-1.426 3.073-.796l7.417 4.364c1.069.629 1.425 2.005.796 3.073-.418.71-1.167 1.107-1.937 1.107z" fill="#a4c9ff"/></g><g><path d="m157.553 174.796c-.387 0-.779-.1-1.136-.311l-4.354-2.562c-1.069-.629-1.425-2.005-.796-3.073.629-1.069 2.005-1.426 3.073-.796l4.354 2.562c1.069.629 1.425 2.005.796 3.073-.418.71-1.167 1.107-1.937 1.107z" fill="#a4c9ff"/></g></g></g></svg>