<svg id="Layer_1" enable-background="new 0 0 256 256" height="512" viewBox="0 0 256 256" width="512" xmlns="http://www.w3.org/2000/svg"><g><path d="m87.922 226.487v26.275h127.478 24.362c0-6.638 0-54.952 0-61.562 0-15.529-12.589-28.118-28.119-28.118h-19.74c0-6.641 0-19.517 0-24.462h-56.178v24.462h-19.685c-15.529 0-28.119 12.589-28.119 28.118.001 13.222.001 22.108.001 35.287z" fill="#4671c6"/><path d="m163.788 128.151h-28.062v37.792c0 15.513 12.576 28.089 28.089 28.089 15.513 0 28.089-12.576 28.089-28.089v-37.792z" fill="#f9cfcf"/><path d="m163.842 143.344c-36.378 0-65.868-29.49-65.868-65.868v-27.589c0-9.144 7.413-16.557 16.557-16.557h115.18v44.146c0 36.378-29.491 65.868-65.869 65.868z" fill="#4671c6"/><path d="m219.943 81.928v-5.253c0-30.704-25.117-55.595-56.1-55.595-30.983 0-56.1 24.891-56.1 55.595v5.253c-9.743-.198-17.471 7.563-17.471 16.943 0 10.017 8.745 17.94 18.952 16.861 5.79 24.597 28.039 42.922 54.619 42.922 26.582 0 48.829-18.327 54.619-42.922 10.193 1.078 18.952-6.83 18.952-16.861-.001-9.385-7.736-17.14-17.471-16.943z" fill="#f9cfcf"/><path d="m229.711 71.145h-88.015c-18.752 0-33.953-15.201-33.953-33.953 0-18.752 15.201-33.953 33.953-33.953h57.611c16.792 0 30.404 13.612 30.404 30.404z" fill="#4671c6"/><ellipse cx="163.842" cy="129.813" fill="#f9a7a7" rx="13.009" ry="12.39"/><g><g><path d="m187.702 89.843c-1.091 1.249-1.756 2.878-1.756 4.666v7.578c0 3.923 3.181 7.104 7.104 7.104 3.924 0 7.104-3.181 7.104-7.104v-7.234c-5.084-.889-9.326-2.975-12.452-5.01z" fill="#3762cc"/></g><g><path d="m127.57 94.846v7.241c0 3.923 3.181 7.104 7.104 7.104s7.104-3.181 7.104-7.104v-7.577c0-1.796-.672-3.432-1.771-4.683-3.119 2.034-7.356 4.124-12.437 5.019z" fill="#3762cc"/></g><g><path d="m205.213 97.301c-14.916 0-24.571-10.554-24.983-11.014-.738-.822-.67-2.086.151-2.824.82-.738 2.083-.671 2.822.149.107.118 9.338 10.152 22.946 9.673 1.113-.024 2.029.828 2.067 1.931.037 1.104-.828 2.029-1.931 2.067-.36.012-.718.018-1.072.018z" fill="#3762cc"/></g><g><path d="m122.472 97.301c-.355 0-.711-.006-1.072-.018-1.104-.038-1.968-.963-1.931-2.067s.95-1.973 2.067-1.931c13.603.453 22.855-9.572 22.947-9.673.74-.819 2.005-.883 2.823-.146.819.739.887 2 .15 2.821-.414.46-10.07 11.014-24.984 11.014z" fill="#3762cc"/></g></g><path d="m211.644 161.082h-17.74v-8.665c12.593-7.517 22.135-19.705 26.094-34.59 4.79.041 9.542-1.672 13.141-4.91 3.987-3.587 6.273-8.707 6.273-14.045 0-5.109-2.019-9.901-5.685-13.494-.722-.708-1.497-1.341-2.305-1.917.177-2.01.288-4.019.288-5.984v-6.331c0-.002 0-.003 0-.005v-37.499c0-17.868-14.537-32.404-32.404-32.404h-57.611c-18.563 0-33.884 14.141-35.759 32.217-6.089 3.187-9.962 9.507-9.962 16.432v27.589c0 1.965.111 3.974.288 5.984-.808.576-1.583 1.209-2.305 1.917-3.666 3.592-5.685 8.385-5.685 13.494 0 5.338 2.287 10.458 6.275 14.046 3.598 3.238 8.307 4.99 13.14 4.908 3.953 14.865 13.474 27.039 26.041 34.558 0 0-.001 0-.001-.001v8.698h-17.686c-16.607 0-30.119 13.511-30.119 30.119v61.562c0 1.104.896 2 2 2h151.84c1.104 0 2-.896 2-2v-61.561c0-16.607-13.511-30.118-30.118-30.118zm10.189-87.937h5.878v4.331c0 1.278-.041 2.575-.12 3.88-1.824-.745-3.83-1.215-5.649-1.365v-3.316c0-1.043-.055-2.656-.109-3.53zm-111.999-38.256c1.185-16.547 15.017-29.651 31.862-29.651h57.611c15.662 0 28.404 12.742 28.404 28.404v35.502h-8.045-77.97c-18.197 0-33.207-15.469-31.861-34.252-.001-.001-.001-.002-.001-.003zm-9.86 14.998c0-4.616 2.194-8.892 5.785-11.607.17 5.581 1.664 11.15 4.356 16.082.031.057.057.116.089.173-4.396 10.444-4.462 18.191-4.462 25.456-1.685.14-3.735.585-5.648 1.365-.079-1.305-.12-2.603-.12-3.88zm11.196 65.387c-.214-.912-1.027-1.542-1.945-1.542-.07 0-.141.003-.212.011-4.303.451-8.602-.93-11.791-3.799-3.146-2.831-4.951-6.867-4.951-11.073 0-4.026 1.593-7.804 4.484-10.637 2.733-2.678 6.681-4.381 10.945-4.307 1.118.022 2.041-.878 2.041-2 0-6.589-.369-13.484 3.148-23.235 6.689 8.93 17.31 14.452 28.806 14.452h76.114c.066 1 .133 2.027.133 3.53v5.253c0 1.111.917 2.028 2.041 2 4.164-.076 8.134 1.552 10.946 4.307 2.892 2.834 4.484 6.611 4.484 10.637 0 4.206-1.804 8.242-4.949 11.072-3.19 2.87-7.492 4.252-11.792 3.8-1.005-.105-1.926.55-2.157 1.531-5.735 24.364-27.394 41.38-52.672 41.38s-46.938-17.016-52.673-41.38zm126.592 135.488h-19.447v-42.84c0-1.104-.896-2-2-2s-2 .896-2 2v42.84h-101v-42.84c0-1.104-.896-2-2-2s-2 .896-2 2v42.84h-19.393v-59.562c0-14.402 11.717-26.119 26.119-26.119h19.686c1.104 0 2-.896 2-2v-8.516c7.887 3.912 16.769 6.088 26.116 6.088 9.329 0 18.195-2.167 26.07-6.065-.003.001-.005.003-.008.004v8.488c0 1.104.896 2 2 2h19.74c14.401 0 26.118 11.717 26.118 26.119v59.563z" fill="#3762cc"/><path d="m62.231 227.089c21.622 0 39.75-14.924 44.669-35.031l15.672-8.826c1.666-.938 1.666-3.337 0-4.275l-15.672-8.826c-4.919-20.107-23.046-35.031-44.669-35.031-25.402 0-45.994 20.592-45.994 45.994s20.593 45.995 45.994 45.995z" fill="#e0ebfc"/><g fill="#6bdddd"><path d="m55.579 176.262c-1.422 0-2.707.735-3.638 1.922-.346.441-1.03.441-1.376 0-.931-1.187-2.216-1.922-3.638-1.922h-9.815c-3.622 0-6.559 2.937-6.559 6.559 0 3.622 2.937 6.559 6.559 6.559h9.815c1.422 0 2.707-.735 3.638-1.922.346-.441 1.03-.441 1.376 0 .931 1.187 2.216 1.922 3.638 1.922h9.815c3.622 0 6.559-2.937 6.559-6.559 0-3.622-2.937-6.559-6.559-6.559z"/><path d="m66.949 196.671c-1.422 0-2.707.735-3.638 1.922-.346.441-1.03.441-1.376 0-.931-1.187-2.216-1.922-3.638-1.922h-9.815c-3.622 0-6.559 2.937-6.559 6.559 0 3.622 2.937 6.559 6.559 6.559h9.815c1.422 0 2.707-.735 3.638-1.922.346-.441 1.03-.441 1.376 0 .931 1.187 2.216 1.922 3.638 1.922h9.815c3.622 0 6.559-2.937 6.559-6.559 0-3.622-2.937-6.559-6.559-6.559z"/><path d="m66.949 155.852c-1.422 0-2.707.735-3.638 1.922-.346.441-1.03.441-1.376 0-.931-1.187-2.216-1.922-3.638-1.922h-9.815c-3.622 0-6.559 2.937-6.559 6.559 0 3.622 2.937 6.559 6.559 6.559h9.815c1.422 0 2.707-.735 3.638-1.922.346-.441 1.03-.441 1.376 0 .931 1.187 2.216 1.922 3.638 1.922h9.815c3.622 0 6.559-2.937 6.559-6.559 0-3.622-2.937-6.559-6.559-6.559z"/></g><g><path d="m62.231 229.089c-26.464 0-47.994-21.53-47.994-47.994s21.53-47.994 47.994-47.994c21.887 0 40.84 14.639 46.396 35.708l14.926 8.406c1.42.8 2.268 2.25 2.268 3.88s-.848 3.08-2.268 3.88l-14.926 8.406c-5.555 21.069-24.509 35.708-46.396 35.708zm0-91.987c-24.258 0-43.994 19.735-43.994 43.994s19.735 43.994 43.994 43.994c20.331 0 37.9-13.778 42.726-33.506.131-.538.479-.996.961-1.268l15.672-8.826c.19-.107.23-.274.23-.395s-.04-.288-.23-.395l-15.672-8.826c-.482-.271-.83-.73-.961-1.268-4.826-19.726-22.395-33.504-42.726-33.504z" fill="#3762cc"/></g><g><path d="m65.394 191.38h-9.815c-1.57 0-3.093-.621-4.326-1.736-1.232 1.115-2.756 1.736-4.326 1.736h-9.815c-4.72 0-8.559-3.839-8.559-8.559s3.839-8.559 8.559-8.559h9.815c1.57 0 3.093.621 4.326 1.735 1.232-1.115 2.756-1.735 4.326-1.735h9.815c4.72 0 8.559 3.839 8.559 8.559s-3.839 8.559-8.559 8.559zm-14.141-6.254c.891 0 1.715.4 2.262 1.097.339.432 1.058 1.157 2.064 1.157h9.815c2.514 0 4.559-2.045 4.559-4.559s-2.045-4.559-4.559-4.559h-9.815c-1.006 0-1.726.725-2.064 1.157-.546.696-1.371 1.096-2.261 1.096s-1.715-.4-2.262-1.097c-.338-.432-1.058-1.156-2.064-1.156h-9.815c-2.514 0-4.559 2.045-4.559 4.559s2.045 4.559 4.559 4.559h9.815c1.006 0 1.725-.725 2.064-1.157.546-.697 1.37-1.097 2.261-1.097z" fill="#3762cc"/></g><g><path d="m76.765 211.789h-9.815c-1.57 0-3.093-.621-4.326-1.735-1.231 1.114-2.755 1.735-4.326 1.735h-9.815c-4.72 0-8.559-3.839-8.559-8.559s3.839-8.559 8.559-8.559h9.815c1.57 0 3.094.621 4.326 1.736 1.232-1.115 2.756-1.736 4.326-1.736h9.815c4.72 0 8.559 3.839 8.559 8.559s-3.84 8.559-8.559 8.559zm-14.141-6.253c.89 0 1.714.399 2.261 1.095.339.433 1.058 1.158 2.064 1.158h9.815c2.514 0 4.559-2.045 4.559-4.559s-2.045-4.559-4.559-4.559h-9.815c-1.006 0-1.725.725-2.064 1.157-.547.697-1.371 1.097-2.262 1.097s-1.715-.4-2.262-1.097c-.339-.432-1.057-1.157-2.064-1.157h-9.815c-2.514 0-4.559 2.045-4.559 4.559s2.045 4.559 4.559 4.559h9.815c1.007 0 1.725-.725 2.064-1.156.548-.697 1.372-1.097 2.263-1.097z" fill="#3762cc"/></g><g><path d="m76.765 170.97h-9.815c-1.57 0-3.093-.621-4.326-1.735-1.231 1.114-2.755 1.735-4.326 1.735h-9.815c-4.72 0-8.559-3.839-8.559-8.559s3.839-8.559 8.559-8.559h9.815c1.57 0 3.094.621 4.326 1.736 1.232-1.115 2.756-1.736 4.326-1.736h9.815c4.72 0 8.559 3.839 8.559 8.559s-3.84 8.559-8.559 8.559zm-14.141-6.253c.89 0 1.714.399 2.261 1.095.339.433 1.058 1.158 2.064 1.158h9.815c2.514 0 4.559-2.045 4.559-4.559s-2.045-4.559-4.559-4.559h-9.815c-1.006 0-1.725.725-2.064 1.157-.547.697-1.372 1.096-2.262 1.096s-1.714-.399-2.261-1.095c-.339-.433-1.058-1.158-2.064-1.158h-9.815c-2.514 0-4.559 2.045-4.559 4.559s2.045 4.559 4.559 4.559h9.815c1.007 0 1.725-.725 2.064-1.156.547-.697 1.371-1.097 2.262-1.097z" fill="#3762cc"/></g></g></svg>