<svg id="Layer_1" enable-background="new 0 0 256 256" height="512" viewBox="0 0 256 256" width="512" xmlns="http://www.w3.org/2000/svg"><g><path d="m142.617 149.576h-45.985v-71.851c0-12.698 10.294-22.992 22.992-22.992 12.698 0 22.992 10.294 22.992 22.992v71.851z" fill="#a4c9ff"/><path d="m96.632 128.348h68.769v28.905h-68.769z" fill="#4671c6"/><path d="m211.265 231.322h-56.727c-1.633 0-2.956-1.324-2.956-2.956v-6.406c0-1.633 1.324-2.956 2.956-2.956h56.727c1.633 0 2.956 1.324 2.956 2.956v6.406c0 1.632-1.323 2.956-2.956 2.956z" fill="#6bdddd"/><path d="m96.632 160.045h-19.051v-93.94c0-2.177 1.765-3.942 3.942-3.942h11.167c2.177 0 3.942 1.765 3.942 3.942z" fill="#6bdddd"/><ellipse cx="119.624" cy="28.866" fill="#f9cfcf" rx="24.5" ry="25.866"/><circle cx="105.5" cy="189.279" fill="#6bdddd" r="63.721"/><path d="m105.501 238.646c-27.222 0-49.368-22.146-49.368-49.368 0-27.221 22.146-49.368 49.368-49.368 27.221 0 49.367 22.146 49.367 49.368s-22.146 49.368-49.367 49.368z" fill="#e0ebfc"/><path d="m111.245 63.667-38.804 24.293c-2.178 1.364-3.501 3.753-3.501 6.323v41.225c0 5.57 4.515 10.085 10.085 10.085 5.45 0 9.914-4.329 10.081-9.776l1.086-35.443 33.138-11.298c7.966-2.716 11.82-11.739 8.273-19.372-3.59-7.726-13.138-10.557-20.358-6.037z" fill="#f9cfcf"/><path d="m173.351 214.867c.339 2.373 2.371 4.135 4.767 4.135h20.89c3.752 0 6.793-3.042 6.793-6.793v-4.231c0-5.34-4.329-9.668-9.668-9.668h-5.769v-54.629c0-8.469-6.865-15.333-15.334-15.333h-9.629v28.905z" fill="#f9cfcf"/><g fill="#3762cc"><path d="m105.501 205.646c9.024 0 16.367-7.343 16.367-16.368s-7.343-16.367-16.367-16.367c-9.025 0-16.368 7.342-16.368 16.367 0 9.026 7.343 16.368 16.368 16.368zm0-28.735c6.819 0 12.367 5.548 12.367 12.367 0 6.82-5.548 12.368-12.367 12.368-6.82 0-12.368-5.548-12.368-12.368 0-6.819 5.548-12.367 12.368-12.367z"/><path d="m211.265 217.003h-4.895c.902-1.38 1.431-3.025 1.431-4.793v-4.231c0-6.434-5.234-11.668-11.668-11.668h-3.77v-52.628c0-9.558-7.775-17.333-17.333-17.333-10.813 0-17.573 0-30.414 0v-48.625c0-10.298-6.262-19.16-15.178-22.982 9.766-4.111 16.686-14.157 16.686-25.877 0-15.365-11.888-27.866-26.5-27.866s-26.5 12.501-26.5 27.866c0 11.716 6.914 21.759 16.675 25.872-4.702 1.999-8.685 5.4-11.392 9.769-.701-2.501-2.995-4.343-5.717-4.343h-11.168c-3.276 0-5.941 2.666-5.941 5.941v17.529l-4.202 2.631c-2.78 1.741-4.439 4.738-4.439 8.018 0 45.62-.016 40.823.028 41.779-17.044 12.362-27.188 32.163-27.188 53.217-.001 36.239 29.482 65.721 65.72 65.721 19.323 0 36.722-8.385 48.758-21.704.662.04-4.816.026 57.007.026 2.732 0 4.956-2.223 4.956-4.956v-6.406c0-2.734-2.224-4.957-4.956-4.957zm-22.902-73.322v54.628c0 1.104.896 2 2 2h5.77c4.229 0 7.668 3.44 7.668 7.668v4.231c0 2.643-2.15 4.793-4.793 4.793h-20.89c-1.391 0-2.588-1.038-2.787-2.414l-4.823-34.955s-3.107-22.516-3.107-22.519v-26.767h7.63c7.351.002 13.332 5.983 13.332 13.335zm-16.994 71.46c.001.003.001.006.002.009.093.654.282 1.275.547 1.853h-6.851c2.038-4.362 3.611-8.981 4.655-13.797zm-7.969-59.889h-1.682c-6.552-10.81-15.943-19.399-27.09-24.904h28.771v24.904zm-66.276-126.386c0-13.16 10.094-23.866 22.5-23.866s22.5 10.707 22.5 23.866-10.094 23.866-22.5 23.866-22.5-10.706-22.5-23.866zm22.5 27.866c11.575 0 20.992 9.417 20.992 20.992v48.623h-16.166c-7.95-2.398-16.745-3.369-25.775-2.431-.014.001-.029.002-.043.003v-24.309l25.344-8.641c4.332-1.477 7.849-4.738 9.647-8.95.674-1.579 1.085-3.24 1.233-4.918.247-2.798-.234-5.644-1.439-8.239-1.952-4.203-5.62-7.368-10.063-8.686-4.442-1.317-9.242-.662-13.171 1.796l-8.948 5.602c3.609-6.582 10.555-10.842 18.389-10.842zm-14.123 85.179c26.118 0 47.367 21.249 47.367 47.367 0 26.119-21.249 47.368-47.367 47.368-26.119 0-47.368-21.25-47.368-47.368s21.249-47.367 47.368-47.367zm-14.065-16.838.713-23.253 2.482-.846v23.488c-1.002.167-2.369.432-3.195.611zm-11.855-43.943v-15.025c0-1.07.871-1.941 1.941-1.941h11.168c1.07 0 1.941.871 1.941 1.941v5.602l-7.433 4.653zm-8.642 13.153c0-1.893.958-3.623 2.563-4.627l10.328-6.466 13.863-8.678h.001l14.612-9.147c2.989-1.871 6.613-2.319 9.885-1.358.009.003.018.004.026.007 3.343.991 6.103 3.374 7.572 6.536 3.051 6.569-.34 14.329-7.104 16.636l-26.698 9.103-6.439 2.196c-.789.269-1.328.999-1.354 1.832l-.836 27.251s0 0 0 0l-.251 8.191c-.135 4.395-3.685 7.838-8.081 7.838-4.491 0-8.086-3.725-8.086-8.085v-41.229zm34.561 156.717c-34.033 0-61.721-27.688-61.721-61.722 0-19.202 8.983-37.3 24.164-48.963 1.48 3.397 4.477 5.976 8.13 6.898-13.253 9.299-21.94 24.682-21.94 42.065 0 28.325 23.044 51.368 51.368 51.368s51.367-23.043 51.367-51.368c0-28.324-23.043-51.367-51.367-51.367-5.348 0-10.506.824-15.358 2.347.571-1.348.914-2.822.961-4.38.045-1.481.155-5.049.204-6.65 5.299-1.242 10.752-1.842 16.66-1.609 5.314.209 10.708 1.09 16.131 2.807 14.312 4.534 26.59 14.243 34.324 27.133 4.342 7.218 7.1 15.233 8.134 22.715.432 2.941.664 5.945.664 9.004 0 10.563-2.671 20.512-7.367 29.214-10.678 19.829-31.455 32.508-54.354 32.508zm106.721-22.635c0 .527-.429.956-.956.956h-53.668c.831-1.079 1.618-2.189 2.38-3.315.003-.005.006-.009.009-.013 1.095-1.621 2.126-3.283 3.07-4.99h15.063 20.89 12.257c.527 0 .956.429.956.956v6.406z"/></g></g></svg>