<svg id="Layer_1" enable-background="new 0 0 256 256" height="512" viewBox="0 0 256 256" width="512" xmlns="http://www.w3.org/2000/svg"><g><g><g><path d="m122.232 49.056h-3.372c-.828 0-1.499-.671-1.499-1.499s.671-1.499 1.499-1.499h3.372c.828 0 1.499.671 1.499 1.499s-.671 1.499-1.499 1.499z" fill="#a4c9ff"/></g><g><path d="m143.413 49.056h-5.295c-.828 0-1.499-.671-1.499-1.499s.671-1.499 1.499-1.499h5.295c.828 0 1.499.671 1.499 1.499-.001.828-.672 1.499-1.499 1.499zm-10.591 0h-5.295c-.828 0-1.499-.671-1.499-1.499s.671-1.499 1.499-1.499h5.295c.828 0 1.499.671 1.499 1.499s-.671 1.499-1.499 1.499z" fill="#a4c9ff"/></g><g><path d="m152.079 49.056h-3.372c-.828 0-1.499-.671-1.499-1.499s.671-1.499 1.499-1.499h3.372c.828 0 1.499.671 1.499 1.499s-.671 1.499-1.499 1.499z" fill="#a4c9ff"/></g></g><g><g><path d="m145.725 32.783c-.514 0-1.014-.265-1.293-.739-.42-.713-.182-1.632.532-2.051l2.906-1.71c.713-.42 1.632-.181 2.051.532.42.713.182 1.632-.532 2.051l-2.906 1.71c-.238.14-.5.207-.758.207z" fill="#a4c9ff"/></g><g><path d="m125.922 44.433c-.514 0-1.014-.264-1.293-.739-.42-.713-.182-1.632.532-2.051l4.951-2.913c.713-.419 1.632-.182 2.051.532.42.713.182 1.632-.532 2.051l-4.951 2.913c-.238.141-.499.207-.758.207zm9.902-5.825c-.514 0-1.014-.264-1.293-.739-.42-.713-.182-1.632.532-2.051l4.951-2.913c.714-.419 1.633-.182 2.051.532.42.713.182 1.632-.532 2.051l-4.951 2.913c-.238.14-.5.207-.758.207z" fill="#a4c9ff"/></g><g><path d="m120.969 50.766c-.258 0-.52-.067-.758-.207l-2.906-1.71c-.458-.269-.739-.76-.739-1.292 0-.531.281-1.022.739-1.292l2.906-1.71c.714-.419 1.632-.182 2.051.532.42.713.182 1.632-.532 2.051l-.711.419.711.418c.713.42.951 1.338.532 2.051-.28.475-.78.74-1.293.74z" fill="#a4c9ff"/></g><g><path d="m140.771 62.417c-.258 0-.52-.067-.758-.207l-4.951-2.913c-.713-.42-.951-1.338-.532-2.051s1.339-.952 2.051-.532l4.951 2.913c.713.42.951 1.338.532 2.051-.279.474-.779.739-1.293.739zm-9.901-5.826c-.258 0-.52-.067-.758-.207l-4.951-2.913c-.713-.42-.951-1.338-.532-2.051.42-.713 1.338-.952 2.051-.532l4.951 2.913c.713.42.951 1.338.532 2.051-.279.475-.78.739-1.293.739z" fill="#a4c9ff"/></g><g><path d="m148.628 67.04c-.258 0-.52-.067-.758-.207l-2.906-1.71c-.713-.42-.951-1.338-.532-2.051.42-.713 1.338-.952 2.051-.532l2.906 1.71c.713.42.951 1.338.532 2.051-.279.474-.779.739-1.293.739z" fill="#a4c9ff"/></g></g><ellipse cx="201.563" cy="47.557" fill="#f9a7a7" rx="41.549" ry="41.549" transform="matrix(.973 -.23 .23 .973 -5.534 47.582)"/><path d="m201.563 79.248c-8.483 0-16.446-3.291-22.423-9.268-12.364-12.364-12.364-32.481 0-44.845 5.977-5.977 13.94-9.268 22.423-9.268s16.446 3.292 22.423 9.268c12.364 12.364 12.364 32.482 0 44.846-5.977 5.976-13.94 9.267-22.423 9.267z" fill="#e0ebfc"/><g><path d="m187.635 68.764 16.471 4.413c2.812.753 5.701-.915 6.455-3.727l.079-.296c.753-2.812-.915-5.701-3.727-6.455l-16.471-4.413c-2.812-.753-5.701.915-6.455 3.727l-.079.296c-.753 2.811.915 5.701 3.727 6.455z" fill="#a4c9ff"/><path d="m215.013 36.649c-.12-.659-.754-1.096-1.411-.976l-5.387.98v-1.556c0-1.488-.437-2.871-1.182-4.039l2.723-2.723c.474-.474.474-1.242 0-1.716-.473-.474-1.242-.474-1.716 0l-2.623 2.623c-1.294-1.048-2.941-1.679-4.736-1.679h-1.451v-4.594c0-.67-.543-1.213-1.213-1.213s-1.213.543-1.213 1.213v4.594h-1.68c-1.705 0-3.307.592-4.578 1.607l-2.552-2.552c-.473-.474-1.242-.474-1.716 0s-.474 1.242 0 1.716l2.644 2.644c-.29.458-.534.952-.72 1.479l-.718 2.03-5.36-2.557c-.605-.289-1.329-.032-1.617.573-.289.605-.032 1.329.573 1.617l4.962 2.367c-.418.302-.895.526-1.414.643-1.986.448-3.278 2.353-2.979 4.356l-3.032.552c-.659.12-1.096.752-.977 1.411.106.586.617.996 1.192.996.072 0 .145-.007.218-.02l3.013-.548.043.244c.238 1.354 1.174 2.48 2.462 2.962l2.19.819-3.862 3.862c-.474.474-.474 1.242 0 1.716.237.237.547.355.858.355.31 0 .621-.118.858-.355l4.644-4.644c2.421.905 5.003 1.223 7.548.973v3.938c0 .67.543 1.213 1.213 1.213s1.213-.543 1.213-1.213v-4.359c.233-.058.468-.108.699-.176 1.76-.52 3.316-1.437 4.597-2.629l3.515 3.515c.237.237.547.355.858.355s.621-.118.858-.355c.474-.474.474-1.242 0-1.716l-3.636-3.636c1.142-1.633 1.871-3.558 2.049-5.618l5.866-1.067c.659-.121 1.097-.753.977-1.412z" fill="#4671c6"/><g fill="#6bdddd"><circle cx="220.656" cy="45.126" r="6.012"/><circle cx="215.244" cy="57.295" r="3.548"/><path d="m195.143 45.29c-1.397 0-2.783-.251-4.091-.74l-3.351-1.254c-.534-.2-.922-.667-1.02-1.228-.131-.75.289-1.47.989-1.77 1.773-.759 3.157-2.221 3.816-4.086l.694-1.963c.44-1.244 1.616-2.076 2.935-2.076h5.002c1.815 0 3.286 1.471 3.286 3.286v2.725c0 2.995-1.92 5.681-4.778 6.574-1.129.353-2.301.532-3.482.532z"/></g><circle cx="197.719" cy="37.183" fill="#e0ebfc" r="3.913"/><circle cx="189.693" cy="63.7" fill="#4671c6" r="2.557"/></g><path d="m167.16 43.861h70.261v9.838h-70.261z" fill="#f9a7a7" transform="matrix(.707 -.707 .707 .707 24.757 157.328)"/><path d="m110.464 54.161h-34.906v-13.208h34.906c1.042 0 1.887.845 1.887 1.887v9.434c0 1.042-.845 1.887-1.887 1.887z" fill="#e0ebfc"/><path d="m49.327 59.035h17.49v39.718h-17.49z" fill="#a4c9ff"/><path d="m100.086 59.035h-70.441c-2.605 0-4.717-2.112-4.717-4.717v-13.522c0-2.605 2.112-4.717 4.717-4.717h70.441c1.042 0 1.887.845 1.887 1.887v19.183c0 1.041-.845 1.886-1.887 1.886z" fill="#4671c6"/><path d="m76.656 111.133h-37.167v-31.702c0-3.019 2.447-5.466 5.466-5.466h26.235c3.019 0 5.466 2.447 5.466 5.466z" fill="#4671c6"/><path d="m89.109 89.643h-62.073c-6.279 0-11.501 4.831-11.988 11.092l-10.607 136.28c-.544 6.988 4.98 12.958 11.988 12.958h83.287c7.009 0 12.532-5.97 11.988-12.958l-10.607-136.28c-.487-6.26-5.709-11.092-11.988-11.092z" fill="#e0ebfc"/><circle cx="58.072" cy="172.339" fill="#f9a7a7" r="36.074"/><path d="m77.881 165.38h-12.849v-12.849c0-1.352-1.096-2.447-2.447-2.447h-9.025c-1.352 0-2.447 1.096-2.447 2.447v12.849h-12.849c-1.352 0-2.447 1.096-2.447 2.447v9.025c0 1.352 1.096 2.447 2.447 2.447h12.849v12.849c0 1.352 1.096 2.447 2.447 2.447h9.025c1.352 0 2.447-1.096 2.447-2.447v-12.849h12.849c1.352 0 2.447-1.096 2.447-2.447v-9.025c0-1.352-1.096-2.447-2.447-2.447z" fill="#e0ebfc"/><g><path d="m201.563 91.085c-11.152 0-22.304-4.245-30.793-12.735-8.213-8.212-12.736-19.148-12.736-30.793s4.523-22.581 12.736-30.793c8.212-8.213 19.148-12.736 30.793-12.736 11.646 0 22.582 4.523 30.794 12.736 16.979 16.979 16.979 44.607 0 61.587-8.49 8.489-19.642 12.734-30.794 12.734zm0-83.057c-10.577 0-20.508 4.107-27.966 11.564-7.457 7.458-11.564 17.389-11.564 27.965 0 10.577 4.107 20.508 11.564 27.965 15.42 15.419 40.51 15.42 55.93 0s15.42-40.511 0-55.931c-7.455-7.456-17.387-11.563-27.964-11.563z" fill="#3762cc"/></g><path d="m100.086 61.035c2.143 0 3.887-1.744 3.887-3.887v-.987h6.491c2.143 0 3.887-1.744 3.887-3.887v-9.434c0-2.143-1.744-3.887-3.887-3.887h-6.491v-.987c0-2.143-1.744-3.887-3.887-3.887h-70.44c-3.704 0-6.717 3.013-6.717 6.717v13.522c0 3.704 3.013 6.717 6.717 6.717h17.682v10.931h-2.373c-4.117 0-7.466 3.349-7.466 7.465v8.212h-10.453c-7.276 0-13.417 5.682-13.982 12.936l-10.608 136.28c-.633 8.141 5.816 15.113 13.983 15.113h83.287c8.166 0 14.616-6.971 13.982-15.113l-10.606-136.28c-.565-7.254-6.707-12.936-13.982-12.936h-10.454v-8.212c0-4.116-3.349-7.465-7.466-7.465h-2.373v-10.931zm3.887-18.082h6.377v9.208h-6.377zm-14.864 48.691c5.201 0 9.591 4.062 9.994 9.247l10.606 136.28c.454 5.837-4.146 10.802-9.994 10.802h-83.286c-5.854 0-10.448-4.971-9.994-10.802l10.607-136.28c.403-5.185 4.793-9.247 9.994-9.247zm-17.919-15.678c1.911 0 3.466 1.555 3.466 3.465v8.212h-33.167v-8.212c0-1.911 1.555-3.465 3.466-3.465zm-19.863-4v-10.931h13.49v10.931zm-21.681-14.931c-1.498 0-2.717-1.219-2.717-2.717v-13.522c0-1.498 1.219-2.717 2.717-2.717h70.328v18.956c-14.843 0-55.96 0-70.328 0z" fill="#3762cc"/></g></svg>