<svg id="Layer_1" enable-background="new 0 0 256 256" height="512" viewBox="0 0 256 256" width="512" xmlns="http://www.w3.org/2000/svg"><g><g><path d="m121.697 225.362h-9.257c-.563 0-1.02-.457-1.02-1.02v-70.602h11.297v70.601c0 .564-.457 1.021-1.02 1.021z" fill="#4671c6"/><path d="m232.678 225.362h-9.257c-.563 0-1.02-.457-1.02-1.02v-70.602h11.297v70.601c0 .564-.456 1.021-1.02 1.021z" fill="#4671c6"/><path d="m239.907 161.519h-134.696v38.426c0 2.339 1.896 4.236 4.236 4.236h126.225c2.339 0 4.236-1.896 4.236-4.236v-38.426z" fill="#a4c9ff"/><g fill="#4671c6"><path d="m197.126 135.339h-49.135c-2.339 0-4.236-1.896-4.236-4.236v-24.342c0-2.339 1.896-4.236 4.236-4.236h49.135c2.339 0 4.236 1.896 4.236 4.236v24.342c0 2.339-1.896 4.236-4.236 4.236z"/><path d="m185.614 135.339h7.509v10.616h-7.509z"/><path d="m151.995 135.339h7.509v10.616h-7.509z"/></g><path d="m213.539 86.738h-81.96c-2.253 0-4.08-1.827-4.08-4.08v-47.94c0-2.253 1.827-4.08 4.08-4.08h81.96c2.253 0 4.08 1.827 4.08 4.08v47.94c0 2.254-1.827 4.08-4.08 4.08z" fill="#a4c9ff"/><path d="m153.689 22.808h37.74v71.76h-37.74z" fill="#e0ebfc" transform="matrix(0 1 -1 0 231.247 -113.871)"/><path d="m184.602 54.457h-7.812v-7.812c0-.822-.666-1.488-1.488-1.488h-5.487c-.822 0-1.488.666-1.488 1.488v7.812h-7.812c-.822 0-1.488.666-1.488 1.488v5.487c0 .822.666 1.488 1.488 1.488h7.812v7.812c0 .822.666 1.488 1.488 1.488h5.487c.822 0 1.488-.666 1.488-1.488v-7.812h7.812c.822 0 1.488-.666 1.488-1.488v-5.487c0-.822-.666-1.488-1.488-1.488z" fill="#f9a7a7"/><path d="m245.414 161.519h-145.709c-1.404 0-2.541-1.138-2.541-2.541v-10.474c0-1.404 1.138-2.541 2.541-2.541h145.709c1.404 0 2.541 1.138 2.541 2.541v10.474c0 1.403-1.138 2.541-2.541 2.541z" fill="#a4c9ff"/></g><g fill="#3762cc"><path d="m245.414 143.962h-50.29v-6.623h2.003c3.438 0 6.235-2.797 6.235-6.236v-24.342c0-3.438-2.797-6.236-6.235-6.236h-49.135c-3.438 0-6.235 2.797-6.235 6.236v24.342c0 3.438 2.797 6.236 6.235 6.236h2.003v6.623h-50.29c-2.504 0-4.541 2.037-4.541 4.542v10.474c0 2.504 2.037 4.542 4.541 4.542h3.507v36.425c0 3.43 2.783 6.22 6.209 6.234v18.629c0 1.409 1.146 2.555 2.555 2.555h10.188c1.408 0 2.555-1.146 2.555-2.555v-18.628h95.685v18.627c0 1.409 1.146 2.555 2.555 2.555h10.188c1.408 0 2.555-1.146 2.555-2.555v-18.629c3.426-.015 6.209-2.805 6.209-6.234v-36.425h3.506c2.505 0 4.542-2.037 4.542-4.542v-10.474c-.003-2.504-2.041-4.541-4.545-4.541zm-97.422-10.623c-1.232 0-2.235-1.003-2.235-2.236v-24.342c0-1.233 1.003-2.236 2.235-2.236h49.135c1.232 0 2.235 1.003 2.235 2.236v24.342c0 1.233-1.003 2.236-2.235 2.236-6 0-43.077 0-49.135 0zm43.132 4v6.616h-3.51v-6.616zm-7.51 0v6.623h-22.109v-6.623zm-26.11 0v6.616h-3.51v-6.616zm-36.787 86.023h-7.297v-17.182h7.297zm110.982 0h-7.297v-17.182h7.297zm6.209-23.418c0 1.233-1.003 2.236-2.236 2.236h-1.973c-8.286 0-118.735 0-122.278 0h-1.974c-1.232 0-2.235-1.003-2.235-2.236v-36.425h130.696zm8.048-40.967c0 .299-.243.542-.542.542h-5.506-134.697-5.507c-.298 0-.541-.243-.541-.542v-10.474c0-.299.243-.542.541-.542h145.709c.299 0 .542.243.542.542v10.474z"/><path d="m131.58 88.738h81.96c3.352 0 6.079-2.728 6.079-6.08v-47.94c0-3.353-2.728-6.08-6.079-6.08h-81.96c-3.353 0-6.08 2.728-6.08 6.08v47.94c0 3.353 2.727 6.08 6.08 6.08zm-2.08-54.02c0-1.147.934-2.08 2.08-2.08h81.96c1.146 0 2.079.933 2.079 2.08v47.94c0 1.147-.933 2.08-2.079 2.08h-81.96c-1.146 0-2.08-.933-2.08-2.08z"/><path d="m136.679 79.558h71.76c1.104 0 2-.896 2-2v-37.74c0-1.104-.896-2-2-2h-71.76c-1.104 0-2 .896-2 2v37.74c0 1.105.896 2 2 2zm2-37.74h67.76v33.74h-67.76z"/></g><g><path d="m111.42 225.362v-37.406c0-7.512-6.09-13.602-13.602-13.602h-76.171c-7.512 0-13.602 6.09-13.602 13.602v37.406z" fill="#e0ebfc"/><path d="m59.732 174.354h-25.431l25.431 51.008 25.432-51.008z" fill="#e0ebfc"/><path d="m64.506 194.757h-4.774-4.773l-3.288 14.436 8.061 16.169 8.062-16.17z" fill="#f9a7a7"/><path d="m23.278 174.354 13.148 35.705h9.295l-3.94 4.421 17.951 10.882-25.431-51.008z" fill="#e0ebfc"/><path d="m96.187 174.354h-11.023l-25.432 51.008 17.952-10.882-3.94-4.421h9.295z" fill="#e0ebfc"/><path d="m59.732 177.981-7.402 7.71 2.629 9.066h9.547l2.629-9.066z" fill="#f9a7a7"/><path d="m41.781 149.644v9.007 6.626l17.951 12.704h.001l17.916-12.68v-15.657z" fill="#f9cfcf"/><path d="m59.732 156.823c-22.487 0-40.716-18.229-40.716-40.716v-13.161h81.432v13.161c0 22.486-18.229 40.716-40.716 40.716z" fill="#4671c6"/><path d="m94.41 118.859v-3.247c0-18.98-15.526-34.366-34.678-34.366-19.152 0-34.678 15.386-34.678 34.366v3.247c-6.022-.122-10.799 4.675-10.799 10.473 0 6.192 5.405 11.089 11.715 10.422 3.579 15.204 17.332 26.532 33.762 26.532 16.431 0 30.183-11.329 33.762-26.532 6.301.666 11.715-4.222 11.715-10.422 0-5.801-4.781-10.595-10.799-10.473z" fill="#f9cfcf"/><g><path d="m59.735 149.992c-.004 0-.008 0-.016 0-1.42 0-2.662-.167-3.796-.513-1.882-.572-3.534-1.537-4.775-2.789-.584-.588-.58-1.538.008-2.121.589-.583 1.538-.58 2.121.009.894.9 2.11 1.603 3.52 2.031.847.258 1.804.383 2.925.383.004 0 .009-.001.013 0 1.122 0 2.078-.125 2.925-.383 1.409-.428 2.626-1.131 3.52-2.031.583-.589 1.532-.592 2.121-.009.588.583.592 1.533.008 2.121-1.241 1.252-2.894 2.217-4.775 2.789-1.136.345-2.378.513-3.799.513z" fill="#3762cc"/></g><path d="m77.736 136.138c-2.3 0-4.164-1.864-4.164-4.164v-4.442c0-2.3 1.864-4.164 4.164-4.164 2.3 0 4.164 1.864 4.164 4.164v4.442c0 2.299-1.864 4.164-4.164 4.164z" fill="#3762cc"/><path d="m41.72 136.138c-2.3 0-4.164-1.864-4.164-4.164v-4.442c0-2.3 1.864-4.164 4.164-4.164 2.3 0 4.164 1.864 4.164 4.164v4.442c0 2.299-1.864 4.164-4.164 4.164z" fill="#3762cc"/><path d="m72.427 68.613h-22.876-4.287c-14.496 0-26.248 11.751-26.248 26.248v13.436h19.513c6.087 0 11.022-4.934 11.022-11.022v-3.208c0 7.859 6.371 14.23 14.23 14.23h36.666v-11.664c0-15.475-12.545-28.02-28.02-28.02z" fill="#4671c6"/><g fill="#e0ebfc"><path d="m44.183 194.175 15.549-16.194-17.951-12.704-7.48 9.077z"/><path d="m75.281 194.175-15.549-16.194 17.952-12.704 7.48 9.077z"/></g></g><path d="m97.818 172.354c-4.242 0-7.275 0-11.71 0l-6.459-7.838v-2.009c7.329-4.682 12.898-11.927 15.38-20.7 2.968-.095 5.83-1.229 8.05-3.226 2.625-2.362 4.131-5.733 4.131-9.249 0-3.365-1.329-6.521-3.743-8.887-.369-.361-.762-.689-1.165-.999.088-1.125.148-2.246.148-3.341l-.002-7.811v-11.661c0-16.553-13.467-30.02-30.02-30.02h-27.163c-15.576 0-28.248 12.672-28.248 28.248v13.436 7.811c0 1.1.059 2.22.147 3.34-.404.309-.796.637-1.165.998-2.414 2.365-3.743 5.521-3.743 8.887 0 3.516 1.506 6.888 4.132 9.25 2.22 1.998 5.081 3.13 8.049 3.225 2.478 8.758 8.034 15.994 15.345 20.677v2.075l-6.423 7.794c-4.412 0-7.501 0-11.71 0-8.604 0-15.603 6.999-15.603 15.602v37.405c0 1.104.896 2 2 2h51.684.004.001s0 0 0 0h.001.004 51.683c1.104 0 2-.896 2-2v-37.405c-.003-8.603-7.002-15.602-15.605-15.602zm-15.024 2.269-8.036 16.119c-1.888-1.966-10.599-11.038-11.974-12.47 3.642-2.577 3.053-2.161 3.229-2.285l11.31-8.004zm-9.931 19.92-4.361 8.748-1.93-8.474 1.52-5.243zm-7.97-8.299-1.889 6.514h-6.542l-1.89-6.514 5.16-5.374zm-19.367-20.767c4.387 1.814 9.19 2.809 14.206 2.809s9.819-.995 14.206-2.81c-12.619 8.931-8.864 6.273-14.206 10.054zm52.899-48.047c-.655-.204-1.327-.356-2.015-.452 0-1.051.055-3.66-.396-6.682h2.433c.002 5.867.013 6.134-.022 7.134zm-77.409-22.57c0-13.37 10.878-24.248 24.248-24.248h27.163c14.348 0 26.02 11.672 26.02 26.02v9.664h-4.832-29.834c-6.743 0-12.229-5.486-12.229-12.229v-8.538c0-1.104-.896-2-2-2s-2 .896-2 2c0 13.327.144 12.876-.532 14.769-1.247 3.49-4.577 5.998-8.49 5.998h-.035-12.645-4.834zm0 15.436h2.434c-.416 2.792-.396 5.091-.396 6.682-.687.095-1.36.248-2.015.452-.034-1-.023-1.279-.023-7.134zm6.901 29c-.215-.911-1.028-1.542-1.945-1.542-1 0-3.974.496-6.909-2.146-1.784-1.605-2.808-3.893-2.808-6.277 0-2.282.903-4.423 2.543-6.03 1.511-1.481 3.695-2.471 6.216-2.444.008 0 .015-.002.023-.001 1.122.038 2.017-.941 2.017-1.998v-3.247c0-1.771.149-3.553.445-5.315 10.73 0 12.995.4 16.428-1.172 2.742-1.254 4.977-3.433 6.302-6.135 2.906 4.399 7.896 7.308 13.552 7.308h28.181c.003.02.008.039.011.059.276 1.662.438 3.713.438 5.256v3.247c0 1.056.887 2.03 2.018 1.998 2.142-.06 4.541.782 6.238 2.446 1.64 1.607 2.543 3.748 2.543 6.03 0 2.383-1.022 4.671-2.806 6.276-1.837 1.653-4.212 2.421-6.699 2.158-1.003-.116-1.927.55-2.157 1.53-3.464 14.714-16.547 24.99-31.815 24.99s-28.353-10.277-31.816-24.991zm14.225 28.687 14.538 10.289-11.973 12.47-8.037-16.119zm10.751 26.834-1.93 8.473-4.361-8.747 4.771-4.969zm-42.849 28.544v-35.405c0-6.084 4.802-11.602 11.839-11.602l12.666 34.396c.29.787 1.039 1.309 1.877 1.309h4.833l-.972 1.089c-.396.444-.573 1.04-.484 1.628.088.587.433 1.105.94 1.414l11.83 7.171zm34.83-9.345 2.341-2.625c1.146-1.286.231-3.331-1.493-3.331h-7.9l-11.675-31.706h6.916c1.128 2.262 21.328 42.776 21.796 43.715zm14.859 6.863-5.954-11.941 2.775-12.181h6.356l2.775 12.181zm9.852-10.795c2.098-4.208 12.216-24.501 16.817-33.73h6.917l-11.675 31.706h-7.9c-1.723 0-2.64 2.044-1.493 3.331l2.341 2.625-9.984 6.052c.039-.079 4.977-9.984 4.977-9.984zm39.835 13.277h-42.528l11.829-7.171c.508-.308.853-.826.94-1.414.089-.588-.089-1.184-.484-1.628l-.972-1.089h4.833c.838 0 1.587-.522 1.877-1.309l12.666-34.396c7.021 0 11.839 5.506 11.839 11.602z" fill="#3762cc"/></g></svg>