<svg id="Layer_1" enable-background="new 0 0 256 256" height="512" viewBox="0 0 256 256" width="512" xmlns="http://www.w3.org/2000/svg"><g><path d="m143.897 74.154h-31.794c-3.763 0-6.813-3.05-6.813-6.813v-54.693c0-3.763 3.05-6.813 6.813-6.813h31.794c3.763 0 6.813 3.05 6.813 6.813v54.693c0 3.763-3.05 6.813-6.813 6.813z" fill="#6bdddd"/><path d="m183.218 91.712-23.992-13.012v-39.673h-62.452v39.673l-23.992 13.012c-5.858 3.177-9.506 9.306-9.506 15.97v128.285c0 9.407 7.626 17.033 17.033 17.033h95.382c9.407 0 17.033-7.626 17.033-17.033v-128.284c0-6.664-3.649-12.794-9.506-15.971z" fill="#4671c6"/><path d="m63.276 145.515h129.448v56h-129.448z" fill="#a4c9ff"/><g fill="#4671c6"><path d="m69.81 183.6c-.312-.312-.467-.754-.467-1.328v-13.749c0-.574.156-1.016.467-1.328.311-.311.754-.467 1.328-.467h8.707c1.213 0 1.82.492 1.82 1.476 0 1-.607 1.5-1.82 1.5h-6.764v4.058h6.271c1.213 0 1.82.5 1.82 1.5 0 .983-.607 1.476-1.82 1.476h-6.271v4.353h6.764c1.213 0 1.82.5 1.82 1.5 0 .984-.607 1.476-1.82 1.476h-8.707c-.574.001-1.017-.155-1.328-.467z"/><path d="m88.686 183.674c-.353-.344-.529-.803-.529-1.377v-12.445h-3.984c-1.213 0-1.82-.524-1.82-1.574 0-1.033.606-1.55 1.82-1.55h11.806c1.213 0 1.82.517 1.82 1.55 0 1.049-.607 1.574-1.82 1.574h-3.984v12.445c0 .574-.172 1.033-.517 1.377s-.812.517-1.402.517c-.575 0-1.038-.173-1.39-.517z"/><path d="m114.448 167.122c.345.344.517.804.517 1.377v13.797c0 .574-.172 1.038-.517 1.39-.344.353-.803.529-1.377.529s-1.029-.172-1.365-.517c-.336-.344-.504-.812-.504-1.402v-5.509h-7.994v5.509c0 .574-.172 1.038-.516 1.39-.344.353-.795.529-1.353.529-.574 0-1.033-.172-1.377-.517-.345-.344-.517-.812-.517-1.402v-13.797c0-.574.172-1.033.517-1.377.344-.344.803-.517 1.377-.517s1.029.172 1.365.517c.336.344.504.804.504 1.377v5.239h7.994v-5.239c0-.574.168-1.033.504-1.377s.791-.517 1.365-.517 1.033.173 1.377.517z"/><path d="m134.764 182.518c0 .459-.185.848-.554 1.168s-.791.479-1.267.479c-.312 0-.606-.086-.885-.258s-.492-.431-.64-.775l-1.303-2.902h-8.337l-1.304 2.902c-.147.344-.356.603-.627.775s-.57.258-.898.258c-.476 0-.902-.16-1.279-.479-.377-.32-.566-.709-.566-1.168 0-.229.065-.492.197-.787l6.641-13.945c.18-.394.451-.692.812-.897s.746-.308 1.156-.308c.426 0 .819.107 1.18.32s.64.508.836.885l6.641 13.945c.131.295.197.558.197.787zm-11.683-5.189h5.73l-2.853-6.395z"/><path d="m151.426 167.134c.335.353.504.808.504 1.365v13.797c0 .574-.168 1.038-.504 1.39-.336.353-.775.529-1.316.529-.59 0-1.066-.213-1.427-.639l-8.239-10.551v9.272c0 .574-.16 1.038-.479 1.39-.32.353-.75.529-1.291.529s-.976-.176-1.304-.529c-.328-.352-.492-.815-.492-1.39v-13.797c0-.557.168-1.012.504-1.365.336-.352.775-.529 1.316-.529.606 0 1.074.213 1.402.64l8.239 10.478v-9.223c0-.557.164-1.012.492-1.365.328-.352.754-.529 1.279-.529.541-.002.98.175 1.316.527z"/><path d="m158.854 183.195c-1.271-.729-2.25-1.762-2.939-3.099-.688-1.336-1.033-2.906-1.033-4.71 0-1.803.345-3.373 1.033-4.709s1.668-2.365 2.939-3.087c1.271-.721 2.767-1.082 4.489-1.082s3.217.361 4.488 1.082c1.271.722 2.25 1.75 2.939 3.087.689 1.336 1.033 2.906 1.033 4.709 0 1.804-.344 3.374-1.033 4.71-.688 1.337-1.668 2.37-2.939 3.099s-2.767 1.094-4.488 1.094-3.219-.365-4.489-1.094zm7.895-3.407c.828-1.017 1.242-2.484 1.242-4.403 0-1.918-.41-3.381-1.23-4.39-.82-1.008-1.959-1.512-3.418-1.512s-2.595.504-3.407 1.512c-.812 1.009-1.217 2.472-1.217 4.39s.41 3.386 1.23 4.403c.819 1.017 1.951 1.525 3.394 1.525 1.442 0 2.577-.508 3.406-1.525z"/><path d="m175.196 183.6c-.312-.312-.467-.754-.467-1.328v-13.773c0-.574.172-1.033.517-1.377.344-.344.812-.517 1.402-.517s1.058.172 1.402.517.517.804.517 1.377v12.445h6.296c1.197 0 1.795.525 1.795 1.574 0 1.033-.599 1.549-1.795 1.549h-8.337c-.576.001-1.019-.155-1.33-.467z"/></g><path d="m163.743 61.143h-71.486c-2.209 0-4-1.791-4-4v-14.116c0-2.209 1.791-4 4-4h71.485c2.209 0 4 1.791 4 4v14.116c.001 2.209-1.79 4-3.999 4z" fill="#a4c9ff"/><path d="m184.172 89.954-22.945-12.444v-14.367h2.516c3.309 0 6-2.691 6-6v-14.116c0-3.309-2.691-6-6-6h-11.033v-24.38c0-4.859-3.953-8.813-8.813-8.813h-31.794c-4.859 0-8.813 3.953-8.813 8.813v24.38h-11.033c-3.309 0-6 2.691-6 6v14.116c0 3.309 2.691 6 6 6h2.516v14.367l-22.944 12.444c-6.509 3.531-10.552 10.324-10.552 17.729v37.832 56 34.453c0 10.495 8.538 19.033 19.032 19.033h95.383c10.494 0 19.032-8.538 19.032-19.033v-34.453-56-37.832c0-7.405-4.043-14.198-10.552-17.729zm-76.882-77.307c0-2.654 2.159-4.813 4.813-4.813h31.794c2.653 0 4.813 2.159 4.813 4.813v24.38h-41.42zm-15.033 46.496c-1.103 0-2-.897-2-2v-14.116c0-1.103.897-2 2-2h71.485c1.103 0 2 .897 2 2v14.116c0 1.103-.897 2-2 2-7.159 0-63.608 0-71.485 0zm98.467 176.824c0 8.289-6.743 15.033-15.032 15.033h-95.383c-8.289 0-15.032-6.744-15.032-15.033v-32.453h125.447zm0-36.452h-125.448v-52h125.447v52zm0-56h-125.448v-35.832c0-5.936 3.242-11.382 8.459-14.212l23.991-13.012c.645-.35 1.046-1.025 1.046-1.758v-15.558h58.453v15.557c0 .733.401 1.408 1.047 1.758l23.991 13.012h-.001c5.219 2.831 8.46 8.277 8.46 14.213v35.832z" fill="#3762cc"/></g></svg>