<svg id="Layer_1" enable-background="new 0 0 256 256" height="512" viewBox="0 0 256 256" width="512" xmlns="http://www.w3.org/2000/svg"><g><path d="m3 245.32v-234.64c0-4.242 3.438-7.68 7.68-7.68h165.306c4.242 0 7.68 3.438 7.68 7.68v234.64c0 4.241-3.438 7.68-7.68 7.68h-165.306c-4.242 0-7.68-3.438-7.68-7.68z" fill="#e0ebfc"/><g><g><path d="m158.828 49.862h-130.99c-3.313 0-6-2.687-6-6s2.687-6 6-6h130.99c3.313 0 6 2.687 6 6s-2.686 6-6 6z" fill="#4671c6"/></g><g><path d="m158.828 91.931h-130.99c-3.313 0-6-2.687-6-6s2.687-6 6-6h130.99c3.313 0 6 2.687 6 6s-2.686 6-6 6z" fill="#4671c6"/></g><g><path d="m158.828 134h-130.99c-3.313 0-6-2.687-6-6s2.687-6 6-6h130.99c3.313 0 6 2.687 6 6s-2.686 6-6 6z" fill="#4671c6"/></g><g><path d="m158.828 176.07h-130.99c-3.313 0-6-2.687-6-6s2.687-6 6-6h130.99c3.313 0 6 2.687 6 6s-2.686 6-6 6z" fill="#4671c6"/></g><g><path d="m158.828 218.138h-130.99c-3.313 0-6-2.687-6-6s2.687-6 6-6h130.99c3.313 0 6 2.687 6 6s-2.686 6-6 6z" fill="#4671c6"/></g></g><g><path d="m175.986 255h-165.306c-5.337 0-9.68-4.343-9.68-9.68v-234.64c0-5.337 4.343-9.68 9.68-9.68h165.307c5.337 0 9.68 4.343 9.68 9.68v234.64c-.001 5.337-4.344 9.68-9.681 9.68zm-165.306-250c-3.132 0-5.68 2.548-5.68 5.68v234.64c0 3.132 2.548 5.68 5.68 5.68h165.307c3.132 0 5.68-2.548 5.68-5.68v-234.64c0-3.132-2.548-5.68-5.68-5.68z" fill="#3762cc"/></g><path d="m239.624 182.248h-149c-4.418 0-8-3.582-8-8v-51.15c0-4.418 3.582-8 8-8h149c4.418 0 8 3.582 8 8v51.15c0 4.419-3.582 8-8 8z" fill="#f9a7a7"/><g fill="#e0ebfc"><path d="m101.594 164.509v-29.088c0-1.212.329-2.147.987-2.805.657-.657 1.592-.987 2.805-.987h17.868c2.406 0 3.844.826 3.844 3.22 0 2.354-1.481 3.168-3.844 3.168h-13.661v8.415h12.622c2.395 0 3.843.819 3.843 3.221 0 2.367-1.495 3.168-3.843 3.168h-12.622v11.688c0 2.535-1.551 4.051-3.948 4.051-2.431 0-4.051-1.614-4.051-4.051z"/><path d="m161.821 167.443c-.779.676-1.671 1.013-2.675 1.013-1.285 0-2.584-.699-3.221-2.181l-2.753-6.129h-17.608l-2.753 6.129c-.636 1.481-1.865 2.181-3.221 2.181-1.005 0-1.905-.337-2.701-1.013-1.183-1.002-1.556-2.383-.779-4.13l14.025-29.451c.78-1.705 2.478-2.545 4.155-2.545 1.773 0 3.412.923 4.259 2.545l14.024 29.451c.776 1.747.405 3.128-.752 4.13zm-23.503-13.427h12.102l-6.025-13.505z"/><path d="m173.794 166.431c-2.701-1.523-4.779-3.705-6.233-6.545-1.454-2.839-2.181-6.163-2.181-9.973 0-3.808.727-7.125 2.181-9.947s3.532-4.995 6.233-6.519c2.701-1.523 5.851-2.286 9.454-2.286 4.536 0 8.449 1.247 11.739 3.74 1.033.827 1.402 1.564 1.402 2.805 0 .901-.252 1.671-.753 2.311-.503.642-1.117.961-1.844.961-.935 0-1.573-.194-2.493-.831-1.385-.9-2.667-1.55-3.844-1.948-1.178-.398-2.441-.597-3.792-.597-3.324 0-5.826 1.03-7.506 3.09s-2.519 5.134-2.519 9.22c0 8.242 3.342 12.362 10.025 12.362 1.281 0 2.494-.199 3.636-.598 1.143-.398 2.476-1.047 4-1.947.519-.312.952-.528 1.298-.649 1.15-.403 2.258-.215 3.039.779.915 1.171.933 2.899.415 3.896-.226.433-.58.84-1.064 1.221-3.29 2.493-7.203 3.74-11.739 3.74-3.602 0-6.752-.761-9.454-2.285z"/><path d="m209.582 164.509v-26.283h-8.414c-2.563 0-3.844-1.108-3.844-3.324 0-2.181 1.281-3.272 3.844-3.272h24.932c2.562 0 3.843 1.091 3.843 3.272 0 2.216-1.281 3.324-3.843 3.324h-8.415v26.283c0 2.378-1.495 3.999-4.052 3.999-2.411 0-4.051-1.542-4.051-3.999z"/></g><circle cx="165.124" cy="94.198" fill="#f9a7a7" r="31.331"/><circle cx="165.124" cy="94.198" fill="#e0ebfc" r="23.812"/><path d="m170.553 94.198 8.293-8.293c1.321-1.321 1.321-3.463 0-4.784-1.322-1.322-3.463-1.322-4.785 0l-8.293 8.293-8.293-8.293c-1.322-1.322-3.463-1.322-4.785 0-1.321 1.321-1.321 3.463 0 4.784l8.293 8.293-8.293 8.293c-1.321 1.321-1.321 3.463 0 4.784.661.661 1.526.991 2.392.991s1.732-.33 2.392-.991l8.293-8.293 8.293 8.293c.661.661 1.526.991 2.392.991s1.732-.33 2.392-.991c1.321-1.321 1.321-3.463 0-4.784z" fill="#f9a7a7"/><path d="m239.623 113.099h-47.066s-.001.001-.001.001c3.716-5.375 5.899-11.887 5.899-18.902 0-18.379-14.953-33.331-33.332-33.331s-33.331 14.952-33.331 33.331c0 7.014 2.183 13.525 5.898 18.9h-47.067c-5.514 0-10 4.486-10 10v51.149c0 5.514 4.486 10 10 10h149c5.514 0 10-4.486 10-10v-51.149c0-5.513-4.486-9.999-10-9.999zm-74.5-48.232c16.174 0 29.332 13.158 29.332 29.331s-13.158 29.331-29.332 29.331c-16.173 0-29.331-13.158-29.331-29.331s13.158-29.331 29.331-29.331zm80.5 109.381c0 3.309-2.691 6-6 6h-149c-3.309 0-6-2.691-6-6v-51.149c0-3.309 2.691-6 6-6h50.316c6.079 6.417 14.669 10.431 24.185 10.431 9.515 0 18.106-4.014 24.185-10.431h50.315c3.309 0 6 2.691 6 6v51.149z" fill="#3762cc"/></g></svg>