<svg id="Layer_1" enable-background="new 0 0 256 256" height="512" viewBox="0 0 256 256" width="512" xmlns="http://www.w3.org/2000/svg"><g><path d="m210.609 243.733v-35.457c0-14.853-12.041-26.894-26.894-26.894h-111.43c-14.853 0-26.894 12.041-26.894 26.894v35.457c0 2.209 1.791 4 4 4h157.217c2.21 0 4.001-1.791 4.001-4z" fill="#f9a7a7"/><path d="m127.945 141.89h-28.635v51.16c0 8.873 7.193 16.067 16.067 16.067h25.192c8.873 0 16.067-7.193 16.067-16.067v-51.16z" fill="#f9cfcf"/><path d="m14.768 190.231h15.738c21.601 0 39.112-17.511 39.112-39.112v-79.759h-15.738c-21.601 0-39.112 17.511-39.112 39.112z" fill="#4671c6"/><path d="m241.232 190.231h-15.738c-21.601 0-39.112-17.511-39.112-39.112v-79.759h15.738c21.601 0 39.112 17.511 39.112 39.112z" fill="#4671c6"/><path d="m70.088 90.591-.003.003c-2.698 2.698-7.072 2.698-9.769 0l-15.737-15.737c-2.698-2.698-2.698-7.072 0-9.769l.003-.003c2.698-2.698 7.072-2.698 9.769 0l15.737 15.737c2.698 2.697 2.698 7.071 0 9.769z" fill="#f9a7a7"/><path d="m185.912 90.591.003.003c2.698 2.698 7.072 2.698 9.769 0l15.737-15.737c2.698-2.698 2.698-7.072 0-9.769l-.003-.003c-2.698-2.698-7.072-2.698-9.769 0l-15.737 15.737c-2.698 2.697-2.698 7.071 0 9.769z" fill="#f9a7a7"/><path d="m190.049 91.528v-5.81c0-33.96-27.78-61.49-62.049-61.49-34.269 0-62.049 27.53-62.049 61.49v5.81c-10.774-.219-19.322 8.365-19.322 18.74 0 11.079 9.672 19.842 20.961 18.648 6.403 27.205 31.012 47.473 60.41 47.473 29.4 0 54.007-20.27 60.41-47.473 11.274 1.192 20.961-7.554 20.961-18.648 0-10.38-8.555-18.958-19.322-18.74z" fill="#f9cfcf"/><g><path d="m127.992 145.847c-2.282 0-4.271-.268-6.078-.817-3-.913-5.63-2.448-7.605-4.438-.778-.784-.773-2.05.011-2.828s2.051-.773 2.828.011c1.51 1.521 3.561 2.707 5.931 3.428 1.425.434 3.032.645 4.914.645s3.489-.211 4.914-.645c2.369-.721 4.42-1.906 5.93-3.428.779-.785 2.043-.789 2.829-.011.783.778.788 2.044.011 2.828-1.975 1.99-4.604 3.524-7.605 4.438-1.809.55-3.798.817-6.08.817z" fill="#3762cc"/></g><path d="m168.847 95.629c-.781-.781-2.047-.781-2.828 0l-2.863 2.863c-1.022-.427-2.143-.664-3.32-.664-4.764 0-8.627 3.862-8.627 8.627v9.202c0 4.764 3.862 8.627 8.627 8.627s8.627-3.862 8.627-8.627v-9.202c0-2.124-.771-4.066-2.044-5.569l2.428-2.428c.781-.781.781-2.048 0-2.829z" fill="#3762cc"/><path d="m95.393 97.828c-.981 0-1.919.171-2.797.473l-2.672-2.672c-.781-.781-2.048-.781-2.828 0-.781.781-.781 2.047 0 2.828l2.055 2.054c-1.474 1.548-2.384 3.637-2.384 5.943v9.202c0 4.764 3.862 8.627 8.627 8.627s8.627-3.862 8.627-8.627v-9.202c-.001-4.763-3.863-8.626-8.628-8.626z" fill="#3762cc"/><path d="m194.821 39.19c-6.495-16.236-24.725-30.783-47.081-30.783-31.516 0-54.609-3.131-75.514 20.209v.013c-9.582 10.708-15.416 24.84-15.416 40.342v22.556h7.547c17.957 0 33.253-11.389 39.061-27.338 5.808 15.949 21.104 27.338 39.061 27.338h56.653v-31.727c.002-7.332-1.544-14.299-4.311-20.61z" fill="#4671c6"/><path d="m215.298 71.536c.49-2.77-.327-5.727-2.462-7.862-.009-.009-.018-.018-.026-.026-1.68-1.668-3.907-2.586-6.275-2.586-1.98 0-3.856.65-5.4 1.834v-3.096c0-7.416-1.503-14.61-4.468-21.383-6.184-15.423-24.124-32.01-48.926-32.01-3.417 0-6.735-.037-9.963-.073-26.707-.3-47.803-.531-67.04 20.947-.042.047-.081.095-.118.146-8.878 9.978-14.278 22.451-15.525 35.637-1.585-1.297-3.552-2.003-5.627-2.003-2.379 0-4.617.927-6.299 2.609-.009.009-.018.018-.027.027-2.016 2.031-2.962 4.894-2.442 7.84-16.543 5.601-27.931 21.323-27.931 38.934v79.76c0 1.104.896 2 2 2h15.738c22.669 0 41.112-18.443 41.112-41.112v-6.041c5.915 10.937 14.884 19.789 25.691 25.613v8.69h-25.025c-15.932 0-28.894 12.962-28.894 28.894v35.457c0 3.309 2.691 6 6 6h157.217c3.309 0 6-2.691 6-6v-35.457c0-15.932-12.962-28.894-28.894-28.894h-25.08v-8.661c10.832-5.824 19.822-14.687 25.747-25.643v6.041c0 22.669 18.443 41.112 41.112 41.112h15.738c1.104 0 2-.896 2-2v-79.76c.001-17.611-11.388-33.334-27.933-38.934zm-14.164-3.108c1.879-1.879 2.945-3.367 5.4-3.367 1.311 0 2.543.511 3.47 1.438.008.008.016.016.023.023 1.939 1.961 1.802 5.099-.02 6.921l-8.874 8.874v-13.889zm-142.292-.817c.323-13.922 5.566-27.245 14.875-37.648.041-.045.079-.092.114-.14 17.995-19.997 37.256-19.784 63.902-19.488 3.241.036 6.574.073 10.007.073 22.958 0 39.536 15.305 45.224 29.526.009.021.017.041.025.061 2.75 6.272 4.145 12.936 4.145 19.806v29.728c-5.353 0-46.965 0-54.653 0-6.214 0-12.2-1.471-17.553-4.13-8.922-4.432-16.087-12.165-19.629-21.893-.637-1.749-3.122-1.749-3.759 0-4.497 12.346-14.998 21.766-27.883 24.904-3.083.738-6.168 1.119-9.299 1.119h-5.546c0-22.881-.013-20.35.032-21.904-.001-.006-.002-.01-.002-.014zm-12.849-1.109c.007-.007.015-.015.022-.023 1.916-1.894 5.015-1.888 6.922.019l1.883 1.883c-.014.525-.009 13.354-.009 13.879l-8.818-8.818c-.824-.824-1.438-2.155-1.438-3.471 0-1.31.511-2.542 1.438-3.469zm21.625 84.617c0 20.464-16.648 37.112-37.112 37.112h-13.738v-77.76c0-16.001 10.412-30.279 25.502-35.248.02.027.045.05.065.076.698.93.25.392 12.475 12.617 0 2.973-.127 3.751.173 4.425-6.158 3.581-10.355 10.22-10.355 17.925 0 5.844 2.504 11.449 6.87 15.377 3.967 3.57 9.148 5.478 14.5 5.37.018 0 .036.002.054.001.454 1.726.978 3.419 1.565 5.078v15.027zm88.993 32.263h27.104c13.727 0 24.894 11.167 24.894 24.894v35.457c0 1.103-.897 2-2 2h-18.434v-22.794c0-1.104-.896-2-2-2s-2 .896-2 2v22.794h-109.959c.002-.037.011-.072.011-.11v-24.794c0-1.104-.896-2-2-2s-2 .896-2 2v24.794c0 .038.009.073.011.11h-20.847c-1.103 0-2-.897-2-2v-35.457c0-13.727 11.167-24.894 24.894-24.894h27.048c1.132 0 2.035-.938 1.999-2.063-.022-.635-.025.431-.025-8.651 8.159 3.687 17.208 5.721 26.693 5.721 9.463 0 18.492-2.025 26.637-5.696 0 9.072-.003 7.963-.024 8.626-.035 1.134.874 2.063 1.998 2.063zm29.852-54.924c-3.808 16.18-14.05 29.597-27.828 37.672-9.29 5.445-19.805 8.26-30.634 8.26-10.891 0-21.45-2.861-30.69-8.285-11.76-6.902-20.986-17.725-25.78-30.982-.011-.039-.017-.079-.031-.117-.739-2.04-1.454-4.391-1.961-6.548-.231-.98-1.173-1.639-2.157-1.531-4.813.507-9.633-1.041-13.206-4.255-3.524-3.171-5.545-7.692-5.545-12.404 0-4.51 1.784-8.743 5.023-11.917 6.297-6.171 11.671-4.006 19.996-5.837 12.921-2.788 23.884-11.273 29.774-23.243 7.279 14.694 22.433 24.256 39.058 24.256h47.568.058c4.324-.087 8.872 1.523 12.241 4.824 3.239 3.174 5.023 7.406 5.023 11.917 0 4.712-2.021 9.232-5.544 12.402-6.232 5.607-12.928 4.044-13.928 4.311-.692.186-1.264.741-1.437 1.477zm52.769 59.773h-13.738c-20.464 0-37.112-16.648-37.112-37.112v-15.024c.587-1.659 1.111-3.352 1.565-5.078 5.344.115 10.573-1.79 14.556-5.373 4.365-3.928 6.868-9.532 6.868-15.376 0-5.594-2.21-10.84-6.224-14.773-1.044-1.023-2.582-2.255-4.176-3.177.263-.598.162-2.966.162-4.344 12.292-12.292 11.828-11.739 12.52-12.661.023-.031.052-.057.075-.088 15.092 4.968 25.503 19.247 25.503 35.248v77.758z" fill="#3762cc"/></g></svg>