<svg id="Layer_1" enable-background="new 0 0 256 256" height="512" viewBox="0 0 256 256" width="512" xmlns="http://www.w3.org/2000/svg"><g><path d="m65.993 134.792-5.569-19.374c-2.002-6.963-9.126-11.117-16.169-9.435-1.6.382-2.598 1.978-2.209 3.576l5.505 22.621-11.251-46.231c-1.636-6.724-8.637-12.226-15.558-12.226-1.926 0-3.193 1.545-2.814 3.434l15.695 78.26c.531 2.647 2.08 4.979 4.315 6.494l34.683 23.518c1.262.856 1.927 2.354 1.717 3.864l-8.173 58.56c-.336 2.406 1.533 4.553 3.962 4.553h38.916c2.209 0 4-1.791 4-4v-61.579-18.877c0-10.104-6.308-19.134-15.796-22.609z" fill="#f9cfcf"/><path d="m123.091 126.08c2.926 2.339 7.083 2.334 10.004-.01l55.826-44.819c15.058-12.037 20.35-33.475 12.786-51.8-8.211-19.895-29.073-30.218-48.713-24.105-11.221 3.492-20.118 11.78-25.028 22.335-4.909-10.555-13.807-18.842-25.028-22.335-20.758-6.461-42.881 5.438-49.99 27.594-5.704 17.777.458 37.435 14.592 48.734z" fill="#f9a7a7"/><path d="m154.845 61.192h-17.413v-17.413c0-1.832-1.485-3.317-3.317-3.317h-12.231c-1.832 0-3.317 1.485-3.317 3.317v17.413h-17.413c-1.832 0-3.317 1.485-3.317 3.317v12.231c0 1.832 1.485 3.317 3.317 3.317h17.413v17.413c0 1.832 1.485 3.317 3.317 3.317h12.231c1.832 0 3.317-1.485 3.317-3.317v-17.414h17.413c1.832 0 3.317-1.485 3.317-3.317v-12.23c0-1.832-1.485-3.317-3.317-3.317z" fill="#e0ebfc"/><path d="m190.007 134.792 5.569-19.374c2.002-6.963 9.126-11.117 16.169-9.435 1.6.382 2.598 1.978 2.209 3.576l-5.505 22.621 11.25-46.232c1.636-6.724 8.637-12.226 15.558-12.226 1.926 0 3.193 1.545 2.814 3.434l-15.695 78.26c-.531 2.647-2.08 4.979-4.315 6.494l-34.683 23.518c-1.262.856-1.927 2.354-1.717 3.864l8.173 58.56c.336 2.406-1.533 4.553-3.962 4.553h-38.916c-2.209 0-4-1.791-4-4v-61.579-18.876c0-10.104 6.308-19.134 15.796-22.609z" fill="#f9cfcf"/><g fill="#3762cc"><path d="m97.886 143.445-30.26-10.213-5.28-18.367c-2.303-8.007-10.453-12.761-18.556-10.827-.331.079-.648.189-.95.329l-4.597-18.891c-1.846-7.583-9.697-13.752-17.501-13.752-3.185 0-5.402 2.702-4.775 5.827l15.695 78.26c.639 3.181 2.469 5.935 5.154 7.756l34.684 23.518c.635.431.964 1.171.858 1.932l-8.174 58.56c-.24 1.72.275 3.458 1.415 4.768 1.141 1.31 2.79 2.062 4.527 2.062h38.915c3.309 0 6-2.691 6-6v-80.457c.001-10.899-6.874-20.74-17.155-24.505zm13.156 104.961c0 1.103-.897 2-2 2h-38.915c-1.226 0-2.148-1.08-1.981-2.277l8.174-58.561c.317-2.282-.669-4.502-2.575-5.794l-34.684-23.518c-1.812-1.229-3.046-3.086-3.477-5.232l-15.695-78.259c-.134-.673.215-1.042.854-1.042 5.968 0 12.203 4.899 13.614 10.698l5.735 23.568c.003.014.007.028.01.042l5.5 22.603c0 .001 0 .003.001.004l2.45 10.409c.253 1.069 1.322 1.742 2.405 1.488 1.075-.253 1.742-1.33 1.489-2.405l-2.45-10.409c-.001-.003-.002-.006-.003-.009 0-.002 0-.003-.001-.005l-5.51-22.641c-.114-.513.219-1.016.736-1.139 6.014-1.438 12.071 2.095 13.782 8.042l5.569 19.375c.181.631.66 1.132 1.282 1.342l31.205 10.531c8.663 3.173 14.483 11.505 14.483 20.731v80.458z"/><path d="m235.258 71.724c-7.804 0-15.655 6.169-17.501 13.753l-4.597 18.891c-.302-.14-.619-.25-.95-.329-8.108-1.937-16.255 2.821-18.556 10.828l-5.28 18.367-30.308 10.229c-10.233 3.748-17.108 13.589-17.108 24.487v80.456c0 3.309 2.691 6 6 6h38.915c1.737 0 3.387-.751 4.527-2.062 1.14-1.31 1.655-3.048 1.415-4.768l-8.174-58.559c-.105-.761.224-1.502.858-1.933l34.684-23.518c2.686-1.821 4.516-4.575 5.154-7.756l15.695-78.26c.627-3.123-1.588-5.826-4.774-5.826zm.853 5.041-15.695 78.259c-.431 2.146-1.665 4.004-3.477 5.232l-34.684 23.518c-1.906 1.292-2.893 3.512-2.575 5.795l8.174 58.56c.167 1.202-.76 2.276-1.981 2.276h-38.915c-1.103 0-2-.897-2-2v-80.455c0-9.227 5.82-17.558 14.436-20.714l31.253-10.548c.622-.21 1.102-.711 1.282-1.342l5.569-19.374c1.453-5.053 6.041-8.363 11.078-8.363.893 0 1.799.104 2.704.32.516.123.851.624.736 1.14l-5.51 22.64c0 .002 0 .003-.001.005-.001.003-.002.006-.003.009l-2.45 10.409c-.253 1.075.414 2.152 1.489 2.405 1.083.254 2.153-.42 2.405-1.488l2.45-10.409c0-.001 0-.003 0-.004 1.36-5.589 9.824-40.372 11.246-46.213 1.411-5.799 7.646-10.699 13.614-10.699.642 0 .989.369.855 1.041z"/><path d="m203.556 28.688c-8.584-20.802-30.58-31.656-51.157-25.251-10.207 3.177-18.936 10.333-24.434 19.903-5.497-9.57-14.226-16.726-24.433-19.903-22.032-6.858-45.091 5.833-52.489 28.892-5.913 18.431.215 38.889 15.248 50.907l55.551 44.407c1.84 1.47 4.042 2.206 6.244 2.205 2.209 0 4.418-.739 6.26-2.218l55.824-44.816c15.815-12.645 21.319-34.901 13.386-54.126zm-71.714 95.822c-2.208 1.771-5.292 1.774-7.502.008l-55.551-44.406c-13.746-10.988-19.347-29.7-13.938-46.561 5.494-17.122 20.439-27.966 36.59-27.966 3.604 0 7.27.54 10.901 1.671 10.341 3.219 19.019 10.971 23.809 21.269.715 1.538 2.91 1.541 3.627 0 4.791-10.298 13.469-18.05 23.81-21.269 18.589-5.786 38.48 4.083 46.271 22.958 7.259 17.59 2.248 37.935-12.189 49.477z"/></g></g></svg>