<svg id="Layer_1" enable-background="new 0 0 256 256" height="512" viewBox="0 0 256 256" width="512" xmlns="http://www.w3.org/2000/svg"><g><ellipse cx="68.154" cy="61.374" fill="#f9cfcf" rx="27.5" ry="29.477"/><path d="m102.877 143.58h-69.446v-18.006c0-19.177 15.546-34.723 34.723-34.723 19.177 0 34.723 15.546 34.723 34.723z" fill="#6bdddd"/><ellipse cx="187.846" cy="61.374" fill="#f9cfcf" rx="27.5" ry="29.477"/><path d="m222.569 143.58h-69.446v-18.006c0-19.177 15.546-34.723 34.723-34.723 19.177 0 34.723 15.546 34.723 34.723z" fill="#6bdddd"/><ellipse cx="128" cy="40.104" fill="#f9cfcf" rx="34.5" ry="37.104"/><path d="m171.707 143.58h-87.414v-22.665c0-24.139 19.568-43.707 43.707-43.707 24.139 0 43.707 19.568 43.707 43.707z" fill="#6bdddd"/><path d="m177.241 128.949c-3.153 0-5.709-2.556-5.709-5.709v-9.876c0-2.102-1.704-3.806-3.806-3.806h-79.452c-2.102 0-3.806 1.704-3.806 3.806v9.876c0 3.153-2.556 5.709-5.709 5.709h-10.07c-2.102 0-3.806 1.704-3.806 3.806v45.1c0 15.253 4.741 30.128 13.566 42.568 8.125 11.453 19.358 20.341 32.372 25.615l17.179 6.962 17.18-6.962c13.014-5.274 24.247-14.162 32.372-25.615 8.825-12.44 13.566-27.315 13.566-42.568v-45.1c0-2.102-1.704-3.806-3.806-3.806z" fill="#4671c6"/><path d="m115.823 234.218c-10.676-4.327-19.844-11.581-26.51-20.977-7.267-10.244-11.109-22.298-11.109-34.86v-35.585h.555c10.494 0 19.031-8.537 19.031-19.03v-.361h60.422v.361c0 10.493 8.537 19.03 19.03 19.03h.555v35.585c0 12.562-3.841 24.616-11.109 34.86-6.666 9.396-15.834 16.65-26.511 20.977l-12.177 4.935z" fill="#e0ebfc"/><g><path d="m166.621 173.476c-1.536 0-2.784 1.176-2.929 2.674h-4.643c-.602-6.393-3.128-12.225-7-16.907l3.281-3.281c1.232 1.015 2.922.86 3.962-.18 1.155-1.155 1.155-3.028 0-4.183l-1.89-1.89-1.89-1.89c-1.155-1.155-3.028-1.155-4.183 0-1.087 1.086-1.138 2.8-.181 3.962l-3.281 3.281c-4.682-3.872-10.515-6.399-16.907-7v-4.643c1.498-.145 2.674-1.393 2.674-2.929 0-1.634-1.324-2.958-2.958-2.958h-5.348c-1.634 0-2.958 1.324-2.958 2.958 0 1.537 1.176 2.784 2.674 2.929v4.643c-6.393.602-12.226 3.128-16.908 7l-3.281-3.281c.957-1.162.906-2.876-.18-3.962-1.154-1.155-3.027-1.155-4.183 0-.235.235-.048.048-3.782 3.782-1.156 1.155-1.156 3.028 0 4.183 1.04 1.041 2.73 1.196 3.962.18l3.281 3.281c-3.872 4.682-6.399 10.515-7 16.908h-4.643c-.145-1.498-1.393-2.674-2.929-2.674-1.634 0-2.958 1.324-2.958 2.958v5.348c0 1.634 1.324 2.958 2.958 2.958 1.536 0 2.785-1.176 2.929-2.674h4.643c.602 6.393 3.128 12.226 7 16.908l-3.281 3.281c-1.162-.957-2.876-.906-3.962.18-1.155 1.155-1.155 3.028 0 4.183.083.083 1.891 1.891 1.891 1.891 1.058.705 1.905 2.757 3.982 2.757.757 0 1.514-.289 2.092-.866 1.086-1.086 1.137-2.8.18-3.962l3.281-3.281c4.682 3.872 10.515 6.399 16.908 7v4.643c-1.499.145-2.674 1.393-2.674 2.929 0 1.633 1.324 2.958 2.958 2.958h5.348c1.634 0 2.958-1.324 2.958-2.958 0-1.536-1.176-2.784-2.674-2.929v-4.643c6.393-.601 12.225-3.128 16.907-7l3.281 3.281c-.957 1.162-.906 2.876.181 3.962.577.577 1.334.866 2.091.866s1.514-.289 2.092-.866l1.89-1.891 1.89-1.89c1.155-1.155 1.155-3.028 0-4.183-1.086-1.086-2.8-1.137-3.962-.181l-3.281-3.281c3.872-4.682 6.399-10.515 7-16.908h4.643c.145 1.499 1.393 2.674 2.929 2.674 1.633 0 2.958-1.324 2.958-2.958v-5.348c-.001-1.636-1.325-2.961-2.958-2.961z" fill="#f9a7a7"/><circle cx="128" cy="179.109" fill="#4671c6" r="23.764"/><g fill="#e0ebfc"><circle cx="123.419" cy="173.709" r="8.79"/><circle cx="136.48" cy="188.408" r="4.89"/></g></g><g fill="#3762cc"><path d="m177.796 140.796c-10.19 0-17.585-7.546-17.585-17.391 0-1.104-.896-2-2-2h-60.422c-1.104 0-2 .896-2 2 0 9.933-7.479 17.391-17.585 17.391-1.104 0-2 .896-2 2v35.584c0 12.978 3.969 25.433 11.478 36.017 6.888 9.708 16.359 17.203 27.391 21.673l12.177 4.935c.479.194 1.018.197 1.502 0l12.177-4.935c11.032-4.47 20.503-11.965 27.391-21.673 7.509-10.584 11.478-23.039 11.478-36.017v-35.584c-.002-1.104-.897-2-2.002-2zm-2 37.585c0 12.145-3.714 23.798-10.74 33.703-6.445 9.084-15.308 16.098-25.63 20.281l-11.426 4.629-11.426-4.63c-10.322-4.183-19.185-11.196-25.63-20.281-7.026-9.904-10.74-21.558-10.74-33.703v-33.634c10.383-.708 18.72-8.984 19.522-19.342h56.549c.802 10.357 9.139 18.634 19.522 19.342v33.635z"/><path d="m198.894 90.552c10.807-4.676 18.452-15.989 18.452-29.178 0-17.356-13.234-31.477-29.5-31.477-9.525 0-18.005 4.846-23.403 12.345.036-.708.057-1.421.057-2.139 0-21.561-16.374-39.103-36.5-39.103s-36.5 17.542-36.5 39.104c0 .718.021 1.43.057 2.139-5.397-7.498-13.877-12.345-23.403-12.345-16.266 0-29.5 14.12-29.5 31.477 0 13.189 7.645 24.502 18.452 29.178-14.867 4.7-25.675 18.621-25.675 35.022v18.006c0 1.104.896 2 2 2h29.451v32.275c0 15.755 4.818 30.875 13.935 43.725 8.361 11.786 19.859 20.884 33.252 26.311l17.18 6.962c.481.195 1.02.195 1.502 0l17.18-6.962c13.393-5.427 24.891-14.525 33.252-26.311 9.116-12.85 13.935-27.97 13.935-43.725v-32.276h29.451c1.104 0 2-.896 2-2v-18.006c0-16.401-10.809-30.322-25.675-35.022zm-11.048-56.654c14.061 0 25.5 12.326 25.5 27.477s-11.439 27.477-25.5 27.477-25.5-12.326-25.5-27.477 11.439-27.477 25.5-27.477zm-11.04 56.658c-3.762 1.186-7.324 2.98-10.537 5.313-6.016-9.236-15.211-15.998-25.91-18.974 7.398-2.861 13.691-8.212 17.997-15.107.158 13.014 7.752 24.143 18.45 28.768zm-84.79 9.28c.046-.078.079-.159.113-.24 7.338-12.417 20.777-20.388 35.871-20.388s28.533 7.972 35.871 20.388c.034.081.068.163.113.24 1.426 2.43 2.582 5.021 3.49 7.722h-78.949c.909-2.701 2.064-5.293 3.491-7.722zm35.984-94.836c17.92 0 32.5 15.748 32.5 35.104s-14.58 35.104-32.5 35.104-32.5-15.748-32.5-35.104 14.58-35.104 32.5-35.104zm-12.359 71.896c-10.699 2.976-19.894 9.738-25.91 18.974-3.213-2.334-6.775-4.127-10.537-5.313 10.697-4.625 18.292-15.753 18.45-28.767 4.306 6.893 10.599 12.244 17.997 15.106zm-72.987-15.521c0-15.15 11.439-27.477 25.5-27.477s25.5 12.326 25.5 27.477-11.439 27.477-25.5 27.477-25.5-12.327-25.5-27.477zm-7.223 80.205v-16.006c0-18.043 14.68-32.723 32.723-32.723 7.041 0 13.913 2.288 19.534 6.472-1.739 3.268-3.098 6.795-4.025 10.526-1.058 1.384-1.371 2.022-1.371 14.458-.503 1.661-1.992 2.642-3.534 2.642h-10.07c-3.202 0-5.806 2.604-5.806 5.806v8.825zm153.687 36.275c0 14.921-4.563 29.241-13.197 41.411-7.918 11.162-18.808 19.778-31.491 24.918l-16.43 6.658-16.429-6.658c-12.683-5.14-23.573-13.757-31.491-24.918-8.634-12.17-13.197-26.489-13.197-41.411v-34.275-10.825c0-.996.81-1.806 1.806-1.806h10.07c4.268 0 7.709-3.498 7.709-7.709 0-.263-.015-9.959.035-10.217.158-.788.877-1.464 1.772-1.464h79.452c1 0 1.806.851 1.806 1.806v9.875c0 4.173 3.414 7.709 7.709 7.709h10.07c.996 0 1.806.81 1.806 1.806v10.825zm31.451-36.275h-27.451v-8.825c0-3.202-2.604-5.806-5.806-5.806h-10.07c-1.469 0-3.012-.917-3.534-2.642 0-11.772-.005-12.671-1.371-14.458-.927-3.731-2.286-7.258-4.025-10.526 5.621-4.184 12.493-6.472 19.534-6.472 18.043 0 32.723 14.679 32.723 32.723z"/></g></g></svg>