<svg id="Layer_1" enable-background="new 0 0 256 256" height="512" viewBox="0 0 256 256" width="512" xmlns="http://www.w3.org/2000/svg"><g><g><g><path d="m128 97.167c-1.381 0-2.5-1.119-2.5-2.5v-4c0-1.381 1.119-2.5 2.5-2.5s2.5 1.119 2.5 2.5v4c0 1.381-1.119 2.5-2.5 2.5z" fill="#f9a7a7"/></g><g><path d="m128 134.633c-1.381 0-2.5-1.119-2.5-2.5v-9.367c0-1.381 1.119-2.5 2.5-2.5s2.5 1.119 2.5 2.5v9.367c0 1.381-1.119 2.5-2.5 2.5zm0-18.733c-1.381 0-2.5-1.119-2.5-2.5v-9.367c0-1.381 1.119-2.5 2.5-2.5s2.5 1.119 2.5 2.5v9.367c0 1.381-1.119 2.5-2.5 2.5z" fill="#f9a7a7"/></g><g><path d="m128 148c-1.381 0-2.5-1.119-2.5-2.5v-4c0-1.381 1.119-2.5 2.5-2.5s2.5 1.119 2.5 2.5v4c0 1.381-1.119 2.5-2.5 2.5z" fill="#f9a7a7"/></g></g><ellipse cx="81.894" cy="170.646" fill="#f9cfcf" rx="20" ry="21.535"/><path d="m107.261 230.702h-50.734v-13.155c0-14.01 11.357-25.367 25.367-25.367 14.01 0 25.367 11.357 25.367 25.367z" fill="#6bdddd"/><ellipse cx="174.083" cy="170.646" fill="#f9cfcf" rx="20" ry="21.535"/><path d="m199.45 230.702h-50.734v-13.155c0-14.01 11.357-25.367 25.367-25.367 14.01 0 25.367 11.357 25.367 25.367z" fill="#6bdddd"/><ellipse cx="127.997" cy="155.107" fill="#f9cfcf" rx="25" ry="27.107"/><path d="m159.928 230.702h-63.862v-16.558c0-17.635 14.296-31.931 31.931-31.931 17.635 0 31.931 14.296 31.931 31.931z" fill="#6bdddd"/><path d="m229.572 253h-203.144c-3.875 0-7.016-3.141-7.016-7.016v-.006c0-3.875 3.141-7.016 7.016-7.016h203.144c3.875 0 7.016 3.141 7.016 7.016v.006c0 3.875-3.141 7.016-7.016 7.016z" fill="#e0ebfc"/><path d="m81.943 83.833h92.113c4.236 0 6.777-4.706 4.453-8.248l-46.056-70.181c-2.103-3.205-6.802-3.205-8.905 0l-46.057 70.181c-2.325 3.542.216 8.248 4.452 8.248z" fill="#f9a7a7"/><path d="m89.835 74.247 38.165-58.156 38.165 58.156z" fill="#e0ebfc"/><g><path d="m125.515 54.359c-2.605-20.722-2.431-19.133-2.431-19.666 0-2.785 2.22-4.376 4.917-4.376 2.991 0 5.311 1.898 4.862 5.187l-2.431 18.855c-.15 1.724-1.196 2.539-2.431 2.539-1.221 0-2.259-.795-2.486-2.539zm-2.107 9.995c0-2.632 1.869-4.646 4.592-4.646s4.592 2.014 4.592 4.646c0 2.633-1.868 4.646-4.592 4.646-2.723 0-4.592-2.013-4.592-4.646z" fill="#f9a7a7"/></g><g fill="#3762cc"><path d="m81.943 85.833h92.113c2.736 0 5.146-1.438 6.446-3.846s1.18-5.212-.322-7.5l-46.056-70.18c-1.357-2.071-3.647-3.307-6.124-3.307s-4.767 1.236-6.125 3.307l-46.057 70.18c-1.501 2.288-1.622 5.092-.321 7.5 1.3 2.409 3.71 3.846 6.446 3.846zm-2.78-9.15 46.057-70.182c.626-.954 1.639-1.501 2.78-1.501s2.154.547 2.781 1.502l46.056 70.181c.682 1.038.736 2.312.146 3.404-.59 1.094-1.685 1.746-2.927 1.746h-92.113c-1.242 0-2.336-.652-2.927-1.746-.589-1.093-.535-2.366.147-3.404z"/><path d="m229.572 236.962h-203.144c-4.972 0-9.016 4.044-9.016 9.022 0 4.972 4.044 9.016 9.016 9.016h203.144c4.972 0 9.016-4.044 9.016-9.022 0-4.972-4.045-9.016-9.016-9.016zm0 14.038h-203.144c-2.766 0-5.016-2.25-5.016-5.022 0-2.766 2.25-5.016 5.016-5.016h203.144c2.766 0 5.016 2.25 5.016 5.022 0 2.766-2.25 5.016-5.016 5.016z"/><path d="m56.527 232.702h142.923c1.104 0 2-.896 2-2v-13.154c0-11.757-7.453-21.804-17.882-25.67 7.396-3.796 12.515-11.886 12.515-21.231 0-12.978-9.869-23.535-22-23.535-8.388 0-15.692 5.049-19.403 12.455.208-1.454.317-2.943.317-4.459 0-16.05-12.112-29.106-27-29.106s-27 13.057-27 29.106c0 1.536.113 3.043.326 4.516-3.701-7.436-11.02-12.511-19.429-12.511-12.131 0-22 10.558-22 23.535 0 9.345 5.119 17.435 12.515 21.231-10.429 3.866-17.882 13.914-17.882 25.67v13.154c0 1.104.895 1.999 2 1.999zm41.539-18.557c0-4.505 1.006-9.085 3.193-13.428 4.93-9.778 15.06-16.504 26.738-16.504s21.808 6.726 26.738 16.504c2.021 4.011 3.193 8.582 3.193 13.427v14.558h-59.862zm99.384 3.403v11.154h-35.521v-14.558-.001c0-4.748-1.034-9.707-3.142-14.256 4.25-3.69 9.628-5.707 15.296-5.707 12.884.001 23.367 10.483 23.367 23.368zm-23.367-66.437c9.925 0 18 8.764 18 19.535s-8.075 19.534-18 19.534-18-8.763-18-19.534 8.074-19.535 18-19.535zm-9.491 40.764c-2.79 1.031-5.407 2.517-7.751 4.426-4.178-6.728-10.641-11.891-18.298-14.402 5.969-2.741 10.839-7.735 13.693-13.986-.097.897-.153 1.808-.153 2.733 0 9.344 5.116 17.432 12.509 21.229zm-36.595-61.875c12.682 0 23 11.263 23 25.106s-10.318 25.106-23 25.106-23-11.263-23-25.106 10.318-25.106 23-25.106zm-10.546 51.899c-7.661 2.512-14.127 7.678-18.304 14.412-2.347-1.914-4.968-3.403-7.763-4.436 7.393-3.797 12.509-11.885 12.509-21.229 0-.942-.058-1.869-.159-2.782 2.851 6.274 7.732 11.287 13.717 14.035zm-53.557-11.253c0-10.771 8.075-19.535 18-19.535s18 8.764 18 19.535-8.075 19.534-18 19.534-18-8.762-18-19.534zm-5.367 46.902c0-12.885 10.482-23.367 23.367-23.367 5.674 0 11.057 2.021 15.309 5.719-1.988 4.301-3.137 9.213-3.137 14.244v.001 14.558h-35.54v-11.155z"/></g></g></svg>