<svg id="Layer_1" enable-background="new 0 0 256 256" height="512" viewBox="0 0 256 256" width="512" xmlns="http://www.w3.org/2000/svg"><g><path d="m48.678 135.766h18.94c1.652 0 2.99-1.339 2.99-2.99v-83.734c0-1.652-1.339-2.99-2.99-2.99h-18.94c-1.652 0-2.99 1.339-2.99 2.99v83.734c-.001 1.652 1.338 2.99 2.99 2.99z" fill="#e0ebfc"/><path d="m34.722 205.877h46.851c2.202 0 3.987-1.785 3.987-3.987v-128.924c0-4.955-4.017-8.971-8.971-8.971h-36.883c-4.955 0-8.971 4.017-8.971 8.971v128.923c0 2.203 1.785 3.988 3.987 3.988z" fill="#e0ebfc"/><path d="m77.392 169.326v-94.366c0-1.652-1.339-2.99-2.99-2.99h-32.508c-1.652 0-2.99 1.339-2.99 2.99v94.366z" fill="#a4c9ff"/><path d="m50.671 175.657h14.952v63.742h-14.952z" fill="#6bdddd"/><path d="m81.573 246.875h-46.851c-2.202 0-3.987-1.785-3.987-3.987v-6.978c0-2.202 1.785-3.987 3.987-3.987h46.851c2.202 0 3.987 1.785 3.987 3.987v6.978c0 2.202-1.785 3.987-3.987 3.987z" fill="#4671c6"/><path d="m77.392 180.956v-11.63h-38.489v11.63c0 1.101.893 1.994 1.994 1.994h34.502c1.1 0 1.993-.893 1.993-1.994z" fill="#4671c6"/><path d="m169.015 78c-26.444 0-48.614 18.252-54.629 42.842l-19.167 10.794c-2.037 1.147-2.037 4.081 0 5.228l19.167 10.794c6.015 24.59 28.185 42.842 54.629 42.842 31.066 0 56.25-25.184 56.25-56.25s-25.184-56.25-56.25-56.25z" fill="#e0ebfc"/><g fill="#4671c6"><path d="m152.102 120.84c.586.586.879 1.369.879 2.346v23.5c0 .978-.293 1.767-.879 2.367-.587.601-1.369.901-2.347.901s-1.752-.293-2.324-.88c-.573-.586-.859-1.382-.859-2.388v-9.383h-13.613v9.383c0 .978-.294 1.767-.88 2.367-.587.601-1.355.901-2.304.901-.979 0-1.76-.293-2.347-.88-.586-.586-.879-1.382-.879-2.388v-23.5c0-.977.293-1.759.879-2.346.587-.586 1.368-.88 2.347-.88.977 0 1.752.293 2.324.88s.859 1.369.859 2.346v8.922h13.613v-8.922c0-.977.286-1.759.859-2.346.572-.586 1.347-.88 2.324-.88s1.761.294 2.348.88z"/><path d="m159.725 149.073c-.586-.586-.879-1.382-.879-2.388v-23.458c0-.978.265-1.731.796-2.262.53-.53 1.284-.796 2.262-.796h10.515c3.211 0 5.71.811 7.498 2.43 1.787 1.62 2.681 3.882 2.681 6.786 0 2.905-.894 5.167-2.681 6.786-1.788 1.62-4.287 2.43-7.498 2.43h-7.038v8.084c0 1.005-.293 1.801-.88 2.388-.586.586-1.382.88-2.388.88s-1.801-.293-2.388-.88zm16.755-19.646c0-2.849-1.633-4.273-4.9-4.273h-6.2v8.503h6.2c3.268.001 4.9-1.409 4.9-4.23z"/><path d="m209.28 120.358c.475-.293 1.006-.44 1.592-.44.838 0 1.592.28 2.263.838.67.559 1.005 1.243 1.005 2.053 0 .419-.098.838-.293 1.257l-11.311 23.877c-.308.643-.769 1.138-1.382 1.487-.615.349-1.285.524-2.011.524-.727 0-1.397-.175-2.011-.524-.615-.349-1.075-.844-1.383-1.487l-11.31-23.877c-.196-.391-.294-.796-.294-1.215 0-.838.35-1.536 1.048-2.095.697-.558 1.479-.838 2.346-.838.586 0 1.124.147 1.612.44s.859.733 1.11 1.319l8.965 19.604 8.964-19.604c.252-.586.616-1.025 1.09-1.319z"/></g><g><path d="m169.016 192.5c-26.626 0-49.677-17.853-56.359-43.521l-18.419-10.373c-1.595-.898-2.547-2.527-2.546-4.357 0-1.83.952-3.458 2.546-4.356l18.419-10.373c6.682-25.667 29.733-43.52 56.359-43.52 32.119 0 58.25 26.131 58.25 58.25s-26.131 58.25-58.25 58.25zm0-112.5c-25.07 0-46.736 16.99-52.688 41.317-.131.538-.479.996-.961 1.268l-19.167 10.794c-.46.259-.509.695-.509.871-.001.176.049.613.509.872l19.167 10.793c.481.271.83.73.961 1.268 5.951 24.327 27.617 41.317 52.688 41.317 29.913 0 54.25-24.336 54.25-54.25s-24.337-54.25-54.25-54.25zm-54.63 40.842h.01z" fill="#3762cc"/></g><path d="m81.573 207.877c3.302 0 5.987-2.686 5.987-5.987v-128.924c0-6.05-4.922-10.972-10.972-10.972h-3.981v-12.952c0-2.752-2.238-4.991-4.99-4.991h-7.469v-34.926c0-1.104-.896-2-2-2s-2 .896-2 2v34.926h-7.471c-2.752 0-4.99 2.239-4.99 4.991v12.952h-3.981c-6.05 0-10.972 4.922-10.972 10.972v128.924c0 3.301 2.686 5.987 5.987 5.987h13.95v22.045h-13.95c-3.302 0-5.987 2.686-5.987 5.987v6.978c0 3.301 2.686 5.987 5.987 5.987h46.852c3.302 0 5.987-2.686 5.987-5.987v-6.978c0-3.301-2.686-5.987-5.987-5.987h-13.949v-22.045zm-33.885-158.835c0-.546.444-.991.99-.991h9.466.005s.003 0 .005 0h9.464c.546 0 .99.444.99.991v12.952h-20.92zm-12.966 154.835c-1.096 0-1.987-.892-1.987-1.987v-128.924c0-3.844 3.128-6.972 6.972-6.972h5.981 24.92 5.981c3.844 0 6.972 3.127 6.972 6.972v128.924c0 1.096-.892 1.987-1.987 1.987h-13.95v-18.927h7.774c2.202 0 3.993-1.792 3.993-3.994v-11.63-94.366c0-2.752-2.238-4.991-4.99-4.991h-32.507c-2.752 0-4.99 2.239-4.99 4.991v94.366 11.63c0 2.202 1.791 3.994 3.993 3.994h7.775v18.927zm40.67-36.551h-34.489v-92.366c0-.546.444-.991.99-.991h32.508c.546 0 .99.444.99.991v92.366zm6.181 66.596c1.096 0 1.987.892 1.987 1.987v6.978c0 1.096-.892 1.987-1.987 1.987h-46.851c-1.096 0-1.987-.892-1.987-1.987v-6.978c0-1.096.892-1.987 1.987-1.987h15.945.005 14.952.005zm-17.949-26.045v22.045h-10.952v-22.045zm-10.952-4v-18.927h10.952v18.927zm12.97-22.926c-.006 0-.012-.002-.018-.002h-14.952c-.016 0-.03.004-.045.005l-9.723.002v-9.63h34.488v9.624z" fill="#3762cc"/><path d="m30.735 100.936h54.826v52h-54.826z" fill="#e0ebfc"/><path d="m74.921 121.042h-10.88v-10.88c0-1.145-.928-2.072-2.072-2.072h-7.642c-1.145 0-2.072.928-2.072 2.072v10.88h-10.88c-1.145 0-2.072.928-2.072 2.072v7.642c0 1.145.928 2.072 2.072 2.072h10.88v10.88c0 1.145.928 2.072 2.072 2.072h7.642c1.145 0 2.072-.928 2.072-2.072v-10.88h10.88c1.145 0 2.072-.928 2.072-2.072v-7.642c0-1.144-.927-2.072-2.072-2.072z" fill="#f9a7a7"/><g><path d="m85.561 154.936h-54.827c-1.104 0-2-.896-2-2v-52c0-1.104.896-2 2-2h54.826c1.104 0 2 .896 2 2v52c.001 1.104-.895 2-1.999 2zm-52.827-4h50.826v-48h-50.826z" fill="#3762cc"/></g></g></svg>