<svg id="Layer_1" enable-background="new 0 0 256 256" height="512" viewBox="0 0 256 256" width="512" xmlns="http://www.w3.org/2000/svg"><g><path d="m182.97 234.699h-142.537c-6.086 0-11.019-4.933-11.019-11.019v-180.691c0-6.086 4.933-11.019 11.019-11.019h142.537c6.086 0 11.019 4.933 11.019 11.019v180.691c0 6.086-4.933 11.019-11.019 11.019z" fill="#f9a7a7"/><path d="m43.997 213.654v-160.639c0-3.043 2.467-5.509 5.509-5.509h124.391c3.043 0 5.509 2.467 5.509 5.509v160.639c0 3.043-2.467 5.509-5.509 5.509h-124.391c-3.043 0-5.509-2.467-5.509-5.509z" fill="#e0ebfc"/><path d="m153.481 24.886h-21.119v-8.727c0-6.085-4.933-11.019-11.019-11.019h-19.283c-6.086 0-11.019 4.933-11.019 11.019v8.727h-21.119c-3.043 0-5.509 2.467-5.509 5.51v21.881c0 3.043 2.467 5.509 5.509 5.509h83.559c3.043 0 5.509-2.467 5.509-5.509v-21.881c.001-3.043-2.466-5.51-5.509-5.51zm-49.125-4.737c0-4.057 3.289-7.346 7.346-7.346s7.346 3.289 7.346 7.346c0 1.806-.655 3.458-1.736 4.737-1.351 1.598-3.411 2.609-5.61 2.609-2.184 0-4.245-.995-5.61-2.609-1.082-1.279-1.736-2.931-1.736-4.737z" fill="#a4c9ff"/><path d="m141.492 94.469h-6.034c-.446-1.425-1.023-2.815-1.719-4.138l4.27-4.27c.575-.575.892-1.34.892-2.154 0-.813-.317-1.578-.892-2.153l-6.179-6.179c-.575-.575-1.34-.892-2.154-.892-.813 0-1.578.317-2.153.892l-4.27 4.27c-1.323-.696-2.713-1.274-4.138-1.719v-6.033c0-1.679-1.366-3.045-3.045-3.045h-8.739c-1.679 0-3.045 1.366-3.045 3.045v6.033c-1.424.445-2.814 1.023-4.138 1.719l-4.27-4.27c-.575-.575-1.34-.892-2.153-.892-.814 0-1.579.317-2.154.892l-6.179 6.179c-.575.575-.892 1.34-.892 2.153s.317 1.579.892 2.153l4.27 4.27c-.696 1.323-1.273 2.713-1.719 4.138h-6.034c-1.679 0-3.045 1.366-3.045 3.045v8.739c0 1.679 1.366 3.045 3.045 3.045h6.034c.446 1.425 1.023 2.814 1.719 4.138l-4.27 4.27c-.575.575-.892 1.34-.892 2.153 0 .814.317 1.579.892 2.154l6.179 6.179c.575.575 1.34.892 2.154.892.813 0 1.578-.317 2.153-.892l4.27-4.27c1.323.696 2.713 1.274 4.138 1.719v6.033c0 1.679 1.366 3.045 3.045 3.045h8.739c1.679 0 3.045-1.366 3.045-3.045v-6.033c1.424-.445 2.814-1.023 4.138-1.719l4.27 4.27c.575.575 1.34.892 2.153.892.814 0 1.578-.317 2.154-.892l6.179-6.179c.575-.575.892-1.34.892-2.154 0-.813-.317-1.578-.892-2.153l-4.27-4.27c.696-1.323 1.273-2.713 1.719-4.138h6.034c1.679 0 3.045-1.366 3.045-3.045v-8.739c.001-1.678-1.365-3.044-3.045-3.044zm-29.79 22.037c-8.063 0-14.623-6.56-14.623-14.623s6.56-14.623 14.623-14.623 14.623 6.56 14.623 14.623-6.56 14.623-14.623 14.623z" fill="#4671c6"/><path d="m111.701 85.11c-9.248 0-16.772 7.524-16.772 16.773s7.524 16.774 16.772 16.774c9.249 0 16.774-7.525 16.774-16.774s-7.525-16.773-16.774-16.773zm0 26.51c-5.369 0-9.737-4.368-9.737-9.737 0-5.368 4.368-9.736 9.737-9.736 5.37 0 9.737 4.368 9.737 9.736 0 5.369-4.368 9.737-9.737 9.737z" fill="#a4c9ff"/><g><path d="m157.613 155.27h-91.823c-2.485 0-4.5-2.015-4.5-4.5s2.015-4.5 4.5-4.5h91.823c2.485 0 4.5 2.015 4.5 4.5s-2.014 4.5-4.5 4.5z" fill="#4671c6"/></g><g><path d="m157.613 178.696h-91.823c-2.485 0-4.5-2.015-4.5-4.5s2.015-4.5 4.5-4.5h91.823c2.485 0 4.5 2.015 4.5 4.5s-2.014 4.5-4.5 4.5z" fill="#4671c6"/></g><g><path d="m157.613 202.122h-91.823c-2.485 0-4.5-2.015-4.5-4.5s2.015-4.5 4.5-4.5h91.823c2.485 0 4.5 2.015 4.5 4.5s-2.014 4.5-4.5 4.5z" fill="#4671c6"/></g><g fill="#3762cc"><path d="m81.911 111.298h4.607c.22.586.46 1.165.721 1.734l-3.26 3.26c-.953.954-1.477 2.22-1.477 3.567s.524 2.613 1.478 3.567l6.179 6.179c.953.953 2.22 1.478 3.568 1.478 1.347 0 2.614-.525 3.567-1.478l3.259-3.259c.569.26 1.148.5 1.734.72v4.607c0 2.782 2.263 5.045 5.045 5.045h8.738c2.782 0 5.045-2.263 5.045-5.045v-4.607c.586-.22 1.165-.46 1.734-.721l3.259 3.259c.953.953 2.22 1.478 3.567 1.478s2.615-.525 3.567-1.478l6.179-6.179c.953-.953 1.478-2.22 1.478-3.567s-.525-2.615-1.478-3.567l-3.259-3.259c.26-.569.5-1.148.72-1.734h4.607c2.782 0 5.045-2.263 5.045-5.045v-8.738c0-2.782-2.263-5.045-5.045-5.045h-4.607c-.22-.586-.46-1.165-.72-1.734l3.259-3.259c.953-.953 1.478-2.22 1.478-3.567s-.525-2.615-1.478-3.567l-6.179-6.179c-.953-.953-2.22-1.478-3.567-1.478s-2.615.525-3.567 1.478l-3.259 3.259c-.569-.26-1.148-.5-1.734-.72v-4.607c0-2.782-2.263-5.045-5.045-5.045h-8.738c-2.782 0-5.045 2.263-5.045 5.045v4.607c-.586.22-1.165.46-1.734.721l-3.259-3.259c-.953-.953-2.22-1.478-3.567-1.478-1.348 0-2.615.525-3.568 1.478l-6.18 6.18c-.953.954-1.477 2.22-1.477 3.567s.524 2.613 1.478 3.567l3.259 3.259c-.26.569-.5 1.148-.721 1.734h-4.607c-2.782 0-5.045 2.263-5.045 5.045v8.738c0 2.78 2.263 5.043 5.045 5.043zm-1.045-13.784c0-.577.469-1.045 1.045-1.045h6.033c.874 0 1.647-.568 1.909-1.402.411-1.311.942-2.591 1.581-3.805.408-.775.264-1.726-.356-2.345l-4.269-4.27c-.409-.409-.412-1.067-.001-1.479l6.179-6.179c.4-.4 1.076-.401 1.479 0l4.27 4.27c.62.62 1.569.764 2.345.356 1.216-.64 2.496-1.171 3.804-1.581.834-.261 1.403-1.034 1.403-1.909v-6.034c0-.576.469-1.045 1.045-1.045h8.738c.577 0 1.045.469 1.045 1.045v6.034c0 .875.568 1.647 1.403 1.909 1.31.41 2.59.942 3.804 1.581.774.407 1.725.265 2.345-.356l4.27-4.27c.401-.4 1.077-.4 1.479 0l6.179 6.179c.41.411.41 1.068 0 1.479l-4.27 4.27c-.62.619-.764 1.57-.356 2.345.64 1.217 1.171 2.497 1.581 3.804.261.834 1.034 1.403 1.909 1.403h6.033c.577 0 1.045.469 1.045 1.045v8.738c0 .577-.469 1.045-1.045 1.045h-6.033c-.875 0-1.647.568-1.909 1.403-.41 1.308-.941 2.588-1.581 3.804-.408.775-.264 1.726.356 2.345l4.27 4.27c.41.411.41 1.068 0 1.479l-6.179 6.179c-.401.4-1.077.4-1.479 0l-4.27-4.27c-.619-.62-1.569-.763-2.345-.356-1.216.64-2.497 1.171-3.805 1.581-.834.261-1.402 1.034-1.402 1.909v6.033c0 .577-.469 1.045-1.045 1.045h-8.738c-.577 0-1.045-.469-1.045-1.045v-6.033c0-.875-.568-1.647-1.403-1.909-1.308-.41-2.588-.941-3.804-1.581-.772-.407-1.723-.267-2.345.356l-4.27 4.27c-.402.401-1.078.4-1.479 0l-6.178-6.179c-.409-.409-.412-1.067-.001-1.479l4.27-4.27c.62-.619.764-1.57.356-2.345-.639-1.215-1.17-2.495-1.581-3.805-.261-.834-1.034-1.402-1.909-1.402h-6.033c-.577 0-1.045-.469-1.045-1.045z"/><path d="m111.702 29.495c5.068 0 9.346-4.12 9.346-9.346 0-5.153-4.192-9.346-9.346-9.346s-9.346 4.192-9.346 9.346c0 5.204 4.258 9.346 9.346 9.346zm-.608-4.038c-3.106-.548-4.738-2.835-4.738-5.308 0-2.948 2.398-5.346 5.346-5.346s5.346 2.398 5.346 5.346c-.001 3.24-2.86 5.674-5.954 5.308z"/><path d="m182.97 29.97h-22.001c-.223-3.942-3.491-7.083-7.488-7.083h-19.12v-6.727c0-7.179-5.84-13.019-13.019-13.019h-19.282c-7.178 0-13.019 5.84-13.019 13.019v6.727h-19.12c-3.997 0-7.265 3.141-7.488 7.083h-22c-7.179 0-13.019 5.84-13.019 13.019v180.692c0 7.178 5.84 13.019 13.019 13.019h142.537c7.179 0 13.019-5.84 13.019-13.019v-180.693c0-7.178-5.84-13.018-13.019-13.018zm-120.557 22.306c0 2.33 1.066 4.414 2.735 5.793 1.299 1.072 2.962 1.717 4.774 1.717h83.56c1.812 0 3.475-.645 4.774-1.717 1.67-1.378 2.735-3.463 2.735-5.792v-2.771h12.907c1.935 0 3.509 1.574 3.509 3.509v160.639c0 1.935-1.574 3.509-3.509 3.509h-124.392c-1.935 0-3.509-1.574-3.509-3.509v-160.639c0-1.935 1.574-3.509 3.509-3.509h12.907zm4-21.88c0-1.935 1.574-3.51 3.509-3.51h21.12c1.104 0 2-.896 2-2v-8.726c0-4.973 4.046-9.019 9.019-9.019h19.283c4.973 0 9.019 4.046 9.019 9.019v8.727c0 1.104.896 2 2 2h21.12c1.935 0 3.509 1.575 3.509 3.51v21.88c0 1.935-1.574 3.51-3.509 3.51h-83.56c-1.935 0-3.509-1.575-3.509-3.51-.001-4.369-.001-17.477-.001-21.881zm125.576 193.285c0 4.973-4.046 9.019-9.019 9.019h-142.537c-4.973 0-9.019-4.046-9.019-9.019v-180.693c0-4.973 4.046-9.019 9.019-9.019h21.979v11.536h-12.906c-4.141 0-7.509 3.369-7.509 7.509v160.639c0 4.141 3.369 7.509 7.509 7.509h124.392c4.141 0 7.509-3.369 7.509-7.509v-160.638c0-4.141-3.369-7.509-7.509-7.509h-12.907v-11.536h21.979c4.973 0 9.019 4.046 9.019 9.019z"/></g><g><path d="m201.25 174.534h13.01c1.135 0 2.054-.92 2.054-2.054v-57.52c0-1.135-.92-2.054-2.054-2.054h-13.01c-1.135 0-2.054.92-2.054 2.054v57.52c-.001 1.135.919 2.054 2.054 2.054z" fill="#e0ebfc"/><path d="m191.663 222.696h32.184c1.513 0 2.739-1.226 2.739-2.739v-88.562c0-3.404-2.759-6.163-6.163-6.163h-25.336c-3.404 0-6.163 2.759-6.163 6.163v88.562c0 1.513 1.226 2.739 2.739 2.739z" fill="#e0ebfc"/><path d="m220.314 196.16v-61.583c0-1.078-.874-1.952-1.952-1.952h-21.214c-1.078 0-1.952.874-1.952 1.952v61.583z" fill="#a4c9ff"/><path d="m202.619 201.937h10.271v43.787h-10.271z" fill="#6bdddd"/><g fill="#4671c6"><path d="m223.847 250.859h-32.184c-1.513 0-2.739-1.226-2.739-2.739v-4.793c0-1.513 1.226-2.739 2.739-2.739h32.184c1.513 0 2.739 1.226 2.739 2.739v4.793c0 1.513-1.226 2.739-2.739 2.739z"/><path d="m220.314 203.75v-7.589h-25.118v7.589c0 .719.582 1.301 1.301 1.301h22.515c.719 0 1.302-.583 1.302-1.301z"/></g></g><path d="m220.423 123.231h-2.108v-8.271c0-2.236-1.819-4.055-4.054-4.055h-4.505v-31.78c0-1.104-.896-2-2-2s-2 .896-2 2v31.781h-4.505c-2.235 0-4.054 1.819-4.054 4.055v8.271h-2.108c-4.501 0-8.163 3.662-8.163 8.163v88.563c0 2.613 2.126 4.739 4.739 4.739h8.956v13.892h-8.956c-2.613 0-4.739 2.126-4.739 4.739v4.793c0 2.613 2.126 4.739 4.739 4.739h32.184c2.613 0 4.739-2.126 4.739-4.739v-4.793c0-2.613-2.126-4.739-4.739-4.739h-8.956v-13.892h8.956c2.613 0 4.739-2.126 4.739-4.739v-88.563c-.002-4.501-3.664-8.164-8.165-8.164zm-19.173-8.325 13.065.055v8.271h-13.108zm23.336 128.421v4.793c0 .408-.332.739-.739.739h-32.184c-.408 0-.739-.332-.739-.739v-4.793c0-.408.332-.739.739-.739h32.184c.407 0 .739.331.739.739zm-13.695-4.739h-6.271v-13.892h6.271zm-13.695-35.537v-4.891h21.117v4.891c-7.913 0-13.905 0-21.117 0zm13.695 4v13.645h-6.271v-13.645zm12.956 13.645h-8.956v-13.645h4.122c1.82 0 3.301-1.481 3.301-3.301v-7.589c0-1.104-.896-2-2-2h-25.117c-1.104 0-2 .896-2 2v7.589c0 1.82 1.481 3.301 3.301 3.301h4.122v13.645h-8.956c-.408 0-.739-.332-.739-.739v-88.563c0-2.295 1.868-4.163 4.163-4.163h25.336c2.295 0 4.163 1.868 4.163 4.163v10.326h-13.407c-1.104 0-2 .896-2 2s.896 2 2 2h13.407v9.695h-13.407c-1.104 0-2 .896-2 2s.896 2 2 2h13.407v9.695h-13.407c-1.104 0-2 .896-2 2s.896 2 2 2h13.407v9.695h-13.407c-1.104 0-2 .896-2 2s.896 2 2 2h13.407v33.151c-.001.408-.333.74-.74.74z" fill="#3762cc"/></g></svg>