<svg id="Layer_1" enable-background="new 0 0 256 256" height="512" viewBox="0 0 256 256" width="512" xmlns="http://www.w3.org/2000/svg"><g><path d="m236.253 211.063h-5.145c3.791 0 6.843-3.162 6.663-6.992-.169-3.588-3.259-6.348-6.851-6.348h-38.6-2.344l7.123-4.987c3.654-2.559 4.542-7.595 1.983-11.248-2.43-3.471-7.093-4.439-10.686-2.336l.003-.007-23.96 14.697-2.906 1.718c-2.154 1.273-4.039 2.882-5.611 4.735l-72.502-5.766v-23.945c0-3.415 0-16.381 0-28.024 0-10.389 0-19.724 0-20.277v-27.059c0-19.424-15.747-35.171-35.171-35.171-19.425 0-35.171 15.747-35.171 35.171v27.059 20.277 80.174 7.723c0 7.656 6.206 13.861 13.861 13.861h131.935c3.316 2.69 7.422 4.461 11.964 4.863 7.14.841 14.304 1.478 21.482 1.902h27.773c3.592 0 6.682-2.76 6.851-6.348.181-3.83-2.872-6.993-6.662-6.993h10.827c3.684 0 6.67-2.986 6.67-6.67s-2.986-6.67-6.67-6.67h5.145c3.684 0 6.67-2.986 6.67-6.67-.001-3.683-2.988-6.669-6.671-6.669z" fill="#f9cfcf"/><circle cx="48.293" cy="141.019" fill="#f9a7a7" r="6.037"/><path d="m244.923 217.733c0-4.09-2.847-7.527-6.663-8.436 1.069-1.55 1.599-3.396 1.508-5.322-.218-4.628-4.105-8.253-8.849-8.253h-34.6l1.926-1.349c4.551-3.188 5.662-9.482 2.475-14.034-2.957-4.224-8.734-5.52-13.208-2.988-.054.026-.107.057-.16.088l-23.931 14.681-2.907 1.717c-2.015 1.191-3.837 2.663-5.428 4.385l-69.667-5.541v-97.456c0-20.497-16.675-37.172-37.171-37.172s-37.171 16.675-37.171 37.172v135.233c0 8.745 7.115 15.86 15.861 15.86h131.242c3.637 2.778 7.934 4.454 12.423 4.851 7.192.847 14.459 1.49 21.599 1.911.039.003.079.004.118.004h27.773c4.744 0 8.631-3.625 8.849-8.254.086-1.829-.387-3.587-1.351-5.087h3.518c4.781 0 8.67-3.89 8.67-8.67 0-1.818-.563-3.508-1.523-4.903 3.818-.906 6.667-4.345 6.667-8.437zm-8.671 4.67h-5.145-31.896c-1.104 0-2 .896-2 2s.896 2 2 2h31.896c2.575 0 4.67 2.095 4.67 4.67s-2.095 4.67-4.67 4.67c-13.902 0-16.324 0-31.896 0-1.104 0-2 .896-2 2s.896 2 2 2h21.068c1.29 0 2.49.514 3.38 1.447s1.346 2.158 1.285 3.452c-.116 2.449-2.293 4.441-4.854 4.441h-27.714c-7.043-.417-14.212-1.052-21.365-1.894-3.985-.354-7.748-1.883-10.88-4.425-.356-.289-.801-.447-1.26-.447h-131.933c-6.54 0-11.861-5.32-11.861-11.86v-135.232c0-18.291 14.881-33.172 33.171-33.172s33.172 14.881 33.172 33.172v99.304c0 1.043.802 1.911 1.841 1.994l72.502 5.766c.645.044 1.268-.209 1.684-.7 1.458-1.719 3.175-3.168 5.103-4.308l2.935-1.733 23.851-14.631c.024-.013.047-.025.071-.039 2.708-1.588 6.237-.813 8.038 1.758 1.921 2.744 1.252 6.54-1.492 8.462l-7.123 4.987c-1.596 1.118-.803 3.639 1.147 3.639h40.944c2.561 0 4.738 1.992 4.854 4.441.061 1.294-.396 2.52-1.286 3.452-.891.934-2.091 1.447-3.379 1.447h-31.896c-1.104 0-2 .896-2 2s.896 2 2 2h31.896 5.145c2.575 0 4.67 2.095 4.67 4.67s-2.097 4.669-4.673 4.669z" fill="#3762cc"/><g><path d="m118.984 80.562-9.837-9.837c-.858-.858-2.249-.858-3.106 0l-43.488 43.488c-.858.858-.858 2.249 0 3.106l9.837 9.837c.858.858 2.249.858 3.106 0l43.488-43.488c.857-.857.857-2.248 0-3.106z" fill="#e0ebfc"/><path d="m162.644 51.397-24.333-24.333c-1.144-1.144-2.998-1.144-4.142 0l-66.957 66.959c-2.573 2.573-2.573 6.746 0 9.319l19.155 19.155c2.573 2.573 6.746 2.573 9.319 0l66.958-66.958c1.144-1.144 1.144-2.998 0-4.142z" fill="#e0ebfc"/><path d="m121.5 48.219-49.01 49.011c-.858.858-.858 2.249 0 3.106l16.883 16.883c.858.858 2.249.858 3.106 0l49.01-49.01z" fill="#a4c9ff"/><path d="m145.844 14.965h10.982v46.818h-10.982z" fill="#6bdddd" transform="matrix(-.707 -.707 .707 -.707 231.212 172.518)"/><g fill="#4671c6"><path d="m159.605 5.772 24.333 24.333c1.144 1.144 1.144 2.998 0 4.142l-3.624 3.624c-1.144 1.144-2.998 1.144-4.142 0l-24.333-24.333c-1.144-1.144-1.144-2.998 0-4.142l3.624-3.624c1.144-1.144 2.998-1.144 4.142 0z"/><path d="m127.54 42.179-6.04 6.04 19.99 19.99 6.04-6.04c.572-.572.572-1.499 0-2.071l-17.919-17.919c-.572-.572-1.499-.572-2.071 0z"/></g></g><path d="m185.352 28.69-24.333-24.333c-1.921-1.922-5.049-1.922-6.97 0l-3.624 3.624c-1.922 1.922-1.922 5.048 0 6.97l6.87 6.87-10.7 10.699-6.87-6.87c-1.921-1.922-5.048-1.922-6.97 0-2.541 2.541-64.414 64.414-66.958 66.958-1.623 1.622-2.516 3.779-2.516 6.074 0 2.294.894 4.451 2.516 6.073l1.692 1.692-6.351 6.351c-.793.793-1.23 1.847-1.23 2.968s.437 2.175 1.229 2.967l3.504 3.505-17.765 17.765c-.781.781-.781 2.047 0 2.828s2.047.782 2.828 0l17.764-17.765 3.504 3.504c.792.793 1.847 1.229 2.968 1.229s2.175-.437 2.967-1.229l6.352-6.352 1.692 1.692c1.622 1.622 3.779 2.516 6.074 2.516 2.294 0 4.451-.894 6.073-2.516l66.958-66.958c.931-.931 1.443-2.168 1.443-3.484 0-1.317-.512-2.555-1.443-3.485l-6.869-6.869 10.699-10.699 6.869 6.869c.961.961 2.223 1.441 3.485 1.441s2.524-.48 3.485-1.441l3.624-3.624c1.924-1.922 1.924-5.048.003-6.97zm-38.757 9.487 4.937 4.937-9.079 9.079-4.937-4.938zm-.858 22.957-4.247 4.247-17.161-17.162 4.247-4.247c5.864 5.864 6.818 6.818 17.161 17.162zm-71.656 64.608c-.065.065-.211.067-.278 0l-9.837-9.838c-.065-.064-.065-.211 0-.276l6.352-6.352 10.114 10.114zm87.149-72.93c.362.362.362.951 0 1.313l-66.958 66.958c-1.79 1.788-4.701 1.789-6.491 0l-19.155-19.155c-.867-.867-1.344-2.02-1.344-3.245 0-1.227.478-2.379 1.344-3.246l7.905-7.905 10.235 10.235c.39.391.902.586 1.414.586s1.024-.195 1.414-.586c.781-.781.781-2.047 0-2.828l-10.235-10.235 7.526-7.526 10.235 10.234c.391.391.902.586 1.414.586s1.024-.195 1.414-.586c.781-.781.781-2.047 0-2.828l-10.235-10.234 7.526-7.526 10.234 10.234c.39.391.902.586 1.414.586s1.024-.195 1.414-.586c.781-.781.781-2.047 0-2.828l-10.234-10.234 7.526-7.526 10.235 10.234c.391.391.902.586 1.414.586s1.024-.195 1.414-.586c.781-.781.781-2.047 0-2.828l-10.235-10.234 25.162-25.162c.363-.362.95-.362 1.313 0l6.87 6.87-9.079 9.079-3.663-3.664c-1.351-1.35-3.547-1.35-4.898 0v.001l-6.04 6.04c-.781.781-.781 2.047 0 2.828l19.99 19.99c.781.781 2.047.781 2.828 0l6.04-6.04c1.351-1.351 1.351-3.549 0-4.899l-3.662-3.662 9.079-9.079zm-6.869-12.526-4.937-4.937 10.699-10.699 4.937 4.938zm28.162-7.454-3.624 3.624c-.362.361-.952.361-1.314 0l-24.333-24.333c-.362-.362-.362-.951 0-1.313l3.624-3.624c.363-.362.95-.362 1.313 0l24.333 24.333c.363.362.363.951.001 1.313z" fill="#3762cc"/></g></svg>