<svg id="Layer_1" enable-background="new 0 0 256 256" height="512" viewBox="0 0 256 256" width="512" xmlns="http://www.w3.org/2000/svg"><g><g fill="#f9a7a7"><path d="m189.994 159.851c0-.959 0-1.222 0-2.181 1.344-.85 2.581-1.834 3.708-2.92.388-.374.762-.761 1.122-1.16 3.457-3.841 5.548-8.803 5.548-14.23 0-10.486-7.782-19.258-18.209-21.491-.695-.149-1.402-.269-2.119-.358-.243-.03-.46-.114-.64-.235-.361-.242-.578-.634-.582-1.05-.004-.444.528-1.301.759-1.785.748-1.568 1.308-3.233 1.651-4.97.086-.434.158-.873.216-1.316.116-.886.176-1.788.177-2.703.003-4.401-1.414-8.592-3.929-12.138-1.049-1.48-2.266-2.815-3.607-3.989-1.879-1.646-4.068-3.033-6.502-4.053-2.697-1.131-5.759-1.816-8.916-1.876-4.517-.085-8.747 1.037-12.359 3.04 0 0-.15.098-.45.143-.882.114-1.672-.79-1.303-1.73 1.219-3.106 1.704-6.641 1.299-10.113 0-.004 0-.008-.001-.011-.384-3.273-1.55-6.334-3.313-9.019-.705-1.074-1.506-2.087-2.39-3.029-3.979-4.241-9.652-7.046-15.938-7.45-6.771-.435-12.98 1.837-17.526 5.781-.699.607-1.36 1.253-1.976 1.935-.308.341-.606.691-.892 1.049-4.579-5.735-12.062-9.301-20.395-8.765-11.175.719-20.412 9.024-21.641 19.498-.421 3.585.079 7.018 1.298 10.124.432 1.099-.719 2.161-1.752 1.588-3.612-2.003-7.842-3.125-12.359-3.04-12.63.239-22.962 10.173-22.953 22.057.003 3.66.958 7.11 2.64 10.146.454.819-.085 1.791-1.058 1.912-11.473 1.428-20.328 10.663-20.328 21.848 0 7.253 3.723 13.688 9.47 17.706.558.391.908 1.013.908 1.695s-.35 1.304-.908 1.695c-5.746 4.018-9.47 10.453-9.47 17.706 0 12.176 10.492 22.046 23.434 22.046h.028c1.09-.001 1.772 1.088 1.214 1.969-2.486 3.927-3.715 8.64-3.152 13.651 1.178 10.5 10.384 18.842 21.579 19.595 6.344.427 12.194-1.528 16.655-5.005.812-.633 2.052-.189 2.226.789 1.854 10.432 11.495 18.383 23.111 18.383 4.162 0 8.067-1.025 11.454-2.814.944.499 2.272 1.081 3.533 1.509 2.45.83 5.037 1.306 7.921 1.306 5.808 0 11.122-1.988 15.216-5.28 1.535-1.234 2.899-2.652 4.053-4.217 1.923-2.608 3.263-5.626 3.842-8.886.029-.161.094-.301.174-.43.176-.287.455-.49.777-.586.417-.124.893-.071 1.276.227 3.346 2.608 7.473 4.359 12.004 4.892.755.089 1.521.144 2.297.163s1.561.003 2.354-.05c2.799-.188 5.473-.851 7.929-1.903 7.367-3.156 12.767-9.817 13.65-17.692.141-1.253.169-2.487.094-3.695s-.254-2.39-.527-3.537c-.548-2.296-1.476-4.456-2.719-6.419-.209-.33-.244-.69-.148-1.011.064-.214.186-.41.352-.568.255-.243.608-.391 1.01-.39h.028c2.022 0 3.985-.241 5.857-.694 1.498-.363 2.937-.861 4.303-1.48 3.415-1.548 6.37-3.852 8.619-6.682.45-.566.871-1.153 1.263-1.759.587-.909 1.106-1.861 1.551-2.85 1.186-2.638 1.842-5.537 1.842-8.581-.002-7.631-4.12-14.354-10.38-18.312z"/><path d="m93.547 197.996c-.003 0-.007 0-.01 0-8.534.058-15.476-6.387-15.502-14.293-.012-3.79 1.557-7.368 4.419-10.077 2.919-2.762 6.821-4.291 10.987-4.303 1.884-.005 3.407-1.537 3.401-3.421-.006-1.881-1.531-3.401-3.411-3.401-.003 0-.007 0-.01 0-5.912.017-11.473 2.208-15.658 6.17-4.243 4.016-6.568 9.362-6.55 15.053.038 11.644 10.024 21.092 22.274 21.092h.069c1.884-.005 3.407-1.537 3.401-3.421-.005-1.878-1.53-3.399-3.41-3.399z"/><path d="m114.224 162.503c-.003 0-.007 0-.01 0-1.88 0-3.405 1.521-3.411 3.401-.006 1.884 1.517 3.415 3.401 3.421 4.166.012 8.068 1.54 10.987 4.303 2.862 2.708 4.43 6.287 4.418 10.077-.026 7.891-6.953 14.293-15.452 14.293-.019 0-.04 0-.059 0-1.88 0-3.405 1.521-3.411 3.401-.006 1.884 1.517 3.415 3.401 3.421h.069c12.25 0 22.237-9.449 22.274-21.092.019-5.691-2.308-11.037-6.549-15.053-4.185-3.964-9.746-6.155-15.658-6.172z"/></g><g fill="#f9cfcf"><path d="m93.547 197.996c-.003 0-.007 0-.01 0-8.534.058-15.476-6.387-15.502-14.293-.012-3.79 1.557-7.368 4.419-10.077 2.919-2.762 6.821-4.291 10.987-4.303 1.884-.005 3.407-1.537 3.401-3.421-.006-1.881-1.531-3.401-3.411-3.401-.003 0-.007 0-.01 0-5.912.017-11.473 2.208-15.658 6.17-4.243 4.016-6.568 9.362-6.55 15.053.038 11.644 10.024 21.092 22.274 21.092h.069c1.884-.005 3.407-1.537 3.401-3.421-.005-1.878-1.53-3.399-3.41-3.399z"/><path d="m194.324 158.76c5.972-4.811 9.459-11.868 9.459-19.4 0-11.831-8.658-22.037-20.552-24.748 1.184-2.909 1.802-6.027 1.805-9.157.01-13.769-11.788-25.195-26.3-25.47-3.321-.069-6.608.456-9.697 1.518.422-2.345.492-4.745.207-7.178-1.409-12.011-12.075-21.686-24.809-22.505-7.731-.5-15.18 2.155-20.614 7.19-5.435-5.035-12.892-7.69-20.613-7.19-12.734.819-23.4 10.494-24.809 22.504-.286 2.433-.215 4.834.207 7.178-3.089-1.062-6.378-1.586-9.697-1.518-14.511.275-26.309 11.7-26.3 25.47.003 3.131.621 6.248 1.804 9.157-11.893 2.713-20.551 12.919-20.551 24.749 0 7.532 3.487 14.59 9.459 19.4-5.972 4.81-9.459 11.868-9.459 19.4 0 12.969 10.281 23.705 23.546 25.263-1.809 3.993-2.498 8.352-2.001 12.784 1.351 12.036 11.986 21.76 24.739 22.618 5.879.396 11.627-1.013 16.491-3.993 3.334 10.692 13.684 18.168 25.73 18.168 3.963 0 7.887-.84 11.454-2.436 3.568 1.596 7.492 2.436 11.454 2.436 12.046 0 22.396-7.475 25.731-18.167 4.864 2.98 10.615 4.389 16.489 3.992 12.754-.857 23.389-10.581 24.741-22.618.496-4.432-.193-8.79-1.999-12.781 13.251-1.547 23.545-12.287 23.545-25.265-.001-7.533-3.488-14.59-9.46-19.401zm-121.707 71.848c-.633-3.552-4.886-5.062-7.681-2.881-4.004 3.12-9.093 4.642-14.33 4.292-9.511-.64-17.429-7.764-18.417-16.572-.346-3.077.108-6.105 1.306-8.899 0-.001.001-.001.001-.002 3.582-7.268 12.835-10.415 20.626-7.017 3.837 1.674 6.701 4.647 8.064 8.372 1.271 3.472 1.065 7.222-.58 10.559-2.014 4.087 4.145 7.02 6.119 3.016 2.476-5.026 2.785-10.679.867-15.919-2.01-5.493-6.18-9.854-11.743-12.281-8.431-3.678-18.091-1.884-24.511 3.799-.512-.176-1.057-.279-1.623-.279-.002 0-.005 0-.007 0-11.041 0-20.023-8.36-20.023-18.635 0-6.18 3.286-11.947 8.79-15.427.012-.008.022-.017.034-.025 3.16 1.515 6.593 2.273 10.019 2.272 6.543 0 13.033-2.708 17.415-7.898 3.411-4.041 5.092-9.021 4.852-14.151.033-.204.054-.413.049-.627-.084-3.624 1.3-7.112 3.895-9.822 2.889-3.017 6.872-4.727 11.217-4.816 8.507-.176 15.607 6.106 15.788 14.027.044 1.883 1.615 3.377 3.488 3.332 1.883-.043 3.375-1.605 3.332-3.488-.268-11.682-10.499-20.945-22.747-20.691-6.169.125-11.853 2.582-16.004 6.918-1.167 1.219-2.147 2.557-2.974 3.967-1.241-1.684-2.748-3.207-4.5-4.516-1.51-1.127-3.645-.817-4.774.691-1.128 1.509-.818 3.646.691 4.774 3.223 2.408 5.24 5.836 5.677 9.652.426 3.723-.711 7.399-3.201 10.35-5.325 6.308-15.129 7.355-21.856 2.329-.184-.137-.377-.251-.576-.346-5.394-3.492-8.611-9.195-8.611-15.306 0-9.295 7.455-17.233 17.341-18.465 1.602-.2 2.985-1.162 3.704-2.574.7-1.379.669-3.015-.085-4.376-1.466-2.645-2.211-5.504-2.213-8.495-.008-10.076 8.789-18.44 19.607-18.645 8.391-.133 10.203 3.617 13.564 3.161 3.149 3.486 7.787 5.539 12.643 5.539 1.721 0 3.469-.257 5.186-.798 4.352-1.371 7.83-4.301 9.795-8.248 1.861-3.738 2.117-7.955.72-11.875-.631-1.774-2.584-2.701-4.357-2.069-1.775.632-2.701 2.583-2.069 4.357.768 2.158.625 4.483-.402 6.548-1.132 2.273-3.169 3.971-5.738 4.781-5.178 1.631-10.773-.937-12.477-5.725-.026-.074-.068-.137-.099-.208-.701-2.305-.918-4.701-.63-7.148 1.031-8.791 8.971-15.881 18.471-16.492 6.469-.413 12.644 2.041 16.765 6.611v179.367c-2.525 1.032-5.269 1.571-8.044 1.571-9.844.001-18.152-6.546-19.754-15.569zm104.297-33.812c-.003 0-.005 0-.007 0-.556 0-1.093.103-1.6.277-6.42-5.681-16.08-7.475-24.511-3.797-5.562 2.426-9.732 6.787-11.742 12.28-1.918 5.24-1.609 10.894.867 15.92.594 1.205 1.804 1.904 3.063 1.904.506 0 1.02-.113 1.505-.352 1.69-.833 2.385-2.878 1.552-4.567-1.645-3.337-1.851-7.087-.581-10.56 1.364-3.725 4.227-6.698 8.064-8.371 7.794-3.398 17.046-.251 20.626 7.017 1.199 2.793 1.653 5.823 1.308 8.901-.988 8.808-8.906 15.933-18.419 16.572-5.229.351-10.326-1.172-14.328-4.291-1.323-1.032-3.125-1.298-4.704-.693-1.573.603-2.687 1.939-2.978 3.575-1.603 9.021-9.91 15.569-19.752 15.569-2.774 0-5.519-.539-8.044-1.571v-179.369c4.122-4.57 10.315-7.025 16.765-6.611 9.5.611 17.44 7.701 18.471 16.492.287 2.445.07 4.841-.63 7.147-.031.071-.072.134-.099.209-1.704 4.788-7.3 7.354-12.478 5.725-2.568-.809-4.605-2.507-5.737-4.781-1.027-2.064-1.17-4.39-.402-6.548.632-1.775-.294-3.726-2.069-4.357-1.773-.632-3.726.295-4.357 2.069-1.396 3.919-1.14 8.137.72 11.875 1.963 3.947 5.442 6.876 9.794 8.248 1.717.541 3.465.798 5.186.798 4.856 0 9.494-2.052 12.644-5.538.993.135 2.017-.045 2.925-.55 3.21-1.78 6.895-2.672 10.64-2.612 10.819.205 19.615 8.569 19.607 18.644-.002 2.99-.747 5.849-2.213 8.495-.754 1.361-.786 2.997-.085 4.377.719 1.412 2.103 2.373 3.705 2.573 9.885 1.231 17.34 9.169 17.34 18.465 0 15.506-20.756 25.51-31.044 13.324-2.491-2.951-3.628-6.626-3.201-10.35.437-3.816 2.453-7.244 5.677-9.652 1.509-1.128 1.819-3.265.691-4.774-1.128-1.51-3.264-1.819-4.774-.691-1.752 1.309-3.259 2.832-4.5 4.516-.827-1.41-1.807-2.748-2.974-3.967-4.151-4.336-9.836-6.793-16.004-6.918-.162-.003-.323-.005-.484-.005-12.058 0-21.999 9.191-22.264 20.696-.044 1.883 1.448 3.445 3.332 3.488 1.898.048 3.444-1.448 3.488-3.331.182-7.908 7.236-14.213 15.789-14.028 4.344.088 8.327 1.799 11.217 4.816 4.416 4.612 3.782 9.449 3.944 10.449-.24 5.13 1.441 10.11 4.852 14.151 4.382 5.191 10.871 7.898 17.415 7.898 3.424 0 6.859-.757 10.018-2.272.012.008.022.017.034.025 5.504 3.48 8.79 9.247 8.79 15.427-.001 10.274-8.983 18.634-20.048 18.634z"/><path d="m114.224 162.503c-.003 0-.007 0-.01 0-1.88 0-3.405 1.521-3.411 3.401-.006 1.884 1.517 3.415 3.401 3.421 4.166.012 8.068 1.54 10.987 4.303 2.862 2.708 4.43 6.287 4.418 10.077-.026 7.891-6.953 14.293-15.452 14.293-.019 0-.04 0-.059 0-1.88 0-3.405 1.521-3.411 3.401-.006 1.884 1.517 3.415 3.401 3.421h.069c12.25 0 22.237-9.449 22.274-21.092.019-5.691-2.308-11.037-6.549-15.053-4.185-3.964-9.746-6.155-15.658-6.172z"/></g><g><g><path d="m136.562 144.446c-13.477 0-24.441-10.964-24.441-24.441s10.965-24.441 24.441-24.441 24.441 10.964 24.441 24.441-10.965 24.441-24.441 24.441zm0-44.882c-11.271 0-20.441 9.17-20.441 20.441s9.17 20.441 20.441 20.441 20.441-9.17 20.441-20.441-9.17-20.441-20.441-20.441z" fill="#6bdddd"/></g><g><circle cx="136.562" cy="120.005" fill="#6bdddd" r="10.243"/></g></g><g><path d="m115.277 255c-3.913 0-7.854-.779-11.454-2.26-3.601 1.48-7.541 2.26-11.454 2.26-12.021 0-22.497-6.85-26.81-17.278-4.755 2.399-10.079 3.465-15.547 3.099-13.702-.922-25.134-11.407-26.592-24.39-.435-3.88-.014-7.784 1.219-11.428-13.15-2.689-22.776-13.826-22.776-26.841 0-7.325 3.044-14.275 8.427-19.401-5.383-5.126-8.427-12.077-8.427-19.4 0-12.03 8.092-22.482 19.938-26.119-.788-2.527-1.188-5.136-1.19-7.785-.01-14.853 12.669-27.176 28.262-27.471 2.497-.05 4.979.207 7.4.769-.088-1.542-.041-3.101.142-4.662 1.52-12.955 12.984-23.388 26.668-24.268 7.559-.483 15.021 1.879 20.741 6.538 5.718-4.659 13.187-7.026 20.742-6.537 13.683.879 25.147 11.312 26.667 24.267.183 1.561.229 3.12.142 4.662 18.203-4.229 35.674 9.14 35.662 26.702-.003 2.648-.402 5.258-1.19 7.785 11.846 3.636 19.938 14.088 19.938 26.119 0 7.323-3.044 14.273-8.427 19.4 5.383 5.126 8.427 12.076 8.427 19.401 0 13.027-9.625 24.165-22.775 26.846 1.23 3.643 1.651 7.545 1.218 11.422-1.458 12.985-12.891 23.47-26.595 24.392-5.458.368-10.788-.699-15.544-3.098-4.315 10.426-14.791 17.276-26.812 17.276zm-10.637-6.262c3.308 1.479 6.985 2.262 10.638 2.262 11.122 0 20.694-6.736 23.821-16.762.389-1.249 1.849-1.787 2.954-1.11 4.556 2.791 9.86 4.071 15.31 3.702 11.804-.793 21.644-9.755 22.889-20.846.456-4.088-.161-8.036-1.835-11.733-.557-1.233.246-2.655 1.591-2.811 12.414-1.449 21.776-11.457 21.776-23.279 0-6.879-3.176-13.383-8.714-17.843-.995-.803-.991-2.316 0-3.115 5.538-4.461 8.714-10.964 8.714-17.842 0-10.701-7.989-20.289-18.997-22.798-1.203-.275-1.872-1.562-1.408-2.704 1.098-2.698 1.655-5.525 1.658-8.405.008-12.686-10.91-23.214-24.338-23.468-3.069-.063-6.104.411-9.009 1.41-.671.23-1.413.089-1.952-.373-.539-.461-.792-1.174-.667-1.872.387-2.147.45-4.365.189-6.591-1.299-11.066-11.165-19.983-22.951-20.741-7.1-.462-14.063 1.968-19.126 6.66-.768.711-1.951.71-2.719 0-5.066-4.693-12.048-7.117-19.125-6.661-11.787.758-21.653 9.675-22.952 20.742-.261 2.226-.197 4.443.189 6.591.269 1.502-1.177 2.741-2.619 2.245-2.906-.999-5.943-1.467-9.006-1.41-13.431.254-24.349 10.782-24.341 23.469.003 2.879.561 5.708 1.657 8.405.463 1.136-.201 2.428-1.408 2.704-11.007 2.51-18.996 12.098-18.996 22.798 0 6.878 3.176 13.381 8.714 17.842.991.799.995 2.313 0 3.115-5.538 4.46-8.714 10.964-8.714 17.843 0 11.811 9.363 21.817 21.78 23.276 1.341.157 2.148 1.578 1.588 2.812-1.676 3.698-2.293 7.646-1.836 11.736 1.245 11.089 11.084 20.051 22.886 20.845 5.469.371 10.758-.913 15.313-3.703 1.11-.68 2.566-.134 2.954 1.11 3.127 10.026 12.7 16.762 23.821 16.762 3.652 0 7.33-.782 10.638-2.262.519-.232 1.113-.232 1.633 0z" fill="#3762cc"/></g><path d="m166.011 19.475c-16.575 16.575-19.03 41.91-7.388 61.094l-5.248 18.779c-.558 1.996 1.281 3.835 3.277 3.277l18.779-5.248c19.183 11.643 44.519 9.187 61.094-7.388 19.472-19.472 19.472-51.042 0-70.513s-51.042-19.472-70.514-.001z" fill="#e0ebfc"/><g><path d="m216.347 48.198c1.005 0 1.819-.815 1.819-1.819s-.814-1.819-1.819-1.819h-4.443v-7.191h4.443c1.005 0 1.819-.815 1.819-1.819 0-1.005-.814-1.819-1.819-1.819h-4.443v-2.637c0-2.499-.754-4.82-2.042-6.755l2.529-6.781c.351-.942-.127-1.989-1.069-2.34-.938-.351-1.989.127-2.34 1.069l-1.903 5.103c-1.593-1.213-3.489-2.039-5.559-2.349v-4.1c0-1.005-.814-1.819-1.819-1.819s-1.819.815-1.819 1.819v4.1c-2.07.31-3.966 1.136-5.559 2.349l-1.903-5.103c-.351-.942-1.402-1.419-2.34-1.069-.942.351-1.42 1.399-1.069 2.34l2.529 6.781c-1.288 1.935-2.042 4.256-2.042 6.755v2.637h-4.443c-1.005 0-1.819.815-1.819 1.819 0 1.005.814 1.819 1.819 1.819h4.443v7.191h-4.443c-1.005 0-1.819.814-1.819 1.819s.814 1.819 1.819 1.819h4.443v7.191h-4.443c-1.005 0-1.819.815-1.819 1.819 0 1.005.814 1.819 1.819 1.819h4.443v4.608c0 2.185.581 4.231 1.587 6.005l-2.073 5.56c-.351.942.127 1.989 1.069 2.34.936.35 1.988-.124 2.34-1.069l1.337-3.584c1.656 1.423 3.697 2.406 5.945 2.78v4.432c0 1.733.674 3.363 1.9 4.588 1.226 1.226 2.855 1.901 4.589 1.901 1.373 0 2.49 1.118 2.49 2.488v.522c0 1.373-1.117 2.49-2.495 2.49h-11.735c-1.105 0-2 .895-2 2 0 1.104.894 1.999 2 2h11.622.119c3.578 0 6.489-2.911 6.489-6.488v-.522c-.001-3.578-2.913-6.49-6.49-6.489-1.33-.002-2.489-1.159-2.489-2.49v-4.432c2.248-.373 4.289-1.356 5.945-2.78l1.337 3.584c.352.944 1.403 1.419 2.34 1.069.942-.351 1.42-1.399 1.069-2.34l-2.073-5.56c1.006-1.774 1.587-3.82 1.587-6.005v-4.608h4.443c1.005 0 1.819-.815 1.819-1.819 0-1.005-.814-1.819-1.819-1.819h-4.443v-7.191z" fill="#4671c6"/><path d="m199.7 69.618c-3.417 0-6.188-2.77-6.188-6.187v-33.351c0-3.417 2.77-6.187 6.188-6.187 3.417 0 6.187 2.77 6.187 6.187v33.351c.001 3.417-2.769 6.187-6.187 6.187z" fill="#a4c9ff"/></g><g><path d="m201.28 106.632c-8.957 0-17.977-2.329-26.137-7.099l-17.953 5.018c-3.499.975-6.72-2.24-5.741-5.741l5.018-17.954c-11.896-20.353-8.609-46.056 8.131-62.795 20.221-20.222 53.12-20.22 73.341 0s20.221 53.122 0 73.342c-10.028 10.028-23.275 15.228-36.659 15.229zm-24.811-10.965c18.888 11.463 43.003 8.547 58.642-7.092 9.039-9.04 14.018-21.059 14.018-33.843s-4.979-24.803-14.018-33.843c-9.04-9.04-21.059-14.018-33.843-14.018-12.783 0-24.802 4.978-33.842 14.018-15.64 15.639-18.556 39.753-7.092 58.642.287.473.365 1.043.216 1.576l-5.249 18.779c-.139.498.316.952.813.812l18.778-5.248c.52-.145 1.091-.077 1.577.217z" fill="#3762cc"/></g></g></svg>