<svg id="Layer_1" enable-background="new 0 0 256 256" height="512" viewBox="0 0 256 256" width="512" xmlns="http://www.w3.org/2000/svg"><g><path d="m80.219 131.576h22.913v65.487h-22.913z" fill="#f9cfcf" transform="matrix(.707 .707 -.707 .707 143.043 -16.697)"/><path d="m15.561 240.434c-7.325-7.325-7.325-19.202 0-26.527l57.607-57.607c1.649-1.649 4.322-1.649 5.971 0l20.556 20.556c1.649 1.649 1.649 4.322 0 5.971l-57.607 57.607c-7.325 7.325-19.201 7.325-26.527 0z" fill="#4671c6"/><circle cx="163.435" cy="92.56" fill="#a4c9ff" r="82.488"/><ellipse cx="163.435" cy="92.56" fill="#e0ebfc" rx="61.859" ry="61.858" transform="matrix(.973 -.23 .23 .973 -16.894 40.026)"/><path d="m121.602 63.526-9.095 33.941c-1.552 5.794 1.886 11.749 7.679 13.301l.611.164c5.794 1.552 11.749-1.886 13.301-7.679l9.095-33.941c1.552-5.794-1.886-11.749-7.679-13.301l-.611-.164c-5.794-1.553-11.749 1.886-13.301 7.679z" fill="#f9a7a7"/><path d="m187.778 119.942c1.358-.247 2.259-1.553 2.012-2.907l-2.019-11.1h3.207c3.066 0 5.916-.901 8.323-2.435l5.611 5.611c.976.977 2.559.977 3.536 0 .976-.976.976-2.56 0-3.535l-5.405-5.405c2.16-2.667 3.459-6.06 3.459-9.76v-2.99h9.466c1.381 0 2.5-1.119 2.5-2.5s-1.119-2.5-2.5-2.5h-9.466v-3.462c0-3.514-1.22-6.814-3.312-9.435l5.258-5.258c.977-.976.976-2.56 0-3.535-.976-.977-2.559-.977-3.536 0l-5.449 5.449c-.944-.598-1.962-1.101-3.047-1.484l-4.182-1.479 5.268-11.045c.595-1.247.066-2.738-1.18-3.333s-2.738-.066-3.333 1.18l-4.877 10.225c-.622-.861-1.083-1.845-1.325-2.914-.924-4.093-4.849-6.755-8.975-6.139l-1.137-6.248c-.247-1.358-1.549-2.259-2.907-2.012-1.207.219-2.053 1.271-2.053 2.457 0 .148.013.299.041.45l1.13 6.209-.502.088c-2.789.49-5.111 2.42-6.103 5.073l-1.688 4.512-7.958-7.958c-.976-.977-2.559-.977-3.536 0-.488.488-.732 1.128-.732 1.768s.244 1.28.732 1.768l9.569 9.569c-1.864 4.989-2.521 10.31-2.005 15.554h-8.115c-1.381 0-2.5 1.119-2.5 2.5s1.119 2.5 2.5 2.5h8.983c.12.48.222.963.362 1.44 1.071 3.626 2.961 6.834 5.417 9.472l-7.243 7.243c-.488.488-.732 1.128-.732 1.768s.244 1.28.732 1.768c.976.977 2.559.977 3.536 0l7.492-7.492c3.365 2.354 7.333 3.855 11.577 4.223l2.199 12.088c.247 1.357 1.549 2.258 2.907 2.011z" fill="#4671c6"/><g fill="#6bdddd"><circle cx="170.309" cy="131.571" r="12.389"/><circle cx="145.234" cy="120.418" r="7.31"/><path d="m169.973 78.998c0-2.879.517-5.734 1.525-8.43l2.583-6.906c.411-1.1 1.374-1.9 2.531-2.102 1.545-.271 3.029.595 3.647 2.037 1.564 3.653 4.577 6.506 8.419 7.864l4.045 1.43c2.564.906 4.278 3.33 4.278 6.049v10.307c0 3.74-3.032 6.771-6.771 6.771h-5.616c-6.171 0-11.706-3.956-13.546-9.846-.727-2.325-1.095-4.741-1.095-7.174z"/></g><circle cx="186.677" cy="84.305" fill="#e0ebfc" r="8.062"/><circle cx="132.036" cy="67.768" fill="#4671c6" r="5.269"/><g fill="#3762cc"><path d="m223.177 32.818c-15.957-15.957-37.174-24.746-59.741-24.746s-43.784 8.789-59.742 24.746c-29.703 29.703-32.611 76.196-8.749 109.201l-13.628 13.629-.763-.763c-1.175-1.175-2.737-1.823-4.399-1.823s-3.225.647-4.399 1.823l-57.607 57.607c-8.094 8.094-8.094 21.263 0 29.355 3.92 3.921 9.133 6.08 14.678 6.08s10.758-2.159 14.678-6.08l57.608-57.607c2.425-2.426 2.425-6.374-.001-8.799l-.763-.763 13.623-13.623c14.305 10.377 31.451 15.993 49.465 15.993 22.567 0 43.784-8.789 59.741-24.746 15.958-15.958 24.746-37.174 24.746-59.741-.001-22.569-8.789-43.785-24.747-59.743zm-124.895 148.595-57.607 57.607c-3.165 3.165-7.373 4.908-11.85 4.908s-8.685-1.743-11.85-4.908c-6.533-6.534-6.533-17.165 0-23.699l57.607-57.607c.865-.864 2.27-.872 3.143 0l20.557 20.556c.866.866.866 2.276 0 3.143zm-.762-9.563-13.374-13.374 13.244-13.245c.006.008.013.015.019.023 2.043 2.555 4.357 5.119 6.285 7.048 2.043 2.042 4.535 4.277 7.068 6.305zm122.829-22.377c-15.202 15.202-35.414 23.574-56.913 23.574-22.005 0-42.123-8.782-56.914-23.574-31.164-31.164-31.558-82.268 0-113.827 15.202-15.202 35.415-23.574 56.914-23.574s41.711 8.372 56.913 23.574 23.574 35.415 23.574 56.914-8.372 41.711-23.574 56.913z"/><path d="m208.59 47.405c-12.042-12.043-28.078-18.675-45.154-18.675s-33.112 6.632-45.155 18.675c-24.898 24.898-24.898 65.411 0 90.309 12.043 12.043 28.079 18.675 45.155 18.675 17.075 0 33.113-6.633 45.154-18.675 12.043-12.042 18.675-28.079 18.675-45.155s-6.632-33.111-18.675-45.154zm-2.828 87.482c-11.287 11.287-26.318 17.503-42.326 17.503s-31.04-6.216-42.327-17.503c-23.339-23.339-23.339-61.313 0-84.653 11.287-11.287 26.319-17.503 42.327-17.503s31.039 6.216 42.326 17.503 17.503 26.319 17.503 42.327-6.216 31.039-17.503 42.326z"/></g></g></svg>