<svg id="Layer_1" enable-background="new 0 0 256 256" height="512" viewBox="0 0 256 256" width="512" xmlns="http://www.w3.org/2000/svg"><g><path d="m31.538 73.871h-14.859c-4.103 0-7.429 3.327-7.429 7.429v34.671c0 4.103 3.326 7.429 7.429 7.429h14.859z" fill="#e0ebfc"/><path d="m92.711 62.618h-48.96c-6.745 0-12.213 4.434-12.213 9.905v52.226c0 5.471 5.468 9.906 12.213 9.906h48.96v-36.019z" fill="#4671c6"/><path d="m92.711 62.618h-48.96c-6.745 0-12.213 4.434-12.213 9.905v52.226c0 5.471 5.468 9.906 12.213 9.906h48.96v-36.019z" fill="#4671c6"/><path d="m51.455 134.655v77.763c0 4.24 3.438 7.678 7.678 7.678h13.162c4.24 0 7.678-3.438 7.678-7.678v-77.763z" fill="#a4c9ff"/><path d="m178.097 36.139-85.386 26.478v36.019 36.019l85.387 26.478c3.279 1.017 6.605-1.434 6.605-4.867v-115.259c-.001-3.434-3.326-5.884-6.606-4.868z" fill="#6bdddd"/><path d="m183.816 35.294c-1.835-1.352-4.135-1.742-6.311-1.065h-.001l-85.096 26.389h-48.657c-7.574 0-13.765 4.992-14.173 11.253h-12.898c-5.199 0-9.43 4.23-9.43 9.43v34.671c0 5.199 4.23 9.43 9.43 9.43h12.898c.408 6.261 6.599 11.254 14.173 11.254h5.704v75.763c0 5.337 4.342 9.679 9.679 9.679h13.162c5.336 0 9.678-4.342 9.678-9.679v-75.763h10.434l85.098 26.388c.701.218 1.415.324 2.122.324 1.488 0 2.945-.473 4.188-1.389 1.834-1.353 2.886-3.435 2.886-5.713v-115.26c0-2.278-1.052-4.36-2.886-5.712zm-154.278 86.107h-12.858c-2.994 0-5.43-2.436-5.43-5.43v-34.671c0-2.994 2.436-5.43 5.43-5.43h12.858zm48.436 91.017c0 3.131-2.547 5.679-5.678 5.679h-13.162c-3.131 0-5.679-2.548-5.679-5.679v-75.763h24.519zm12.737-79.763c-41.579 0-5.058 0-46.96 0-5.632 0-10.213-3.547-10.213-7.906 0-39.657 0-16.833 0-52.226 0-4.359 4.581-7.905 10.213-7.905h46.96zm91.991 23.61c0 .994-.459 1.902-1.259 2.492-.799.589-1.804.76-2.753.465l-83.979-26.041v-69.09l83.979-26.042c.951-.294 1.953-.125 2.754.465.8.59 1.259 1.498 1.259 2.492v115.259z" fill="#3762cc"/><g fill="#ffea92"><path d="m219.318 103.176c-2.504 0-4.54-2.036-4.54-4.54s2.036-4.54 4.54-4.54h24.893c2.503 0 4.539 2.036 4.539 4.54s-2.036 4.54-4.539 4.54z"/><path d="m222.964 67.671c-1.213 0-2.353-.472-3.211-1.329-1.77-1.77-1.769-4.651 0-6.421l17.602-17.601c.858-.858 1.997-1.33 3.21-1.33s2.352.472 3.21 1.33 1.33 1.997 1.33 3.21-.472 2.352-1.33 3.21l-17.601 17.602c-.857.857-1.997 1.329-3.21 1.329z"/><path d="m240.565 156.282c-1.213 0-2.352-.472-3.21-1.33l-17.602-17.601c-1.769-1.77-1.77-4.651 0-6.421.858-.857 1.998-1.329 3.211-1.329s2.353.472 3.21 1.329l17.601 17.602c.858.858 1.33 1.997 1.33 3.21s-.472 2.352-1.33 3.21-1.997 1.33-3.21 1.33z"/></g><circle cx="169.415" cy="98.636" fill="#f9a7a7" r="37.357"/><circle cx="169.415" cy="98.636" fill="#e0ebfc" r="28.391"/><g><path d="m165.437 83.617c-.969-.862-1.452-2.03-1.452-3.504 0-1.473.483-2.631 1.452-3.473.968-.842 2.294-1.262 3.978-1.262 1.642 0 2.957.432 3.947 1.295.988.863 1.483 2.011 1.483 3.441 0 1.474-.485 2.643-1.452 3.504-.969.863-2.295 1.295-3.978 1.295-1.684-.001-3.01-.433-3.978-1.296zm.537 37.222c-.906-.758-1.358-1.873-1.358-3.346v-23.047c0-1.473.463-2.589 1.389-3.346.925-.758 2.062-1.137 3.409-1.137s2.472.379 3.379 1.137c.905.757 1.358 1.874 1.358 3.346v23.047c0 1.474-.453 2.589-1.358 3.346-.906.758-2.032 1.137-3.379 1.137-1.388 0-2.535-.379-3.44-1.137z" fill="#4671c6"/></g><path d="m138.38 94.852h65.342v8.966h-65.342z" fill="#f9a7a7" transform="matrix(-.707 .707 -.707 -.707 362.242 48.624)"/><g><path d="m169.415 137.993c-21.701 0-39.356-17.655-39.356-39.356s17.655-39.356 39.356-39.356c21.702 0 39.357 17.655 39.357 39.356s-17.655 39.356-39.357 39.356zm0-74.713c-19.496 0-35.356 15.86-35.356 35.356s15.86 35.356 35.356 35.356 35.357-15.86 35.357-35.356-15.861-35.356-35.357-35.356z" fill="#3762cc"/></g></g></svg>