<svg id="Layer_1" enable-background="new 0 0 256 256" height="512" viewBox="0 0 256 256" width="512" xmlns="http://www.w3.org/2000/svg"><g><circle cx="127.672" cy="157.91" fill="#f9a7a7" r="95.217"/><circle cx="127.672" cy="157.91" fill="#4671c6" r="81.361"/><g fill="#6bdddd"><path d="m208.084 170.372c-.512-.117-1.041-.185-1.588-.185h-23.348c-3.923 0-7.103 3.18-7.103 7.103s-3.18 7.103-7.103 7.103c-12.522 0-11.844 20.619 1.34 20.619h23.738c7.172-10.085 12.101-21.873 14.064-34.64z"/><path d="m127.672 76.549c-17.979 0-34.593 5.836-48.06 15.712v6.353c0 3.464 2.808 6.272 6.272 6.272h30.576c3.464 0 6.272 2.808 6.272 6.272v8.788c0 3.464 2.808 6.272 6.272 6.272h13.72c3.464 0 6.272 2.808 6.272 6.272v6.076c0 5.737 4.651 10.388 10.388 10.388h18.371c3.464 0 6.272-2.808 6.272-6.272s2.808-6.272 6.272-6.272h15.855c-9.428-34.5-40.991-59.861-78.482-59.861z"/><path d="m127.61 223.566h-22.036c-3.441 0-6.23-2.789-6.23-6.23 0-3.473 2.84-6.276 6.313-6.23l6.974.093c3.473.046 6.313-2.756 6.313-6.23v-17.248c0-3.441-2.789-6.23-6.23-6.23h-2.958c-3.441 0-6.23-2.789-6.23-6.23v-4.526c0-3.441-2.789-6.23-6.23-6.23h-12.349c-3.441 0-6.23-2.789-6.23-6.23v-5.572c0-3.441-2.789-6.23-6.23-6.23h-25.371c-.526 3.738-.804 7.555-.804 11.438 0 44.934 36.426 81.361 81.361 81.361 2.075 0 4.132-.079 6.168-.231v-9.243c-.001-3.443-2.79-6.232-6.231-6.232z"/></g><path d="m208.118 136.098c-.011-.072-.013-.145-.033-.216-9.94-36.36-43.229-61.333-80.413-61.333-42.59 0-76.806 31.737-82.501 71.488-.012.052-.029.101-.036.155-7.432 52.822 35.851 98.796 88.854 94.842 51.317-3.799 87.986-53.889 74.129-104.936zm-15.198 66.913h-22.637c-5.72 0-8.324-4.622-8.324-8.916 0-2.115.632-4.045 1.778-5.432 1.245-1.507 2.997-2.271 5.206-2.271 5.02 0 9.103-4.083 9.103-9.103 0-2.814 2.289-5.104 5.104-5.104h22.573c-2.066 11.337-6.511 21.751-12.803 30.826zm-50.195-78.793h-13.72c-2.355 0-4.272-1.917-4.272-4.272v-8.788c0-4.562-3.711-8.272-8.272-8.272h-30.577c-2.355 0-4.271-1.916-4.271-4.271v-5.269c13.499-9.657 29.517-14.795 46.06-14.795 3.921 0 8.593.362 12.658 1.021 29.199 4.694 54.118 25.764 63.15 54.839h-13.181c-4.561 0-8.271 3.711-8.271 8.272 0 2.355-1.917 4.272-4.272 4.272h-18.371c-4.625 0-8.388-3.763-8.388-8.389v-6.076c0-4.561-3.711-8.272-8.273-8.272zm-93.832 24.253h23.594c2.333 0 4.23 1.897 4.23 4.23v5.572c0 4.538 3.691 8.229 8.229 8.229h12.348c2.333 0 4.23 1.897 4.23 4.23v4.526c0 4.538 3.692 8.23 8.23 8.23h2.958c2.333 0 4.23 1.897 4.23 4.23v17.248c0 1.141-.447 2.21-1.26 3.012-.812.802-1.896 1.23-3.027 1.218l-6.973-.093c-4.646-.055-8.341 3.687-8.341 8.229 0 4.538 3.692 8.23 8.23 8.23h22.036c2.333 0 4.23 1.897 4.23 4.23v7.364c-.017.001-.034.003-.051.004-.051.003-.102.003-.153.006-48.838 2.419-88.581-39.614-82.74-88.695zm86.947 88.381v-7.056c0-4.538-3.692-8.23-8.23-8.23h-22.036c-2.333 0-4.23-1.897-4.23-4.23 0-2.416 2.001-4.275 4.287-4.229l6.973.093c2.223.026 4.311-.813 5.891-2.371s2.45-3.639 2.45-5.858v-17.248c0-4.538-3.692-8.23-8.23-8.23h-2.958c-2.333 0-4.23-1.897-4.23-4.23v-4.526c0-4.538-3.692-8.23-8.23-8.23h-12.35c-2.332 0-4.229-1.897-4.229-4.229v-5.572c0-4.538-3.692-8.23-8.23-8.23h-23.015c3.304-19.284 13.576-36.213 28.14-48.085v2.228c0 4.561 3.711 8.271 8.271 8.271h30.576c2.355 0 4.272 1.917 4.272 4.272v8.788c0 4.562 3.711 8.272 8.272 8.272h13.72c2.355 0 4.272 1.916 4.272 4.271v6.076c0 6.831 5.557 12.389 12.388 12.389h18.371c4.562 0 8.272-3.711 8.272-8.272 0-2.355 1.916-4.272 4.271-4.272h14.301c1.583 6.242 2.431 12.773 2.431 19.5 0 3.484-.25 6.909-.688 10.276h-23.196c-5.02 0-9.104 4.084-9.104 9.104 0 2.813-2.289 5.103-5.103 5.103-3.41 0-6.276 1.287-8.289 3.723-1.738 2.103-2.695 4.938-2.695 7.98 0 6.419 4.233 12.916 12.324 12.916h19.667c-12.952 16.393-32.217 27.588-54.106 29.836z" fill="#3762cc"/><path d="m92.436 183.054h70.472c4.154 0 6.692-4.564 4.499-8.093l-35.236-56.708c-2.072-3.335-6.926-3.335-8.999 0l-35.236 56.708c-2.192 3.528.346 8.093 4.5 8.093z" fill="#f9a7a7"/><g><path d="m125.895 163.334c-.486-.465-.786-1.144-.902-2.036l-2.56-20.363c-.039-.194-.058-.465-.058-.815 0-1.435.504-2.579 1.513-3.433 1.008-.853 2.269-1.28 3.782-1.28 1.667 0 3.015.505 4.044 1.513 1.027 1.009 1.425 2.366 1.193 4.073l-2.618 20.305c-.078.893-.359 1.571-.844 2.036s-1.076.698-1.774.698-1.292-.233-1.776-.698zm-1.775 12.305c-.931-.95-1.396-2.143-1.396-3.578s.466-2.627 1.396-3.578c.931-.95 2.114-1.425 3.549-1.425s2.618.475 3.549 1.425c.931.951 1.396 2.144 1.396 3.578 0 1.435-.466 2.628-1.396 3.578-.931.951-2.115 1.425-3.549 1.425-1.435 0-2.618-.474-3.549-1.425z" fill="#e0ebfc"/></g><g><path d="m162.909 185.053h-70.473c-2.688 0-5.071-1.402-6.377-3.751-1.307-2.349-1.239-5.114.179-7.397l35.236-56.708c1.341-2.157 3.658-3.445 6.198-3.445s4.857 1.288 6.198 3.445l35.236 56.708c1.418 2.283 1.485 5.049.179 7.397-1.305 2.349-3.689 3.751-6.376 3.751zm-35.237-67.302c-1.165 0-2.186.567-2.8 1.557l-35.236 56.708c-.642 1.031-.672 2.281-.082 3.343.591 1.061 1.668 1.694 2.882 1.694h70.473c1.214 0 2.291-.634 2.882-1.694.59-1.062.56-2.312-.082-3.343l-35.236-56.708c-.615-.989-1.636-1.557-2.801-1.557z" fill="#3762cc"/></g><g fill="#4671c6"><path d="m104.622 61.758c-5.007 1.2-9.961 2.81-14.723 4.786-1.861.772-2.744 2.907-1.972 4.769.583 1.404 1.94 2.252 3.372 2.252.466 0 .939-.09 1.397-.279 4.407-1.829 8.993-3.319 13.627-4.43 1.96-.469 3.167-2.439 2.698-4.399-.469-1.961-2.439-3.17-4.399-2.699z"/><path d="m76.114 73.579c-4.384 2.689-8.596 5.749-12.52 9.096-1.533 1.308-1.716 3.611-.408 5.144.722.846 1.746 1.281 2.778 1.281.837 0 1.679-.287 2.366-.873 3.636-3.101 7.539-5.937 11.6-8.428 1.718-1.054 2.256-3.301 1.203-5.018s-3.301-2.256-5.019-1.202z"/><path d="m41.196 117.902c-1.86-.78-3.997.099-4.775 1.958-1.99 4.758-3.616 9.708-4.831 14.712-.476 1.959.726 3.932 2.684 4.408.29.07.579.104.864.104 1.645 0 3.138-1.12 3.543-2.788 1.125-4.632 2.63-9.214 4.473-13.618.778-1.861-.099-3.999-1.958-4.776z"/><path d="m52.637 93.6c-3.359 3.913-6.432 8.116-9.136 12.492-1.059 1.715-.527 3.963 1.187 5.022.598.369 1.261.545 1.915.545 1.223 0 2.418-.615 3.108-1.732 2.504-4.054 5.352-7.949 8.464-11.575 1.312-1.529 1.137-3.833-.392-5.145-1.53-1.312-3.834-1.135-5.146.393z"/><path d="m135.383 59.342c-5.107-.396-10.355-.396-15.471.004-2.009.157-3.511 1.912-3.354 3.922.15 1.913 1.748 3.365 3.635 3.365.094 0 .191-.004.288-.011 4.738-.37 9.606-.371 14.338-.004 2.018.156 3.765-1.347 3.921-3.356.155-2.009-1.348-3.764-3.357-3.92z"/><path d="m211.822 106.058c-2.705-4.374-5.779-8.575-9.139-12.487-1.311-1.527-3.615-1.704-5.146-.39-1.529 1.313-1.703 3.617-.39 5.146 3.113 3.624 5.962 7.516 8.467 11.569.69 1.116 1.884 1.731 3.107 1.731.655 0 1.318-.176 1.915-.546 1.716-1.06 2.247-3.309 1.186-5.023z"/><path d="m220.195 139.034c.286 0 .576-.034.866-.105 1.958-.477 3.159-2.451 2.682-4.409-1.22-5.005-2.847-9.953-4.838-14.706-.78-1.857-2.917-2.735-4.776-1.955-1.858.779-2.734 2.917-1.956 4.776 1.844 4.4 3.351 8.979 4.479 13.612.406 1.669 1.899 2.787 3.543 2.787z"/><path d="m165.404 66.527c-4.763-1.974-9.72-3.583-14.731-4.781-1.966-.471-3.929.741-4.398 2.7-.469 1.96.74 3.929 2.7 4.397 4.639 1.11 9.226 2.598 13.635 4.425.457.189.93.279 1.395.279 1.432 0 2.79-.848 3.373-2.253.772-1.861-.112-3.996-1.974-4.767z"/><path d="m179.197 73.559c-1.718-1.053-3.964-.514-5.018 1.204-1.053 1.719-.514 3.965 1.204 5.018 4.065 2.492 7.969 5.326 11.604 8.424.687.586 1.528.872 2.365.872 1.032 0 2.057-.435 2.779-1.282 1.308-1.534 1.124-3.837-.41-5.144-3.923-3.344-8.136-6.403-12.524-9.092z"/><path d="m229.674 153.641h-3.231c-.054-1.263-.127-2.525-.228-3.774-.163-2.009-1.932-3.499-3.931-3.343-2.009.162-3.506 1.923-3.344 3.931.086 1.055.144 2.12.193 3.186h-3.028c-1.498 0-2.41 1.648-1.614 2.917l6.785 10.823c.747 1.191 2.482 1.191 3.228 0l6.785-10.823c.794-1.269-.118-2.917-1.615-2.917z"/><path d="m39.895 153.641h-3.683c.049-1.065.107-2.13.193-3.186.162-2.009-1.335-3.769-3.344-3.931-2-.167-3.768 1.334-3.931 3.343-.101 1.251-.174 2.512-.228 3.774h-2.576c-1.498 0-2.41 1.648-1.614 2.917l6.785 10.823c.747 1.191 2.482 1.191 3.228 0l6.785-10.823c.795-1.269-.117-2.917-1.615-2.917z"/></g><path d="m127.621 4.874c-21.734 0-39.354 17.619-39.354 39.354 0 18.501 12.77 34.011 29.973 38.22l7.551 13.41c.803 1.425 2.855 1.425 3.658 0l7.551-13.41c17.204-4.209 29.973-19.719 29.973-38.22.001-21.735-17.618-39.354-39.352-39.354z" fill="#e0ebfc"/><g><path d="m154.434 39.966c-1.066 0-1.933.816-2.034 1.857h-3.223c-.418-4.438-2.172-8.488-4.86-11.738l2.278-2.278c.378.311.836.476 1.299.476.525 0 1.051-.201 1.452-.601.802-.802.802-2.102 0-2.904l-1.312-1.313-1.312-1.312c-.802-.802-2.102-.802-2.904 0-.754.754-.79 1.944-.126 2.751l-2.278 2.278c-3.251-2.688-7.3-4.442-11.738-4.86v-3.223c1.04-.101 1.856-.967 1.856-2.034 0-1.134-.919-2.053-2.053-2.053h-3.713c-1.134 0-2.053.919-2.053 2.053 0 1.067.816 1.933 1.857 2.034v3.223c-4.438.418-8.488 2.172-11.738 4.86l-2.278-2.278c.664-.807.629-1.996-.125-2.75-.802-.802-2.102-.802-2.904 0l-1.312 1.312s0 0-.001.001c0 0 0 0-.001.001l-1.312 1.312c-.802.802-.802 2.102 0 2.904.401.401.926.602 1.452.602.463 0 .921-.165 1.299-.476l2.278 2.278c-2.688 3.251-4.442 7.3-4.86 11.738h-3.223c-.101-1.04-.967-1.857-2.034-1.857-1.134 0-2.053.919-2.053 2.053v3.713c0 1.134.919 2.053 2.053 2.053 1.067 0 1.933-.816 2.034-1.857h3.223c.418 4.438 2.172 8.488 4.86 11.738l-2.278 2.278c-.806-.665-1.997-.629-2.751.125-.802.802-.802 2.102 0 2.904l1.312 1.312s0 0 .001.001c0 0 0 0 .001.001l1.312 1.312c.401.401.927.601 1.452.601s1.051-.201 1.452-.601c.754-.754.79-1.944.125-2.75l2.278-2.278c3.251 2.688 7.3 4.442 11.738 4.86v3.223c-1.04.101-1.857.967-1.857 2.034 0 1.134.919 2.053 2.053 2.053h3.713c1.134 0 2.053-.919 2.053-2.053 0-1.067-.816-1.933-1.856-2.034v-3.223c4.438-.418 8.488-2.172 11.738-4.86l2.278 2.278c-.664.807-.629 1.997.126 2.751.401.401.927.601 1.452.601s1.051-.201 1.452-.601l1.312-1.312 1.312-1.313c.802-.802.802-2.102 0-2.904-.754-.754-1.944-.79-2.751-.125l-2.278-2.278c2.688-3.251 4.442-7.3 4.86-11.738h3.223c.101 1.04.967 1.857 2.034 1.857 1.134 0 2.054-.919 2.054-2.053v-3.717c-.001-1.134-.92-2.054-2.054-2.054z" fill="#4671c6"/><circle cx="127.621" cy="43.876" fill="#e0ebfc" r="16.499"/><circle cx="127.621" cy="43.876" fill="#6bdddd" r="14.193"/><g fill="#e0ebfc"><circle cx="127.621" cy="36.614" r="4.481"/><circle cx="127.621" cy="51.139" r="3.809"/><circle cx="135.61" cy="43.877" r="3.809"/><circle cx="119.632" cy="43.877" r="4.044"/></g></g><g><path d="m127.621 98.925c-1.478 0-2.847-.8-3.571-2.087l-7.132-12.666c-18.092-4.825-30.65-21.127-30.65-39.945 0-22.803 18.551-41.354 41.354-41.354s41.354 18.551 41.354 41.354c0 18.818-12.559 35.12-30.65 39.945l-7.131 12.666c-.728 1.287-2.097 2.087-3.574 2.087zm0-92.051c-20.597 0-37.354 16.757-37.354 37.354 0 17.263 11.698 32.18 28.449 36.277.537.131.996.479 1.268.961l7.551 13.41c.027.049.144.049.173 0l7.55-13.41c.271-.481.73-.83 1.268-.961 16.751-4.098 28.449-19.015 28.449-36.277-.001-20.598-16.758-37.354-37.354-37.354z" fill="#3762cc"/></g></g></svg>