<svg id="Layer_1" enable-background="new 0 0 256 256" height="512" viewBox="0 0 256 256" width="512" xmlns="http://www.w3.org/2000/svg"><g><circle cx="127.868" cy="163.837" fill="#4671c6" r="88.289"/><path d="m215.126 177.36c-.555-.127-1.13-.201-1.723-.201h-25.336c-4.257 0-7.708 3.451-7.708 7.708s-3.451 7.708-7.708 7.708c-13.588 0-12.852 22.375 1.454 22.375h25.759c7.784-10.944 13.133-23.736 15.262-37.59z" fill="#6bdddd"/><path d="m127.868 75.548c-19.51 0-37.539 6.333-52.152 17.049v6.894c0 3.759 3.047 6.806 6.806 6.806h33.18c3.759 0 6.806 3.047 6.806 6.806v9.536c0 3.759 3.047 6.806 6.806 6.806h14.888c3.759 0 6.806 3.047 6.806 6.806v6.593c0 6.226 5.047 11.273 11.273 11.273h19.935c3.759 0 6.806-3.047 6.806-6.806s3.047-6.806 6.806-6.806h17.205c-10.231-37.437-44.482-64.957-85.165-64.957z" fill="#6bdddd"/><path d="m127.8 235.083h-23.912c-3.734 0-6.761-3.027-6.761-6.761 0-3.769 3.082-6.811 6.851-6.76l7.567.101c3.769.05 6.851-2.991 6.851-6.76v-18.717c0-3.734-3.027-6.761-6.761-6.761h-3.21c-3.734 0-6.761-3.027-6.761-6.761v-4.912c0-3.734-3.027-6.761-6.761-6.761h-13.398c-3.734 0-6.761-3.027-6.761-6.761v-6.046c0-3.734-3.027-6.761-6.761-6.761h-27.531c-.571 4.056-.873 8.199-.873 12.412 0 48.761 39.528 88.289 88.289 88.289 2.252 0 4.483-.086 6.693-.251v-10.03c0-3.732-3.027-6.76-6.761-6.76z" fill="#6bdddd"/><g fill="#f9a7a7"><circle cx="147.336" cy="92.376" r="5.327"/><circle cx="135.805" cy="116.203" r="5.327"/><circle cx="167.17" cy="97.703" r="5.327"/><circle cx="165.882" cy="137.03" r="5.327"/><circle cx="97.632" cy="93.53" r="5.327"/><circle cx="182.209" cy="115.876" r="5.327"/><circle cx="160.555" cy="117.366" r="5.327"/><circle cx="194.342" cy="130.03" r="5.327"/><circle cx="77.808" cy="183.744" r="5.327"/><circle cx="56.817" cy="169.164" r="5.327"/><circle cx="77.808" cy="214.949" r="5.327"/><circle cx="176.882" cy="202.378" r="5.327"/><circle cx="98.95" cy="202.378" r="5.327"/></g><path d="m218.156 163.837c0-8.217-1.11-16.179-3.176-23.751-.008-.036-.007-.072-.016-.108-.047-.173-.104-.342-.152-.514-10.802-38.476-46.113-65.916-86.943-65.916-47.629 0-86.746 37.079-90.057 83.854-3.902 54.772 41.773 100.531 96.763 96.474.045-.003.091-.004.136-.008.003 0 .006-.001.009-.001 46.332-3.494 83.436-42.254 83.436-90.03zm-19.397 49.111h-24.652c-6.324 0-9.204-5.104-9.204-9.845 0-2.335.699-4.467 1.968-6.003 1.386-1.677 3.331-2.526 5.781-2.526 5.353 0 9.708-4.355 9.708-9.708 0-3.147 2.561-5.708 5.708-5.708h24.699c-2.153 11.954-6.686 23.254-14.008 33.79zm-54.556-85.502h-14.889c-2.65 0-4.806-2.156-4.806-4.807v-9.536c0-4.856-3.95-8.807-8.806-8.807h-33.18c-2.65 0-4.806-2.156-4.806-4.806v-5.805c14.757-10.581 32.217-16.138 50.152-16.138 37.64 0 71.321 24.668 82.488 60.958h-14.527c-4.856 0-8.806 3.95-8.806 8.807 0 2.649-2.156 4.806-4.806 4.806h-19.936c-5.113 0-9.272-4.159-9.272-9.272v-6.594c0-4.855-3.95-8.806-8.806-8.806zm-101.973 25.978h25.753c2.625 0 4.761 2.136 4.761 4.762v6.046c0 4.831 3.93 8.761 8.761 8.761h13.399c2.625 0 4.761 2.136 4.761 4.761v4.911c0 4.831 3.93 8.762 8.761 8.762h3.21c2.625 0 4.761 2.136 4.761 4.761v18.717c0 1.283-.503 2.487-1.417 3.389-.914.901-2.082 1.373-3.408 1.371l-7.567-.101c-5.127-.004-8.877 4.05-8.877 8.76 0 4.831 3.93 8.761 8.761 8.761h23.911c2.625 0 4.761 2.136 4.761 4.761v8.149c-53.276 2.893-96.804-43.043-90.331-96.571zm94.331 96.264v-7.844c0-4.831-3.93-8.761-8.761-8.761h-23.912c-2.625 0-4.761-2.136-4.761-4.761 0-2.434 1.845-4.69 4.824-4.76l7.567.101c2.372.026 4.589-.864 6.27-2.523 1.682-1.659 2.608-3.874 2.608-6.236v-18.717c0-4.831-3.93-8.761-8.761-8.761h-3.21c-2.625 0-4.761-2.136-4.761-4.762v-4.911c0-4.831-3.93-8.761-8.761-8.761h-13.399c-2.625 0-4.761-2.136-4.761-4.761v-6.046c0-4.831-3.93-8.762-8.761-8.762h-25.176c3.577-21.171 14.879-39.74 30.91-52.701v2.768c0 4.855 3.95 8.806 8.806 8.806h33.18c2.65 0 4.806 2.156 4.806 4.807v9.536c0 4.856 3.95 8.807 8.806 8.807h14.889c2.65 0 4.806 2.156 4.806 4.806v6.594c0 7.318 5.954 13.272 13.272 13.272h19.936c4.856 0 8.806-3.95 8.806-8.806 0-2.65 2.156-4.807 4.806-4.807h15.654c1.742 6.825 2.673 13.971 2.673 21.331 0 3.839-.278 7.613-.766 11.321h-25.322c-5.353 0-9.708 4.355-9.708 9.708 0 3.147-2.561 5.708-5.708 5.708-3.647 0-6.713 1.376-8.864 3.979-1.86 2.251-2.885 5.287-2.885 8.551 0 6.88 4.535 13.845 13.204 13.845h21.692c-14.126 18.027-35.239 30.328-59.238 32.74z" fill="#3762cc"/><path d="m253.183 198.44c0-15.151-12.282-27.433-27.433-27.433-12.896 0-23.709 8.901-26.642 20.894l-9.348 5.264c-.993.56-.993 1.99 0 2.55l9.348 5.264c2.934 11.993 13.746 20.894 26.642 20.894 15.151 0 27.433-12.283 27.433-27.433z" fill="#e0ebfc"/><g><path d="m214.705 213.584c.526-.526.55-1.355.087-1.917l1.589-1.589c2.394 1.982 5.254 3.113 8.182 3.39v2.245c-.34.033-.647.177-.875.405-.259.259-.419.617-.419 1.012 0 .791.641 1.432 1.431 1.432h1.294 1.294c.79 0 1.432-.641 1.432-1.431 0-.744-.569-1.348-1.294-1.418v-2.246c2.927-.277 5.788-1.409 8.182-3.39l1.589 1.589c-.463.562-.438 1.392.087 1.917.559.559 1.465.559 2.024 0l1.83-1.83c.559-.559.559-1.465 0-2.024-.526-.526-1.355-.551-1.918-.087l-1.589-1.589c1.982-2.394 3.113-5.254 3.39-8.182h2.246c.07.725.674 1.294 1.417 1.294.79 0 1.431-.641 1.432-1.431v-1.294s0 0 0-.001c0 0 0 0 0-.001v-1.293c0-.791-.641-1.432-1.431-1.432-.395 0-.753.16-1.012.419-.228.228-.373.535-.405.875h-2.246c-.277-2.927-1.408-5.788-3.39-8.182l1.589-1.589c.562.463 1.392.439 1.918-.087.559-.559.559-1.465 0-2.024l-1.83-1.83c-.559-.559-1.465-.559-2.024 0-.526.526-.551 1.355-.087 1.918l-1.589 1.589c-2.394-1.982-5.254-3.113-8.182-3.39v-2.246c.725-.07 1.294-.674 1.294-1.418 0-.791-.641-1.432-1.432-1.431h-1.294s0 0-.001 0c0 0 0 0-.001 0h-1.293c-.395 0-.753.16-1.012.419s-.419.617-.419 1.012c0 .743.569 1.347 1.294 1.417v2.246c-2.927.277-5.788 1.409-8.182 3.39l-1.589-1.589c.463-.562.439-1.392-.087-1.918-.559-.559-1.465-.559-2.024 0l-1.83 1.83c-.559.559-.559 1.465 0 2.024.526.526 1.355.551 1.917.087l1.589 1.589c-1.982 2.394-3.113 5.254-3.39 8.182h-2.245c-.07-.725-.674-1.294-1.418-1.294-.395 0-.753.16-1.012.419s-.419.617-.419 1.012v1.294 1.294c0 .791.641 1.431 1.432 1.431.743 0 1.347-.569 1.418-1.294h2.245c.277 2.927 1.409 5.788 3.39 8.182l-1.589 1.589c-.562-.463-1.392-.438-1.918.087-.559.559-.559 1.465 0 2.024l1.83 1.83c.559.563 1.466.562 2.024.004z" fill="#4671c6"/><ellipse cx="225.995" cy="198.44" fill="#e0ebfc" rx="11.501" ry="11.501" transform="matrix(.707 -.707 .707 .707 -74.126 217.924)"/><ellipse cx="225.995" cy="198.44" fill="#6bdddd" rx="9.894" ry="9.894" transform="matrix(.707 -.707 .707 .707 -74.126 217.924)"/><g fill="#e0ebfc"><circle cx="229.575" cy="202.02" r="3.124"/><circle cx="222.415" cy="194.86" r="2.655"/><circle cx="222.057" cy="202.378" r="2.655"/><circle cx="229.932" cy="194.502" r="2.819"/></g></g><path d="m2.817 198.44c0 15.151 12.282 27.433 27.433 27.433 12.896 0 23.709-8.901 26.642-20.894l9.348-5.264c.993-.56.993-1.99 0-2.55l-9.348-5.264c-2.934-11.993-13.746-20.894-26.642-20.894-15.151 0-27.433 12.282-27.433 27.433z" fill="#e0ebfc"/><g><path d="m41.295 183.296c-.526.526-.55 1.355-.087 1.917l-1.589 1.589c-2.394-1.982-5.254-3.113-8.182-3.39v-2.245c.34-.033.647-.177.875-.405.259-.259.419-.617.419-1.012 0-.791-.641-1.432-1.431-1.432h-1.294-1.294c-.791 0-1.432.641-1.432 1.431 0 .744.569 1.348 1.294 1.418v2.246c-2.927.277-5.788 1.409-8.182 3.39l-1.589-1.589c.463-.562.438-1.392-.087-1.917-.559-.559-1.465-.559-2.024 0l-1.83 1.83c-.559.559-.559 1.465 0 2.024.526.526 1.355.551 1.918.087l1.589 1.589c-1.982 2.394-3.113 5.254-3.39 8.182h-2.246c-.07-.725-.674-1.294-1.417-1.294-.79 0-1.431.641-1.432 1.431v1.294.001.001 1.293c0 .791.641 1.432 1.431 1.432.395 0 .753-.16 1.012-.419.228-.228.373-.535.405-.875h2.246c.277 2.927 1.408 5.788 3.39 8.182l-1.589 1.589c-.562-.463-1.392-.439-1.918.087-.559.559-.559 1.465 0 2.024l1.83 1.83c.559.559 1.465.559 2.024 0 .526-.526.551-1.355.087-1.918l1.589-1.589c2.394 1.982 5.254 3.113 8.182 3.39v2.246c-.725.07-1.294.674-1.294 1.418 0 .791.641 1.432 1.432 1.431h1.294.001.001 1.293c.395 0 .753-.16 1.012-.419s.419-.617.419-1.012c0-.743-.569-1.347-1.294-1.417v-2.246c2.927-.277 5.788-1.409 8.182-3.39l1.589 1.589c-.463.562-.439 1.392.087 1.918.559.559 1.465.559 2.024 0l1.83-1.83c.559-.559.559-1.465 0-2.024-.526-.526-1.355-.551-1.917-.087l-1.589-1.589c1.982-2.394 3.113-5.254 3.39-8.182h2.245c.07.725.674 1.294 1.418 1.294.395 0 .753-.16 1.012-.419s.419-.617.419-1.012v-1.294-1.294c0-.791-.641-1.431-1.432-1.431-.743 0-1.347.569-1.418 1.294h-2.245c-.277-2.927-1.409-5.788-3.39-8.182l1.589-1.589c.562.463 1.392.438 1.918-.087.559-.559.559-1.465 0-2.024l-1.83-1.83c-.559-.563-1.466-.563-2.024-.004z" fill="#4671c6"/><ellipse cx="30.005" cy="198.44" fill="#e0ebfc" rx="11.501" ry="11.501" transform="matrix(.707 -.707 .707 .707 -131.53 79.339)"/><ellipse cx="30.005" cy="198.44" fill="#6bdddd" rx="9.894" ry="9.894" transform="matrix(.707 -.707 .707 .707 -131.53 79.339)"/><g fill="#e0ebfc"><circle cx="26.425" cy="194.86" r="3.124"/><circle cx="33.585" cy="202.02" r="2.655"/><circle cx="33.943" cy="194.502" r="2.655"/><circle cx="26.068" cy="202.378" r="2.819"/></g></g><g><path d="m225.75 227.872c-13.308 0-24.847-8.824-28.364-21.567l-8.608-4.847c-1.088-.613-1.764-1.77-1.764-3.018 0-1.249.676-2.405 1.763-3.018l8.608-4.849c3.517-12.743 15.056-21.567 28.364-21.567 16.229 0 29.433 13.203 29.433 29.433s-13.203 29.433-29.432 29.433zm-34.178-29.432 8.517 4.796c.482.271.83.73.961 1.268 2.79 11.404 12.946 19.369 24.7 19.369 14.023 0 25.433-11.409 25.433-25.433s-11.409-25.433-25.433-25.433c-11.753 0-21.91 7.965-24.7 19.369-.131.537-.479.996-.961 1.267zm7.535-6.539h.01z" fill="#3762cc"/></g><g><path d="m30.25 227.872c-16.229 0-29.433-13.203-29.433-29.433s13.204-29.433 29.433-29.433c13.308 0 24.847 8.824 28.364 21.567l8.608 4.849c1.088.612 1.764 1.769 1.764 3.018 0 1.248-.676 2.404-1.763 3.017l-8.608 4.848c-3.518 12.743-15.057 21.567-28.365 21.567zm0-54.865c-14.023 0-25.433 11.409-25.433 25.433s11.409 25.433 25.433 25.433c11.753 0 21.91-7.965 24.7-19.369.131-.537.479-.996.961-1.268l8.517-4.796-8.517-4.797c-.482-.271-.83-.729-.961-1.267-2.79-11.404-12.947-19.369-24.7-19.369z" fill="#3762cc"/></g><path d="m127.816 3.873c-21.734 0-39.354 17.619-39.354 39.354 0 18.501 12.77 34.011 29.973 38.22l7.551 13.41c.803 1.425 2.855 1.425 3.658 0l7.551-13.41c17.204-4.209 29.973-19.719 29.973-38.22.002-21.735-17.617-39.354-39.352-39.354z" fill="#e0ebfc"/><g><path d="m154.629 38.965c-1.066 0-1.933.816-2.034 1.857h-3.223c-.418-4.438-2.172-8.488-4.86-11.738l2.278-2.278c.378.311.836.476 1.299.476.525 0 1.051-.201 1.452-.601.802-.802.802-2.102 0-2.904l-1.312-1.313-1.312-1.312c-.802-.802-2.102-.802-2.904 0-.754.754-.79 1.944-.126 2.751l-2.278 2.278c-3.251-2.688-7.3-4.442-11.738-4.86v-3.223c1.04-.101 1.856-.967 1.856-2.034 0-1.134-.919-2.053-2.053-2.053h-3.713c-1.134 0-2.053.919-2.053 2.053 0 1.067.816 1.933 1.857 2.034v3.223c-4.438.418-8.488 2.172-11.738 4.86l-2.278-2.278c.664-.807.629-1.996-.125-2.75-.802-.802-2.102-.802-2.904 0l-1.312 1.312s0 0-.001.001c0 0 0 0-.001.001l-1.312 1.312c-.802.802-.802 2.102 0 2.904.401.401.926.602 1.452.602.463 0 .921-.165 1.299-.476l2.278 2.278c-2.688 3.251-4.442 7.3-4.86 11.738h-3.223c-.101-1.04-.967-1.857-2.034-1.857-1.134 0-2.053.919-2.053 2.053v3.713c0 1.134.919 2.053 2.053 2.053 1.067 0 1.933-.816 2.034-1.857h3.223c.418 4.438 2.172 8.488 4.86 11.738l-2.278 2.278c-.806-.665-1.997-.629-2.751.125-.802.802-.802 2.102 0 2.904l1.312 1.312s0 0 .001.001c0 0 0 0 .001.001l1.312 1.312c.401.401.927.601 1.452.601s1.051-.201 1.452-.601c.754-.754.79-1.944.125-2.75l2.278-2.278c3.251 2.688 7.3 4.442 11.738 4.86v3.223c-1.04.101-1.857.967-1.857 2.034 0 1.134.919 2.053 2.053 2.053h3.713c1.134 0 2.053-.919 2.053-2.053 0-1.067-.816-1.933-1.856-2.034v-3.223c4.438-.418 8.488-2.172 11.738-4.86l2.278 2.278c-.664.807-.629 1.997.126 2.751.401.401.927.601 1.452.601s1.051-.201 1.452-.601l1.312-1.312 1.312-1.313c.802-.802.802-2.102 0-2.904-.754-.754-1.944-.79-2.751-.125l-2.278-2.278c2.688-3.251 4.442-7.3 4.86-11.738h3.223c.101 1.04.967 1.857 2.034 1.857 1.134 0 2.054-.919 2.054-2.053v-3.713c0-1.138-.92-2.058-2.054-2.058z" fill="#4671c6"/><circle cx="127.816" cy="42.876" fill="#e0ebfc" r="16.499"/><circle cx="127.816" cy="42.876" fill="#6bdddd" r="14.193"/><g fill="#e0ebfc"><circle cx="127.816" cy="35.613" r="4.481"/><circle cx="127.816" cy="50.138" r="3.809"/><circle cx="135.805" cy="42.876" r="3.809"/><circle cx="119.827" cy="42.876" r="4.044"/></g></g><g><path d="m127.816 97.925c-1.478 0-2.846-.8-3.571-2.088l-7.132-12.665c-18.091-4.827-30.65-21.128-30.65-39.945 0-22.803 18.551-41.354 41.354-41.354s41.354 18.551 41.354 41.354c0 18.817-12.559 35.118-30.65 39.945l-7.132 12.665c-.726 1.288-2.095 2.088-3.573 2.088zm-.066-4.051c.045 0 .151-.001.152 0l7.551-13.409c.271-.481.73-.83 1.268-.961 16.75-4.099 28.449-19.016 28.449-36.277 0-20.597-16.757-37.354-37.354-37.354s-37.354 16.757-37.354 37.354c0 17.262 11.699 32.179 28.449 36.277.538.131.996.479 1.268.961l7.551 13.409z" fill="#3762cc"/></g></g></svg>