<svg id="Layer_1" enable-background="new 0 0 256 256" height="512" viewBox="0 0 256 256" width="512" xmlns="http://www.w3.org/2000/svg"><g><path d="m182.97 234.699h-142.537c-6.086 0-11.019-4.933-11.019-11.019v-180.691c0-6.086 4.933-11.019 11.019-11.019h142.537c6.086 0 11.019 4.933 11.019 11.019v180.691c0 6.086-4.933 11.019-11.019 11.019z" fill="#f9a7a7"/><path d="m43.997 213.654v-160.639c0-3.043 2.467-5.509 5.509-5.509h124.391c3.043 0 5.509 2.467 5.509 5.509v160.639c0 3.043-2.467 5.509-5.509 5.509h-124.391c-3.043 0-5.509-2.467-5.509-5.509z" fill="#e0ebfc"/><path d="m153.481 24.886h-21.119v-8.727c0-6.085-4.933-11.019-11.019-11.019h-19.283c-6.086 0-11.019 4.933-11.019 11.019v8.727h-21.119c-3.043 0-5.509 2.467-5.509 5.51v21.881c0 3.043 2.467 5.509 5.509 5.509h83.559c3.043 0 5.509-2.467 5.509-5.509v-21.881c.001-3.043-2.466-5.51-5.509-5.51zm-49.125-4.737c0-4.057 3.289-7.346 7.346-7.346s7.346 3.289 7.346 7.346c0 1.806-.655 3.458-1.736 4.737-1.425 1.685-3.52 2.609-5.61 2.609-2.197 0-4.255-1.007-5.61-2.609-1.082-1.279-1.736-2.931-1.736-4.737z" fill="#a4c9ff"/><g><path d="m157.613 155.27h-91.823c-2.485 0-4.5-2.015-4.5-4.5s2.015-4.5 4.5-4.5h91.823c2.485 0 4.5 2.015 4.5 4.5s-2.014 4.5-4.5 4.5z" fill="#4671c6"/></g><g><path d="m157.613 178.696h-91.823c-2.485 0-4.5-2.015-4.5-4.5s2.015-4.5 4.5-4.5h91.823c2.485 0 4.5 2.015 4.5 4.5s-2.014 4.5-4.5 4.5z" fill="#4671c6"/></g><g><path d="m157.613 202.122h-91.823c-2.485 0-4.5-2.015-4.5-4.5s2.015-4.5 4.5-4.5h91.823c2.485 0 4.5 2.015 4.5 4.5s-2.014 4.5-4.5 4.5z" fill="#4671c6"/></g><ellipse cx="111.702" cy="90.29" fill="#f9cfcf" rx="12" ry="12.875"/><path d="m126.868 126.196h-30.332v-7.865c0-8.376 6.79-15.166 15.166-15.166 8.376 0 15.166 6.79 15.166 15.166z" fill="#6bdddd"/><path d="m119.127 102.878c3.942-2.635 6.575-7.285 6.575-12.588 0-8.201-6.28-14.874-14-14.874s-14 6.673-14 14.874c0 5.303 2.633 9.953 6.575 12.588-5.753 2.776-9.742 8.65-9.742 15.453v7.865c0 1.104.896 2 2 2h30.333c1.104 0 2-.896 2-2v-7.865c0-6.804-3.988-12.678-9.741-15.453zm-17.425-12.588c0-5.996 4.486-10.874 10-10.874s10 4.878 10 10.874-4.486 10.875-10 10.875-10-4.879-10-10.875zm23.166 33.906h-26.333v-5.865c0-7.26 5.906-13.166 13.167-13.166 7.26 0 13.166 5.906 13.166 13.166z" fill="#3762cc"/><g fill="#3762cc"><path d="m111.702 29.495c5.1 0 9.346-4.15 9.346-9.346 0-5.153-4.192-9.346-9.346-9.346s-9.347 4.192-9.347 9.346c0 5.166 4.217 9.346 9.347 9.346zm.58-4.033c-3.071.329-5.927-2.063-5.927-5.313 0-2.947 2.398-5.346 5.347-5.346 2.947 0 5.346 2.398 5.346 5.346 0 2.254-1.384 4.679-4.766 5.313z"/><path d="m182.971 29.97h-22.001c-.223-3.942-3.491-7.083-7.488-7.083h-19.119v-6.728c0-7.179-5.841-13.019-13.02-13.019h-19.282c-7.179 0-13.02 5.84-13.02 13.019v6.728h-19.119c-3.997 0-7.265 3.141-7.487 7.083h-22.002c-7.179 0-13.019 5.84-13.019 13.019v180.692c0 7.179 5.84 13.019 13.019 13.019h142.538c7.179 0 13.019-5.84 13.019-13.019v-180.693c-.001-7.178-5.841-13.018-13.019-13.018zm-114.561 29.663c.488.1.994.153 1.511.153h83.56c.518 0 1.023-.053 1.511-.153 3.419-.701 5.998-3.734 5.998-7.357v-2.771h12.906c1.935 0 3.509 1.574 3.509 3.51v160.639c0 1.935-1.574 3.509-3.509 3.509h-124.39c-1.936 0-3.51-1.574-3.51-3.509v-160.638c0-1.936 1.574-3.51 3.51-3.51h12.906v2.771c0 3.622 2.58 6.655 5.998 7.356zm-1.997-29.237c0-1.935 1.574-3.509 3.509-3.509h21.119c1.104 0 2-.896 2-2v-8.728c0-4.973 4.046-9.019 9.02-9.019h19.282c4.974 0 9.02 4.046 9.02 9.019v8.728c0 1.104.896 2 2 2h21.119c1.936 0 3.51 1.574 3.51 3.509v1.564c0 .003-.001.006-.001.01v15.536 4.771c0 1.936-1.574 3.51-3.509 3.51h-83.56c-1.935 0-3.509-1.574-3.509-3.51zm125.576 193.285c0 4.973-4.046 9.019-9.019 9.019h-142.537c-4.973 0-9.019-4.046-9.019-9.019v-180.693c0-4.973 4.046-9.019 9.019-9.019h21.979v11.536h-12.906c-4.141 0-7.51 3.369-7.51 7.51v160.639c0 4.141 3.369 7.509 7.51 7.509h124.392c4.141 0 7.509-3.368 7.509-7.509v-160.638c0-4.141-3.368-7.51-7.509-7.51h-12.906v-11.536h21.979c4.973 0 9.019 4.046 9.019 9.019v180.692z"/></g><path d="m201.25 174.534h13.01c1.135 0 2.054-.92 2.054-2.054v-57.52c0-1.135-.92-2.054-2.054-2.054h-13.01c-1.135 0-2.054.92-2.054 2.054v57.52c-.001 1.135.919 2.054 2.054 2.054z" fill="#e0ebfc"/><path d="m191.663 222.696h32.184c1.513 0 2.739-1.226 2.739-2.739v-88.562c0-3.404-2.759-6.163-6.163-6.163h-25.336c-3.404 0-6.163 2.759-6.163 6.163v88.562c0 1.513 1.226 2.739 2.739 2.739z" fill="#e0ebfc"/><path d="m220.314 196.16v-61.583c0-1.078-.874-1.952-1.952-1.952h-21.214c-1.078 0-1.952.874-1.952 1.952v61.583z" fill="#a4c9ff"/><path d="m202.619 201.937h10.271v43.787h-10.271z" fill="#6bdddd"/><path d="m223.847 250.859h-32.184c-1.513 0-2.739-1.226-2.739-2.739v-4.793c0-1.513 1.226-2.739 2.739-2.739h32.184c1.513 0 2.739 1.226 2.739 2.739v4.793c0 1.513-1.226 2.739-2.739 2.739z" fill="#4671c6"/><path d="m220.314 203.75v-7.589h-25.118v7.589c0 .719.582 1.301 1.301 1.301h22.515c.719 0 1.302-.583 1.302-1.301z" fill="#4671c6"/><path d="m223.847 224.696c2.613 0 4.739-2.126 4.739-4.739v-88.563c0-4.501-3.662-8.163-8.163-8.163h-2.108v-8.271c0-2.235-1.819-4.054-4.055-4.054h-4.504v-31.781c0-1.104-.896-2-2-2s-2 .896-2 2v31.781h-4.506c-2.235 0-4.055 1.818-4.055 4.054v8.271h-2.108c-4.501 0-8.163 3.662-8.163 8.163v88.563c0 2.613 2.126 4.739 4.739 4.739h8.956v13.892h-8.956c-2.613 0-4.739 2.126-4.739 4.739v4.793c0 2.613 2.126 4.739 4.739 4.739h32.184c2.613 0 4.739-2.126 4.739-4.739v-4.793c0-2.613-2.126-4.739-4.739-4.739h-8.956v-13.892zm-22.597-109.79 13.064.054v8.271h-13.108zm-9.587 105.79c-.407 0-.739-.332-.739-.739v-88.563c0-2.296 1.867-4.163 4.163-4.163h25.336c2.296 0 4.163 1.867 4.163 4.163v10.326h-13.407c-1.104 0-2 .896-2 2s.896 2 2 2h13.407v9.694h-13.407c-1.104 0-2 .896-2 2s.896 2 2 2h13.407v9.695h-13.407c-1.104 0-2 .896-2 2s.896 2 2 2h13.407v9.695h-13.407c-1.104 0-2 .896-2 2s.896 2 2 2h13.407v33.151c0 .407-.332.739-.739.739h-8.956v-13.646h4.122c1.82 0 3.301-1.48 3.301-3.301v-7.59c0-1.104-.896-2-2-2h-25.117c-1.104 0-2 .896-2 2v7.59c0 1.82 1.48 3.301 3.301 3.301h4.122v13.646h-8.957zm32.184 21.892c.407 0 .739.332.739.739v4.793c0 .407-.332.739-.739.739h-32.184c-.407 0-.739-.332-.739-.739v-4.793c0-.407.332-.739.739-.739zm-12.956-17.892v13.892h-6.271v-13.892zm-6.272-4v-13.646h6.271v13.646zm-7.423-17.645v-4.891h21.117v4.891c-7.913 0-13.905 0-21.117 0z" fill="#3762cc"/><g><path d="m135.202 135.167h-47c-3.309 0-6-2.691-6-6v-55c0-3.309 2.691-6 6-6h47c3.309 0 6 2.691 6 6v55c0 3.309-2.691 6-6 6zm-47-63c-1.103 0-2 .897-2 2v55c0 1.103.897 2 2 2h47c1.103 0 2-.897 2-2v-55c0-1.103-.897-2-2-2z" fill="#3762cc"/></g></g></svg>