<svg id="Layer_1" enable-background="new 0 0 256 256" height="512" viewBox="0 0 256 256" width="512" xmlns="http://www.w3.org/2000/svg"><g><path d="m188.216 214.305-7.047-137.66c-.721-14.525-12.051-26.29-26.538-27.557l-34.512-3.019c-21.075-1.844-39.726 13.573-41.88 34.619l-1.118 10.917c-.215 2.099-1.896 3.747-3.999 3.919l-55.854 4.589c-4.761.391-8.547 4.157-8.963 8.916l-2.224 25.421c-.68 7.769 4.805 14.724 12.518 15.874l48.606 7.25c1.832.273 3.135 1.925 2.974 3.771l-4.633 52.96z" fill="#eaa97d"/><path d="m22.741 113.926c2.472 0 4.476-2.004 4.476-4.476v-10.156l-9.948.817c-4.761.391-8.547 4.157-8.963 8.916l-.429 4.899z" fill="#4671c6"/><path d="m101.891 103.827c-4.35 0-7.876-3.526-7.876-7.876v-6.391c0-4.35 3.526-7.876 7.876-7.876 4.35 0 7.876 3.526 7.876 7.876v6.392c0 4.349-3.526 7.875-7.876 7.875z" fill="#4671c6"/><path d="m216.929 140.447h16.97c1.48 0 2.679-1.2 2.679-2.679v-75.026c0-1.48-1.2-2.679-2.679-2.679h-16.97c-1.48 0-2.679 1.2-2.679 2.679v75.025c0 1.48 1.199 2.68 2.679 2.68z" fill="#e0ebfc"/><path d="m204.425 203.266h41.978c1.973 0 3.573-1.6 3.573-3.573v-115.515c0-4.439-3.599-8.038-8.038-8.038h-33.047c-4.439 0-8.038 3.599-8.038 8.038v115.515c-.001 1.973 1.599 3.573 3.572 3.573z" fill="#e0ebfc"/><path d="m242.657 170.516v-84.552c0-1.48-1.2-2.679-2.679-2.679h-29.127c-1.48 0-2.679 1.2-2.679 2.679v84.552z" fill="#a4c9ff"/><path d="m218.715 176.189h13.397v57.113h-13.397z" fill="#6bdddd"/><path d="m246.403 240h-41.978c-1.973 0-3.573-1.6-3.573-3.573v-6.252c0-1.973 1.6-3.573 3.573-3.573h41.978c1.973 0 3.573 1.6 3.573 3.573v6.252c0 1.973-1.6 3.573-3.573 3.573z" fill="#4671c6"/><path d="m242.657 180.937v-10.42h-34.486v10.42c0 .987.8 1.786 1.786 1.786h30.913c.987 0 1.787-.8 1.787-1.786z" fill="#4671c6"/><path d="m157.955 68.389c-15.619 0-28.64 12.398-29.977 28.541l-4.514 54.496c-1.047 12.646 8.565 23.512 20.8 23.512h27.382c12.235 0 21.848-10.866 20.8-23.512l-4.514-54.496c-1.337-16.143-14.358-28.541-29.977-28.541z" fill="#eaa97d"/><g fill="#3762cc"><path d="m241.938 74.139h-3.359v-11.397c0-2.581-2.099-4.68-4.68-4.68h-6.485v-42.062c0-1.104-.896-2-2-2s-2 .896-2 2v42.063h-6.485c-2.581 0-4.68 2.099-4.68 4.68v11.397h-3.359c-5.535 0-10.039 4.503-10.039 10.039v115.515c0 3.073 2.5 5.573 5.573 5.573h12.291v19.337h-12.291c-3.073 0-5.573 2.5-5.573 5.573v6.252c0 3.073 2.5 5.573 5.573 5.573h41.979c3.073 0 5.572-2.5 5.572-5.573v-6.252c0-3.073-2.5-5.573-5.572-5.573h-12.291v-19.337h12.291c3.073 0 5.572-2.5 5.572-5.573v-115.516c.001-5.535-4.502-10.039-10.037-10.039zm-12.058 81.705h10.777v12.672h-30.486v-82.552c0-.375.305-.679.68-.679h29.127c.375 0 .679.305.679.679v12.291h-10.777c-1.104 0-2 .896-2 2s.896 2 2 2h10.777v13.863h-10.777c-1.104 0-2 .896-2 2s.896 2 2 2h10.777v13.863h-10.777c-1.104 0-2 .896-2 2s.896 2 2 2h10.777v13.863h-10.777c-1.104 0-2 .896-2 2s.896 2 2 2zm.233 28.879v16.542h-9.397v-16.542zm2.005-4c-.002 0-.003 0-.005 0h-13.397c-.002 0-.003 0-.005 0h-8.54v-8.207h30.486v8.207zm12.539-64.605v-13.863h3.319v13.863zm3.319 4v13.863h-3.319v-13.863zm-3.319 17.863h3.319v13.863h-3.319zm-28.407-75.239c0-.375.305-.68.68-.68h16.97c.375 0 .68.305.68.68v11.397h-18.33zm-11.825 138.524c-.867 0-1.573-.706-1.573-1.573v-115.515c0-3.33 2.709-6.039 6.039-6.039h5.359 22.329 5.359c3.33 0 6.038 2.709 6.038 6.039v14.077h-3.319v-12.291c0-2.58-2.099-4.679-4.679-4.679h-29.127c-2.581 0-4.68 2.099-4.68 4.679v84.553 10.42c0 2.088 1.698 3.787 3.786 3.787h6.758v16.542zm43.551 28.909v6.252c0 .867-.705 1.573-1.572 1.573h-41.979c-.867 0-1.573-.706-1.573-1.573v-6.252c0-.867.706-1.573 1.573-1.573h14.291 13.397 14.291c.867.001 1.572.706 1.572 1.573zm-17.863-5.572h-9.397v-19.337h9.397zm16.29-23.337h-12.291v-16.542h6.758c2.088 0 3.786-1.699 3.786-3.787v-10.42-14.672h3.319v43.849c.001.866-.705 1.572-1.572 1.572z"/><path d="m194.439 151.261-4.514-54.496c-.553-6.678-2.942-12.718-6.626-17.625l-.133-2.595c-.767-15.442-12.959-28.104-28.362-29.45l-34.512-3.02c-22.039-1.93-41.792 14.404-44.044 36.407l-1.116 10.918c-.117 1.14-1.03 2.036-2.173 2.129l-55.854 4.589c-5.751.472-10.29 4.987-10.792 10.735l-2.225 25.422c-.771 8.805 5.474 16.723 14.215 18.027l48.606 7.25c.785.117 1.345.828 1.276 1.618l-4.633 52.96c-.102 1.171.822 2.174 1.992 2.174h122.67c.548 0 1.072-.225 1.45-.623.378-.397.576-.932.548-1.479l-2.269-44.33c4.819-5.065 7.052-11.9 6.496-18.611zm-3.986.33c.467 5.636-1.422 11.21-5.183 15.295-1.369 1.486-3.265 2.991-5.363 4.058-2.691 1.369-5.596 1.994-8.261 1.994h-27.382c-6.129 0-11.493-2.99-14.946-7.651-2.875-3.881-4.269-8.766-3.861-13.696l4.513-54.496c1.261-15.225 13.292-26.707 27.984-26.707.937 0 2.138.065 3.291.202 7.231.879 13.851 4.634 18.518 10.609.067.086.155.144.233.216 3.304 4.347 5.45 9.724 5.943 15.68zm-122.725 60.714 4.442-50.786c.253-2.894-1.798-5.495-4.671-5.923l-48.606-7.25c-6.654-.993-11.407-7.02-10.821-13.722l2.225-25.422c.333-3.8 3.333-6.785 7.135-7.097l55.854-4.589c3.063-.251 5.512-2.652 5.825-5.708l1.117-10.917c2.031-19.84 19.842-34.56 39.716-32.83l34.512 3.02c12.633 1.105 22.785 10.945 24.492 23.322-4.931-4.398-11.175-7.24-18.055-7.874-1.003-.095-2.016-.138-2.939-.138-16.792 0-30.536 13.059-31.971 30.376l-4.514 54.496c-.408 4.925.685 9.969 3.27 14.349 3.955 6.702 11.128 11.328 19.523 11.328h27.382c4.34 0 8.684-1.259 12.46-3.809l2.005 39.176h-118.381z"/></g></g></svg>