<svg id="Layer_1" enable-background="new 0 0 256 256" height="512" viewBox="0 0 256 256" width="512" xmlns="http://www.w3.org/2000/svg"><g><path d="m217.66 253c-1.747 0-3.346-1.166-3.819-2.934l-36.615-136.648c-.566-2.111.687-4.281 2.798-4.846 2.11-.567 4.281.687 4.846 2.798l36.615 136.648c.566 2.111-.687 4.281-2.798 4.846-.343.092-.688.136-1.027.136z" fill="#4671c6"/><g><path d="m39.426 253c-.339 0-.684-.044-1.027-.136-2.111-.566-3.364-2.736-2.798-4.846l36.616-136.648c.564-2.111 2.735-3.365 4.846-2.798 2.111.566 3.364 2.736 2.798 4.846l-36.616 136.648c-.473 1.768-2.072 2.934-3.819 2.934z" fill="#4671c6"/></g><g><g><path d="m217.66 255c-2.689 0-5.055-1.816-5.751-4.417l-36.614-136.648c-.412-1.537-.201-3.142.595-4.521.795-1.378 2.08-2.364 3.617-2.776 1.535-.411 3.141-.2 4.52.595 1.378.796 2.364 2.081 2.775 3.618l36.614 136.649c.412 1.537.201 3.142-.595 4.521-.795 1.378-2.08 2.364-3.617 2.776-.505.135-1.024.203-1.544.203zm-36.608-144.564c-.17 0-.341.022-.509.067-.506.136-.929.459-1.189.912-.262.453-.331.98-.195 1.485l36.614 136.648c.273 1.02 1.36 1.66 2.396 1.384.505-.135.928-.459 1.188-.912.262-.453.331-.98.195-1.485l-36.614-136.648c-.136-.505-.459-.927-.912-1.189-.301-.174-.635-.262-.974-.262z" fill="#3762cc"/></g></g><g><g><path d="m39.426 255c-.52 0-1.039-.068-1.544-.204-1.537-.412-2.822-1.397-3.617-2.776-.796-1.378-1.007-2.984-.595-4.521l36.615-136.647c.411-1.537 1.396-2.822 2.775-3.618 1.378-.796 2.986-1.007 4.521-.594 1.536.412 2.821 1.397 3.616 2.775.796 1.378 1.007 2.984.595 4.521l-36.615 136.647c-.697 2.601-3.062 4.417-5.751 4.417zm36.608-144.565c-.339 0-.673.089-.974.263-.453.261-.776.684-.911 1.188l-36.616 136.649c-.136.505-.066 1.033.195 1.485.261.453.684.776 1.188.912 1.035.278 2.123-.364 2.396-1.384l36.617-136.648c.136-.505.066-1.033-.195-1.485-.261-.453-.684-.776-1.188-.912-.17-.045-.342-.068-.512-.068z" fill="#3762cc"/></g></g><g fill="#f9cfcf"><path d="m146.795 63.629 47.481 25.345c2.606 1.391 4.233 4.104 4.233 7.058v44.202c0 2.761-2.239 5-5 5h-8.186c-2.656 0-4.849-2.077-4.993-4.729l-2.055-37.841c-.046-.855-.632-1.585-1.456-1.817l-40.14-11.279z"/><path d="m109.245 63.605-47.481 25.345c-2.606 1.391-4.233 4.104-4.233 7.058v44.202c0 2.761 2.239 5 5 5h8.186c2.656 0 4.849-2.077 4.993-4.729l2.055-37.841c.046-.855.632-1.585 1.456-1.817l40.14-11.279z"/><ellipse cx="128" cy="31.5" rx="26" ry="28.5"/></g><path d="m159.544 157h-63.088v-71c0-14.359 11.641-26 26-26h11.087c14.359 0 26 11.641 26 26v71z" fill="#a4c9ff"/><path d="m109.245 63.605-27.339 14.593 8.658 19.436 28.797-8.092z" fill="#a4c9ff"/><path d="m146.795 63.629-10.116 25.938 28.711 8.067 6.956-20.366z" fill="#a4c9ff"/><g><path d="m96.456 157 10.454 41.775c.866 3.459.981 7.064.339 10.572l-7.144 39.012c-.442 2.415 1.413 4.64 3.868 4.64h9.263c1.893 0 3.518-1.349 3.865-3.21l8.065-43.165c.202-1.082.333-2.176.391-3.276l2.443-46.348z" fill="#4671c6"/><path d="m101.881 238.667-1.775 9.693c-.442 2.415 1.413 4.64 3.868 4.64h9.263c1.893 0 3.518-1.349 3.865-3.21l2.078-11.124h-17.299z" fill="#f9cfcf"/></g><g><path d="m159.544 157-10.454 41.775c-.866 3.459-.981 7.064-.339 10.572l7.144 39.012c.442 2.415-1.413 4.64-3.868 4.64h-9.263c-1.893 0-3.518-1.349-3.865-3.21l-8.065-43.165c-.202-1.082-.333-2.176-.391-3.276l-2.443-46.348z" fill="#4671c6"/><path d="m138.898 249.79c.348 1.861 1.972 3.21 3.865 3.21h9.263c2.455 0 4.31-2.225 3.868-4.64l-1.775-9.693h-17.3z" fill="#f9cfcf"/></g><g fill="#3762cc"><path d="m198.509 122.168c1.104 0 2-.896 2-2s-.896-2-2-2h-19.437c-1.104 0-2 .896-2 2s.896 2 2 2z"/><path d="m76.967 118.168h-19.436c-1.104 0-2 .896-2 2s.896 2 2 2h19.436c1.104 0 2-.896 2-2s-.896-2-2-2z"/><path d="m198.509 127.667h-18.767c-1.104 0-2 .896-2 2s.896 2 2 2h18.767c1.104 0 2-.896 2-2s-.896-2-2-2z"/><path d="m76.297 127.667h-18.766c-1.104 0-2 .896-2 2s.896 2 2 2h18.766c1.104 0 2-.896 2-2s-.896-2-2-2z"/></g><path d="m195.219 87.209c-27.671-14.769-16.525-8.819-47.479-25.343-2.307-1.36-4.795-2.362-7.376-3.01 9.254-4.983 15.636-15.371 15.636-27.356 0-16.818-12.561-30.5-28-30.5s-28 13.682-28 30.5c0 11.985 6.382 22.373 15.636 27.356-2.555.642-5.02 1.632-7.309 2.972-.008.004-.016.008-.023.013-49.988 26.683.734-.392-47.482 25.345-3.263 1.742-5.29 5.123-5.29 8.822v44.202c0 3.86 3.141 7 7 7h8.186c3.718 0 6.788-2.908 6.99-6.62l2.055-37.842c8.758-2.461 9.212-2.588 14.694-4.129 0 .314-.008 58.207.014 58.52.025.355 10.413 41.778 10.5 42.123.803 3.204.907 6.476.312 9.726l-7.144 39.012c-.666 3.647 2.135 7.001 5.836 7.001h9.263.001c2.854 0 5.307-2.037 5.831-4.843 8.763-46.902 8.356-44.2 8.486-46.703l.445-8.451.445 8.45c.131 2.507-.261-.119 8.486 46.704.524 2.806 2.977 4.843 5.831 4.843h.001 9.263c3.702 0 6.502-3.353 5.836-7.001l-7.145-39.012c-.595-3.25-.49-6.522.313-9.727.091-.363 10.474-41.75 10.5-42.123.022-.313.014-58.193.014-58.507 4.277 1.201 1.313.368 14.734 4.14l2.055 37.842c.202 3.712 3.272 6.62 6.99 6.62h8.186c3.859 0 7-3.14 7-7v-44.202c-.001-3.699-2.029-7.079-5.291-8.822zm-91.219-55.709c0-14.612 10.767-26.5 24-26.5s24 11.888 24 26.5-10.767 26.5-24 26.5-24-11.888-24-26.5zm-25.321 67.396c-1.649.464-2.819 1.925-2.911 3.634l-2.055 37.841c-.087 1.591-1.402 2.837-2.996 2.837h-8.186c-1.654 0-3-1.346-3-3v-44.201c0-2.22 1.217-4.248 3.174-5.293l18.247-9.74 6.844 15.361zm36.457 150.527c-.171.914-.97 1.577-1.899 1.577h-9.263c-1.214 0-2.118-1.1-1.9-2.28.331-1.806 1.142-6.24 1.475-8.053h13.225zm8.425-46.178c-.11 2.092.116.466-6.041 33.422h-13.24l4.936-26.958c.699-3.815.576-7.657-.365-11.418l-9.832-39.291h26.873zm30.367 45.475c.216 1.181-.689 2.28-1.901 2.28h-9.263c-.93 0-1.729-.664-1.899-1.577l-1.637-8.756h13.225zm-6.779-50.43c-.941 3.761-1.064 7.603-.366 11.418l4.937 26.958h-13.24c-6.164-32.994-5.931-31.333-6.041-33.423l-2.331-44.243h26.873zm16.959-103.093-2.564-.72v-8.477c0-1.104-.896-2-2-2s-2 .896-2 2v9.992 59.008c-6.265 0-52.854 0-59.088 0v-59.021-9.979c0-1.104-.896-2-2-2s-2 .896-2 2v8.463l-2.768.778-7.198-16.155c28.41-15.165 30.283-17.086 37.966-17.086h11.088c7.557 0 8.922 1.585 36.359 16.231l-.564 1.651zm32.401 45.036c0 1.654-1.346 3-3 3h-8.186c-1.594 0-2.909-1.247-2.996-2.837l-2.055-37.842c-.094-1.71-1.265-3.17-2.912-3.633l-9.395-2.64 5.513-16.141 19.855 10.598c1.958 1.045 3.175 3.074 3.175 5.293v44.202z" fill="#3762cc"/></g></svg>