<svg id="Layer_1" enable-background="new 0 0 256 256" height="512" viewBox="0 0 256 256" width="512" xmlns="http://www.w3.org/2000/svg"><g><path d="m13.492 49.147c0 21.622 14.924 39.75 35.031 44.669l8.826 15.672c.938 1.666 3.337 1.666 4.275 0l8.826-15.672c20.107-4.919 35.031-23.046 35.031-44.669 0-25.402-20.592-45.994-45.994-45.994s-45.995 20.592-45.995 45.994z" fill="#e0ebfc"/><g><g><path d="m62.296 34.842c0-1.005-.815-1.819-1.819-1.819-1.005 0-1.819.814-1.819 1.819v4.443h-7.191v-4.443c0-1.005-.815-1.819-1.819-1.819s-1.819.814-1.819 1.819v4.443h-2.637c-2.499 0-4.82.754-6.754 2.042l-6.781-2.529c-.942-.351-1.989.127-2.34 1.069-.351.937.127 1.989 1.069 2.34l5.103 1.903c-1.213 1.593-2.039 3.489-2.349 5.559h-4.1c-1.005 0-1.819.814-1.819 1.819s.815 1.819 1.819 1.819h4.1c.31 2.07 1.136 3.966 2.349 5.559l-5.103 1.903c-.942.351-1.42 1.402-1.069 2.34.351.942 1.399 1.42 2.34 1.069l6.781-2.529c1.935 1.288 4.256 2.042 6.754 2.042h2.637v4.443c0 1.005.815 1.819 1.819 1.819s1.819-.814 1.819-1.819v-4.443h7.191v4.443c0 1.005.815 1.819 1.819 1.819 1.005 0 1.819-.814 1.819-1.819v-4.443h7.191v4.443c0 1.005.815 1.819 1.819 1.819s1.819-.814 1.819-1.819v-4.443h4.608c2.185 0 4.231-.581 6.005-1.587l5.56 2.073c.941.351 1.989-.127 2.34-1.069.078-.209.115-.424.115-.635 0-.737-.452-1.431-1.184-1.704l-3.584-1.337c1.836-2.136 2.952-4.908 2.952-7.945s-1.116-5.809-2.952-7.945l3.584-1.337c.732-.273 1.184-.967 1.184-1.704 0-.211-.037-.426-.115-.635-.351-.942-1.399-1.42-2.34-1.069l-5.56 2.073c-1.774-1.006-3.82-1.587-6.005-1.587h-4.608v-4.443c0-1.005-.815-1.819-1.819-1.819s-1.819.814-1.819 1.819v4.443h-7.191z" fill="#4671c6"/></g><path d="m82.062 51.614c0 3.417-2.77 6.188-6.187 6.188h-28.626c-3.417 0-6.187-2.77-6.187-6.187 0-3.417 2.77-6.187 6.187-6.187h28.625c3.417-.002 6.188 2.768 6.188 6.186z" fill="#a4c9ff"/></g><path d="m42.714 171.809 1.801 10.222c.167.946 1.28 1.216 1.792.435l5.995-9.132v-9.983h-9.589v8.458z" fill="#e0ebfc"/><path d="m239.508 252.847c1.821 0 3.223-1.61 2.971-3.414l-21.982-157.805c-2.173-15.778-15.656-27.531-31.583-27.531h-47.677c-20.911 0-37.949 16.788-38.257 37.697l-.338 22.898-57.705 4.74c-5.606.461-10.065 4.895-10.555 10.499l-2.372 27.111c-.139 1.585.985 3.003 2.559 3.231l67.257 9.719-.002.147v.292l-63.154 10.883c-1.929.332-3.073 2.415-2.23 4.182 3.268 6.852 10.766 10.944 18.546 9.64l46.839-7.852v52.563c0 1.657 1.343 3 3 3z" fill="#eaa97d"/><path d="m51.381 145.7c2.911 0 5.271-2.36 5.271-5.271v-11.959l-11.714.962c-5.606.46-10.064 4.895-10.555 10.499l-.505 5.769z" fill="#4671c6"/><path d="m146.914 118.547c8.92-2.39 14.413-10.811 12.27-18.81l-28.978 7.765c-1.936.519-2.834 2.758-1.788 4.467 3.491 5.705 11.01 8.584 18.496 6.578z" fill="#4671c6"/><path d="m75.024 197.351c2.4 0 4.346 1.946 4.346 4.346v11.654c0 2.209 1.791 4 4 4 2.209 0 4-1.791 4-4v-30.428l-17.042 2.937.712 7.853c.187 2.06 1.915 3.638 3.984 3.638z" fill="#a4c9ff"/><path d="m244.46 249.157-21.982-157.802c-2.298-16.68-16.728-29.258-33.564-29.258h-47.677c-21.875 0-39.935 17.795-40.258 39.668l-.311 21.083-55.896 4.592c-6.598.542-11.806 5.722-12.383 12.318l-2.372 27.111c-.231 2.64 1.643 5.005 4.266 5.384l6.646.96 1.615 9.166c.483 2.728 3.929 3.477 5.435 1.185l5.595-8.523 36.855 5.326c-24.259 4.18-5.08.875-52.1 8.978-1.543.266-2.894 1.256-3.615 2.649-.715 1.382-.744 2.973-.08 4.364 3.697 7.752 12.202 12.173 20.682 10.752l22.054-3.697v9.939c0 3.309 2.691 6 6 6s6-2.691 6-6v-11.952l10.455-1.753v50.2c0 2.757 2.243 5 5 5h134.683c1.446 0 2.821-.626 3.771-1.717s1.381-2.539 1.181-3.973zm-198.411-69.942-.951-5.399 4.106.593zm8.605 23.949c-6.728 1.127-13.477-2.38-16.409-8.529-.164-.344-.057-.651.022-.804.071-.138.287-.467.742-.545l29.522-5.087c.646 7.126.45 5.296.611 6.206.506 2.849 2.934 4.946 5.881 4.946.301 0 .683.078.997.231zm30.716 10.187c0 1.103-.897 2-2 2s-2-.897-2-2v-11.654c0-3.456-2.798-6.265-6.192-6.344-1.066-.026-1.966-.753-2.118-1.676-.008-.047-.021-.091-.026-.14l-.546-6.021 12.883-2.22v14.411 13.644zm154.892 37.152c-.111.128-.357.344-.754.344h-134.683c-.552 0-1-.449-1-1v-52.563c0-.588-.259-1.146-.708-1.527-1-.845-1.052-.542-13.747 1.587v-12.737l12.795-2.205c2.271-.392 2.236-4.06-.052-4.39l-67.257-9.719c-.524-.076-.899-.549-.854-1.077l2.372-27.111c.407-4.647 4.076-8.298 8.727-8.68l57.704-4.74c1.026-.084 1.82-.934 1.836-1.964l.338-22.898c.29-19.7 16.556-35.727 36.258-35.727h47.677c14.849 0 27.575 11.093 29.603 25.807l21.982 157.804c.054.395-.125.668-.237.796z" fill="#3762cc"/><path d="m202.926 35.09c-21.973 12.044-42.696 49.487-42.696 49.487l30.829 8.261 30.829 8.261s.775-42.788-12.232-64.205c-1.403-2.311-4.36-3.103-6.73-1.804z" fill="#eaa97d"/><path d="m176.162 76.038c5.901-8.936 15.23-21.54 24.987-28.693 1.027-.753 2.498-.358 3.007.808 4.636 10.637 6.607 25.935 7.323 37.352.086 1.363-1.196 2.401-2.516 2.048l-31.65-8.481c-1.32-.353-1.905-1.893-1.151-3.034z" fill="#f9cfcf"/><g><path d="m221.89 103.098c-.013 0-.024 0-.037 0-1.104-.02-1.983-.931-1.964-2.036.008-.422.611-42.461-11.941-63.131-.847-1.393-2.629-1.872-4.06-1.087-15.328 8.402-30.127 29.592-37.584 41.476-.587.937-1.819 1.218-2.758.631-.936-.587-1.218-1.821-.631-2.757 7.664-12.213 22.928-34.021 39.051-42.858 3.311-1.814 7.438-.708 9.399 2.519 13.156 21.664 12.555 63.509 12.523 65.28-.02 1.092-.911 1.963-1.998 1.963z" fill="#3762cc"/></g><g><path d="m59.486 112.737c-1.63 0-3.08-.848-3.88-2.268l-8.405-14.926c-21.07-5.556-35.709-24.509-35.709-46.396 0-26.464 21.53-47.994 47.994-47.994s47.994 21.53 47.994 47.994c0 21.886-14.64 40.84-35.709 46.396l-8.404 14.926c-.801 1.42-2.251 2.268-3.881 2.268zm0-107.584c-24.259 0-43.994 19.736-43.994 43.994 0 20.331 13.778 37.9 33.507 42.726.537.131.996.479 1.268.961l8.825 15.672c.107.191.273.231.395.231s.287-.04.396-.231l8.824-15.672c.271-.482.73-.83 1.268-.961 19.729-4.826 33.507-22.395 33.507-42.726-.002-24.258-19.737-43.994-43.996-43.994z" fill="#3762cc"/></g></g></svg>