<svg id="Layer_1" enable-background="new 0 0 256 256" height="512" viewBox="0 0 256 256" width="512" xmlns="http://www.w3.org/2000/svg"><g><path d="m237.48 237.209v-37.164c0-15.496-12.562-28.058-28.058-28.058h-116.25c-15.496 0-28.058 12.562-28.058 28.058v41.164h168.366c2.209 0 4-1.791 4-4z" fill="#4671c6"/><path d="m151.24 130.786h-29.874v40.232c0 16.515 13.388 29.903 29.903 29.903 16.515 0 29.903-13.388 29.903-29.903v-40.232z" fill="#f9cfcf"/><path d="m237.48 237.209v-37.164c0-15.496-12.562-28.058-28.058-28.058h-28.276l-3.555 69.222h55.888c2.21 0 4.001-1.791 4.001-4z" fill="#e0ebfc"/><path d="m124.945 241.209-3.555-69.222h-28.218c-15.496 0-28.058 12.562-28.058 28.058v41.164z" fill="#e0ebfc"/><g><path d="m209.423 169.987h-.81-25.442v-39.201c0-1.104-.896-2-2-2h-59.806c-1.104 0-2 .896-2 2v39.201h-25.442-.751c-16.574 0-30.058 13.483-30.058 30.057v41.164c0 1.104.896 2 2 2h42.523 17.303 52.656 17.303 38.581c3.309 0 6-2.691 6-6v-37.164c0-16.573-13.483-30.057-30.057-30.057zm-86.058-37.201h55.806v38.232c0 .244-.009.486-.018.728l-.006.175c-.002.069.009.136.014.204l-3.464 67.083h-48.857l-3.464-67.075c.005-.071.017-.141.014-.213l-.008-.209c-.008-.23-.017-.461-.017-.693zm-56.251 67.258c0-14.074 11.218-25.57 25.182-26.035l6.894 33.628c.379 1.852 2.026 3.197 3.918 3.197h2.131l-2.309 1.218c-1.563.825-2.393 2.547-2.063 4.286l4.353 22.87h-38.106zm42.179 39.164-4.495-23.618 9.453-4.987c.813-.429 1.229-1.357 1.008-2.25s-1.022-1.52-1.941-1.52h-10.209l-6.734-32.847h23.092l3.368 65.221h-13.542zm70.409 0 3.368-65.221h23.092l-6.734 32.847h-10.208c-.919 0-1.721.627-1.941 1.52-.221.892.195 1.82 1.008 2.25l9.453 4.987-4.495 23.618h-13.543zm55.778-2c0 1.103-.897 2-2 2h-36.164l4.353-22.871c.33-1.738-.499-3.46-2.063-4.286l-2.309-1.218h2.13c1.89 0 3.538-1.344 3.919-3.196l6.894-33.63c13.99.434 25.24 11.942 25.24 26.036z" fill="#3762cc"/></g><path d="m220.118 72h-68.849-.171-68.85l-11.099 34.818c-2.53 7.935-2.683 16.567-.438 24.607 4.562 16.339 18.164 27.475 33.56 27.475h46.827.171 46.827c15.395 0 28.998-11.136 33.56-27.475 2.245-8.04 2.091-16.672-.438-24.607z" fill="#4671c6"/><path d="m210.107 87.053v-5.507c0-32.187-26.33-58.28-58.81-58.28-32.48 0-58.81 26.093-58.81 58.28v5.507c-10.212-.207-18.314 7.928-18.314 17.762 0 10.5 9.167 18.806 19.867 17.675 6.069 25.785 29.393 44.995 57.256 44.995 27.866 0 51.188-19.212 57.256-44.995 10.686 1.13 19.867-7.16 19.867-17.675.002-9.838-8.106-17.969-18.312-17.762z" fill="#f9cfcf"/><g><path d="m151.29 142.037c-2.123 0-3.97-.248-5.646-.758-2.782-.847-5.218-2.267-7.043-4.106-.584-.588-.58-1.538.008-2.121.589-.584 1.538-.58 2.121.008 1.478 1.488 3.479 2.646 5.787 3.349 1.389.422 2.95.628 4.772.628s3.384-.206 4.772-.628c2.309-.703 4.31-1.861 5.787-3.349.583-.588 1.532-.592 2.121-.008.588.583.592 1.533.008 2.121-1.825 1.839-4.261 3.259-7.043 4.106-1.674.51-3.521.758-5.644.758z" fill="#3762cc"/></g><path d="m170.633 4h-9.714-28.957c-27.456 0-49.714 22.258-49.714 49.714v18.316h49.99c15.84 0 28.682-12.841 28.682-28.682 0 15.84 12.841 28.682 28.682 28.682h30.746v-18.316c-.001-27.456-22.259-49.714-49.715-49.714z" fill="#4671c6"/><g><path d="m220.347 74.03h-30.746c-13.081 0-24.276-8.229-28.682-19.782-4.405 11.553-15.601 19.782-28.682 19.782h-49.989c-1.104 0-2-.896-2-2v-18.316c0-28.515 23.199-51.714 51.714-51.714h38.671c28.515 0 51.714 23.199 51.714 51.714v18.316c0 1.104-.896 2-2 2zm-59.428-32.682c1.104 0 2 .896 2 2 0 14.712 11.97 26.682 26.682 26.682h28.746v-16.316c0-26.31-21.405-47.714-47.714-47.714h-38.671c-26.31 0-47.714 21.404-47.714 47.714v16.316h47.989c14.712 0 26.682-11.969 26.682-26.682 0-1.104.895-2 2-2z" fill="#3762cc"/></g><g><g><path d="m120.575 160.9h-16.305c-16.393 0-30.653-11.629-35.486-28.938-2.333-8.357-2.171-17.503.459-25.752l11.1-34.818c.264-.829 1.035-1.392 1.905-1.392h11.038c.588 0 1.146.259 1.525.707.381.448.544 1.041.447 1.621-.512 3.08-.771 6.182-.771 9.218v5.507c0 .538-.217 1.052-.601 1.429s-.919.594-1.44.571c-4.339-.084-8.464 1.524-11.542 4.541-3.051 2.989-4.73 6.974-4.73 11.221 0 4.437 1.903 8.693 5.222 11.679 3.363 3.027 7.893 4.488 12.436 4.007.991-.108 1.926.549 2.157 1.53 3.415 14.508 12.756 27.324 25.627 35.161.766.466 1.128 1.385.886 2.249s-1.03 1.459-1.927 1.459zm-47.965-51.98c-1.961 7.114-1.959 14.854.027 21.967 4.344 15.56 17.056 26.013 31.633 26.013h9.861c-10.53-8.103-18.226-19.541-21.627-32.313-5.07.096-10.013-1.725-13.785-5.119-3.121-2.81-5.243-6.519-6.109-10.548zm11.1-34.92-5.218 16.367c3.31-3.077 7.496-4.902 11.995-5.255v-3.566c0-2.49.163-5.02.484-7.546z" fill="#3762cc"/></g><g><path d="m198.096 160.9h-16.076c-.896 0-1.684-.597-1.926-1.46s.12-1.782.886-2.249c12.872-7.837 22.213-20.653 25.627-35.16.23-.981 1.168-1.645 2.157-1.531 4.546.48 9.073-.981 12.438-4.009 3.317-2.985 5.22-7.241 5.22-11.677 0-4.246-1.68-8.231-4.729-11.22-3-2.939-6.967-4.546-11.202-4.546-.114 0-.228.001-.341.003-.538.021-1.057-.194-1.44-.571s-.601-.891-.601-1.429v-5.507c0-3.042-.26-6.144-.771-9.218-.097-.58.066-1.173.446-1.622.381-.448.938-.707 1.526-.707h10.809c.87 0 1.641.563 1.905 1.393l11.1 34.818c2.63 8.25 2.793 17.396.46 25.753-4.836 17.31-19.097 28.939-35.488 28.939zm-9.633-4h9.633c14.576 0 27.288-10.454 31.633-26.013 1.943-6.958 1.986-14.518.151-21.505-.925 3.85-3.002 7.383-6.003 10.083-3.774 3.396-8.72 5.216-13.787 5.121-3.401 12.773-11.096 24.212-21.627 32.314zm23.644-71.788c4.354.342 8.415 2.063 11.673 4.962l-5.125-16.074h-7.031c.321 2.523.483 5.053.483 7.546z" fill="#3762cc"/></g></g><path d="m51.962 174.373h-19.132l-6.892 63.511c-.193 1.775 1.198 3.324 2.982 3.324h36.249v-66.835z" fill="#f9cfcf"/><path d="m78.378 134.497c0-1.657-1.343-3-3-3h-20.871c-1.657 0-3 1.343-3 3v61.357l-21.226 50.599c-1.106 2.636.83 5.547 3.689 5.547h32.332 29.62c2.858 0 4.794-2.911 3.689-5.547l-21.226-50.599z" fill="#a4c9ff"/><path d="m54.09 207.791-15.609 37.209h52.929l-15.609-37.209z" fill="#f9a7a7"/><path d="m58.74 195.853h-33.79c-3.551 0-6.43-2.879-6.43-6.43v-38.578c0-3.551 2.879-6.43 6.43-6.43h33.79c3.551 0 6.43 2.879 6.43 6.43v38.578c-.001 3.552-2.879 6.43-6.43 6.43z" fill="#f9cfcf"/><g><path d="m151.297 169.485c-27.838 0-51.774-18.377-58.793-44.898-5.069.096-10.012-1.725-13.784-5.119-4.16-3.744-6.546-9.084-6.546-14.653 0-5.331 2.106-10.331 5.931-14.078 3.368-3.3 7.706-5.258 12.383-5.625v-3.566c0-3.247.276-6.559.821-9.844.159-.965.994-1.673 1.973-1.673h38.956c14.712 0 26.682-11.969 26.682-26.682 0-1.104.896-2 2-2s2 .896 2 2c0 14.712 11.97 26.682 26.682 26.682h19.714c.979 0 1.813.708 1.973 1.673.545 3.281.82 6.593.82 9.844v3.566c4.677.367 9.015 2.325 12.383 5.626 3.824 3.748 5.931 8.747 5.931 14.077 0 5.568-2.385 10.909-6.544 14.651-3.774 3.396-8.72 5.216-13.786 5.121-7.021 26.52-30.957 44.898-58.796 44.898zm-57.254-48.995c.918 0 1.73.63 1.945 1.542 6.021 25.584 28.766 43.453 55.309 43.453 26.544 0 49.288-17.869 55.31-43.453.23-.981 1.168-1.645 2.157-1.531 4.546.48 9.073-.981 12.438-4.009 3.317-2.985 5.22-7.241 5.22-11.677 0-4.246-1.68-8.231-4.729-11.22-3.081-3.018-7.183-4.627-11.543-4.542-.538.021-1.057-.194-1.44-.571s-.601-.891-.601-1.429v-5.507c0-2.481-.173-5.002-.514-7.517h-17.993c-13.081 0-24.276-8.229-28.682-19.782-4.405 11.553-15.601 19.782-28.682 19.782h-37.236c-.342 2.517-.515 5.038-.515 7.517v5.507c0 .538-.217 1.052-.601 1.429s-.919.594-1.44.571c-4.339-.084-8.464 1.524-11.542 4.541-3.051 2.989-4.73 6.974-4.73 11.221 0 4.436 1.903 8.693 5.222 11.679 3.363 3.027 7.893 4.488 12.436 4.007.069-.008.141-.011.211-.011z" fill="#3762cc"/></g><path d="m90.724 86.46v37.08c0 3.413 2.767 6.18 6.18 6.18h47.023c1.129 0 2.169-.616 2.711-1.607l3.727-6.811c.391-.714 1.416-.714 1.807 0l3.727 6.811c.542.991 1.581 1.607 2.711 1.607h47.023c3.413 0 6.18-2.767 6.18-6.18v-37.08c0-3.413-2.767-6.18-6.18-6.18h-108.729c-3.413 0-6.18 2.767-6.18 6.18z" fill="#a4c9ff"/><g><path d="m205.633 131.72h-47.023c-1.86 0-3.571-1.014-4.465-2.647l-2.876-5.256-2.876 5.256c-.894 1.633-2.604 2.647-4.466 2.647h-47.023c-4.511 0-8.18-3.669-8.18-8.18v-37.08c0-4.511 3.669-8.18 8.18-8.18h108.729c4.511 0 8.18 3.669 8.18 8.18v37.08c-.001 4.511-3.669 8.18-8.18 8.18zm-54.364-12.953c1.108 0 2.126.604 2.658 1.576l3.728 6.811c.191.35.557.567.955.567h47.023c2.305 0 4.18-1.875 4.18-4.18v-37.081c0-2.305-1.875-4.18-4.18-4.18h-108.729c-2.305 0-4.18 1.875-4.18 4.18v37.08c0 2.305 1.875 4.18 4.18 4.18h47.022c.398 0 .765-.217.956-.567l3.728-6.811c.533-.971 1.55-1.575 2.659-1.575z" fill="#3762cc"/></g><path d="m161.052 122.51-2.444-4.466c-1.156-2.112-3.112-3.735-5.458-4.273-3.698-.847-7.366.884-9.109 4.07l-2.555 4.669h-41.492c-1.138 0-2.06-.922-2.06-2.06v-30.9c0-1.138.922-2.06 2.06-2.06h102.548c1.138 0 2.06.922 2.06 2.06v30.9c0 1.138-.922 2.06-2.06 2.06z" fill="#e0ebfc"/><path d="m189.789 92.04c-.781-.781-2.047-.781-2.828 0l-2.558 2.558c-.803-.297-1.668-.467-2.574-.467-4.105 0-7.433 3.328-7.433 7.433v7.929c0 4.105 3.328 7.433 7.433 7.433s7.433-3.328 7.433-7.433v-7.929c0-1.73-.596-3.318-1.588-4.581l2.114-2.114c.782-.782.782-2.048.001-2.829z" fill="#3762cc"/><path d="m120.751 94.13c-.736 0-1.445.111-2.116.31l-2.4-2.4c-.78-.781-2.048-.781-2.828 0-.781.781-.781 2.047 0 2.828l1.78 1.78c-1.159 1.311-1.868 3.029-1.868 4.916v7.929c0 4.105 3.328 7.433 7.433 7.433 4.105 0 7.433-3.328 7.433-7.433v-7.929c-.001-4.106-3.329-7.434-7.434-7.434z" fill="#3762cc"/><g><path d="m202.542 124.51h-41.49c-.73 0-1.403-.398-1.755-1.04l-2.443-4.466c-.928-1.695-2.44-2.892-4.151-3.285-2.777-.636-5.552.603-6.907 3.082l-2.555 4.668c-.352.641-1.024 1.04-1.755 1.04h-41.492c-2.238 0-4.06-1.821-4.06-4.06v-30.9c0-2.238 1.821-4.06 4.06-4.06h102.548c2.239 0 4.061 1.821 4.061 4.06v30.9c0 2.239-1.822 4.061-4.061 4.061zm-40.305-4h40.305l.061-30.96-102.609-.06-.06 30.96 40.366.058 1.984-3.627c2.19-4.003 6.841-6.084 11.311-5.061 2.825.648 5.291 2.566 6.767 5.264z" fill="#3762cc"/></g><path d="m101.455 245.679-21.071-50.228-.006-60.955c0-2.757-2.243-5-5-5h-20.871c-2.757 0-5 2.243-5 5v7.92h-24.558c-4.648 0-8.43 3.782-8.43 8.43v38.578c0 4.648 3.782 8.43 8.43 8.43h3.322l-4.321 39.816c-.153 1.41.303 2.823 1.25 3.879.947 1.055 2.303 1.66 3.721 1.66h.553l-1.036 2.47c-.779 1.857-.579 3.967.536 5.644s2.983 2.678 4.997 2.678h61.952c2.014 0 3.881-1.001 4.996-2.678 1.114-1.677 1.314-3.787.536-5.644zm-76.506-51.825c-2.442 0-4.43-1.987-4.43-4.43v-38.578c0-2.442 1.987-4.43 4.43-4.43h26.558 7.232c2.442 0 4.429 1.987 4.429 4.43v38.578c0 2.442-1.987 4.43-4.429 4.43h-7.232-21.007zm3.971 45.354c-.388 0-.633-.208-.744-.332s-.292-.39-.25-.776l4.368-40.247h16.206l-17.349 41.355zm68.667 9.899c-.377.567-.984.893-1.666.893h-61.951c-.681 0-1.288-.325-1.666-.893-.377-.567-.442-1.253-.179-1.881l20.712-49.373h5.902c4.648 0 8.429-3.782 8.429-8.43v-38.578c0-4.648-3.781-8.43-8.429-8.43h-5.232v-7.92c0-.551.449-1 1-1h20.871c.551 0 1 .449 1 1l.006 61.357c0 .266.053.529.156.774l21.227 50.599c.262.629.197 1.315-.18 1.882z" fill="#3762cc"/></g></svg>