<svg id="Layer_1" enable-background="new 0 0 256 256" height="512" viewBox="0 0 256 256" width="512" xmlns="http://www.w3.org/2000/svg"><g><g><path d="m145.378 147.6c-38.135 0-69.05-30.914-69.05-69.049v-22.319h138.099v22.319c.001 38.135-30.914 69.049-69.049 69.049z" fill="#4671c6"/><g><path d="m231.561 238.209v-37.164c0-15.496-12.562-28.058-28.058-28.058h-116.25c-15.496 0-28.058 12.562-28.058 28.058v41.164h168.366c2.209 0 4-1.791 4-4z" fill="#4671c6"/><path d="m145.321 131.786h-29.874v40.232c0 16.515 13.388 29.903 29.903 29.903 16.515 0 29.903-13.388 29.903-29.903v-40.232z" fill="#f9cfcf"/><g fill="#e0ebfc"><path d="m231.561 238.209v-37.164c0-15.496-12.562-28.058-28.058-28.058h-28.276l-3.555 69.222h55.888c2.21 0 4.001-1.791 4.001-4z"/><path d="m119.026 242.209-3.555-69.222h-28.218c-15.496 0-28.058 12.562-28.058 28.058v41.164z"/></g></g><path d="m204.188 86.053v-5.507c0-32.187-26.33-58.28-58.81-58.28-32.48 0-58.81 26.093-58.81 58.28v5.507c-10.212-.207-18.314 7.928-18.314 17.762 0 10.5 9.167 18.806 19.867 17.675 6.069 25.785 29.393 44.995 57.256 44.995 27.866 0 51.188-19.212 57.256-44.995 10.686 1.13 19.867-7.16 19.867-17.675.002-9.838-8.106-17.969-18.312-17.762z" fill="#f9cfcf"/><path d="m70.815 3h98.734c24.785 0 44.876 20.092 44.876 44.876v22.422h-112.482c-17.191 0-31.127-13.936-31.127-31.127v-36.171z" fill="#4671c6"/><path d="m84.805 85.46v37.08c0 3.413 2.767 6.18 6.18 6.18h47.023c1.129 0 2.169-.616 2.711-1.607l3.727-6.811c.391-.714 1.416-.714 1.807 0l3.727 6.811c.542.991 1.581 1.607 2.711 1.607h47.023c3.413 0 6.18-2.767 6.18-6.18v-37.08c0-3.413-2.767-6.18-6.18-6.18h-108.729c-3.413 0-6.18 2.767-6.18 6.18z" fill="#a4c9ff"/><path d="m155.133 121.51-2.444-4.466c-1.156-2.112-3.112-3.735-5.458-4.273-3.698-.847-7.366.884-9.109 4.07l-2.555 4.669h-41.492c-1.138 0-2.06-.922-2.06-2.06v-30.9c0-1.138.922-2.06 2.06-2.06h102.548c1.138 0 2.06.922 2.06 2.06v30.9c0 1.138-.922 2.06-2.06 2.06z" fill="#e0ebfc"/><g fill="#3762cc"><path d="m175.91 115.925c-4.105 0-7.433-3.328-7.433-7.433v-7.929c0-4.105 3.328-7.433 7.433-7.433 4.105 0 7.433 3.328 7.433 7.433v7.929c0 4.106-3.328 7.433-7.433 7.433z"/><path d="m114.832 115.925c-4.105 0-7.433-3.328-7.433-7.433v-7.929c0-4.105 3.328-7.433 7.433-7.433 4.105 0 7.433 3.328 7.433 7.433v7.929c0 4.106-3.328 7.433-7.433 7.433z"/></g></g><path d="m46.042 175.373h-19.131l-6.892 63.511c-.193 1.775 1.198 3.324 2.982 3.324h36.249v-66.835z" fill="#f9cfcf"/><g fill="#3762cc"><path d="m159.18 134.517c.584-.588.58-1.538-.008-2.122-.589-.583-1.538-.58-2.121.008-1.637 1.649-3.852 2.932-6.405 3.708-1.537.468-3.262.695-5.274.695s-3.738-.227-5.275-.695c-2.554-.777-4.769-2.059-6.405-3.708-.583-.588-1.532-.591-2.121-.008-.588.583-.592 1.533-.008 2.122 1.984 2 4.634 3.544 7.661 4.465 1.824.555 3.835.825 6.148.825s4.323-.27 6.147-.825c3.027-.92 5.676-2.464 7.661-4.465z"/><path d="m146.783 114.72c1.711.393 3.224 1.589 4.151 3.285l2.443 4.466c.352.641 1.024 1.04 1.755 1.04h41.49c2.239 0 4.061-1.821 4.061-4.06v-30.9c0-2.238-1.821-4.06-4.061-4.06h-102.547c-2.239 0-4.061 1.821-4.061 4.06v30.9c0 2.238 1.821 4.06 4.061 4.06h41.491c.73 0 1.403-.399 1.755-1.04l2.555-4.668c1.355-2.48 4.131-3.718 6.907-3.083zm-10.417 1.161-1.984 3.627-40.367-.058.061-30.96 102.608.06-.061 30.96h-40.305l-1.875-3.425c-1.476-2.697-3.941-4.616-6.767-5.264-4.47-1.024-9.119 1.057-11.31 5.06z"/><path d="m203.504 170.987c-10.039 0-16.263 0-26.252 0v-11.531c10.94-6.698 19.73-16.774 24.64-29.039 3.22-.892 5.648-3.701 5.964-7.12 9.469-1.567 16.647-9.795 16.647-19.482 0-6.691-3.431-12.671-8.663-16.257.383-3.013.589-6.037.589-9.008l-.002-8.252v-22.422c-.001-25.847-21.03-46.876-46.877-46.876h-98.735c-1.104 0-2 .896-2 2v36.171c0 6.75 2.034 13.031 5.514 18.273v21.107c0 2.975.205 5.998.588 9.009-5.23 3.589-8.662 9.571-8.662 16.256 0 9.657 7.152 17.882 16.588 19.474.315 3.445 2.774 6.272 6.029 7.144 4.902 12.236 13.667 22.292 24.575 28.987v11.567c-9.975 0-16.231 0-26.193 0-16.574 0-30.058 13.483-30.058 30.057v41.164c0 1.104.896 2 2 2h168.366c3.309 0 6-2.691 6-6v-37.164c0-16.574-13.484-30.058-30.058-30.058zm16.998-67.172c0 7.488-5.387 13.886-12.608 15.411v-30.807c.855.179 1.675.38 2.951.924 5.715 2.441 9.657 8.084 9.657 14.472zm-8.44-18.31c-.515-.208-1.445-.533-2.193-.737-.49-.134-1.423-.342-2.01-.439-.015-.002-.03-.006-.045-.008-.078-.554-.292-1.391-.557-2.021-.001-.003-.002-.007-.004-.01-.258-.611-.674-1.314-1.066-1.822-.002-1.783-.112-3.82-.282-5.581-.083-.856-.254-2.27-.299-2.589h6.819l.002 6.252c.001 2.295-.122 4.624-.365 6.955zm-139.247-46.334v-34.171h96.734c23.642 0 42.876 19.234 42.876 42.876v20.422h-9.163-101.32c-4.391 0-8.8-.997-12.87-3.006-.007-.003-.012-.008-.019-.012-4.068-2.014-7.794-5.046-10.697-9.048-3.48-4.799-5.541-10.692-5.541-17.061zm129.285 38.461c-.646-.196-1.605-.353-2.386-.353h-108.729c-.742 0-1.685.145-2.33.336.058-1.086.139-2.136.28-3.365.237-2.072.444-3.116.679-4.328 2.215.893 4.765 1.609 7.334 1.999 1.599.241 3.3.377 4.995.377h99.61c.252 1.689.437 3.295.547 5.334zm-119.295 41.582c-7.188-1.547-12.55-7.939-12.55-15.399 0-5.822 3.266-10.979 8.108-13.706 1.713-.96 3.076-1.385 4.442-1.677zm2.149-45.342c-.264 2.336-.381 4.548-.386 6.517-.35.442-.756 1.092-1.041 1.726-.29.644-.537 1.43-.646 2.215-.472.078-1.522.305-2.073.458-.723.2-1.674.538-2.114.715-.243-2.328-.365-4.657-.365-6.954v-16.159c2.072 2.103 4.706 4.154 7.534 5.731l.015.009c-.406 1.915-.803 4.675-.924 5.742zm6.021 52.847c-2.301-.006-4.17-1.878-4.17-4.179 0-13.681 0-22.641 0-36.428v-.006c0-1.321.09-2.283 1.037-3.372.869-1.001 1.986-1.454 3.144-1.454h108.729c1.106 0 2.288.473 3.138 1.448.939 1.074 1.042 2.055 1.042 3.377v.002 36.433c0 2.301-1.868 4.171-4.166 4.179-.005 0-.009.001-.014.001h-47.025c-.358 0-.761-.211-.956-.566l-3.727-6.811c-.531-.972-1.55-1.576-2.656-1.576-.001 0-.002 0-.002 0-1.107 0-2.126.603-2.659 1.576l-3.727 6.811c-.192.35-.557.566-.956.566h-47.022c-.003 0-.007-.001-.01-.001zm2.344 4.001h44.689c1.861 0 3.572-1.014 4.466-2.647l2.875-5.255 2.875 5.255c.896 1.636 2.61 2.647 4.466 2.647h44.747c-8.968 20.315-29.52 33.765-52.059 33.765s-43.091-13.451-52.059-33.765zm-32.124 109.488v-39.164c0-14.074 11.218-25.57 25.182-26.035l6.894 33.628c.379 1.852 2.026 3.197 3.918 3.197h2.131l-2.309 1.218c-1.565.826-2.395 2.549-2.063 4.286l4.353 22.87zm42.179 0-4.495-23.618 9.453-4.987c.813-.429 1.229-1.357 1.008-2.25s-1.022-1.52-1.941-1.52h-10.21l-6.734-32.847h23.092l3.368 65.221h-13.541zm69.878-78.503-.106 13.283c-.434 8.406-3.036 58.79-3.368 65.221h-48.857l-3.368-65.221-.106-4v-9.313h-.001c8.48 4.371 18.024 6.81 27.932 6.81 9.886 0 19.41-2.428 27.874-6.78 0-.001 0-.001 0 0zm.531 78.503c.434-8.406 3.036-58.79 3.368-65.221h23.092l-6.734 32.847h-10.209c-.919 0-1.721.627-1.941 1.52-.221.892.195 1.82 1.008 2.25l9.454 4.987-4.495 23.618h-13.543zm55.779-2c0 1.103-.897 2-2 2h-36.164l4.353-22.871c.33-1.738-.499-3.46-2.063-4.286l-2.309-1.218h2.131c1.892 0 3.539-1.345 3.918-3.196l6.895-33.63c13.99.434 25.24 11.942 25.24 26.036v37.165z"/></g><g><path d="m72.459 135.497c0-1.657-1.343-3-3-3h-20.871c-1.657 0-3 1.343-3 3v61.357l-21.226 50.599c-1.106 2.636.83 5.547 3.689 5.547h32.332 29.62c2.858 0 4.794-2.911 3.689-5.547l-21.226-50.599z" fill="#a4c9ff"/><path d="m52.82 196.853h-33.79c-3.551 0-6.43-2.879-6.43-6.43v-38.578c0-3.551 2.879-6.43 6.43-6.43h33.79c3.551 0 6.43 2.879 6.43 6.43v38.578c0 3.552-2.879 6.43-6.43 6.43z" fill="#f9cfcf"/><path d="m95.535 246.679-21.07-50.229-.006-60.954c0-2.757-2.243-5-5-5h-20.871c-2.757 0-5 2.243-5 5v7.92h-24.558c-4.648 0-8.43 3.782-8.43 8.43v38.578c0 4.648 3.782 8.43 8.43 8.43h3.321l-4.321 39.815c-.153 1.41.302 2.823 1.249 3.879.947 1.055 2.303 1.661 3.722 1.661h.552l-1.036 2.47c-.779 1.857-.579 3.967.536 5.644s2.983 2.678 4.997 2.678h61.952c2.014 0 3.881-1.001 4.997-2.678 1.115-1.677 1.315-3.787.536-5.644zm-80.934-56.255v-38.578c0-2.442 1.987-4.43 4.43-4.43h26.558 7.232c2.442 0 4.43 1.987 4.43 4.43v38.578c0 2.442-1.987 4.43-4.43 4.43h-7.232-21.009-5.55c-2.442 0-4.429-1.988-4.429-4.43zm7.656 49.452c-.111-.124-.292-.39-.25-.776l4.368-40.247h16.205l-17.349 41.355h-2.23c-.388 0-.633-.208-.744-.332zm69.411 10.231c-.377.567-.984.893-1.666.893h-61.952c-.681 0-1.288-.325-1.666-.893-.377-.567-.442-1.253-.179-1.881l20.712-49.373h5.902c4.648 0 8.43-3.782 8.43-8.43v-38.578c0-4.648-3.782-8.43-8.43-8.43h-5.232v-7.92c0-.551.449-1 1-1h20.871c.551 0 1 .449 1 1l.006 61.357c0 .266.053.529.156.773l21.226 50.599c.264.63.199 1.316-.178 1.883z" fill="#3762cc"/></g><path d="m48.171 208.791-15.609 37.209h52.929l-15.609-37.209z" fill="#f9a7a7"/></g></svg>