<svg id="Layer_1" enable-background="new 0 0 256 256" height="512" viewBox="0 0 256 256" width="512" xmlns="http://www.w3.org/2000/svg"><g><path d="m243.944 250.147h-96.599c-4.54 0-8.221-3.681-8.221-8.221v-66.669h113.042v66.669c-.001 4.541-3.682 8.221-8.222 8.221z" fill="#6bdddd"/><path d="m252.165 175.257h-113.042v-13.71c0-4.54 3.681-8.221 8.221-8.221h96.599c4.54 0 8.221 3.681 8.221 8.221v13.71z" fill="#f9a7a7"/><path d="m182.004 164.832c-2.34 0-4.236-1.897-4.236-4.236v-13.314c0-2.34 1.897-4.236 4.236-4.236 2.34 0 4.236 1.897 4.236 4.236v13.314c.001 2.34-1.896 4.236-4.236 4.236z" fill="#4671c6"/><path d="m154.725 164.832c-2.34 0-4.236-1.897-4.236-4.236v-13.314c0-2.34 1.897-4.236 4.236-4.236 2.34 0 4.236 1.897 4.236 4.236v13.314c0 2.34-1.896 4.236-4.236 4.236z" fill="#4671c6"/><path d="m209.284 164.832c-2.34 0-4.236-1.897-4.236-4.236v-13.314c0-2.34 1.897-4.236 4.236-4.236 2.34 0 4.236 1.897 4.236 4.236v13.314c0 2.34-1.897 4.236-4.236 4.236z" fill="#4671c6"/><path d="m236.563 164.832c-2.34 0-4.236-1.897-4.236-4.236v-13.314c0-2.34 1.897-4.236 4.236-4.236 2.34 0 4.236 1.897 4.236 4.236v13.314c0 2.34-1.897 4.236-4.236 4.236z" fill="#4671c6"/><g fill="#e0ebfc"><path d="m163.476 237.119h-15.374c-.999 0-1.809-.81-1.809-1.809v-15.374c0-.999.81-1.809 1.809-1.809h15.374c.999 0 1.809.81 1.809 1.809v15.374c0 1-.81 1.809-1.809 1.809z"/><path d="m190.046 207.276h-15.374c-.999 0-1.809-.81-1.809-1.809v-15.374c0-.999.81-1.809 1.809-1.809h15.374c.999 0 1.809.81 1.809 1.809v15.374c-.001.999-.81 1.809-1.809 1.809z"/><path d="m190.046 237.119h-15.374c-.999 0-1.809-.81-1.809-1.809v-15.374c0-.999.81-1.809 1.809-1.809h15.374c.999 0 1.809.81 1.809 1.809v15.374c-.001 1-.81 1.809-1.809 1.809z"/><path d="m216.616 207.276h-15.374c-.999 0-1.809-.81-1.809-1.809v-15.374c0-.999.81-1.809 1.809-1.809h15.374c.999 0 1.809.81 1.809 1.809v15.374c-.001.999-.81 1.809-1.809 1.809z"/><path d="m216.616 237.119h-15.374c-.999 0-1.809-.81-1.809-1.809v-15.374c0-.999.81-1.809 1.809-1.809h15.374c.999 0 1.809.81 1.809 1.809v15.374c-.001 1-.81 1.809-1.809 1.809z"/><path d="m243.186 207.276h-15.374c-.999 0-1.809-.81-1.809-1.809v-15.374c0-.999.81-1.809 1.809-1.809h15.374c.999 0 1.809.81 1.809 1.809v15.374c-.001.999-.811 1.809-1.809 1.809z"/></g><g><path d="m203.701 234.368-5.476-7.905c-.746-1.077-.478-2.554.599-3.3s2.554-.478 3.3.599l3.858 5.57 13.207-13.207c.926-.926 2.428-.926 3.354 0s.926 2.428 0 3.354l-15.215 15.215c-1.042 1.042-2.781.895-3.627-.326z" fill="#4671c6"/></g><g><path d="m176.421 234.368-5.476-7.905c-.746-1.077-.478-2.554.599-3.3s2.554-.478 3.3.599l3.858 5.57 13.207-13.207c.926-.926 2.428-.926 3.354 0s.926 2.428 0 3.354l-15.215 15.215c-1.042 1.042-2.781.895-3.627-.326z" fill="#4671c6"/></g><g><path d="m150.986 234.368-5.476-7.905c-.746-1.077-.478-2.554.599-3.3s2.554-.478 3.3.599l3.858 5.57 13.207-13.207c.926-.926 2.428-.926 3.354 0s.926 2.428 0 3.354l-15.215 15.215c-1.046 1.046-2.785.889-3.627-.326z" fill="#4671c6"/></g><path d="m126.363 126.146-15.642-15.642c-1.364-1.364-3.576-1.364-4.94 0l-69.153 69.153c-1.364 1.364-1.364 3.576 0 4.94l15.642 15.642c1.364 1.364 3.576 1.364 4.94 0l69.153-69.153c1.364-1.365 1.364-3.576 0-4.94z" fill="#e0ebfc"/><path d="m195.791 79.769-38.693-38.693c-1.819-1.819-4.767-1.819-6.586 0l-106.475 106.474c-4.092 4.092-4.092 10.727 0 14.819l30.46 30.46c4.092 4.092 10.727 4.092 14.819 0l106.475-106.474c1.819-1.819 1.819-4.767 0-6.586z" fill="#e0ebfc"/><path d="m130.365 74.715-77.935 77.935c-1.364 1.364-1.364 3.576 0 4.94l26.847 26.847c1.364 1.364 3.576 1.364 4.94 0l77.935-77.935z" fill="#a4c9ff"/><path d="m169.076 21.835h17.464v74.448h-17.464z" fill="#6bdddd" transform="matrix(-.707 -.707 .707 -.707 261.777 226.549)"/><path d="m190.957 7.217 38.693 38.693c1.819 1.819 1.819 4.767 0 6.586l-5.763 5.763c-1.819 1.819-4.767 1.819-6.586 0l-38.693-38.693c-1.819-1.819-1.819-4.767 0-6.586l5.763-5.763c1.819-1.819 4.768-1.819 6.586 0z" fill="#4671c6"/><path d="m139.97 65.11-9.605 9.605 31.787 31.787 9.605-9.605c.909-.909.909-2.384 0-3.293l-28.494-28.494c-.91-.909-2.384-.909-3.293 0z" fill="#4671c6"/><g fill="#3762cc"><path d="m243.943 151.326h-1.145v-4.044c0-3.439-2.798-6.236-6.236-6.236s-6.236 2.797-6.236 6.236v4.044h-14.806v-4.044c0-3.439-2.798-6.236-6.236-6.236s-6.236 2.797-6.236 6.236v4.044h-14.808v-4.044c0-3.439-2.798-6.236-6.236-6.236s-6.236 2.797-6.236 6.236v4.044h-14.807v-4.044c0-3.439-2.798-6.236-6.236-6.236s-6.236 2.797-6.236 6.236v4.044h-1.145c-5.636 0-10.221 4.585-10.221 10.221v80.379c0 5.636 4.585 10.221 10.221 10.221h96.6c5.637 0 10.222-4.585 10.222-10.221 0-9.313 0-70.808 0-80.379-.001-5.636-4.586-10.221-10.223-10.221zm-9.617-4.044c0-1.233 1.003-2.236 2.236-2.236s2.236 1.003 2.236 2.236v13.314c0 1.233-1.003 2.236-2.236 2.236s-2.236-1.003-2.236-2.236c0-4.841 0-8.154 0-13.314zm-27.279 0c0-1.233 1.003-2.236 2.236-2.236s2.236 1.003 2.236 2.236v13.314c0 1.233-1.003 2.236-2.236 2.236s-2.236-1.003-2.236-2.236c0-4.841 0-8.154 0-13.314zm-27.279 0c0-1.233 1.003-2.236 2.236-2.236s2.236 1.003 2.236 2.236v13.314c0 1.233-1.003 2.236-2.236 2.236s-2.236-1.003-2.236-2.236c0-4.841 0-8.154 0-13.314zm-27.28 0c0-1.233 1.003-2.236 2.236-2.236s2.236 1.003 2.236 2.236v13.314c0 1.233-1.003 2.236-2.236 2.236s-2.236-1.003-2.236-2.236c0-4.841 0-8.154 0-13.314zm-11.365 14.265c0-3.43 2.791-6.221 6.221-6.221h1.145v5.27c0 3.439 2.798 6.236 6.236 6.236s6.236-2.797 6.236-6.236v-5.27h14.807v5.27c0 3.439 2.798 6.236 6.236 6.236s6.236-2.797 6.236-6.236v-5.27h14.807v5.27c0 3.439 2.798 6.236 6.236 6.236s6.236-2.797 6.236-6.236v-5.27h14.807v5.27c0 3.439 2.798 6.236 6.236 6.236s6.236-2.797 6.236-6.236v-5.27h1.145c3.431 0 6.222 2.791 6.222 6.221v11.71h-109.042zm109.042 80.379c0 3.43-2.791 6.221-6.222 6.221h-96.6c-3.43 0-6.221-2.791-6.221-6.221v-64.669h109.042v64.669z"/><path d="m197.205 78.355-11.758-11.758 18.683-18.683 11.758 11.758c1.257 1.257 2.929 1.95 4.707 1.95 1.777 0 3.449-.692 4.707-1.95l5.763-5.763c2.595-2.596 2.595-6.818 0-9.414l-38.694-38.692c-1.257-1.257-2.929-1.95-4.707-1.95s-3.45.693-4.707 1.95l-5.763 5.763c-2.595 2.596-2.595 6.818 0 9.414l11.758 11.758-18.682 18.682-11.758-11.758c-1.257-1.257-2.929-1.95-4.707-1.95s-3.45.693-4.707 1.95l-106.474 106.474c-4.866 4.865-4.866 12.782 0 17.647l3.525 3.525-10.935 10.935c-2.141 2.142-2.141 5.626 0 7.768l6.407 6.407-39.2 39.2c-.781.781-.781 2.047 0 2.828.391.391.902.586 1.414.586s1.024-.195 1.414-.586l39.2-39.2 6.407 6.407c2.146 2.147 5.621 2.147 7.768 0l10.935-10.935 3.526 3.526c4.865 4.865 12.781 4.865 17.646 0l106.474-106.475c2.596-2.595 2.596-6.818 0-9.414zm-17.183-63.961 5.763-5.763c1.038-1.039 2.719-1.039 3.758 0l38.693 38.693c1.035 1.036 1.035 2.722 0 3.758l-5.763 5.762c-1.005 1.005-2.755 1.003-3.758 0l-38.693-38.693c-1.035-1.036-1.035-2.721 0-3.757zm11.758 21.172 9.521 9.521-18.682 18.682-9.52-9.52zm-112.987 114.275-10.363-10.363 13.637-13.637 10.363 10.363c.781.781 2.047.782 2.828 0 .781-.781.781-2.047 0-2.828l-10.363-10.363 13.637-13.637 10.363 10.363c.781.781 2.047.782 2.828 0 .781-.781.781-2.047 0-2.828l-10.363-10.363 13.637-13.637 10.363 10.363c.781.781 2.047.782 2.828 0 .781-.781.781-2.047 0-2.828l-10.363-10.363 12.539-12.539 28.958 28.958-76.521 76.521c-.582.582-1.529.581-2.111 0l-26.847-26.848c-.58-.579-.587-1.523 0-2.111l11.758-11.758 10.363 10.363c.781.781 2.047.782 2.828 0 .783-.781.783-2.047.001-2.828zm-3.472-30.746 3.918 3.918-13.637 13.637-3.918-3.918zm16.465-16.465 3.918 3.918-13.637 13.637-3.918-3.918zm16.465-16.465 3.918 3.918-13.637 13.637-3.918-3.918zm53.9 17.508-28.958-28.958 8.19-8.19c.158-.158.307-.158.465 0l8.07 8.07c.001.001.001.002.002.003 13.363 13.363 9.652 9.651 20.422 20.421.079.08.096.17.096.232s-.017.153-.096.232zm-7.988-30.49 16.107-16.107 9.52 9.52-16.107 16.107zm-2.237-30.693c1.038-1.039 2.719-1.039 3.758 0l11.758 11.758-16.106 16.107-6.658-6.658c-1.688-1.688-4.434-1.688-6.121 0-32.344 32.344 8.774-8.774-23.558 23.558l-3.918-3.918zm-96.131 156.335c-.582.582-1.529.582-2.111 0l-15.642-15.642c-.582-.582-.582-1.529 0-2.111l10.935-10.934 17.753 17.752zm138.582-113.884-106.475 106.475c-3.306 3.306-8.685 3.306-11.99 0l-4.937-4.937c-.001-.001-.001-.002-.002-.003l-20.582-20.581-4.939-4.939c-3.306-3.306-3.306-8.685 0-11.991l13.404-13.404 3.918 3.918-11.758 11.758c-1.038 1.038-1.609 2.417-1.609 3.884s.572 2.847 1.609 3.884l26.847 26.848c2.142 2.141 5.627 2.141 7.768 0 17.672-17.672 69.902-69.903 87.54-87.54 1.688-1.688 1.688-4.434 0-6.121l-6.659-6.659 16.107-16.107 11.758 11.758c1.035 1.035 1.036 2.721 0 3.757z"/></g></g></svg>