<svg id="Layer_1" enable-background="new 0 0 256 256" height="512" viewBox="0 0 256 256" width="512" xmlns="http://www.w3.org/2000/svg"><g><path d="m182.458 240.5h-108.75c-5.695 0-10.313-4.617-10.313-10.313v-204.374c0-5.695 4.617-10.313 10.313-10.313h108.75c5.695 0 10.313 4.617 10.313 10.313v204.375c0 5.695-4.617 10.312-10.313 10.312z" fill="#4671c6"/><path d="m179.054 25.148h-16.839v1.82c0 4.021-3.26 7.282-7.282 7.282h-53.701c-4.021 0-7.282-3.26-7.282-7.282v-1.82h-16.838c-3.016 0-5.461 2.445-5.461 5.461v194.782c0 3.016 2.445 5.461 5.461 5.461h101.942c3.016 0 5.461-2.445 5.461-5.461v-194.782c0-3.016-2.445-5.461-5.461-5.461z" fill="#6bdddd"/><circle cx="150.307" cy="25.831" fill="#e0ebfc" r="3.421"/><circle cx="139.385" cy="25.831" fill="#e0ebfc" r="2.472"/><path d="m129.253 28.302h-26.004c-1.365 0-2.472-1.107-2.472-2.472 0-1.365 1.107-2.472 2.472-2.472h26.004c1.365 0 2.472 1.107 2.472 2.472-.001 1.366-1.107 2.472-2.472 2.472z" fill="#e0ebfc"/><path d="m156.464 160.79h-56.778v-21.945c0-15.679 12.71-28.389 28.389-28.389 15.679 0 28.389 12.71 28.389 28.389z" fill="#f9a7a7"/><path d="m158.554 168.279h-61.108c-2.309 0-4.18-1.871-4.18-4.18v-6.618c0-2.309 1.871-4.18 4.18-4.18h61.108c2.309 0 4.18 1.871 4.18 4.18v6.618c0 2.309-1.872 4.18-4.18 4.18z" fill="#f9a7a7"/><g><path d="m126.099 135.812c-2.071-16.477-1.933-15.214-1.933-15.637 0-2.215 1.766-3.48 3.909-3.48 2.379 0 4.223 1.509 3.866 4.124l-1.933 14.993c-.12 1.371-.951 2.019-1.933 2.019-.971 0-1.796-.632-1.976-2.019zm-1.676 7.948c0-2.093 1.486-3.695 3.652-3.695s3.651 1.602 3.651 3.695c0 2.094-1.486 3.695-3.651 3.695-2.166-.001-3.652-1.601-3.652-3.695z" fill="#e0ebfc"/></g><g fill="#f9a7a7"><path d="m149.823 110.568.077.077c1.078 1.078 2.825 1.078 3.903 0l6.048-6.048c1.078-1.078 1.078-2.825 0-3.903l-.077-.077c-1.078-1.078-2.825-1.078-3.903 0l-6.048 6.048c-1.078 1.078-1.078 2.826 0 3.903z"/><path d="m127.883 101.83h-.102c-1.526 0-2.763-1.237-2.763-2.763v-8.583c0-1.526 1.237-2.763 2.763-2.763h.102c1.526 0 2.763 1.237 2.763 2.763v8.583c.001 1.526-1.236 2.763-2.763 2.763z"/><path d="m106.177 110.568-.077.077c-1.078 1.078-2.825 1.078-3.903 0l-6.048-6.048c-1.078-1.078-1.078-2.825 0-3.903l.077-.077c1.078-1.078 2.825-1.078 3.903 0l6.048 6.048c1.078 1.078 1.078 2.826 0 3.903z"/></g><path d="m182.458 13.5h-108.75c-6.789 0-12.313 5.523-12.313 12.313v204.375c0 6.789 5.523 12.313 12.313 12.313h108.75c6.789 0 12.313-5.523 12.313-12.313v-204.375c0-6.79-5.524-12.313-12.313-12.313zm8.313 216.688c0 4.584-3.729 8.313-8.313 8.313h-108.75c-4.584 0-8.313-3.729-8.313-8.313v-204.375c0-4.584 3.729-8.313 8.313-8.313h108.75c4.584 0 8.313 3.729 8.313 8.313z" fill="#3762cc"/><path d="m179.055 23.148h-16.839c-1.104 0-2 .896-2 2v1.82c0 2.912-2.369 5.281-5.282 5.281h-53.701c-2.912 0-5.281-2.369-5.281-5.281v-1.82c0-1.104-.896-2-2-2h-16.84c-4.114 0-7.461 3.347-7.461 7.461v194.781c0 4.114 3.347 7.461 7.461 7.461h101.942c4.114 0 7.461-3.347 7.461-7.461v-194.781c.001-4.114-3.346-7.461-7.46-7.461zm3.461 202.243c0 1.908-1.553 3.461-3.461 3.461h-101.943c-1.908 0-3.461-1.553-3.461-3.461v-194.782c0-1.908 1.553-3.461 3.461-3.461h14.841c.096 5.035 4.222 9.102 9.279 9.102h53.701c5.059 0 9.185-4.066 9.28-9.102h14.841c1.908 0 3.461 1.553 3.461 3.461v194.782z" fill="#3762cc"/><path d="m158.554 151.301h-.09v-12.456c0-16.757-13.633-30.389-30.39-30.389s-30.389 13.632-30.389 30.389v12.456h-.239c-3.407 0-6.18 2.772-6.18 6.18v6.619c0 3.407 2.772 6.18 6.18 6.18h61.107c3.407 0 6.18-2.772 6.18-6.18v-6.619c0-3.408-2.772-6.18-6.179-6.18zm-56.868-12.456c0-14.551 11.838-26.389 26.389-26.389 14.552 0 26.39 11.838 26.39 26.389v12.456h-52.778v-12.456zm59.047 25.255c0 1.202-.978 2.18-2.18 2.18h-61.107c-1.202 0-2.18-.978-2.18-2.18v-6.619c0-1.202.978-2.18 2.18-2.18h61.107c1.202 0 2.18.978 2.18 2.18z" fill="#3762cc"/><g><path d="m214.42 79.757h-2.694c-1.381 0-2.5-1.119-2.5-2.5s1.119-2.5 2.5-2.5h2.694c1.381 0 2.5 1.119 2.5 2.5s-1.119 2.5-2.5 2.5zm-11.694 0h-9c-1.381 0-2.5-1.119-2.5-2.5s1.119-2.5 2.5-2.5h9c1.381 0 2.5 1.119 2.5 2.5s-1.119 2.5-2.5 2.5zm-18 0h-9c-1.381 0-2.5-1.119-2.5-2.5s1.119-2.5 2.5-2.5h9c1.381 0 2.5 1.119 2.5 2.5s-1.119 2.5-2.5 2.5zm-18 0h-9c-1.381 0-2.5-1.119-2.5-2.5s1.119-2.5 2.5-2.5h9c1.381 0 2.5 1.119 2.5 2.5s-1.119 2.5-2.5 2.5z" fill="#f9a7a7"/></g><g><path d="m202.726 185.288h-9c-1.381 0-2.5-1.119-2.5-2.5s1.119-2.5 2.5-2.5h9c1.381 0 2.5 1.119 2.5 2.5s-1.119 2.5-2.5 2.5zm-18 0h-9c-1.381 0-2.5-1.119-2.5-2.5s1.119-2.5 2.5-2.5h9c1.381 0 2.5 1.119 2.5 2.5s-1.119 2.5-2.5 2.5zm-18 0h-9c-1.381 0-2.5-1.119-2.5-2.5s1.119-2.5 2.5-2.5h9c1.381 0 2.5 1.119 2.5 2.5s-1.119 2.5-2.5 2.5z" fill="#f9a7a7"/></g><g><path d="m92.274 185.288h-2.694c-1.381 0-2.5-1.119-2.5-2.5s1.119-2.5 2.5-2.5h2.694c1.381 0 2.5 1.119 2.5 2.5s-1.119 2.5-2.5 2.5zm-11.695 0h-9c-1.381 0-2.5-1.119-2.5-2.5s1.119-2.5 2.5-2.5h9c1.381 0 2.5 1.119 2.5 2.5s-1.119 2.5-2.5 2.5zm-18 0h-9c-1.381 0-2.5-1.119-2.5-2.5s1.119-2.5 2.5-2.5h9c1.381 0 2.5 1.119 2.5 2.5s-1.119 2.5-2.5 2.5zm-18 0h-9c-1.381 0-2.5-1.119-2.5-2.5s1.119-2.5 2.5-2.5h9c1.381 0 2.5 1.119 2.5 2.5s-1.119 2.5-2.5 2.5z" fill="#f9a7a7"/></g><g><path d="m92.274 79.757h-2.694c-1.381 0-2.5-1.119-2.5-2.5s1.119-2.5 2.5-2.5h2.694c1.381 0 2.5 1.119 2.5 2.5s-1.119 2.5-2.5 2.5zm-11.695 0h-9c-1.381 0-2.5-1.119-2.5-2.5s1.119-2.5 2.5-2.5h9c1.381 0 2.5 1.119 2.5 2.5s-1.119 2.5-2.5 2.5zm-18 0h-9c-1.381 0-2.5-1.119-2.5-2.5s1.119-2.5 2.5-2.5h9c1.381 0 2.5 1.119 2.5 2.5s-1.119 2.5-2.5 2.5zm-18 0h-9c-1.381 0-2.5-1.119-2.5-2.5s1.119-2.5 2.5-2.5h9c1.381 0 2.5 1.119 2.5 2.5s-1.119 2.5-2.5 2.5z" fill="#f9a7a7"/></g><path d="m244.441 99.27h-27.074c-4.681 0-8.475-3.795-8.475-8.475v-27.075c0-4.681 3.795-8.475 8.475-8.475h27.074c4.681 0 8.475 3.795 8.475 8.475v27.074c.001 4.681-3.794 8.476-8.475 8.476z" fill="#a4c9ff"/><g><path d="m230.904 90.677c-7.399 0-13.419-6.02-13.419-13.419s6.02-13.419 13.419-13.419 13.419 6.02 13.419 13.419-6.02 13.419-13.419 13.419z" fill="#e0ebfc"/></g><circle cx="245.736" cy="62.615" fill="#e0ebfc" r="2.178"/><circle cx="230.904" cy="77.257" fill="#a4c9ff" r="10.594"/><path d="m244.441 53.244h-27.074c-5.776 0-10.476 4.699-10.476 10.476v27.074c0 5.776 4.699 10.476 10.476 10.476h27.074c5.776 0 10.476-4.699 10.476-10.476v-27.074c0-5.777-4.699-10.476-10.476-10.476zm6.476 37.55c0 3.57-2.905 6.476-6.476 6.476h-27.074c-3.57 0-6.476-2.905-6.476-6.476v-27.074c0-3.57 2.905-6.476 6.476-6.476h27.074c3.57 0 6.476 2.905 6.476 6.476z" fill="#3762cc"/><path d="m246.495 210.618h-29.835c-3.546 0-6.421-2.875-6.421-6.421v-42.818c0-3.546 2.875-6.421 6.421-6.421h29.836c3.546 0 6.421 2.875 6.421 6.421v42.818c0 3.546-2.875 6.421-6.422 6.421z" fill="#a4c9ff"/><g><path d="m234.296 174.31c4.217 0 8.356-.707 8.356 3.451 0 4.086-4.134 3.391-8.356 3.391v18.893c0 2.865-2.003 4.299-4.541 4.299-2.537 0-4.602-1.355-4.602-4.299v-18.893c-2.834 0-6.479.44-6.479-3.391 0-3.881 3.611-3.451 6.479-3.451 0-3.875 1.069-6.923 3.209-9.144 3.43-3.559 7.848-3.732 11.505-3.936 2.785 0 4.178 1.07 4.178 3.21 0 2.099-1.171 3.25-3.512 3.451l-1.574.121c-3.995.293-4.663 2.603-4.663 6.298z" fill="#e0ebfc"/></g><path d="m38.633 99.27h-27.074c-4.681 0-8.475-3.795-8.475-8.475v-27.075c0-4.681 3.795-8.475 8.475-8.475h27.074c4.681 0 8.475 3.795 8.475 8.475v27.074c.001 4.681-3.794 8.476-8.475 8.476z" fill="#a4c9ff"/><path d="m15.744 69.096v16.321c0 2.172 2.78 3.462 4.844 2.249l13.879-8.161c1.828-1.075 1.828-3.422 0-4.497l-13.879-8.161c-2.063-1.213-4.844.077-4.844 2.249z" fill="#e0ebfc"/><path d="m246.495 152.958h-29.836c-4.644 0-8.421 3.777-8.421 8.421v42.818c0 4.644 3.777 8.421 8.421 8.421h29.836c4.644 0 8.422-3.777 8.422-8.421v-42.818c0-4.644-3.778-8.421-8.422-8.421zm4.422 51.239c0 2.438-1.983 4.421-4.422 4.421h-29.836c-2.438 0-4.421-1.983-4.421-4.421v-42.818c0-2.438 1.983-4.421 4.421-4.421h29.836c2.438 0 4.422 1.983 4.422 4.421z" fill="#3762cc"/><path d="m38.633 53.244h-27.074c-5.776 0-10.476 4.699-10.476 10.476v27.074c0 5.776 4.699 10.476 10.476 10.476h27.074c5.776 0 10.476-4.699 10.476-10.476v-27.074c-.001-5.777-4.7-10.476-10.476-10.476zm6.475 37.55c0 3.57-2.905 6.476-6.476 6.476h-27.073c-3.57 0-6.476-2.905-6.476-6.476v-27.074c0-3.57 2.905-6.476 6.476-6.476h27.074c3.57 0 6.476 2.905 6.476 6.476v27.074z" fill="#3762cc"/><path d="m47.079 183.683c0-11.187-9.849-20.256-21.998-20.256s-21.998 9.069-21.998 20.256c0 8.274 5.391 15.386 13.114 18.53l-2.421 5.84c-.297.717.421 1.436 1.138 1.139l13.128-5.441c10.748-1.333 19.037-9.806 19.037-20.068z" fill="#e0ebfc"/><g fill="#4671c6"><circle cx="25.081" cy="183.683" r="3.274"/><circle cx="15.331" cy="183.683" r="3.274"/><circle cx="34.831" cy="183.683" r="3.274"/></g><path d="m25.081 161.428c-13.232 0-23.998 9.984-23.998 22.256 0 8.195 4.854 15.676 12.527 19.548l-1.682 4.055c-.446 1.077-.203 2.306.621 3.13.808.81 2.031 1.078 3.131.624l12.882-5.34c11.716-1.581 20.517-11.001 20.517-22.017 0-12.272-10.766-22.256-23.998-22.256zm2.715 40.339c-.179.021-.354.068-.52.137l-10.608 4.397 1.377-3.322c.423-1.021-.062-2.197-1.094-2.618-7.21-2.935-11.868-9.48-11.868-16.677 0-10.066 8.971-18.256 19.998-18.256s19.998 8.189 19.998 18.256c0 9.087-7.431 16.86-17.283 18.083z" fill="#3762cc"/></g></svg>