<svg id="Layer_1" enable-background="new 0 0 256 256" height="512" viewBox="0 0 256 256" width="512" xmlns="http://www.w3.org/2000/svg"><g><g><path d="m192.833 161.012c-21.622 0-39.75 14.924-44.669 35.031l-15.672 8.826c-1.666.938-1.666 3.337 0 4.275l15.672 8.826c4.919 20.106 23.047 35.03 44.669 35.03 25.402 0 45.994-20.592 45.994-45.994s-20.592-45.994-45.994-45.994z" fill="#e0ebfc"/><path d="m177.177 230.963c.34 2.074 3.324 2.074 3.664 0l5.094-31.064c.179-1.092.703-2.108 1.528-2.844 2.86-2.551 4.561-6.372 4.205-10.581-.528-6.243-5.718-11.255-11.975-11.583-7.327-.384-13.389 5.444-13.389 12.687 0 3.779 1.653 7.169 4.272 9.495.82.729 1.33 1.745 1.508 2.827z" fill="#6bdddd"/><path d="m207.264 240.028c.34 2.074 3.324 2.074 3.664 0l5.094-31.064c.179-1.092.703-2.108 1.528-2.844 2.86-2.551 4.561-6.372 4.205-10.581-.528-6.243-5.718-11.255-11.975-11.583-7.327-.384-13.389 5.444-13.389 12.687 0 3.779 1.653 7.169 4.272 9.495.82.729 1.33 1.745 1.508 2.827z" fill="#6bdddd"/><path d="m152.142 7.317-13.928 108.034 7.311 7.275c4.652 4.629 7.648 10.664 8.522 17.168 1.973 14.671-7.111 28.569-21.34 32.649l-15.412 4.419-69.091 32.54c-6.357 2.994-13.92-.032-16.456-6.585-1.54-3.978-.873-8.479 1.749-11.844 47.719-61.237 47.992-61.705 52.73-67.361 1.835-2.191 2.854-4.956 2.878-7.814l.89-109.002c.017-2.101 1.725-3.796 3.827-3.796h54.525c2.308 0 4.091 2.028 3.795 4.317z" fill="#f9cfcf"/><path d="m111.902 253h-37.059c-2.519 0-4.561-2.042-4.561-4.561v-3.136c0-2.519 2.042-4.561 4.561-4.561h37.059c2.519 0 4.561 2.042 4.561 4.561v3.136c0 2.519-2.042 4.561-4.561 4.561z" fill="#a4c9ff"/><path d="m84.821 240.742h17.104l-7.435-36.135c-.25-1.214-1.984-1.214-2.234 0z" fill="#a4c9ff"/><g fill="#f9a7a7"><circle cx="179.009" cy="187.579" r="6.591"/><circle cx="209.096" cy="196.644" r="6.591"/></g></g><g fill="#3762cc"><path d="m192.833 159.012c-21.887 0-40.84 14.639-46.396 35.708l-14.926 8.406c-1.42.8-2.268 2.25-2.268 3.88s.848 3.081 2.268 3.88l14.926 8.406c5.556 21.069 24.509 35.708 46.396 35.708 26.464 0 47.994-21.53 47.994-47.994s-21.53-47.994-47.994-47.994zm0 91.988c-20.331 0-37.9-13.778-42.726-33.506-.131-.538-.479-.996-.961-1.268l-15.672-8.826c-.31-.175-.31-.615 0-.79l15.672-8.826c.482-.271.83-.73.961-1.268 4.826-19.728 22.395-33.506 42.726-33.506 24.258 0 43.994 19.736 43.994 43.994s-19.736 43.996-43.994 43.996z"/><path d="m111.902 238.742h-8.347l-7.106-34.539c-.304-1.476-1.569-2.507-3.076-2.507s-2.772 1.031-3.076 2.508l-7.106 34.538h-8.347c-3.618 0-6.561 2.943-6.561 6.561v3.136c0 3.618 2.943 6.561 6.561 6.561h37.059c3.618 0 6.561-2.943 6.561-6.561v-3.136c-.001-3.617-2.944-6.561-6.562-6.561zm-18.529-29.639 6.098 29.64h-12.197zm21.09 39.336c0 1.412-1.149 2.561-2.561 2.561h-37.059c-1.412 0-2.561-1.149-2.561-2.561v-3.136c0-1.412 1.149-2.561 2.561-2.561h37.059c1.412 0 2.561 1.149 2.561 2.561z"/><path d="m133.259 174.365c15.072-4.322 24.861-19.299 22.771-34.838-.928-6.902-4.158-13.408-9.094-18.319l-6.612-6.58 13.802-107.055c.214-1.661-.297-3.335-1.404-4.593-1.106-1.259-2.701-1.98-4.375-1.98h-54.525c-3.187 0-5.801 2.593-5.827 5.78l-.89 109.001c-.019 2.388-.875 4.712-2.411 6.546-3.745 4.47-4.66 5.646-28.109 35.754-6.381 8.193-14.432 18.53-24.665 31.662-3.04 3.901-3.82 9.188-2.037 13.795 1.409 3.639 4.295 6.558 7.918 8.008s7.725 1.328 11.255-.335l68.945-32.471zm-16.816.688-69.091 32.54c-2.566 1.21-5.43 1.294-8.065.24-2.634-1.054-4.649-3.092-5.674-5.738-1.279-3.304-.719-7.095 1.462-9.893 10.233-13.132 18.284-23.47 24.665-31.663 23.407-30.055 24.321-31.228 28.02-35.644 2.13-2.543 3.317-5.769 3.344-9.082l.89-109.001c.008-.999.828-1.812 1.828-1.812h54.525c.533 0 1.02.22 1.372.621s.508.912.44 1.441l-13.928 108.034c-.08.617.132 1.235.573 1.673l7.311 7.275c4.315 4.294 7.139 9.983 7.951 16.017 1.827 13.586-6.732 26.681-19.91 30.46l-15.412 4.419c-.103.029-.203.067-.301.113z"/><path d="m179.798 172.895c-4.08-.218-7.955 1.211-10.91 4.016-2.957 2.806-4.584 6.594-4.584 10.668 0 4.193 1.802 8.199 4.945 10.991.445.396.751.983.862 1.655l5.093 31.062c.312 1.903 1.877 3.232 3.806 3.232s3.494-1.329 3.806-3.232l5.094-31.064c.109-.668.424-1.263.886-1.675 3.487-3.111 5.261-7.573 4.866-12.242-.616-7.264-6.576-13.03-13.864-13.411zm6.334 22.668c-1.143 1.02-1.914 2.445-2.17 4.013l-4.953 30.198-4.951-30.197c-.259-1.575-1.023-2.996-2.153-3.998-2.288-2.033-3.601-4.949-3.601-8 0-2.966 1.186-5.724 3.338-7.767 2.01-1.907 4.605-2.938 7.363-2.938.193 0 .388.005.583.015 5.303.278 9.64 4.471 10.087 9.754.288 3.403-1.004 6.654-3.543 8.92z"/><path d="m209.885 181.96c-4.083-.217-7.954 1.212-10.909 4.016-2.957 2.806-4.584 6.594-4.584 10.668 0 4.194 1.802 8.2 4.944 10.991.445.396.751.983.862 1.655l5.093 31.062c.312 1.903 1.877 3.232 3.806 3.232s3.494-1.329 3.806-3.232l5.094-31.064c.109-.668.424-1.262.886-1.675 3.487-3.111 5.261-7.573 4.866-12.242-.616-7.264-6.576-13.03-13.864-13.411zm6.334 22.668c-1.143 1.02-1.914 2.445-2.171 4.013l-4.953 30.198-4.951-30.197c-.259-1.575-1.023-2.995-2.153-3.998-2.288-2.033-3.601-4.948-3.601-8 0-2.966 1.186-5.724 3.338-7.767 2.01-1.907 4.605-2.938 7.363-2.938.193 0 .388.005.583.015 5.303.278 9.64 4.471 10.087 9.754.289 3.403-1.003 6.654-3.542 8.92z"/></g></g></svg>