<svg id="Layer_1" enable-background="new 0 0 256 256" height="512" viewBox="0 0 256 256" width="512" xmlns="http://www.w3.org/2000/svg"><g><path d="m213.542 206.002h-181.637c-8.537 0-15.458-6.921-15.458-15.458v-125.359h212.553v125.358c0 8.538-6.921 15.459-15.458 15.459z" fill="#a4c9ff"/><path d="m229 65.185h-212.553v-25.779c0-8.537 6.921-15.458 15.458-15.458h181.636c8.537 0 15.458 6.921 15.458 15.458v25.779z" fill="#f9a7a7"/><g fill="#e0ebfc"><path d="m114.734 113.746h-24.011c-1.56 0-2.825-1.265-2.825-2.825v-24.01c0-1.56 1.265-2.825 2.825-2.825h24.011c1.56 0 2.825 1.265 2.825 2.825v24.011c0 1.56-1.265 2.824-2.825 2.824z"/><path d="m157.58 113.746h-24.011c-1.56 0-2.825-1.265-2.825-2.825v-24.01c0-1.56 1.265-2.825 2.825-2.825h24.011c1.56 0 2.825 1.265 2.825 2.825v24.011c0 1.56-1.265 2.824-2.825 2.824z"/><path d="m200.426 113.746h-24.011c-1.56 0-2.825-1.265-2.825-2.825v-24.01c0-1.56 1.265-2.825 2.825-2.825h24.011c1.56 0 2.825 1.265 2.825 2.825v24.011c0 1.56-1.264 2.824-2.825 2.824z"/></g><g fill="#e0ebfc"><path d="m114.734 151.192h-24.011c-1.56 0-2.825-1.265-2.825-2.825v-24.011c0-1.56 1.265-2.825 2.825-2.825h24.011c1.56 0 2.825 1.265 2.825 2.825v24.011c0 1.56-1.265 2.825-2.825 2.825z"/><path d="m157.58 151.192h-24.011c-1.56 0-2.825-1.265-2.825-2.825v-24.011c0-1.56 1.265-2.825 2.825-2.825h24.011c1.56 0 2.825 1.265 2.825 2.825v24.011c0 1.56-1.265 2.825-2.825 2.825z"/><path d="m200.426 151.192h-24.011c-1.56 0-2.825-1.265-2.825-2.825v-24.011c0-1.56 1.265-2.825 2.825-2.825h24.011c1.56 0 2.825 1.265 2.825 2.825v24.011c0 1.56-1.264 2.825-2.825 2.825z"/><path d="m69.031 151.192h-24.011c-1.56 0-2.825-1.265-2.825-2.825v-24.011c0-1.56 1.265-2.825 2.825-2.825h24.011c1.56 0 2.825 1.265 2.825 2.825v24.011c0 1.56-1.264 2.825-2.825 2.825z"/></g><g fill="#e0ebfc"><path d="m114.734 188.637h-24.011c-1.56 0-2.825-1.265-2.825-2.825v-24.011c0-1.56 1.265-2.825 2.825-2.825h24.011c1.56 0 2.825 1.265 2.825 2.825v24.011c0 1.56-1.265 2.825-2.825 2.825z"/><path d="m157.58 188.637h-24.011c-1.56 0-2.825-1.265-2.825-2.825v-24.011c0-1.56 1.265-2.825 2.825-2.825h24.011c1.56 0 2.825 1.265 2.825 2.825v24.011c0 1.56-1.265 2.825-2.825 2.825z"/><path d="m69.031 188.637h-24.011c-1.56 0-2.825-1.265-2.825-2.825v-24.011c0-1.56 1.265-2.825 2.825-2.825h24.011c1.56 0 2.825 1.265 2.825 2.825v24.011c0 1.56-1.264 2.825-2.825 2.825z"/></g><g><path d="m139.742 148.65c-.087 0-.174-.004-.261-.012-.859-.077-1.639-.532-2.13-1.24l-6.714-9.693c-.915-1.32-.586-3.132.735-4.046 1.32-.915 3.132-.585 4.046.735l4.731 6.829 16.192-16.192c1.135-1.136 2.977-1.136 4.112 0 1.136 1.136 1.136 2.977 0 4.112l-18.655 18.655c-.548.548-1.288.852-2.056.852z" fill="#4671c6"/></g><g><path d="m96.414 148.65c-.087 0-.174-.004-.261-.012-.859-.077-1.639-.532-2.13-1.24l-6.714-9.693c-.915-1.32-.586-3.132.735-4.046 1.32-.915 3.132-.585 4.046.735l4.731 6.829 16.192-16.192c1.135-1.136 2.977-1.136 4.112 0 1.136 1.136 1.136 2.977 0 4.112l-18.655 18.655c-.547.548-1.288.852-2.056.852z" fill="#4671c6"/></g><g><path d="m50.565 148.65c-.087 0-.174-.004-.261-.012-.859-.077-1.639-.532-2.13-1.24l-6.714-9.693c-.915-1.32-.586-3.132.735-4.046 1.32-.915 3.132-.585 4.046.735l4.731 6.829 16.192-16.192c1.135-1.136 2.977-1.136 4.112 0 1.136 1.136 1.136 2.977 0 4.112l-18.655 18.655c-.548.548-1.289.852-2.056.852z" fill="#4671c6"/></g><g fill="#f9cfcf"><path d="m98.427 52.157c-4.911 0-8.892-3.981-8.892-8.892v-27.946c0-4.911 3.981-8.892 8.892-8.892 4.911 0 8.892 3.981 8.892 8.892v27.946c0 4.911-3.981 8.892-8.892 8.892z"/><path d="m49.834 52.157c-4.911 0-8.892-3.981-8.892-8.892v-27.946c0-4.911 3.981-8.892 8.892-8.892 4.911 0 8.892 3.981 8.892 8.892v27.946c0 4.911-3.981 8.892-8.892 8.892z"/><path d="m147.02 52.157c-4.911 0-8.892-3.981-8.892-8.892v-27.946c0-4.911 3.981-8.892 8.892-8.892 4.911 0 8.892 3.981 8.892 8.892v27.946c0 4.911-3.981 8.892-8.892 8.892z"/><path d="m195.613 52.157c-4.911 0-8.892-3.981-8.892-8.892v-27.946c0-4.911 3.981-8.892 8.892-8.892 4.911 0 8.892 3.981 8.892 8.892v27.946c-.001 4.911-3.982 8.892-8.892 8.892z"/></g><path d="m213.541 21.947h-7.037v-6.628c0-6.006-4.886-10.892-10.892-10.892s-10.892 4.886-10.892 10.892v6.628h-26.809v-6.628c0-6.006-4.887-10.892-10.893-10.892s-10.892 4.886-10.892 10.892v6.628h-26.809v-6.628c0-6.006-4.887-10.892-10.893-10.892s-10.889 4.886-10.889 10.892v6.628h-26.808v-6.628c0-6.006-4.887-10.892-10.893-10.892s-10.892 4.886-10.892 10.892v6.628h-7.037c-9.626 0-17.458 7.832-17.458 17.458v25.779 125.358c0 9.626 7.832 17.458 17.458 17.458h181.637c9.626 0 17.458-7.832 17.458-17.458v-125.357-25.779c0-9.627-7.832-17.459-17.459-17.459zm-24.82-6.628c0-3.8 3.092-6.892 6.892-6.892s6.892 3.092 6.892 6.892v8.628 19.318c0 3.8-3.092 6.892-6.892 6.892s-6.892-3.092-6.892-6.892v-19.318zm-48.593 0c0-3.8 3.092-6.892 6.892-6.892 3.801 0 6.893 3.092 6.893 6.892v8.628 19.318c0 3.8-3.092 6.892-6.893 6.892-3.8 0-6.892-3.092-6.892-6.892v-19.318zm-48.593 0c0-3.8 3.092-6.892 6.892-6.892 3.801 0 6.893 3.092 6.893 6.892v8.618c0 .003-.001.006-.001.01v19.318c0 3.8-3.092 6.892-6.892 6.892s-6.892-3.092-6.892-6.892v-19.318zm-48.593 0c0-3.8 3.092-6.892 6.892-6.892 3.801 0 6.893 3.092 6.893 6.892v8.628 19.318c0 3.8-3.092 6.892-6.893 6.892-3.8 0-6.892-3.092-6.892-6.892v-19.318zm-24.495 24.087c0-7.421 6.037-13.458 13.458-13.458h7.037v17.318c0 6.006 4.886 10.892 10.892 10.892s10.893-4.886 10.893-10.892v-17.319h26.809v17.318c0 6.006 4.886 10.892 10.892 10.892.375 0 .746-.019 1.112-.056 5.486-.559 9.781-5.205 9.781-10.836v-17.318h26.809v17.318c0 6.006 4.886 10.892 10.892 10.892s10.893-4.886 10.893-10.892v-17.318h26.809v17.318c0 6.006 4.886 10.892 10.892 10.892s10.892-4.886 10.892-10.892v-17.318h7.037c7.421 0 13.459 6.038 13.459 13.458v23.779h-208.557zm208.553 151.137c0 7.421-6.037 13.458-13.458 13.458h-181.637c-7.421 0-13.458-6.038-13.458-13.458v-123.358h208.553z" fill="#3762cc"/><g><g><path d="m212.889 170.812h13.914c1.213 0 2.197-.984 2.197-2.197v-61.514c0-1.213-.984-2.197-2.197-2.197h-13.914c-1.213 0-2.197.984-2.197 2.197v61.514c0 1.213.984 2.197 2.197 2.197z" fill="#e0ebfc"/><path d="m202.637 222.318h34.419c1.618 0 2.929-1.311 2.929-2.929v-94.713c0-3.64-2.951-6.591-6.591-6.591h-27.096c-3.64 0-6.591 2.951-6.591 6.591v94.713c.001 1.618 1.312 2.929 2.93 2.929z" fill="#e0ebfc"/><path d="m232.539 193.929v-65.831c0-1.168-.947-2.115-2.115-2.115h-21.154c-1.168 0-2.115.947-2.115 2.115v65.831z" fill="#a4c9ff"/><path d="m214.354 200.117h10.985v46.827h-10.985z" fill="#6bdddd"/><g fill="#4671c6"><path d="m237.056 249.573h-34.419c-1.618 0-2.929-1.311-2.929-2.929v-5.126c0-1.618 1.311-2.929 2.929-2.929h34.419c1.618 0 2.929 1.311 2.929 2.929v5.126c0 1.617-1.312 2.929-2.929 2.929z"/><path d="m232.539 201.321v-7.392h-25.385v7.392c0 1.168.947 2.115 2.115 2.115h21.154c1.169.001 2.116-.946 2.116-2.115z"/></g></g><path d="m233.394 116.085h-2.394v-8.985c0-2.314-1.883-4.197-4.197-4.197h-4.956v-27.38c0-1.104-.896-2-2-2s-2 .896-2 2v27.38h-4.957c-2.314 0-4.197 1.883-4.197 4.197v8.985h-2.394c-4.737 0-8.591 3.854-8.591 8.591v94.712c0 2.718 2.211 4.93 4.929 4.93h9.717v12.27h-9.717c-2.718 0-4.929 2.211-4.929 4.929v5.126c0 2.718 2.211 4.93 4.929 4.93h34.419c2.718 0 4.929-2.211 4.929-4.93v-5.126c0-2.718-2.211-4.929-4.929-4.929h-9.717v-12.27h9.717c2.718 0 4.929-2.211 4.929-4.93v-94.712c-.001-4.737-3.854-8.591-8.591-8.591zm-20.702-8.984c0-.108.089-.197.197-.197h13.913c.108 0 .197.088.197.197v8.985h-14.308v-8.985zm25.292 134.416v5.126c0 .513-.417.93-.929.93h-34.419c-.512 0-.929-.417-.929-.93v-5.126c0-.512.417-.929.929-.929h34.419c.512 0 .929.417.929.929zm-14.645-4.929h-6.985v-12.27h6.985zm2-35.151h-10.985-5.084c-.064 0-.116-.052-.116-.115v-5.393h21.386v5.393c0 .063-.052.115-.115.115zm-2 4v14.882h-6.985v-14.882zm13.717 14.881h-9.717v-14.882h3.085c2.27 0 4.115-1.846 4.115-4.115v-7.393c0-1.104-.896-2-2-2h-25.386c-1.104 0-2 .896-2 2v7.393c0 2.269 1.847 4.115 4.116 4.115h3.084v14.882h-9.717c-.512 0-.929-.417-.929-.93v-94.712c0-2.531 2.06-4.591 4.591-4.591h4.394 18.308 4.394c2.531 0 4.591 2.06 4.591 4.591v11.182h-14.477c-1.104 0-2 .896-2 2s.896 2 2 2h14.477v10.646h-14.477c-1.104 0-2 .896-2 2s.896 2 2 2h14.477v10.646h-14.477c-1.104 0-2 .896-2 2s.896 2 2 2h14.477v10.646h-14.477c-1.104 0-2 .896-2 2s.896 2 2 2h14.477v35.592c-.001.513-.418.93-.929.93z" fill="#3762cc"/></g></g></svg>