<svg id="Layer_1" enable-background="new 0 0 256 256" height="512" viewBox="0 0 256 256" width="512" xmlns="http://www.w3.org/2000/svg"><g><g><path d="m32.495 137.097h18.94c1.652 0 2.99-1.339 2.99-2.99v-83.734c0-1.652-1.339-2.99-2.99-2.99h-18.94c-1.652 0-2.99 1.339-2.99 2.99v83.734c0 1.651 1.339 2.99 2.99 2.99z" fill="#e0ebfc"/><path d="m18.54 207.208h46.851c2.202 0 3.987-1.785 3.987-3.987v-128.924c0-4.955-4.017-8.971-8.971-8.971h-36.883c-4.955 0-8.971 4.017-8.971 8.971v128.923c-.001 2.202 1.785 3.988 3.987 3.988z" fill="#e0ebfc"/><path d="m61.21 170.657v-94.366c0-1.652-1.339-2.99-2.99-2.99h-32.509c-1.652 0-2.99 1.339-2.99 2.99v94.366z" fill="#a4c9ff"/><path d="m34.489 176.988h14.952v63.742h-14.952z" fill="#6bdddd"/><g fill="#4671c6"><path d="m65.391 248.206h-46.851c-2.202 0-3.987-1.785-3.987-3.987v-6.978c0-2.202 1.785-3.987 3.987-3.987h46.851c2.202 0 3.987 1.785 3.987 3.987v6.978c0 2.202-1.785 3.987-3.987 3.987z"/><path d="m61.21 182.287v-11.63h-38.489v11.63c0 1.101.893 1.994 1.994 1.994h34.502c1.1 0 1.993-.893 1.993-1.994z"/></g></g><path d="m150.623 248.206h29.423c2.601 0 4.709-2.108 4.709-4.709v-141.017c0-2.601-2.108-4.709-4.709-4.709h-29.423c-2.601 0-4.709 2.108-4.709 4.709v141.016c0 2.602 2.108 4.71 4.709 4.71z" fill="#a4c9ff"/><path d="m92.891 248.206h31.501c2.027 0 3.67-1.643 3.67-3.67v-118.546c0-2.027-1.643-3.67-3.67-3.67h-31.501c-2.027 0-3.67 1.643-3.67 3.67v118.546c0 2.027 1.643 3.67 3.67 3.67z" fill="#6bdddd"/><path d="m237.448 248.206h-30.841c-2.209 0-4-1.791-4-4v-174.875c0-2.209 1.791-4 4-4h30.841c2.209 0 4 1.791 4 4v174.875c0 2.209-1.791 4-4 4z" fill="#4671c6"/><path d="m230.924 7.969-19.609 7.602c-1.737.673-2.158 2.939-.779 4.191l3.88 3.525-51.165 53.161-56.123 26.91c-1.743.835-2.479 2.926-1.643 4.669.602 1.255 1.854 1.988 3.158 1.988.507 0 1.023-.111 1.511-.345l56.693-27.183c.377-.181.719-.427 1.009-.729l51.743-53.761 4.852 4.408c1.379 1.253 3.594.617 4.098-1.176l5.694-20.245c.559-1.989-1.393-3.762-3.319-3.015z" fill="#f9a7a7"/><g fill="#3762cc"><path d="m60.407 63.325h-3.981v-12.952c0-2.752-2.239-4.99-4.991-4.99h-7.469v-34.927c0-1.104-.896-2-2-2s-2 .896-2 2v34.927h-7.47c-2.752 0-4.991 2.238-4.991 4.99v12.952h-3.981c-6.049 0-10.971 4.922-10.971 10.972v128.924c0 3.302 2.686 5.987 5.987 5.987h13.949v22.046h-13.949c-3.301 0-5.987 2.686-5.987 5.987v6.978c0 3.302 2.686 5.987 5.987 5.987h46.851c3.301 0 5.987-2.686 5.987-5.987v-6.978c0-3.302-2.686-5.987-5.987-5.987h-13.95v-22.046h13.949c3.301 0 5.987-2.686 5.987-5.987v-128.924c.001-6.05-4.921-10.972-10.97-10.972zm-28.902-12.952c0-.546.444-.99.991-.99h18.939c.546 0 .991.444.991.99v12.952h-20.921zm33.886 184.881c1.096 0 1.987.892 1.987 1.987v6.978c0 1.096-.892 1.987-1.987 1.987h-46.851c-1.096 0-1.987-.892-1.987-1.987v-6.978c0-1.096.892-1.987 1.987-1.987zm-17.95-26.046v22.046h-10.952v-22.046zm-10.952-4v-18.928h10.952v18.928zm-11.768-22.921v-9.63h34.489v9.623c-1.301.001-33.407.007-34.489.007zm22.228-88.047h12.261v15.937h-12.261c-1.104 0-2 .896-2 2s.896 2 2 2h12.261v15.937h-12.261c-1.104 0-2 .896-2 2s.896 2 2 2h12.261v15.937h-12.261c-1.104 0-2 .896-2 2s.896 2 2 2h12.261v14.607h-34.489v-92.367c0-.547.444-.991.991-.991h32.508c.546 0 .991.444.991.991v13.949h-12.262c-1.104 0-2 .896-2 2s.896 2 2 2zm20.429 108.981c0 1.096-.892 1.987-1.987 1.987h-13.95v-18.928h7.775c2.202 0 3.994-1.791 3.994-3.993v-11.63-16.607h4.168zm0-53.171h-4.168v-15.937h4.168zm0-19.937h-4.168v-15.937h4.168zm0-19.936h-4.168v-15.937h4.168zm0-19.937h-4.168v-13.949c0-2.752-2.239-4.991-4.991-4.991h-32.508c-2.752 0-4.991 2.239-4.991 4.991v94.366 11.63c0 2.202 1.792 3.993 3.994 3.993h7.775v18.928h-13.949c-1.096 0-1.987-.892-1.987-1.987v-128.924c0-3.844 3.127-6.972 6.971-6.972h36.883c3.844 0 6.971 3.128 6.971 6.972z"/><path d="m180.045 95.771h-29.423c-3.699 0-6.709 3.01-6.709 6.709v141.017c0 3.699 3.01 6.709 6.709 6.709h29.423c3.699 0 6.709-3.01 6.709-6.709v-141.017c0-3.699-3.009-6.709-6.709-6.709zm2.709 147.726c0 1.494-1.215 2.709-2.709 2.709h-29.423c-1.494 0-2.709-1.215-2.709-2.709v-141.017c0-1.494 1.215-2.709 2.709-2.709h29.423c1.494 0 2.709 1.215 2.709 2.709z"/><path d="m124.392 120.32h-31.501c-3.126 0-5.67 2.544-5.67 5.67v118.546c0 3.126 2.543 5.67 5.67 5.67h31.501c3.126 0 5.67-2.544 5.67-5.67v-118.546c0-3.126-2.544-5.67-5.67-5.67zm1.67 124.216c0 .921-.749 1.67-1.67 1.67h-31.501c-.921 0-1.67-.749-1.67-1.67v-118.546c0-.921.749-1.67 1.67-1.67h31.501c.921 0 1.67.749 1.67 1.67z"/><path d="m237.447 63.331h-30.841c-3.309 0-6 2.691-6 6v174.875c0 3.309 2.691 6 6 6h30.841c3.309 0 6-2.691 6-6v-174.875c0-3.309-2.691-6-6-6zm2 180.875c0 1.103-.897 2-2 2h-30.841c-1.103 0-2-.897-2-2v-174.875c0-1.103.897-2 2-2h30.841c1.103 0 2 .897 2 2z"/></g></g></svg>