<svg id="Layer_1" enable-background="new 0 0 256 256" height="512" viewBox="0 0 256 256" width="512" xmlns="http://www.w3.org/2000/svg"><g><g><g><path d="m136.938 134.668-15.642-15.642c-1.364-1.364-3.576-1.364-4.94 0l-69.153 69.154c-1.364 1.364-1.364 3.576 0 4.94l15.642 15.642c1.364 1.364 3.576 1.364 4.94 0l69.153-69.153c1.364-1.366 1.364-3.577 0-4.941z" fill="#e0ebfc"/><path d="m206.366 88.291-38.693-38.693c-1.819-1.819-4.767-1.819-6.586 0l-106.474 106.475c-4.092 4.092-4.092 10.727 0 14.819l30.46 30.46c4.092 4.092 10.727 4.092 14.819 0l106.474-106.475c1.819-1.818 1.819-4.767 0-6.586z" fill="#e0ebfc"/><path d="m140.94 83.237-77.935 77.935c-1.364 1.364-1.364 3.576 0 4.94l26.847 26.847c1.364 1.364 3.576 1.364 4.94 0l77.935-77.935z" fill="#a4c9ff"/><path d="m179.651 30.357h17.464v74.448h-17.464z" fill="#6bdddd" transform="matrix(-.707 -.707 .707 -.707 273.803 248.575)"/><g fill="#4671c6"><path d="m201.533 15.739 38.693 38.693c1.819 1.819 1.819 4.767 0 6.586l-5.763 5.763c-1.819 1.819-4.767 1.819-6.586 0l-38.693-38.693c-1.819-1.819-1.819-4.767 0-6.586l5.763-5.763c1.818-1.819 4.767-1.819 6.586 0z"/><path d="m150.545 73.633-9.605 9.605 31.787 31.787 9.605-9.605c.909-.909.909-2.384 0-3.293l-28.494-28.494c-.91-.91-2.384-.91-3.293 0z"/></g></g><path d="m182.221 154.35-21.267 43.198c-5.551 11.276-3.636 24.801 4.828 34.092 12.127 13.312 33.075 13.312 45.202 0 8.464-9.291 10.379-22.816 4.828-34.092l-21.267-43.198c-2.517-5.113-9.807-5.113-12.324 0z" fill="#a4c9ff"/><path d="m205.753 204.982h-11.267v-11.267c0-1.185-.961-2.146-2.146-2.146h-7.914c-1.185 0-2.146.961-2.146 2.146v11.267h-11.267c-1.185 0-2.146.961-2.146 2.146v7.914c0 1.185.961 2.146 2.146 2.146h11.267v11.267c0 1.185.961 2.146 2.146 2.146h7.914c1.185 0 2.146-.961 2.146-2.146v-11.267h11.267c1.185 0 2.146-.961 2.146-2.146v-7.914c0-1.185-.961-2.146-2.146-2.146z" fill="#f9a7a7"/></g><g><g><path d="m188.385 243.625c-9.145 0-17.921-3.877-24.08-10.637-9.08-9.968-11.1-24.226-5.144-36.322l21.267-43.199c1.503-3.054 4.552-4.951 7.957-4.951s6.453 1.897 7.957 4.951l21.267 43.199c5.956 12.097 3.937 26.354-5.144 36.322-6.159 6.76-14.936 10.637-24.08 10.637zm-25.635-45.193c-5.224 10.611-3.453 23.118 4.512 31.862 5.402 5.93 13.101 9.331 21.123 9.331s15.721-3.401 21.123-9.331c7.965-8.744 9.737-21.25 4.512-31.862l-21.267-43.199c-.838-1.702-2.471-2.718-4.368-2.718s-3.53 1.016-4.368 2.718z" fill="#3762cc"/></g><g><path d="m192.342 232.601h-7.914c-2.287 0-4.146-1.86-4.146-4.146v-9.267h-9.267c-2.286 0-4.146-1.86-4.146-4.146v-7.914c0-2.286 1.86-4.146 4.146-4.146h9.267v-9.267c0-2.286 1.86-4.146 4.146-4.146h7.914c2.286 0 4.146 1.86 4.146 4.146v9.267h9.267c2.286 0 4.146 1.86 4.146 4.146v7.914c0 2.286-1.86 4.146-4.146 4.146h-9.267v9.267c0 2.286-1.86 4.146-4.146 4.146zm-21.327-25.619c-.081 0-.146.065-.146.146v7.914c0 .081.065.146.146.146h11.267c1.104 0 2 .896 2 2v11.267c0 .081.066.146.146.146h7.914c.081 0 .146-.066.146-.146v-11.267c0-1.104.896-2 2-2h11.267c.081 0 .146-.065.146-.146v-7.914c0-.081-.065-.146-.146-.146h-11.267c-1.104 0-2-.896-2-2v-11.267c0-.081-.065-.146-.146-.146h-7.914c-.081 0-.146.065-.146.146v11.267c0 1.104-.896 2-2 2z" fill="#3762cc"/></g><path d="m241.641 53.018-38.693-38.693c-2.595-2.596-6.818-2.596-9.415 0l-5.763 5.763c-2.595 2.596-2.595 6.819 0 9.415l11.758 11.758-18.682 18.682-11.758-11.758c-2.596-2.595-6.819-2.595-9.415 0-12.183 12.183-96.137 96.138-106.473 106.474-2.357 2.356-3.655 5.49-3.655 8.823s1.298 6.467 3.655 8.823l3.525 3.525-10.935 10.935c-1.038 1.038-1.609 2.417-1.609 3.884s.572 2.846 1.609 3.884l6.407 6.407-39.2 39.2c-.781.781-.781 2.047 0 2.828.78.781 2.048.781 2.828 0l39.2-39.2 6.406 6.406c1.038 1.038 2.417 1.609 3.884 1.609s2.847-.572 3.884-1.609l10.935-10.935 3.525 3.525c2.356 2.357 5.49 3.655 8.823 3.655s6.467-1.298 8.823-3.655l106.477-106.472c2.596-2.596 2.596-6.819 0-9.415l-11.758-11.758 18.682-18.682 11.758 11.758c1.297 1.298 3.002 1.947 4.707 1.947s3.41-.649 4.708-1.947l5.763-5.763c2.595-2.596 2.595-6.819-.001-9.414zm-175.269 154.329c-.563.564-1.546.564-2.111 0l-15.642-15.642c-.585-.586-.583-1.528 0-2.111l10.935-10.935 17.753 17.753zm96.13-156.334c1.036-1.036 2.722-1.036 3.758 0l11.758 11.758-16.107 16.107-6.658-6.658c-1.691-1.692-4.43-1.693-6.121 0-13.695 13.695-8.108 8.107-23.558 23.558l-3.918-3.918zm-73.132 107.35-10.363-10.363 13.637-13.637 10.363 10.363c.781.781 2.047.782 2.828 0 .781-.781.781-2.047 0-2.828l-10.363-10.363 13.637-13.637 10.363 10.363c.78.781 2.048.781 2.828 0 .781-.781.781-2.047 0-2.828l-10.363-10.363 13.637-13.637 10.363 10.363c.781.781 2.047.782 2.828 0 .781-.781.781-2.047 0-2.828l-10.363-10.363 12.539-12.539 28.958 28.958-76.52 76.521c-.582.583-1.53.582-2.112 0l-26.847-26.847c-.584-.585-.584-1.527 0-2.111l11.758-11.758 10.363 10.363c.78.781 2.048.781 2.828 0 .782-.781.782-2.048.001-2.829zm-3.472-30.746 3.918 3.918-13.637 13.637-3.918-3.918zm16.465-16.465 3.918 3.918-13.637 13.637-3.918-3.918zm16.465-16.465 3.918 3.918-13.637 13.637-3.918-3.918zm53.901 17.509-28.959-28.959 8.19-8.19c.159-.159.304-.159.464 0l7.549 7.549c.183.426 12.675 13.086 13.395 13.395l7.549 7.549c.08.08.096.17.096.232s-.017.152-.096.232zm-7.989-30.491 16.107-16.107 9.521 9.521-16.108 16.107zm40.214 8c1.036 1.036 1.036 2.722 0 3.758l-106.475 106.475c-1.602 1.602-3.73 2.483-5.995 2.483s-4.394-.882-5.995-2.483l-4.939-4.939-20.582-20.582-4.939-4.939c-1.602-1.602-2.483-3.73-2.483-5.995s.882-4.394 2.483-5.995l13.405-13.405 3.917 3.917-11.758 11.758c-1.038 1.038-1.609 2.417-1.609 3.884s.571 2.846 1.609 3.884l26.847 26.847c1.071 1.071 2.478 1.606 3.884 1.606 1.407 0 2.813-.536 3.884-1.606 3.611-3.611 83.771-83.771 87.539-87.539 1.692-1.691 1.692-4.43 0-6.122l-6.658-6.658 16.107-16.107zm-11.758-17.414-9.521-9.521 18.634-18.634 9.521 9.521zm45.617-12.687-5.763 5.762c-1.037 1.036-2.722 1.036-3.758 0l-38.692-38.692c-1.036-1.036-1.036-2.722 0-3.758l5.763-5.763c1.036-1.036 2.723-1.036 3.758 0l38.693 38.693c1.035 1.036 1.035 2.722-.001 3.758z" fill="#3762cc"/></g></g></svg>