<svg id="Layer_1" enable-background="new 0 0 256 256" height="512" viewBox="0 0 256 256" width="512" xmlns="http://www.w3.org/2000/svg"><g><g><path d="m48.678 135.766h18.94c1.652 0 2.99-1.339 2.99-2.99v-83.734c0-1.652-1.339-2.99-2.99-2.99h-18.94c-1.652 0-2.99 1.339-2.99 2.99v83.734c-.001 1.652 1.338 2.99 2.99 2.99z" fill="#e0ebfc"/><path d="m34.722 205.877h46.851c2.202 0 3.987-1.785 3.987-3.987v-128.924c0-4.955-4.017-8.971-8.971-8.971h-36.883c-4.955 0-8.971 4.017-8.971 8.971v128.923c0 2.203 1.785 3.988 3.987 3.988z" fill="#e0ebfc"/><path d="m77.392 169.326v-94.366c0-1.652-1.339-2.99-2.99-2.99h-32.508c-1.652 0-2.99 1.339-2.99 2.99v94.366z" fill="#a4c9ff"/><path d="m50.671 175.657h14.952v63.742h-14.952z" fill="#6bdddd"/><g fill="#4671c6"><path d="m81.573 246.875h-46.851c-2.202 0-3.987-1.785-3.987-3.987v-6.978c0-2.202 1.785-3.987 3.987-3.987h46.851c2.202 0 3.987 1.785 3.987 3.987v6.978c0 2.202-1.785 3.987-3.987 3.987z"/><path d="m77.392 180.956v-11.63h-38.489v11.63c0 1.101.893 1.994 1.994 1.994h34.502c1.1 0 1.993-.893 1.993-1.994z"/></g></g><path d="m169.015 78c-26.444 0-48.614 18.252-54.629 42.842l-19.167 10.794c-2.037 1.147-2.037 4.081 0 5.228l19.167 10.794c6.015 24.59 28.185 42.842 54.629 42.842 31.066 0 56.25-25.184 56.25-56.25s-25.184-56.25-56.25-56.25z" fill="#f9a7a7"/><path d="m213.265 134.25c0-24.399-19.851-44.25-44.25-44.25v88.5c24.399 0 44.25-19.851 44.25-44.25z" fill="#4671c6"/><path d="m169.015 90c-24.399 0-44.25 19.851-44.25 44.25s19.851 44.25 44.25 44.25z" fill="#e0ebfc"/><g><path d="m160.341 133.178c.588.568.882 1.283.882 2.144 0 .862-.294 1.586-.882 2.173-.587.587-1.313.881-2.173.881h-8.224v8.282c0 .862-.294 1.577-.881 2.144-.588.568-1.313.852-2.174.852s-1.586-.283-2.174-.852c-.587-.567-.881-1.282-.881-2.144v-8.282h-8.224c-.861 0-1.586-.294-2.173-.881-.588-.587-.882-1.312-.882-2.173s.294-1.576.882-2.144c.587-.567 1.312-.852 2.173-.852h8.224v-8.282c0-.861.294-1.586.881-2.173.588-.587 1.313-.881 2.174-.881s1.586.294 2.174.881c.587.587.881 1.313.881 2.173v8.282h8.224c.861 0 1.586.285 2.173.852z" fill="#4671c6"/></g><g><path d="m181.213 136.438c0-2.31 1.39-3.466 4.17-3.466h11.514c2.78 0 4.17 1.156 4.17 3.466 0 2.311-1.39 3.466-4.17 3.466h-11.514c-2.78 0-4.17-1.155-4.17-3.466z" fill="#e0ebfc"/></g><g fill="#3762cc"><path d="m76.589 61.995h-3.981v-12.953c0-2.752-2.238-4.991-4.99-4.991h-7.47v-34.926c0-1.104-.896-2-2-2s-2 .896-2 2v34.926h-7.47c-2.752 0-4.99 2.239-4.99 4.991v12.952h-3.981c-6.05 0-10.972 4.922-10.972 10.972v128.924c0 3.301 2.686 5.987 5.987 5.987h13.95v22.045h-13.95c-3.302 0-5.987 2.686-5.987 5.987v6.978c0 3.301 2.686 5.987 5.987 5.987h46.852c3.302 0 5.987-2.686 5.987-5.987v-6.978c0-3.301-2.686-5.987-5.987-5.987h-13.95v-22.045h13.949c3.302 0 5.987-2.686 5.987-5.987v-128.924c.001-6.049-4.921-10.971-10.971-10.971zm-13.457 90.724h12.26v14.607h-34.489v-92.366c0-.546.444-.991.99-.991h32.508c.546 0 .99.444.99.991v13.949h-12.26c-1.104 0-2 .896-2 2s.896 2 2 2h12.26v15.937h-12.26c-1.104 0-2 .896-2 2s.896 2 2 2h12.26v15.937h-12.26c-1.104 0-2 .896-2 2s.896 2 2 2h12.26v15.937h-12.26c-1.104 0-2 .896-2 2s.896 1.999 2.001 1.999zm.492 51.158h-10.952v-18.927h10.952zm-22.721-22.921v-9.63h34.488v9.624c-1.298 0-33.408.006-34.488.006zm38.489-72.11v-15.937h4.169v15.937zm4.169 4v15.937h-4.169v-15.937zm-4.169 19.936h4.169v15.937h-4.169zm-31.704-83.74c0-.546.444-.991.99-.991h18.939c.546 0 .99.444.99.991v12.952h-20.92v-12.952zm-12.966 154.835c-1.096 0-1.987-.892-1.987-1.987v-128.924c0-3.844 3.128-6.972 6.972-6.972h36.883c3.844 0 6.972 3.127 6.972 6.972v15.943h-4.169v-13.949c0-2.752-2.238-4.991-4.99-4.991h-32.509c-2.752 0-4.99 2.239-4.99 4.991v94.366 11.63c0 2.202 1.791 3.994 3.993 3.994h7.775v18.927zm48.839 32.033v6.978c0 1.096-.892 1.987-1.987 1.987h-46.852c-1.096 0-1.987-.892-1.987-1.987v-6.978c0-1.096.892-1.987 1.987-1.987h46.852c1.095-.001 1.987.891 1.987 1.987zm-19.937-5.988h-10.952v-22.045h10.952zm17.949-26.045h-13.949v-18.927h7.774c2.202 0 3.993-1.792 3.993-3.994v-11.63-16.607h4.169v49.171c.001 1.095-.891 1.987-1.987 1.987z"/><path d="m169.016 76c-26.626 0-49.677 17.853-56.359 43.521l-18.419 10.373c-1.595.898-2.546 2.527-2.546 4.357s.951 3.458 2.546 4.357l18.419 10.373c6.683 25.668 29.733 43.521 56.359 43.521 32.119 0 58.25-26.131 58.25-58.25s-26.131-58.252-58.25-58.252zm0 112.5c-25.07 0-46.736-16.99-52.688-41.317-.131-.538-.479-.996-.961-1.268l-19.167-10.793c-.679-.382-.679-1.361 0-1.743l19.167-10.793c.481-.271.83-.73.961-1.268 5.951-24.328 27.617-41.318 52.688-41.318 29.913 0 54.25 24.336 54.25 54.25s-24.337 54.25-54.25 54.25z"/></g></g></svg>