<svg id="Layer_1" enable-background="new 0 0 256 256" height="512" viewBox="0 0 256 256" width="512" xmlns="http://www.w3.org/2000/svg"><g><path d="m169.015 78c-26.444 0-48.614 18.252-54.629 42.842l-19.167 10.794c-2.037 1.147-2.037 4.081 0 5.228l19.167 10.794c6.015 24.59 28.185 42.842 54.629 42.842 31.066 0 56.25-25.184 56.25-56.25s-25.184-56.25-56.25-56.25z" fill="#f9a7a7"/><path d="m48.678 135.766h18.94c1.652 0 2.99-1.339 2.99-2.99v-83.734c0-1.652-1.339-2.99-2.99-2.99h-18.94c-1.652 0-2.99 1.339-2.99 2.99v83.734c-.001 1.652 1.338 2.99 2.99 2.99z" fill="#e0ebfc"/><path d="m34.722 205.877h46.851c2.202 0 3.987-1.785 3.987-3.987v-128.924c0-4.955-4.017-8.971-8.971-8.971h-36.883c-4.955 0-8.971 4.017-8.971 8.971v128.923c0 2.203 1.785 3.988 3.987 3.988z" fill="#e0ebfc"/><path d="m77.392 169.326v-94.366c0-1.652-1.339-2.99-2.99-2.99h-32.508c-1.652 0-2.99 1.339-2.99 2.99v94.366z" fill="#a4c9ff"/><path d="m50.671 175.657h14.952v63.742h-14.952z" fill="#6bdddd"/><path d="m81.573 246.875h-46.851c-2.202 0-3.987-1.785-3.987-3.987v-6.978c0-2.202 1.785-3.987 3.987-3.987h46.851c2.202 0 3.987 1.785 3.987 3.987v6.978c0 2.202-1.785 3.987-3.987 3.987z" fill="#4671c6"/><path d="m77.392 180.956v-11.63h-38.489v11.63c0 1.101.893 1.994 1.994 1.994h34.502c1.1 0 1.993-.893 1.993-1.994z" fill="#4671c6"/><circle cx="169.015" cy="134.25" fill="#e0ebfc" r="44.25"/><g><path d="m166.051 145.931c-.797-.765-1.29-1.878-1.48-3.344l-4.204-33.442c-.064-.318-.096-.765-.096-1.338 0-2.356.827-4.235 2.484-5.637 1.655-1.4 3.727-2.102 6.211-2.102 2.737 0 4.951.829 6.641 2.484 1.687 1.657 2.341 3.886 1.958 6.688l-4.3 33.347c-.128 1.466-.589 2.58-1.385 3.344-.798.764-1.768 1.146-2.914 1.146-1.147.001-2.119-.381-2.915-1.146zm-2.914 20.209c-1.528-1.56-2.293-3.519-2.293-5.876 0-2.356.765-4.314 2.293-5.876 1.529-1.561 3.472-2.341 5.829-2.341 2.355 0 4.299.781 5.828 2.341 1.528 1.562 2.293 3.52 2.293 5.876 0 2.357-.765 4.316-2.293 5.876-1.529 1.562-3.473 2.341-5.828 2.341-2.357 0-4.299-.78-5.829-2.341z" fill="#f9a7a7"/></g><g fill="#3762cc"><path d="m76.589 61.995h-3.981v-12.952c0-2.752-2.239-4.991-4.99-4.991h-7.469v-34.927c0-1.104-.896-2-2-2s-2 .896-2 2v34.927h-7.471c-2.751 0-4.99 2.239-4.99 4.991v12.952h-3.981c-6.049 0-10.971 4.922-10.971 10.971v128.924c0 3.302 2.686 5.987 5.987 5.987h13.949v22.046h-13.95c-3.301 0-5.987 2.686-5.987 5.987v6.978c0 3.302 2.686 5.987 5.987 5.987h46.851c3.301 0 5.987-2.686 5.987-5.987v-6.978c0-3.302-2.686-5.987-5.987-5.987h-13.949v-22.046h13.949c3.301 0 5.987-2.686 5.987-5.987v-128.924c.001-6.049-4.921-10.971-10.971-10.971zm-28.902-12.952c0-.547.444-.991.99-.991h18.94c.546 0 .99.444.99.991v12.951h-20.92zm33.886 184.88c1.096 0 1.987.892 1.987 1.987v6.978c0 1.096-.892 1.987-1.987 1.987h-46.851c-1.096 0-1.987-.892-1.987-1.987v-6.978c0-1.096.892-1.987 1.987-1.987zm-17.949-26.046v22.046h-10.953v-22.046zm-10.953-4v-18.928h10.953v18.928zm-11.768-22.921v-9.63h34.489v9.623c-1.302 0-33.404.007-34.489.007zm22.229-88.047h12.26v15.937h-12.26c-1.104 0-2 .896-2 2s.896 2 2 2h12.26v15.937h-12.26c-1.104 0-2 .896-2 2s.896 2 2 2h12.26v15.937h-12.26c-1.104 0-2 .896-2 2s.896 2 2 2h12.26v14.607h-34.489v-92.367c0-.546.444-.99.99-.99h32.508c.546 0 .991.444.991.99v13.949h-12.26c-1.104 0-2 .896-2 2s.895 2 2 2zm20.429 108.981c0 1.096-.892 1.987-1.987 1.987h-13.95v-18.928h7.774c2.202 0 3.994-1.791 3.994-3.993 0-9.746 0-6.523 0-28.237h4.168v49.171zm0-53.171h-4.168v-15.937h4.168zm0-19.937h-4.168v-15.937h4.168zm0-19.936h-4.168v-15.937h4.168zm0-19.937h-4.168v-13.949c0-2.752-2.239-4.99-4.991-4.99h-32.508c-2.751 0-4.99 2.238-4.99 4.99v105.996c0 2.202 1.792 3.993 3.994 3.993h7.774v18.928h-13.95c-1.096 0-1.987-.892-1.987-1.987v-128.924c0-3.844 3.127-6.971 6.971-6.971h36.883c3.844 0 6.972 3.127 6.972 6.971z"/><path d="m169.016 76c-26.626 0-49.677 17.853-56.358 43.521l-18.419 10.372c-1.595.897-2.546 2.526-2.546 4.356s.952 3.459 2.546 4.357l18.419 10.371c6.682 25.669 29.732 43.521 56.358 43.521 32.119 0 58.25-26.131 58.25-58.25s-26.131-58.248-58.25-58.248zm0 112.5c-25.07 0-46.736-16.99-52.687-41.318-.131-.537-.479-.996-.961-1.268l-19.167-10.792c-.68-.384-.681-1.36 0-1.743l19.167-10.793c.482-.271.83-.73.961-1.268 5.951-24.328 27.616-41.318 52.687-41.318 29.913 0 54.25 24.337 54.25 54.25s-24.337 54.25-54.25 54.25z"/></g></g></svg>