<svg id="Layer_1" enable-background="new 0 0 256 256" height="512" viewBox="0 0 256 256" width="512" xmlns="http://www.w3.org/2000/svg"><g><path d="m169.015 78c-26.444 0-48.614 18.252-54.629 42.842l-19.167 10.794c-2.037 1.147-2.037 4.081 0 5.228l19.167 10.794c6.015 24.59 28.185 42.842 54.629 42.842 31.066 0 56.25-25.184 56.25-56.25s-25.184-56.25-56.25-56.25z" fill="#6bdddd"/><path d="m48.678 135.766h18.94c1.652 0 2.99-1.339 2.99-2.99v-83.734c0-1.652-1.339-2.99-2.99-2.99h-18.94c-1.652 0-2.99 1.339-2.99 2.99v83.734c-.001 1.652 1.338 2.99 2.99 2.99z" fill="#e0ebfc"/><path d="m34.722 205.877h46.851c2.202 0 3.987-1.785 3.987-3.987v-128.924c0-4.955-4.017-8.971-8.971-8.971h-36.883c-4.955 0-8.971 4.017-8.971 8.971v128.923c0 2.203 1.785 3.988 3.987 3.988z" fill="#e0ebfc"/><path d="m77.392 169.326v-94.366c0-1.652-1.339-2.99-2.99-2.99h-32.508c-1.652 0-2.99 1.339-2.99 2.99v94.366z" fill="#a4c9ff"/><path d="m50.671 175.657h14.952v63.742h-14.952z" fill="#6bdddd"/><path d="m81.573 246.875h-46.851c-2.202 0-3.987-1.785-3.987-3.987v-6.978c0-2.202 1.785-3.987 3.987-3.987h46.851c2.202 0 3.987 1.785 3.987 3.987v6.978c0 2.202-1.785 3.987-3.987 3.987z" fill="#4671c6"/><path d="m77.392 180.956v-11.63h-38.489v11.63c0 1.101.893 1.994 1.994 1.994h34.502c1.1 0 1.993-.893 1.993-1.994z" fill="#4671c6"/><circle cx="169.015" cy="134.25" fill="#e0ebfc" r="44.25"/><path d="m189.719 114.848c-1.346 0-2.437-1.091-2.437-2.437v-4.215c0-.897-.727-1.625-1.625-1.625h-33.912c-.897 0-1.624.727-1.624 1.625v4.215c0 1.346-1.091 2.437-2.437 2.437h-4.298c-.897 0-1.625.727-1.625 1.625v19.249c0 6.51 2.023 12.859 5.79 18.169 3.468 4.888 8.262 8.682 13.817 10.933l7.333 2.972 7.333-2.972c5.555-2.251 10.349-6.045 13.817-10.933 3.767-5.31 5.79-11.659 5.79-18.169v-19.249c0-.897-.727-1.625-1.625-1.625z" fill="#4671c6"/><path d="m164.011 157.575c-4.112-1.667-7.644-4.461-10.212-8.08-2.799-3.946-4.279-8.589-4.279-13.428v-13.707h.214c4.042 0 7.331-3.288 7.331-7.331v-.139h23.275v.139c0 4.042 3.288 7.331 7.331 7.331h.214v13.707c0 4.839-1.48 9.482-4.279 13.428-2.568 3.62-6.099 6.414-10.212 8.08l-4.69 1.901z" fill="#a4c9ff"/><g><path d="m163.187 149.623c-.073 0-.146-.003-.219-.008-.89-.063-1.709-.51-2.245-1.224l-7.695-10.267c-1.019-1.36-.743-3.29.617-4.309 1.36-1.02 3.289-.744 4.31.617l5.565 7.426 16.214-16.214c1.201-1.202 3.152-1.202 4.352 0 1.202 1.202 1.202 3.151 0 4.353l-18.724 18.724c-.577.58-1.362.902-2.175.902z" fill="#4671c6"/></g><g fill="#3762cc"><path d="m76.589 61.995h-3.981v-12.952c0-2.752-2.239-4.991-4.99-4.991h-7.469v-34.927c0-1.104-.896-2-2-2s-2 .896-2 2v34.927h-7.471c-2.751 0-4.99 2.239-4.99 4.991v12.952h-3.981c-6.049 0-10.971 4.922-10.971 10.971v128.924c0 3.302 2.686 5.987 5.987 5.987h13.949v22.046h-13.95c-3.301 0-5.987 2.686-5.987 5.987v6.978c0 3.302 2.686 5.987 5.987 5.987h46.851c3.301 0 5.987-2.686 5.987-5.987v-6.978c0-3.302-2.686-5.987-5.987-5.987h-13.949v-22.046h13.949c3.301 0 5.987-2.686 5.987-5.987v-128.924c.001-6.049-4.921-10.971-10.971-10.971zm-28.901-12.952c0-.547.444-.991.99-.991h18.94c.546 0 .99.444.99.991v12.951h-20.92zm15.444 103.676h12.26v14.607h-34.489v-92.366c0-.546.444-.99.99-.99h32.508c.546 0 .991.444.991.99v13.949h-12.26c-1.104 0-2 .896-2 2s.896 2 2 2h12.26v15.937h-12.26c-1.104 0-2 .896-2 2s.896 2 2 2h12.26v15.937h-12.26c-1.104 0-2 .896-2 2s.896 2 2 2h12.26v15.937h-12.26c-1.104 0-2 .896-2 2s.895 1.999 2 1.999zm.492 51.158h-10.953v-18.928h10.953zm2.019-22.926c-.007 0-.013-.002-.019-.002h-14.953c-.017 0-.032.004-.049.005l-9.719.002v-9.63h34.489v9.623zm13.749-72.105v-15.937h4.168v15.937zm4.169 4v15.937h-4.168v-15.937zm-4.169 19.936h4.168v15.937h-4.168zm-44.67 71.095c-1.096 0-1.987-.892-1.987-1.987v-128.924c0-3.844 3.127-6.971 6.971-6.971h36.883c3.844 0 6.972 3.127 6.972 6.971v15.943h-4.168v-13.949c0-2.752-2.239-4.99-4.991-4.99h-32.508c-2.751 0-4.99 2.238-4.99 4.99v105.996c0 2.202 1.792 3.993 3.994 3.993h7.774v18.928zm48.839 32.033v6.978c0 1.096-.892 1.987-1.987 1.987h-46.852c-1.096 0-1.987-.892-1.987-1.987v-6.978c0-1.096.892-1.987 1.987-1.987h46.851c1.096 0 1.988.891 1.988 1.987zm-19.937-5.987h-10.953v-22.046h10.953zm17.949-26.046h-13.949v-18.928h7.774c2.202 0 3.994-1.791 3.994-3.993 0-9.746 0-6.523 0-28.237h4.168v49.171c.001 1.095-.891 1.987-1.987 1.987z"/><path d="m169.015 76c-26.626 0-49.676 17.853-56.358 43.521l-18.419 10.371c-1.595.898-2.547 2.527-2.547 4.357s.952 3.459 2.547 4.357l18.419 10.371c6.682 25.669 29.732 43.521 56.358 43.521 32.119 0 58.25-26.131 58.25-58.25s-26.131-58.248-58.25-58.248zm0 112.5c-25.07 0-46.735-16.99-52.686-41.318-.131-.537-.479-.996-.961-1.268l-19.167-10.792c-.46-.26-.51-.696-.51-.872s.05-.612.51-.871l19.167-10.793c.482-.271.83-.73.961-1.268 5.951-24.328 27.616-41.318 52.686-41.318 29.914 0 54.25 24.337 54.25 54.25s-24.336 54.25-54.25 54.25z"/><path d="m194.017 112.848h-4.298c-.241 0-.437-.196-.437-.437v-4.215c0-1.999-1.626-3.625-3.625-3.625h-33.911c-1.999 0-3.625 1.626-3.625 3.625v4.215c0 .24-.196.437-.437.437h-4.298c-1.999 0-3.625 1.626-3.625 3.625v19.249c0 6.964 2.13 13.646 6.159 19.326 3.696 5.209 8.778 9.23 14.697 11.629l7.333 2.972c.481.195 1.02.195 1.502 0l7.333-2.972c5.919-2.398 11.001-6.42 14.697-11.629 4.029-5.679 6.159-12.361 6.159-19.326v-19.249c0-1.999-1.626-3.625-3.624-3.625zm-.376 22.874c0 6.13-1.875 12.013-5.421 17.012-3.253 4.585-7.727 8.125-12.936 10.236l-6.582 2.667-6.582-2.667c-5.209-2.111-9.683-5.651-12.936-10.236-3.547-4.999-5.421-10.882-5.421-17.012v-18.874h3.922c2.447 0 4.437-1.99 4.437-4.437v-3.84h33.16v3.84c0 2.446 1.99 4.437 4.437 4.437h3.922z"/></g></g></svg>