<svg id="Layer_1" enable-background="new 0 0 256 256" height="512" viewBox="0 0 256 256" width="512" xmlns="http://www.w3.org/2000/svg"><g><g><path d="m128 251.5h113.88c2.735 0 4.951-2.217 4.951-4.951v-146.806c0-2.735-2.217-4.951-4.951-4.951h-105.03c-4.888 0-8.85 3.962-8.85 8.85z" fill="#4671c6"/><path d="m128 251.5h-113.88c-2.735 0-4.951-2.217-4.951-4.951v-146.806c0-2.735 2.217-4.951 4.951-4.951h105.03c4.888 0 8.85 3.962 8.85 8.85z" fill="#4671c6"/><path d="m227.026 86.622v8.17h-99.026-99.026v-8.17c-7.592.825-8.029 8.17-8.029 8.17v148.538h8.029 99.026 99.026 8.029v-148.538s-.437-7.345-8.029-8.17z" fill="#6bdddd"/><path d="m119.863 86.622h-90.889v148.539h90.997c7.592.825 8.029 8.17 8.029 8.17v-148.572c0-4.494-3.643-8.137-8.137-8.137z" fill="#e0ebfc"/><path d="m136.029 235.161h90.997v-148.539h-90.889c-4.494 0-8.137 3.643-8.137 8.137v148.571c0-.009.441-7.345 8.029-8.169z" fill="#e0ebfc"/><g fill="#6bdddd"><path d="m213.987 153.721h-70.308c-1.914 0-3.466-1.552-3.466-3.466 0-1.914 1.552-3.466 3.466-3.466h70.308c1.914 0 3.466 1.552 3.466 3.466 0 1.914-1.551 3.466-3.466 3.466z"/><path d="m213.987 173.526h-70.308c-1.914 0-3.466-1.552-3.466-3.466 0-1.914 1.552-3.466 3.466-3.466h70.308c1.914 0 3.466 1.552 3.466 3.466 0 1.914-1.551 3.466-3.466 3.466z"/><path d="m213.987 194.916h-70.308c-1.914 0-3.466-1.552-3.466-3.466 0-1.914 1.552-3.466 3.466-3.466h70.308c1.914 0 3.466 1.552 3.466 3.466 0 1.914-1.551 3.466-3.466 3.466z"/><path d="m213.987 214.721h-70.308c-1.914 0-3.466-1.552-3.466-3.466 0-1.914 1.552-3.466 3.466-3.466h70.308c1.914 0 3.466 1.552 3.466 3.466 0 1.914-1.551 3.466-3.466 3.466z"/><path d="m113.641 193.331h-70.308c-1.914 0-3.466-1.552-3.466-3.466 0-1.914 1.552-3.466 3.466-3.466h70.308c1.914 0 3.466 1.552 3.466 3.466 0 1.915-1.552 3.466-3.466 3.466z"/><path d="m113.641 213.136h-70.308c-1.914 0-3.466-1.552-3.466-3.466 0-1.914 1.552-3.466 3.466-3.466h70.308c1.914 0 3.466 1.552 3.466 3.466 0 1.915-1.552 3.466-3.466 3.466z"/><path d="m113.641 153.721h-70.308c-1.914 0-3.466-1.552-3.466-3.466 0-1.914 1.552-3.466 3.466-3.466h70.308c1.914 0 3.466 1.552 3.466 3.466 0 1.914-1.552 3.466-3.466 3.466z"/><path d="m113.641 173.526h-70.308c-1.914 0-3.466-1.552-3.466-3.466 0-1.914 1.552-3.466 3.466-3.466h70.308c1.914 0 3.466 1.552 3.466 3.466 0 1.914-1.552 3.466-3.466 3.466z"/></g></g><path d="m199.353 47.683v-39.796c0-1.871-1.516-3.387-3.387-3.387h-109.51c-4.209 0-7.621 3.412-7.621 7.621v31.329c0 4.209 3.412 7.621 7.621 7.621h109.511c1.87-.001 3.386-1.517 3.386-3.388z" fill="#e0ebfc"/><path d="m139.8 35.829v-16.088c0-1.403-1.137-2.54-2.54-2.54h-71.126c-1.403 0-2.54 1.137-2.54 2.54v16.088c0 1.403 1.137 2.54 2.54 2.54h71.126c1.403 0 2.54-1.137 2.54-2.54z" fill="#e0ebfc"/><path d="m168.307 11.438h-80.158c-1.403 0-2.54 1.137-2.54 2.54v27.613c0 1.403 1.137 2.54 2.54 2.54h80.157v-32.693z" fill="#a4c9ff"/><path d="m194.405.713h12.701v54.144h-12.701z" fill="#6bdddd" transform="matrix(0 -1 1 0 172.971 228.541)"/><path d="m234.178 7.887v39.796c0 1.871-1.516 3.387-3.387 3.387h-5.927c-1.871 0-3.387-1.516-3.387-3.387v-39.796c0-1.871 1.516-3.387 3.387-3.387h5.927c1.871 0 3.387 1.516 3.387 3.387z" fill="#4671c6"/><path d="m178.185 11.438h-9.879v32.694h9.879c.935 0 1.693-.758 1.693-1.693v-29.307c.001-.935-.758-1.694-1.693-1.694z" fill="#4671c6"/><g fill="#3762cc"><path d="m21.821 29.785h39.772v6.044c0 2.503 2.037 4.54 4.54 4.54h10.701v3.081c0 5.305 4.316 9.62 9.621 9.62h109.511c2.971 0 5.387-2.416 5.387-5.387v-11.547h18.124v11.548c0 2.971 2.416 5.387 5.387 5.387h5.928c2.971 0 5.387-2.416 5.387-5.387v-39.797c0-2.971-2.416-5.387-5.387-5.387h-5.928c-2.971 0-5.387 2.416-5.387 5.387v11.548h-18.124v-11.548c0-2.971-2.416-5.387-5.387-5.387h-109.51c-5.305 0-9.621 4.315-9.621 9.62v3.081h-10.701c-2.503 0-4.54 2.037-4.54 4.54v6.044h-39.773c-1.104 0-2 .896-2 2s.896 2 2 2zm201.657 4.351v-12.701-13.548c0-.765.622-1.387 1.387-1.387h5.928c.765 0 1.387.622 1.387 1.387v39.797c0 .765-.622 1.387-1.387 1.387h-5.928c-.765 0-1.387-.622-1.387-1.387zm-22.124-10.701h18.124v8.701h-18.124zm-4 8.701h-15.475v-8.701h15.475zm-116.519 6.233v-21.168-5.081c0-3.099 2.521-5.62 5.621-5.62h13.24v17.052c0 1.104.896 2 2 2s2-.896 2-2v-17.052h12.936v17.052c0 1.104.896 2 2 2s2-.896 2-2v-17.052h12.935v17.052c0 1.104.896 2 2 2s2-.896 2-2v-17.052h12.935v17.052c0 1.104.896 2 2 2s2-.896 2-2v-17.052h41.466c.765 0 1.387.622 1.387 1.387v11.548h-15.475v-6.303c0-2.036-1.657-3.693-3.693-3.693h-9.879c-1.104 0-2 .896-2 2v32.693c0 1.104.896 2 2 2h9.879c2.036 0 3.693-1.657 3.693-3.693v-6.303h15.475v11.548c0 .765-.622 1.387-1.387 1.387h-109.512c-3.1 0-5.621-2.521-5.621-5.62zm97.044-24.931v7.996 12.701 7.996h-7.572v-28.693zm-112.285 6.303c0-.298.242-.54.54-.54h10.701v17.168h-10.701c-.298 0-.54-.242-.54-.54z"/><path d="m241.88 92.791h-5.171c-1.198-4.57-4.526-7.62-9.468-8.157-.071-.008-.144-.012-.216-.012h-90.889c-3.251 0-6.305 1.634-8.138 4.09-1.86-2.504-4.909-4.09-8.136-4.09-.505 0-90.774-.022-91.276.039-.007.001-.015.002-.022.003-4.616.568-8.031 3.42-9.274 8.126h-5.17c-3.833 0-6.951 3.119-6.951 6.952v146.806c0 3.833 3.118 6.951 6.951 6.951h113.88 113.88c3.833 0 6.951-3.118 6.951-6.951v-146.805c0-3.833-3.118-6.952-6.951-6.952zm-218.935 2.091c.25-2.336 1.606-4.72 4.029-5.721v146c0 1.104.896 2 2 2h90.883c3.447.412 4.963 2.5 5.629 4.169h-102.541zm103.055 154.618h-111.88c-1.627 0-2.951-1.324-2.951-2.951v-146.806c0-1.628 1.324-2.952 2.951-2.952h4.825v146.539c0 1.104.896 2 2 2h105.055zm0-14.022c-1.438-1.161-3.339-2.036-5.813-2.305-.071-.008-.144-.012-.216-.012h-88.996v-144.539h88.889c3.378 0 6.137 2.763 6.137 6.137v140.719zm103.025-.317v-145.989c2.439 1.019 3.785 3.399 4.029 5.708v146.45h-102.541c.667-1.671 2.183-3.757 5.63-4.169h90.883c1.104 0 1.999-.895 1.999-2zm-99.025-140.402c0-3.391 2.785-6.137 6.137-6.137h88.889v144.539h-88.996c-.072 0-.145.004-.216.012-2.503.271-4.395 1.154-5.813 2.302v-140.716zm114.831 151.79c0 1.627-1.324 2.951-2.951 2.951h-111.88v-4.17h105.055c1.104 0 2-.896 2-2v-146.539h4.825c1.627 0 2.951 1.324 2.951 2.952z"/></g><g><g><path d="m78.487 67.5c-1.381 0-2.5-1.119-2.5-2.5v-5c0-1.381 1.119-2.5 2.5-2.5s2.5 1.119 2.5 2.5v5c0 1.381-1.119 2.5-2.5 2.5z" fill="#a4c9ff"/></g><g><path d="m78.487 120.643c-1.381 0-2.5-1.119-2.5-2.5v-8.857c0-1.381 1.119-2.5 2.5-2.5s2.5 1.119 2.5 2.5v8.857c0 1.381-1.119 2.5-2.5 2.5zm0-17.714c-1.381 0-2.5-1.119-2.5-2.5v-8.857c0-1.381 1.119-2.5 2.5-2.5s2.5 1.119 2.5 2.5v8.857c0 1.381-1.119 2.5-2.5 2.5zm0-17.715c-1.381 0-2.5-1.119-2.5-2.5v-8.857c0-1.381 1.119-2.5 2.5-2.5s2.5 1.119 2.5 2.5v8.857c0 1.381-1.119 2.5-2.5 2.5z" fill="#a4c9ff"/></g><g><path d="m78.487 134.5c-1.381 0-2.5-1.119-2.5-2.5v-5c0-1.381 1.119-2.5 2.5-2.5s2.5 1.119 2.5 2.5v5c0 1.381-1.119 2.5-2.5 2.5z" fill="#a4c9ff"/></g></g><g><g><path d="m178.833 67.5c-1.381 0-2.5-1.119-2.5-2.5v-5c0-1.381 1.119-2.5 2.5-2.5s2.5 1.119 2.5 2.5v5c0 1.381-1.119 2.5-2.5 2.5z" fill="#a4c9ff"/></g><g><path d="m178.833 120.643c-1.381 0-2.5-1.119-2.5-2.5v-8.857c0-1.381 1.119-2.5 2.5-2.5s2.5 1.119 2.5 2.5v8.857c0 1.381-1.119 2.5-2.5 2.5zm0-17.714c-1.381 0-2.5-1.119-2.5-2.5v-8.857c0-1.381 1.119-2.5 2.5-2.5s2.5 1.119 2.5 2.5v8.857c0 1.381-1.119 2.5-2.5 2.5zm0-17.715c-1.381 0-2.5-1.119-2.5-2.5v-8.857c0-1.381 1.119-2.5 2.5-2.5s2.5 1.119 2.5 2.5v8.857c0 1.381-1.119 2.5-2.5 2.5z" fill="#a4c9ff"/></g><g><path d="m178.833 134.5c-1.381 0-2.5-1.119-2.5-2.5v-5c0-1.381 1.119-2.5 2.5-2.5s2.5 1.119 2.5 2.5v5c0 1.381-1.119 2.5-2.5 2.5z" fill="#a4c9ff"/></g></g></g></svg>