<svg id="Layer_1" enable-background="new 0 0 256 256" height="512" viewBox="0 0 256 256" width="512" xmlns="http://www.w3.org/2000/svg"><g><path d="m232.651 112.739c-4.162 0-7.545 3.186-7.937 7.246h-12.581c-1.63-17.323-8.477-33.128-18.969-45.815l8.89-8.89c1.475 1.215 3.261 1.858 5.069 1.858 2.051 0 4.102-.783 5.667-2.348 3.131-3.13 3.131-8.205.001-11.335l-5.122-5.123s-.001 0-.001-.001c0 0-.001 0-.001-.001l-5.122-5.122c-3.129-3.13-8.205-3.131-11.335-.001-2.944 2.944-3.083 7.588-.49 10.736l-8.89 8.89c-12.687-10.492-28.492-17.338-45.815-18.969v-12.58c4.06-.393 7.246-3.775 7.246-7.937 0-4.427-3.588-8.015-8.015-8.015h-14.492c-4.427 0-8.015 3.588-8.015 8.015 0 4.164 3.186 7.545 7.247 7.937v12.58c-17.323 1.63-33.128 8.477-45.815 18.969l-8.89-8.89c2.594-3.149 2.455-7.791-.488-10.735-3.129-3.13-8.204-3.131-11.335-.001l-5.122 5.122c-.001.001-.002.001-.003.002s-.001.002-.002.003l-5.121 5.12c-3.131 3.13-3.131 8.205-.001 11.335 1.565 1.565 3.616 2.348 5.668 2.348 1.807 0 3.595-.644 5.069-1.859l8.89 8.89c-10.492 12.687-17.339 28.492-18.969 45.815h-12.58c-.392-4.06-3.774-7.246-7.937-7.246-4.427 0-8.015 3.589-8.015 8.015v14.492c0 4.427 3.588 8.015 8.015 8.015 4.163 0 7.545-3.185 7.937-7.246h12.58c1.63 17.323 8.477 33.128 18.969 45.815l-8.89 8.89c-3.147-2.594-7.792-2.455-10.737.489-3.13 3.13-3.13 8.205.001 11.335l5.121 5.121c.001.001.001.002.002.003.001 0 .002.001.003.002l5.122 5.122c1.564 1.565 3.616 2.347 5.667 2.347s4.103-.783 5.668-2.348c2.943-2.943 3.082-7.587.488-10.735l8.89-8.891c12.687 10.492 28.492 17.339 45.815 18.969v12.58c-4.061.393-7.247 3.774-7.247 7.938 0 4.427 3.588 8.015 8.015 8.015h14.492c4.427 0 8.015-3.588 8.015-8.015 0-4.163-3.185-7.545-7.246-7.937v-12.581c17.323-1.63 33.128-8.477 45.815-18.969l8.89 8.89c-2.593 3.149-2.454 7.792.49 10.737 1.564 1.565 3.616 2.347 5.667 2.347s4.103-.783 5.668-2.348l5.122-5.123h.001s0 0 .001-.001l5.122-5.123c3.13-3.13 3.13-8.205-.001-11.335-2.943-2.943-7.586-3.082-10.735-.489l-8.89-8.89c10.492-12.687 17.339-28.492 18.969-45.815h12.58c.393 4.061 3.775 7.246 7.937 7.246 4.426 0 8.015-3.588 8.015-8.015v-14.492c0-4.425-3.589-8.013-8.015-8.013z" fill="#4671c6"/><circle cx="128" cy="128" fill="#a4c9ff" r="64.395"/><circle cx="128" cy="128" fill="#6bdddd" r="55.395"/><g fill="#e0ebfc"><circle cx="128" cy="99.654" r="17.489"/><circle cx="128" cy="156.346" r="14.866"/><circle cx="159.181" cy="128" r="14.866"/><circle cx="96.819" cy="128" r="15.784"/></g><g><path d="m135.245 242.667h-14.492c-5.522 0-10.015-4.493-10.015-10.015 0-4.539 3.011-8.387 7.247-9.589v-9.127c-16.007-1.844-31.036-8.066-43.675-18.083l-6.449 6.45c2.146 3.845 1.553 8.693-1.656 11.902-3.92 3.919-10.257 3.91-14.163 0l-5.096-5.095c-.022-.022-.045-.044-.066-.067l-5.085-5.085c-3.907-3.905-3.923-10.24-.001-14.163 3.211-3.21 8.06-3.803 11.903-1.656l6.45-6.45c-10.017-12.638-16.239-27.667-18.083-43.674h-9.128c-1.201 4.236-5.049 7.247-9.588 7.247-5.522 0-10.015-4.493-10.015-10.015v-14.493c0-5.522 4.492-10.015 10.015-10.015 4.538 0 8.387 3.01 9.588 7.246h9.128c1.844-16.007 8.066-31.035 18.083-43.673l-6.449-6.449c-4.003 2.241-8.81 1.437-11.904-1.658-3.915-3.915-3.913-10.248.001-14.164 10.418-10.417-.165.166 10.248-10.247 3.91-3.91 10.251-3.914 14.163.001 3.208 3.208 3.801 8.057 1.654 11.901l6.45 6.45c12.639-10.016 27.667-16.239 43.675-18.083v-9.128c-4.236-1.201-7.247-5.049-7.247-9.588 0-5.522 4.492-10.015 10.015-10.015h14.492c5.522 0 10.016 4.493 10.016 10.015 0 4.539-3.01 8.387-7.246 9.588v9.128c16.008 1.844 31.036 8.066 43.674 18.083l6.449-6.45c-2.146-3.844-1.552-8.693 1.658-11.903 3.91-3.91 10.25-3.913 14.162.001 6.672 6.671 3.624 3.623 10.247 10.247 3.924 3.924 3.905 10.257-.001 14.163-3.12 3.121-7.931 3.88-11.903 1.657l-6.448 6.449c10.016 12.638 16.238 27.666 18.083 43.673h9.128c1.201-4.236 5.049-7.246 9.588-7.246 5.522 0 10.015 4.493 10.015 10.015v14.493c0 5.522-4.492 10.015-10.015 10.015-4.539 0-8.387-3.01-9.588-7.247h-9.128c-1.844 16.006-8.066 31.035-18.083 43.674l6.449 6.45c3.845-2.145 8.695-1.552 11.902 1.656 3.907 3.905 3.923 10.24.001 14.163l-5.122 5.123c-.015.015-.03.03-.046.045l-5.079 5.079c-3.912 3.914-10.249 3.915-14.162.001-3.21-3.209-3.803-8.059-1.657-11.904l-6.449-6.45c-12.639 10.017-27.667 16.239-43.675 18.083v9.128c4.236 1.202 7.246 5.05 7.246 9.588 0 5.525-4.493 10.018-10.016 10.018zm-61.075-51.502c.451 0 .903.151 1.274.459 12.774 10.563 28.241 16.967 44.729 18.519 1.027.097 1.813.959 1.813 1.991v12.58c0 1.03-.782 1.892-1.808 1.991-3.101.3-5.439 2.856-5.439 5.947 0 3.316 2.698 6.015 6.015 6.015h14.492c3.317 0 6.016-2.698 6.016-6.015 0-3.09-2.338-5.647-5.438-5.947-1.025-.099-1.808-.961-1.808-1.991v-12.581c0-1.032.785-1.895 1.813-1.991 16.488-1.552 31.955-7.956 44.729-18.519.793-.657 1.958-.604 2.688.127l8.89 8.89c.729.728.784 1.891.13 2.686-1.98 2.404-1.825 5.865.36 8.051 2.35 2.349 6.156 2.35 8.506-.001l5.122-5.123c.015-.015.03-.03.046-.045l5.079-5.08c2.351-2.352 2.351-6.156-.001-8.506-2.184-2.186-5.646-2.339-8.05-.36-.796.654-1.957.599-2.686-.13l-8.89-8.89c-.729-.729-.784-1.894-.127-2.688 10.563-12.775 16.968-28.242 18.519-44.729.097-1.027.959-1.813 1.991-1.813h12.58c1.03 0 1.892.782 1.991 1.808.299 3.101 2.855 5.439 5.946 5.439 3.316 0 6.015-2.698 6.015-6.015v-14.493c0-3.316-2.698-6.015-6.015-6.015-3.091 0-5.646 2.338-5.945 5.438-.1 1.025-.961 1.808-1.991 1.808h-12.581c-1.032 0-1.895-.785-1.991-1.813-1.552-16.488-7.956-31.954-18.519-44.728-.657-.795-.603-1.959.127-2.688l8.89-8.89c.729-.729 1.891-.783 2.686-.13 2.492 2.053 5.913 1.778 8.05-.359 2.352-2.351 2.352-6.154.001-8.506-2.557-2.558-7.655-7.655-10.247-10.247-1.136-1.136-2.646-1.762-4.253-1.762 0 0 0 0-.001 0-1.606 0-3.116.625-4.252 1.761-2.186 2.186-2.341 5.646-.36 8.05.654.795.599 1.958-.13 2.686l-8.891 8.891c-.73.73-1.896.784-2.688.127-12.772-10.563-28.239-16.967-44.728-18.519-1.027-.097-1.813-.959-1.813-1.991v-12.58c0-1.03.782-1.892 1.808-1.991 3.101-.3 5.438-2.856 5.438-5.947 0-3.316-2.698-6.015-6.016-6.015h-14.492c-3.316 0-6.015 2.698-6.015 6.015 0 3.091 2.339 5.647 5.439 5.947 1.025.099 1.808.96 1.808 1.991v12.58c0 1.032-.785 1.895-1.813 1.991-16.488 1.552-31.955 7.956-44.729 18.519-.795.656-1.959.603-2.688-.127l-8.891-8.891c-.729-.728-.784-1.891-.13-2.686 1.98-2.404 1.826-5.864-.358-8.049-2.347-2.348-6.156-2.352-8.506 0-3.692 3.692-6.541 6.541-10.248 10.247-2.352 2.35-2.352 6.155-.001 8.506 2.117 2.116 5.534 2.434 8.05.36.795-.654 1.958-.6 2.687.129l8.891 8.891c.729.729.784 1.894.127 2.688-10.563 12.774-16.968 28.24-18.519 44.728-.097 1.027-.959 1.813-1.991 1.813h-12.58c-1.03 0-1.892-.782-1.99-1.808-.3-3.101-2.856-5.438-5.947-5.438-3.316 0-6.015 2.698-6.015 6.015v14.493c0 3.316 2.698 6.015 6.015 6.015 3.091 0 5.647-2.338 5.946-5.439.1-1.025.961-1.808 1.991-1.808h12.58c1.032 0 1.895.785 1.991 1.813 1.551 16.488 7.955 31.955 18.519 44.729.657.795.603 1.959-.127 2.688l-8.891 8.891c-.729.729-1.892.784-2.687.129-2.402-1.981-5.862-1.827-8.05.36-2.351 2.351-2.351 6.155.001 8.505l5.121 5.122c.009.009.018.018.026.026l5.101 5.101c2.343 2.345 6.149 2.355 8.506-.001 2.185-2.185 2.339-5.645.358-8.048-.654-.795-.599-1.958.13-2.686l8.891-8.891c.389-.389.9-.586 1.414-.586z" fill="#3762cc"/></g><g><path d="m128 185.395c-31.647 0-57.395-25.747-57.395-57.395s25.748-57.395 57.395-57.395 57.395 25.748 57.395 57.395-25.748 57.395-57.395 57.395zm0-110.79c-29.441 0-53.395 23.953-53.395 53.395s23.954 53.395 53.395 53.395 53.395-23.953 53.395-53.395-23.954-53.395-53.395-53.395z" fill="#3762cc"/></g><g><path d="m128 119.143c-10.746 0-19.489-8.743-19.489-19.489s8.743-19.489 19.489-19.489 19.489 8.743 19.489 19.489-8.743 19.489-19.489 19.489zm0-34.978c-8.541 0-15.489 6.948-15.489 15.489s6.948 15.489 15.489 15.489 15.489-6.948 15.489-15.489-6.948-15.489-15.489-15.489z" fill="#3762cc"/></g><g><path d="m128 173.212c-9.3 0-16.865-7.566-16.865-16.865 0-9.3 7.565-16.866 16.865-16.866s16.865 7.566 16.865 16.866c0 9.299-7.565 16.865-16.865 16.865zm0-29.731c-7.094 0-12.865 5.771-12.865 12.866 0 7.094 5.771 12.865 12.865 12.865s12.865-5.771 12.865-12.865c0-7.095-5.771-12.866-12.865-12.866z" fill="#3762cc"/></g><g><path d="m159.181 144.866c-9.3 0-16.865-7.566-16.865-16.866s7.565-16.866 16.865-16.866 16.866 7.566 16.866 16.866-7.567 16.866-16.866 16.866zm0-29.732c-7.094 0-12.865 5.771-12.865 12.866s5.771 12.866 12.865 12.866c7.095 0 12.866-5.771 12.866-12.866s-5.772-12.866-12.866-12.866z" fill="#3762cc"/></g><g><path d="m96.819 145.784c-9.807 0-17.784-7.978-17.784-17.784s7.978-17.784 17.784-17.784 17.783 7.978 17.783 17.784-7.977 17.784-17.783 17.784zm0-31.568c-7.601 0-13.784 6.183-13.784 13.784s6.184 13.784 13.784 13.784 13.783-6.183 13.783-13.784-6.183-13.784-13.783-13.784z" fill="#3762cc"/></g></g></svg>